<?xml version="1.0" encoding="utf-8"?>
<!-- Generator: Adobe Illustrator 18.0.0, SVG Export Plug-In . SVG Version: 6.00 Build 0)  -->
<!DOCTYPE svg PUBLIC "-//W3C//DTD SVG 1.1//EN" "http://www.w3.org/Graphics/SVG/1.1/DTD/svg11.dtd">
<svg version="1.1" id="Ebene_1" xmlns="http://www.w3.org/2000/svg" xmlns:xlink="http://www.w3.org/1999/xlink" x="0px" y="0px"
	 viewBox="20 108.7 279.3 382.7" enable-background="new 20 108.7 279.3 382.7" xml:space="preserve">
<path fill="#CC6600" d="M152.5,282.3c-0.9-40.4-0.5-80.8,1.1-121.2c0-0.8,0.3-1.5,0.5-2.3l-8-0.4c0.1,1.2,0.3,2.4,0.3,3.6
	c-0.3,46.3-1.3,92.7,0.7,139l-0.5,216.8l8,0.4L152.5,282.3z"/>
<path fill="#FFCC66" d="M115.9,219c30.1,14,35.6,22.1,30.9,44.8c-5.7-3.2-11.3-6.6-17.1-9.8C117.4,247.3,112.7,235.8,115.9,219z"/>
<path fill="#FFCC66" d="M184.4,220.5c3,17.3-2.4,27.5-17.3,34.9c-5.1,2.5-10,5.8-14.8,8.6C147.5,241.5,154.6,231.6,184.4,220.5z"/>
<path fill="#FFCC66" d="M147.4,299.3c-16.9-11-38.2-18.3-31.4-44.4C141.4,261.4,148.4,270.9,147.4,299.3z"/>
<path fill="#FFCC66" d="M182,254.9c6.2,25.4-13.5,33.7-30.2,43.3C144.5,278.1,153.3,265.2,182,254.9z"/>
<path fill="#FFCC66" d="M153.6,115.1c15.4,19.7,14.8,30-3.1,50.3C135.5,142.1,136,132.9,153.6,115.1z"/>
<path fill="#FFCC66" d="M147.9,330.4c-18.1-8.3-35.5-16.4-31.2-40.5C143.3,299.1,148.4,305.7,147.9,330.4z"/>
<path fill="#FFCC66" d="M182.2,289.8c4.3,23.3-11.2,32.5-29,40C148.8,308.2,154,301.2,182.2,289.8z"/>
<path fill="#FFCC66" d="M116.6,183.5c29.8,14.7,35.1,22.7,29.9,45.5c-5.7-3.3-11.2-6.8-16.9-10.2C117.4,211.7,113,200.2,116.6,183.5
	z"/>
<path fill="#FFCC66" d="M118.6,146.7c29.4,15.4,34.5,23.7,28.7,46.3c-5.5-3.5-11.1-7.1-16.6-10.6
	C118.8,174.9,114.7,163.3,118.6,146.7z"/>
<path fill="#FFCC66" d="M184.3,184.9c3,17.3-2.4,27.5-17.3,34.9c-5.1,2.5-10,5.8-14.8,8.6C147.4,205.9,154.5,196,184.3,184.9z"/>
<path fill="#FFCC66" d="M185.1,149.2c3,17.3-2.4,27.5-17.3,34.9c-5.1,2.5-10,5.8-14.8,8.6C148.2,170.2,155.3,160.3,185.1,149.2z"/>
<path fill="#FFCC66" d="M173.7,342.5c7-6.4,9.6-15.6,7.1-24.3c-10.4,7.6-20.4,15-29.8,21.9c-10.8-6.7-21.3-13.2-32-19.9
	c0,0-0.5,0.4-0.7,0.9c-0.3,0.9-0.3,1.9-0.3,2.7c-0.1,13.1,8.8,19.7,18.9,24.9C137.1,348.8,154.9,355,173.7,342.5z"/>
<path fill="#CC6600" d="M149.1,464.4c-3.6-20.5-3.1-41.2-8.5-61.1c-5.1-18.7-12.4-37-20.9-54.4c-6.1-12.3-17.9-0.3-34.9,0.3
	c9.4,3.9,21,1.9,27,5.3c13.5,7.9,15.2,22.2,19.3,40.1c15.9,118.8,16.1,119.2,16.9,104.6C149.1,478.1,149.1,464.4,149.1,464.4z"/>
<path fill="#CC6600" d="M230.2,473.2c4-17.2,6.8-34.6,12.2-51.2c5.2-15.6,12.2-30.8,20.1-45.1c5.7-10.1,16-15.3,30.4-14.1
	c-26.8,9.3-32.6,31.9-38.7,53.6c0,0-22.3,98.7-22.3,86.5C231.9,484.8,230.2,473.2,230.2,473.2z"/>
<path fill="#CC6600" d="M228.9,166.7c0,0,5.3,35.7,9.8,74c3.8,32,7.4,65.9,3.9,82.4h-5.4l-0.6-34.8l-12-120.5L228.9,166.7z"/>
<path fill="#FFCC66" d="M261.9,216.1c-24.5,13.8-28.6,21-23.1,39.9c4.6-3.2,9.1-6.3,13.8-9.4C262.6,240.1,265.8,230.1,261.9,216.1z"
	/>
<path fill="#FFCC66" d="M204,221.9c-1.4,14.7,3.9,23.1,16.9,28.3c4.6,1.8,8.8,4.2,13.2,6.3C236.8,237.2,230.1,229.4,204,221.9z"/>
<path fill="#FFCC66" d="M240.8,286.1c13.5-10.4,31-17.9,23.6-39.7C243.1,253.7,238,262.2,240.8,286.1z"/>
<path fill="#FFCC66" d="M208.5,250.8c-3.5,21.9,13.7,27.6,28.5,34.6C241.8,268,233.4,257.6,208.5,250.8z"/>
<path fill="#FFCC66" d="M222,130.9c-11.8,17.7-10.5,26.3,5.9,42.3C239.1,152.6,238,144.8,222,130.9z"/>
<path fill="#FFCC66" d="M242.4,312.4c14.8-8.3,28.8-16.3,23.6-36.3C244.3,285.7,240.3,291.7,242.4,312.4z"/>
<path fill="#FFCC66" d="M210.8,280.3c-2.1,20,11.7,26.8,27.2,32C240.1,293.7,235.3,288.1,210.8,280.3z"/>
<path fill="#FFCC66" d="M259,186.1c-24.2,14.4-28.1,21.7-22.3,40.5c4.5-3.2,9-6.6,13.6-9.8C260.2,210,263.1,200,259,186.1z"/>
<path fill="#FFCC66" d="M253.6,155.3c-23.9,15-27.6,22.3-21.3,41c4.5-3.4,8.8-6.8,13.3-10.1C255.4,179.2,258.1,169.1,253.6,155.3z"
	/>
<path fill="#FFCC66" d="M200.7,191.9c-1.4,14.9,3.8,23.1,16.9,28.3c4.6,1.8,8.8,4.2,13.2,6.3C233.4,207.3,226.7,199.4,200.7,191.9z"
	/>
<path fill="#FFCC66" d="M197.6,161.8c-1.4,14.7,3.9,23.1,16.9,28.3c4.6,1.8,8.8,4.2,13.2,6.3C230.3,177.1,223.6,169.3,197.6,161.8z"
	/>
<path fill="#CC6600" d="M232.7,431.4c2.4-34.1,3.9-68.3,4.5-102.4c0-0.7-0.1-1.2-0.2-1.9h5.8c-0.1,1-0.2,2-0.3,3.1
	c-1.8,39.1-3,78.4-6.5,117.2l-3.3,82.7h-5.8L232.7,431.4z"/>
<path fill="#FFCC66" d="M221.5,325.2c-6.5-4.8-9.5-12.4-8.2-19.8c9.4,5.6,18.5,10.8,27.1,15.9c8.5-6.6,16.8-13.2,25.2-19.6
	c0,0,0.5,0.3,0.7,0.8c0.2,0.7,0.3,1.5,0.5,2.3c1.3,11-5.6,17.3-13.6,22.7C253,327.3,238.5,334.2,221.5,325.2z"/>
<path fill="#CC6600" d="M70.3,187.9c0,0-5.3,35.7-9.8,74c-3.8,32-7.4,65.9-3.9,82.4h5.4l0.6-34.8l12-120.5L70.3,187.9z"/>
<path fill="#FFCC66" d="M37.3,237.3c24.5,13.8,28.6,21,23.1,39.9c-4.6-3.2-9.1-6.3-13.8-9.4C36.8,261.3,33.6,251.3,37.3,237.3z"/>
<path fill="#FFCC66" d="M95.2,243.1c1.4,14.7-3.9,23.1-16.9,28.3c-4.6,1.8-8.8,4.2-13.2,6.3C62.5,258.4,69.1,250.5,95.2,243.1z"/>
<path fill="#FFCC66" d="M58.5,307.2c-13.5-10.4-31-17.9-23.6-39.7C56.1,274.9,61.2,283.4,58.5,307.2z"/>
<path fill="#FFCC66" d="M90.8,272c3.5,21.9-13.7,27.6-28.5,34.6C57.5,289.2,65.8,278.8,90.8,272z"/>
<path fill="#FFCC66" d="M77.3,152.1c11.8,17.7,10.5,26.3-5.9,42.3C60.1,173.7,61.2,166,77.3,152.1z"/>
<path fill="#FFCC66" d="M56.9,333.6c-14.8-8.3-28.8-16.3-23.6-36.3C55.1,306.9,59,312.8,56.9,333.6z"/>
<path fill="#FFCC66" d="M88.6,301.5c2.1,20-11.7,26.8-27.2,32C59.1,314.9,63.9,309.2,88.6,301.5z"/>
<path fill="#FFCC66" d="M40.2,207.3c24.2,14.4,28.1,21.5,22.3,40.5c-4.5-3.2-9-6.6-13.6-9.8C39.1,231.2,36.1,221.2,40.2,207.3z"/>
<path fill="#FFCC66" d="M45.7,176.5c23.8,15,27.4,22.3,21.2,40.9c-4.5-3.4-8.8-6.8-13.3-10.1C43.9,200.4,41.1,190.2,45.7,176.5z"/>
<path fill="#FFCC66" d="M98.6,213.1c1.4,14.7-3.9,23.1-16.9,28.3c-4.6,1.8-8.8,4.2-13.2,6.3C65.9,228.4,72.6,220.6,98.6,213.1z"/>
<path fill="#FFCC66" d="M101.6,183c1.4,14.7-3.9,23.1-16.9,28.3c-4.6,1.8-8.8,4.2-13.2,6.3C68.9,198.3,75.7,190.4,101.6,183z"/>
<path fill="#CC6600" d="M66.5,452.6c-2.4-34.1-3.9-68.3-4.5-102.4c0-0.7,0.1-1.2,0.2-1.9h-5.9c0.1,1,0.2,2,0.3,3.1
	c1.8,39.1,3,78.4,6.5,117.2l3.3,82.7h5.9L66.5,452.6z"/>
<path fill="#FFCC66" d="M77.7,346.4c6.5-4.8,9.5-12.4,8.2-19.8c-9.4,5.6-18.5,10.8-27.1,15.9c-8.5-6.6-16.8-13.2-25.2-19.6
	c0,0-0.5,0.3-0.7,0.8c-0.2,0.7-0.3,1.5-0.5,2.3c-1.3,11,5.6,17.3,13.6,22.7C46.3,348.4,60.7,355.4,77.7,346.4z"/>
</svg>
