<?xml version="1.0" encoding="utf-8"?>
<!-- Generator: Adobe Illustrator 18.0.0, SVG Export Plug-In . SVG Version: 6.00 Build 0)  -->
<!DOCTYPE svg PUBLIC "-//W3C//DTD SVG 1.1//EN" "http://www.w3.org/Graphics/SVG/1.1/DTD/svg11.dtd">
<svg version="1.1" id="Ebene_1" xmlns="http://www.w3.org/2000/svg" xmlns:xlink="http://www.w3.org/1999/xlink" x="0px" y="0px"
	 viewBox="0 0 500 634" enable-background="new 0 0 500 634" xml:space="preserve">
<g>
	<path fill="#89B450" d="M74.4,152.9L274,194.3c21.3,4.5,35.1,25.3,30.8,46.8l-1.2,5.9c-4.5,21.3-25.3,35.1-46.8,30.8L57.2,236.2
		c-21.3-4.5-35.1-25.3-30.8-46.8l1.2-5.9C32,162.3,53.1,148.5,74.4,152.9z"/>
	<path fill="#BE1823" d="M74.4,152.9l101.3,20.9l-17.4,83.3L57,236.2c-21.3-4.5-35.1-25.3-30.8-46.8l1.2-5.9
		C32,162.3,53.1,148.5,74.4,152.9z"/>
</g>
<g>
	<path fill="#89B450" d="M165.4,389.7l192.5-66.9c20.5-7.1,43.2,3.9,50.3,24.3l2,5.7c7.1,20.5-3.9,43.2-24.3,50.3l-192.5,66.9
		c-20.5,7.1-43.2-3.9-50.3-24.3l-2-5.7C134,419.5,144.9,397,165.4,389.7z"/>
	<path fill="#BE1823" d="M165.4,389.7l97.7-33.8l28,80.5l-97.7,33.8c-20.5,7.1-43.2-3.9-50.3-24.3l-2-5.7
		C134,419.5,144.9,397,165.4,389.7z"/>
</g>
<g>
	<path fill="#89B450" d="M417.5,188l-188.1-78.6c-20.1-8.3-29.6-31.6-21.3-51.7l2.4-5.7c8.3-20.1,31.6-29.6,51.7-21.3l188.1,78.6
		c20.1,8.3,29.6,31.6,21.3,51.7l-2.4,5.7C460.9,186.8,437.6,196.3,417.5,188z"/>
	<path fill="#BE1823" d="M417.5,188L322,148.1l32.8-78.6l95.5,39.9c20.1,8.3,29.6,31.6,21.3,51.7l-2.4,5.7
		C460.9,186.8,437.6,196.3,417.5,188z"/>
</g>
<g>
	<path fill="#89B450" d="M335.3,581.7l-200.9,34.6c-21.4,3.7-42-10.8-45.6-32.2l-1.1-5.9c-3.7-21.4,10.8-42,32.2-45.6L320.8,498
		c21.4-3.7,42,10.8,45.6,32.2l1.1,5.9C371.2,557.4,356.7,577.8,335.3,581.7z"/>
	<path fill="#BE1823" d="M335.3,581.7l-101.9,17.5l-14.5-83.9l101.9-17.5c21.4-3.7,42,10.8,45.6,32.2l1.1,5.9
		C371.2,557.4,356.7,577.8,335.3,581.7z"/>
</g>
</svg>
