<?xml version="1.0" encoding="utf-8"?>
<!-- Generator: Adobe Illustrator 18.0.0, SVG Export Plug-In . SVG Version: 6.00 Build 0)  -->
<!DOCTYPE svg PUBLIC "-//W3C//DTD SVG 1.1//EN" "http://www.w3.org/Graphics/SVG/1.1/DTD/svg11.dtd">
<svg version="1.1" id="Ebene_1" xmlns="http://www.w3.org/2000/svg" xmlns:xlink="http://www.w3.org/1999/xlink" x="0px" y="0px"
	 viewBox="0 0 683.1 632.6" enable-background="new 0 0 683.1 632.6" xml:space="preserve">
<g>
	<path fill="#3B2515" d="M423.1,78.6c-1,9.4-3.8,18-8.3,26.2c-3.4,6.2-6.5,12.6-9.4,19.1c-0.8,1.7-0.7,3.9-0.6,5.9
		c0.3,11.6,0.7,23.2,1.1,34.8c0,0.7,0.3,1.4,0.7,3c5.8-10.5,11.1-20.2,16.5-29.9c2.8,0.4,2.9,1.8,2,3.9c-3.6,8.8-7,17.6-10.5,26.4
		c-2.6,6.6-2.7,13.2,0,19.7c3.5,8.5,7.1,17,10.9,25.9c9.1-8.5,18.3-16.2,24-26.6c2.9-5.3,3.6-12.2,4.1-18.5
		c1.2-15.2,1.8-30.4,2.4-45.6c0.1-1.7-1-3.8-2.2-5.2c-5-5.8-8.8-12.3-11.6-19.4c0.2-0.3,0.5-0.6,0.7-0.8c1.1,0.9,2.4,1.5,3.1,2.6
		c3.1,4.2,6.1,8.5,10.1,12.6c0.9-7.2,2-14.3,2.8-21.5c0.6-5.7,0.8-11.4,1.5-17.1c0.1-0.9,1.5-1.6,2.3-2.4c0.4,0.2,0.8,0.5,1.2,0.7
		c-0.5,33.9-1,67.8-1.6,102.1c14-9.6,28.6-18.3,33.7-36.1c1.8-6.3,2-11.8-3.1-17.2c-5.5-5.8-8.2-13.3-8.3-21.5
		c-0.1-3.9-0.6-7.7-0.5-11.6c1,3.3,1.6,6.8,3.1,9.9c3.8,8,7.7,15.9,12,23.6c0.8,1.4,3.3,1.7,5.3,2.7c3.1-13,5.9-25.2,9.1-38.4
		c3.9,19.7-4.5,36.5-9.2,55.2c6.7-2.3,12.4-4.1,18-6.2c1.2-0.5,2.1-2.1,2.7-3.3c8.3-16.5,16.5-33,24.8-49.5c0.2-0.3,0.4-0.6,0.6-0.9
		c0.4,0.1,0.8,0.2,1.1,0.3c-2.7,10-5.5,19.9-8.2,29.9c0.3,0.3,0.6,0.6,1,0.9c1.9-1.5,4.5-2.6,5.6-4.5c3.8-6.2,7.1-12.8,10.7-19.2
		c0.7-1.2,1.9-2.2,3.3-2.9c-2.5,14.5-7.7,27.1-22.9,32.2c-2.8,0.9-4.6,2.5-5.6,5.3c-4.4,13.1-13.7,20.8-27,23.8
		c-4.4,1-7.3,3.3-9.8,7.1c-9.3,14.1-22.2,24.6-35.4,34.7c-1.7,1.3-3.1,2.9-4.4,4.5c-15.4,19.3-30.8,38.7-46.1,58.1
		c-0.4,0.5-0.8,1-1.7,2.1c4.6,0,8.7,0.4,12.6-0.1c12.8-1.5,25.5-3.3,38.2-5.1c1.1-0.1,2.1-0.8,3-1.3c17.4-10.6,34.7-21.2,52.2-31.7
		c2-1.2,2.9-2.5,2.9-5c0.3-12.6,0.9-25.2,1.4-37.8c0-0.7,0.1-1.5,0.4-2.2c4.9-9.2,9.8-18.4,14.7-27.7c0.3,0.1,0.6,0.2,0.9,0.3
		c-1.4,5.2-2.7,10.5-4.1,15.7c-0.2,0.7-0.4,1.5-0.7,2.1c-7,11.9-5.1,24.4-2.7,37c0.5,2.7,0.9,5.4,1.4,8.7c1.6-0.9,2.9-1.7,4.2-2.5
		c5.4-3.3,10.7-6.9,16.3-9.9c4.3-2.3,7-5.7,8.9-10.1c2.7-6.3,5.7-12.5,8.6-18.7c0.5-1.1,1.2-2.1,2.5-2.8c-1.6,5.9-3.1,11.8-4.9,18.5
		c15.5-4.7,25.8-16.2,38-24.7c-5.2,8.8-12.3,15.8-20,22.4c-15.7,13.3-33.3,23.8-50.7,34.6c-6.3,3.9-12.6,8-18.9,12
		c0,0.4,0,0.8,0,1.1c3.5,0.9,7.1,2,10.7,2.7c6.2,1.3,12.5,2.5,18.7,3.4c6.1,1,12-0.8,17.4-3.4c14.2-6.9,28.3-14.2,42.4-21.4
		c1.9-0.9,3.7-2,5.7-3c0.9,3-0.1,4.7-2.5,6.1c-6.5,3.9-12.9,8-19.4,12.1c-1.1,0.7-2.2,1.6-4.1,2.9c2.4,0.9,4.2,1.9,6,2.2
		c7.4,1.4,14.7,2.7,22.1,3.7c2,0.3,4.4-0.3,6.2-1.4c10.1-6,20.1-12.2,30.1-18.2c1.2-0.7,2.9-0.8,4.3-1.1c0.2,0.4,0.4,0.9,0.6,1.3
		c-4.6,3.3-9.2,6.7-13.8,10c-6.7,4.8-13.3,9.7-20.2,14.3c-1.5,1-3.7,1.8-5.5,1.7c-11.6-0.7-23.2-2.2-34.7-2.5
		c-6.9-0.2-14,0.7-20.7,2.3c-5.9,1.4-11.5,2.1-17.6,1.3c-7.1-1-14.4-1-21.6-1.5c-4.4-0.3-8.8-0.4-13.1-1.1
		c-3.8-0.6-6.9,0.1-10.2,2.1c-15.4,9.3-31.3,17.9-48.6,23.1c-9.2,2.7-19.1,3.6-28.6,5.1c-5.5,0.9-11.1,1.6-16.7,2.4
		c-4.4,0.7-8.1,2.4-11,6.2c-8.4,10.9-17.2,21.4-25.8,32.2c-4.5,5.6-4.6,6.2-4.5,14.5c2.1-2.1,4-3.6,5.5-5.4c3-3.4,6.5-5.7,10.7-7.2
		c15.7-5.6,31.1-11.6,41.2-26.4c0.5,0.4,1,0.9,1.5,1.3c-1.3,2.8-2.3,5.9-4.1,8.4c-6.4,8.7-14.9,14.5-25.1,17.9
		c-2.9,1-5.7,2.5-8.8,3.9c1.8,2.9,3.4,5.3,7.1,6c4.8,0.9,9.5,2.1,14.1,3.5c2,0.6,3.8,1.9,5.7,2.9c-0.1,0.3-0.3,0.7-0.4,1
		c-8.1-1.2-16.3-2.1-24.2-3.9c-2.4-0.5-4.2-3.6-6.6-5.8c-3.7,5.5-7.2,11.1-11.2,16.3c-5.3,6.8-8.3,14-8.5,22.9
		c-0.4,13.5-1.8,26.9-2.8,41c3.2-2.7,6-5.1,8.8-7.5c22.4-19.4,44.8-38.7,67.2-58.1c1.6-1.4,3.1-3.4,3.8-5.4c3.4-10,6.8-20,9.5-30.3
		c1.1-4.2,0.2-8.9,0.2-14.1c1.8,1.1,3.1,1.9,4.6,2.8c1.4-5.2,2.7-10.5,4.2-16.1c4.2,2.1,3.8,5.3,3,8.5c-2.6,9.9-5.4,19.7-8,29.6
		c-0.6,2.3-0.9,4.8-1.4,7.2c0.3,0.1,0.6,0.2,0.9,0.4c4-5.9,8-11.9,12-17.8c7.5-11.2,15.1-22.4,22.6-33.6c0.5-0.7,0.9-1.7,1.6-2
		c6.6-3.3,13.2-6.5,19.9-9.5c0.7-0.3,1.9,0.4,3.7,0.8c-6.7,4.5-12.8,8.4-18.6,12.6c-2,1.5-3.9,3.5-5.1,5.7
		c-5.8,10-11.5,20.2-17.6,31.2c2.7-1.1,4.7-1.9,6.6-2.7c3-1.3,6.2-2.2,8.9-3.8c8.1-4.8,16.7-3.3,25.3-3.3c0.1,0.3,0.2,0.7,0.3,1
		c-2,0.6-4.1,1.9-6,1.5c-9.3-1.6-15.8,3.8-23.3,8.9c5.1,1.3,9.6,2.4,14.2,3.6c-0.2,2.1-0.9,3.3-3.3,2.3c-11.3-4.7-20.8-0.1-30,5.8
		c-0.7,0.4-1.3,1.2-1.7,1.9c-4.5,6.9-9,13.8-13.6,20.8c26.5,2.1,52.4,2.2,73.9-17.5c0.2,0.4,0.5,0.9,0.7,1.3c-1,1.4-2.1,2.7-3.1,4.1
		c-10.2,13.2-23.8,19.8-40.3,20.7c-7.4,0.4-14.7,0.9-22.1,0.7c-7.2-0.1-13.8,1.5-20.3,4.4c-8.5,3.9-16.7,8.1-22.9,15.3
		c-2.3,2.7-4,5.9-6.4,9.4c4.4,0.8,7.8,1.4,11.2,2.1c10.6,2.4,21.1,4.8,31.7,7.2c5.1,1.2,10.2,2.9,15.3,3.2c3.7,0.3,7.6-0.9,11.2-2.1
		c12.5-4.1,23.1-11.4,32.3-20.5c10.1-9.9,19.5-20.4,29.1-30.7c0.8-0.9,1.2-2.4,1.3-3.7c0.6-11.4,1.1-22.7,1.8-34.1
		c0.1-1.5,0.4-3.3,1.2-4.6c7.5-10.9,15.1-21.7,22.6-32.5c0.3,0.1,0.6,0.2,0.9,0.3c-1.4,4.5-2.5,9-4.1,13.3c-1.2,3.2-2.8,6.6-4.9,9.2
		c-8.8,10.6-5.8,22.8-5.8,35.5c1.5-0.6,3-0.8,3.5-1.5c8.1-13.6,21-22.2,33.2-31.5c5.5-4.2,11.3-8.1,17.2-12.4c0.4,1.4,0.7,2.2,1,3.1
		c15.8-5.8,30.8-13.7,47.9-15.3c-4.3,2.2-8.6,4.5-12.9,6.7c-21.5,11.1-42.4,23.3-61.2,38.7c-16.2,13.2-30,28.6-42.2,45.5
		c-0.3,0.4-0.5,0.8-1.4,2.3c13.5-0.6,26-0.8,38.5-1.8c7.8-0.6,15.6-2.1,23.3-3.3c1.8-0.3,3.6-1,5.1-2c13.3-9.1,26.5-18.3,39.8-27.4
		c1.1-0.8,2.8-0.9,4.2-1.3c0.2,0.4,0.3,0.8,0.5,1.2c-8.5,7.4-17,14.9-26.3,23c2,0,2.9,0.1,3.8,0c12-1.2,23.3,2.2,34.5,5.5
		c3.7,1.1,6.5,5.5,9.7,8.3c-0.2,0.3-0.3,0.6-0.5,0.8c-7.3-2-14.7-3.8-21.9-6.2c-10.2-3.4-20.6-1.5-30.9-1.9c-1.1,0-2.7,1.1-3.2,2.1
		c-5.2,9.3-13.8,10.6-23.2,10.3c-7-0.2-13.9,0-20.9,0c-0.1,0.5-0.1,0.9-0.2,1.4c0.6,0.5,1.1,1,1.8,1.4c7,4.3,13.9,8.9,21.1,12.8
		c3.7,2,4.6,4.4,3.1,8.4c-7.2-4.3-14.3-8.6-21.4-12.9c-0.2-0.1-0.4-0.3-0.6-0.4c-16.2-10.1-16.2-10.1-34.8-6.6
		c-2.6,0.5-5.1,1-7.7,1.5c-8.2,1.4-15.4,4.5-21.5,10.4c-3.8,3.7-8.2,6.9-13,10.8c3.6,0.9,6.6,1.7,10.2,2.6c-4.8,1-9.1,1.8-13.2,2.9
		c-4.3,1.2-8.4,2.8-12.7,5c9.8,2.9,19.6,5.8,29.4,8.7c-0.1,0.5-0.2,0.9-0.3,1.4c-4.6-0.9-9.2-1.9-13.7-2.8c-11.7-2.3-23.2-5-35.3-5
		c-9,0-18.1-2.8-27-4.8c-12.5-2.8-24.8-6.5-37.7-7.2c-2.5-0.2-4.2,0.4-5.9,2.2c-12.3,12.3-23.3,25.7-33,40.2c-0.6,0.9-1,2-1.1,3.1
		c-2.5,27.9-2.5,55.9-1,83.9c0.6,10.3,0.9,20.7,1.7,31c0.9,11.3,2.3,22.6,3.5,33.9c1.5,14.4,3.2,28.7,4.8,43.4
		c-19.7,0-39.3,0-59.2,0c0.6-5.8,1.1-11.3,1.7-16.9c1.6-15.6,3.5-31.2,4.9-46.9c1.8-19.5,3.2-39.1,4.7-58.6
		c0.9-12,1.8-23.9,2.5-35.9c0.1-1.5-0.2-3.2-0.9-4.6c-13.2-25.6-28.4-49.9-48.3-71c-4.4-4.6-9.6-7.7-15.9-9.8
		c-11.2-3.7-21.6-1.4-32.2,1.4c-3.4,0.9-6.7,2.1-10.2,2.4c-4.6,0.4-7,3.3-8.2,7c-2.5,7.7-8.7,12.4-14.3,17.7
		c4-7.2,8.1-14.3,12.7-22.4c-8.8,1.9-16.5,3.5-24.1,5.1c-0.1-0.5-0.3-0.9-0.4-1.4c11.5-4.7,23-9.4,34.5-14c-0.1-0.4-0.1-0.7-0.2-1.1
		c-7.4,0.7-14.8,1-22.1,2.2c-19.2,3.4-38.4,7.4-57.6,10.9c-2.5,0.4-5.2-0.9-7.9-1.1c-2-0.2-4.2-0.4-6,0.3
		c-10.1,4.2-20.1,8.8-30.2,13c-2.5,1.1-5.4,1.5-8.1,2.2c-0.1-0.3-0.2-0.6-0.3-0.9c11.3-5.8,22.5-11.6,34.6-17.8
		c-4.2-1.3-7.7-2.4-11.2-3.4c-10-2.8-19.9-5.7-29.9-8.3c-1.8-0.5-4.1-0.6-5.7,0.1c-7.4,3.3-15.2,3.2-23.2,2.9
		c5.8-1.9,11.6-3.8,18.3-5.9c-15-4.3-29-8.3-43-12.3c0.1-0.4,0.1-0.9,0.2-1.3c3.8,0.4,7.6,0.5,11.3,1.4c5.7,1.3,11.4,2.7,16.9,4.8
		c9.1,3.5,18.5,3.8,28,4.5c2.8,0.2,5.7,0.4,8.8,0.6c-0.4-5-2.8-8.6-6.3-11.3c-4-3.1-8.5-5.7-12.6-8.8c-3.6-2.7-7-5.8-10.1-9.2
		c6.9,1.7,12.5,5.6,17.8,9.8c4.4,3.5,8.9,6.9,12.8,10.9c7.7,7.8,17.4,10.9,27.5,14.1c11.9,3.7,23.4,5.2,35.2,0.1
		c4-1.7,8.4-2.3,13.2-3.6c-2.6-2.1-4.8-4-7.7-6.3c12.1,1.9,23.3,2,34.6,0.5c11.1-1.4,22.2-3.3,33.4-5.9c-6.8-2.6-13.5-5.2-20.3-7.6
		c-24.6-8.6-49.3-16.8-73.8-25.7c-11.7-4.2-23-9.5-34.5-14.4c0.4-0.3,0.8-0.7,1.1-1c-0.7-2.1-1.1-4.5-2.3-6.2
		c-5-7.3-10.3-14.4-15.5-21.6c-3-4.1-6.8-6.4-12.1-6.9c-7.3-0.8-14.4-2.6-21.6-4c-5.9-1.2-10.2-5-14-9.3c-3.5-4-6.5-8.5-10.3-13.5
		c5.2,0.6,7.9,3.5,10.7,6.1c0.6,0.6,1.1,1.3,1.6,2c4.3,5.9,10.3,7.2,17.1,7c4.8-0.2,9.7,0,14.9,0c-1.5-6.5-4-12.2-7.7-17.2
		c-8-10.5-16.5-20.6-24.8-30.9c-1.1-1.3-2.1-2.7-3.1-4c0.2-0.3,0.4-0.6,0.7-0.9c2,0.8,4.3,1.3,5.9,2.6c4.1,3.3,8.2,6.6,11.6,10.6
		c5.3,6.1,10.4,12.5,14.9,19.2c8.6,12.7,16.7,25.7,25.1,38.5c0.8,1.2,2.3,2,3.9,2.7c-0.8-21.8-5.9-43.2-1.2-64.7
		c1.3,11,2.2,22.1,4.1,32.9c3.1,17.9,7.3,35.6,15.2,52.2c0.5,1,1.6,2,2.6,2.3c17.5,4.9,35.1,9.8,52.6,14.6c0.2,0.1,0.5,0,1.1,0
		c2.4-13-1.1-25.4-4.3-37.8c0.3-0.3,0.5-0.5,0.8-0.8c0.8,0.7,1.9,1.3,2.3,2.2c1.2,2.4,2,5,3,7.5c0.4-0.1,0.8-0.2,1.3-0.3
		c0.1-0.4,0.3-0.8,0.3-1.2c0-11.6,0.8-23.3-0.4-34.8c-0.8-7.8-4.3-15.3-6.8-22.8c-0.3-0.9-1.9-1.5-3-2c-9.8-4.1-19.5-8.3-29.4-12.1
		c-4.3-1.7-7.9-4-10.9-7.5c-2.1-2.5-4.4-4.8-6.7-7.1c-5.9-6.1-13.1-9.9-21.4-11.6c-1.3-0.3-2.5-1.2-3.7-1.8c0.1-0.4,0.3-0.8,0.4-1.2
		c2.7,0,5.4,0,9,0c-1.1-2.7-1.6-5.1-2.9-6.8c-6.9-8.7-14-17.2-21-25.8c-0.8-0.9-1.6-1.8-2.9-3.4c5.6,0.9,9.4,3.2,12.4,6.9
		c6.8,8.5,13.2,17.3,20.6,25.3c6.7,7.3,14.1,14.2,21.8,20.4c6,4.8,13.1,7.9,21.3,5.7c0.4-0.1,0.7-0.3,1.5-0.7
		c-10.1-18.5-25.2-34.4-28.8-56.1c18.3,27.1,36.5,54.2,55.1,81.7c3.2-5.2,6.3-10.1,9.3-15.1c0.4-0.8,0.4-1.9,0.3-2.9
		c-2.3-14.9-4.6-29.8-6.8-44.7c-0.2-1.3,0.4-2.7,0.7-4.1c0.5,0,1,0,1.4,0.1c2.4,7.9,4.9,15.9,7.3,23.8c0.5,1.7,0.9,3.4,1.6,5
		c0.4,1,1.4,2.3,2.2,2.3c0.9,0.1,2.4-0.9,2.7-1.8c2-5.7,3.8-11.5,5.6-17.3c0.5-1.8,0.6-3.7,0.9-5.8c1-0.2,2-0.3,3-0.5
		c0.2,0.5,0.3,0.7,0.3,0.9c-0.9,7.4-1.8,14.9-2.7,22.3c-0.1,1.1-0.3,2.4-1,3.1c-9.7,10.5-13.1,23.8-17.2,36.9
		c-3,9.6-0.8,18.7,0.2,28c1.7,15.9,3,31.8,4.4,47.7c0.3,3.1,0.9,6.3,0.6,9.3c-0.4,4.1,1.6,5.6,5,6.9c10.8,4.2,21.4,8.8,32.8,13.5
		c-2.6-5-4.8-9.2-6.9-13.5c-0.6-1.3-1.4-2.9-1.2-4.2c0.8-6.1,1-12-3-17.3c0.3-0.3,0.7-0.6,1-0.9c1.1,0.7,2.7,1.2,3.1,2.2
		c1.4,3.4,3,7,3.4,10.6c0.5,4.4,2.3,8,4.8,11.5c3.2,4.4,6.1,9.2,9.5,13.5c1.9,2.4,4.5,4.8,7.2,6c5.8,2.5,11.8,4.8,18,6.2
		c16.1,3.8,28.5,12.7,38.5,25.5c6.9,8.8,14.3,17.3,21.6,25.9c1.6,1.9,3.6,3.4,6,5.6c3.6-18.3,2.3-35.1-8.3-50.2
		c-10.7-15.4-26.4-21.2-45.3-22.4c4.2-3.4,8.7-2.7,13.5-4.1c-2.5-1.9-4.5-3.5-6.6-5.1c1.3-2.7,2.8-1.4,4.3-0.5
		c11.8,7,23.7,13.9,35.5,20.9c0.6,0.4,1.3,0.7,3,1.7c-1-2.4-1.3-3.9-2.1-5.1c-4.4-6.7-8.9-13.3-13.4-19.9c-0.3-0.5-0.7-1-1.2-1.4
		c-15.9-12.9-32.6-24.4-52.9-29.3c-9.9-2.4-19.8-2.3-29.5,1.1c-1.2,0.4-3.1,0.5-4.1-0.2c-7.3-4.5-14.5-9.2-21.7-14
		c-1.1-0.7-1.6-2.3-2.3-3.4c0.3-0.3,0.6-0.6,0.9-0.9c2.5,1.3,4.9,2.6,7.4,3.9c4.6,2.5,9.3,4.8,13.8,7.6c2.7,1.7,4.8,2,7.2-0.3
		c1-1,2.4-1.7,4-2.7c-13.6-14.6-24.9-30.5-33.9-48.2c1.5,1.3,3.1,2.4,4.5,3.8c1.6,1.4,3.1,2.9,4.4,4.6c5.5,7,11.1,13.9,16.1,21.2
		c5.1,7.4,11.5,12.7,19.8,15.8c7,2.5,14,5.2,21.1,7.9c3.3-12.6,2.5-24.7-2.6-36.2c-4.9-10.9-11-21.2-16.7-31.7
		c-1.6-3.1-3.6-6-5.4-8.9c0.2-0.3,0.4-0.6,0.6-0.8c1.1,0.6,2.6,0.9,3.3,1.8c10.3,12.6,20.4,25.2,28.3,39.5
		c3.7,6.7,3.3,14.2,4.6,21.4c1.1,5.9,1.5,11.9,2.6,17.8c0.3,1.4,1.6,3.2,2.9,3.8c5.8,2.7,11.6,5.1,17.6,7.4c5.1,2,9.6,4.5,13.4,8.6
		c7,7.6,14.3,15,21.6,22.4c1.4,1.4,2.9,2.7,5,4.5c0.3-6.2,0.6-11.7,0.7-17.2c0.4-15.2,0.9-30.5,1.2-45.7c0-1.5-0.5-3.3-1.4-4.4
		c-3.5-4.1-6.8-8.3-10.9-11.7c-8.5-7.1-17.7-13.3-27.8-18.2c-8.8-4.3-17.1-9.7-25.6-14.7c-1.4-0.9-2.5-2.4-3.5-3.8
		c-14.1-19.4-28.1-38.9-42-58.4c-1.8-2.5-3.9-3.4-6.7-4c-14.7-3.4-29.3-7-43.9-10.6c-2.2-0.5-3.4-1.8-4.3-4
		c-3.1-7.8-8.4-14.3-14.9-19.4c-9.3-7.3-19.2-13.9-28.8-20.9c-1.2-0.9-2.1-2.2-3.2-3.3c0.3-0.4,0.6-0.9,0.8-1.3
		c3.2,1.1,6.6,1.9,9.7,3.3c12.4,5.5,21.7,14.9,30.8,24.6c4.3,4.6,8.4,9.3,12.7,13.8c0.9,0.9,2.2,1.9,3.3,2
		c9.1,0.7,18.2,1.2,27.9,1.8c-1.9-2.7-3.5-5-5.1-7.3c-7.2-10.9-14-22.1-21.6-32.7c-6.6-9.3-13.7-18.4-21.4-26.9
		c-3.2-3.5-8.3-5.4-12.6-7.9c-1.8-1.1-3.6-2.1-5.3-4.1c1.4,0.2,2.9,0.1,4.3,0.5c5.6,2,11.3,4,16.8,6.2c1.2,0.5,2.3,1.4,3.1,2.5
		c9.1,12.2,18.1,24.4,27.2,36.6c1.1,1.5,2.5,2.7,4.2,3.7c0.8-12.2-3.6-22.6-9.9-32.4c1.9-0.4,1.9-0.4,6.4,5c0-7.7,0-14.7,0-21.7
		c0.4-0.2,0.9-0.3,1.3-0.5c0.6,0.9,1.6,1.7,1.7,2.7c1.9,17.6,3.6,35.2,5.5,52.7c0.2,2.2,1.3,4.6,2.6,6.4c7.8,10.1,15.7,20,23.6,30.1
		c1.5,1.9,2.7,3.9,4,5.9c0.6-0.4,1.1-0.8,1.7-1.3c0.1-0.9,0.3-1.8,0.3-2.7c0-8.9-0.5-17.8,0.2-26.6c0.6-8.2-2.4-15-5.8-22
		c-3-6.1-5.7-12.3-8.5-18.4c0.5-0.2,1-0.5,1.4-0.7c5.7,10.6,11.3,21.1,17.3,32.2c1.3-7.3,2.5-14.2,3.7-21.2c0.2,0,0.4,0,0.5,0
		c0,4.4,0.5,8.8-0.1,13.1c-2.8,19.7-0.7,39.3-0.7,59c0,0.8,0.2,1.8,0.7,2.4c7.9,10.4,15.8,20.9,23.9,31.2c2.3,2.8,5.5,4.9,9,8
		c0.9-16.5,4.7-32.1-0.6-47.8c1,0.9,2,1.8,3.5,3.3c0.5-6.4,1-12.2,1.5-18c0.3,0,0.6,0,0.9,0c0.3,4.4,0.8,8.8,0.8,13.2
		c0.2,15.2,0.4,30.5,0.2,45.7c-0.1,5.8,1.9,9,7.3,11.2c9,3.6,17.7,7.9,26.5,12.2c4.6,2.2,8.9,5,13.3,7.5c1.1,0.6,2.1,1.1,3.2,1.7
		c0.3-0.2,0.6-0.4,1-0.5c-2.7-9.5-4.9-19.2-8.3-28.4c-8.9-24.6-18.6-48.9-27.3-73.6c-3-8.5-7.4-14.9-14.6-20.3
		c-9.9-7.5-19.3-15.8-28.6-24.1c-4.1-3.7-7.3-8.4-10.4-12.1c2.3,1.1,5.6,2.7,9.5,4.5c-4.9-13.7-9.7-27.2-14.6-40.9
		c1.4-0.4,2.4-0.7,3.8-1.1c0.7,1.7,1.4,3.2,2,4.8c3,8.3,5.9,16.7,9.1,24.9c4.4,11,10,21.2,18.7,29.5c4.8,4.5,10.4,7.2,17.4,7.4
		c0-4.6,0-9,0-13.5c0-2.4-0.5-4.8-0.3-7.1c0.8-7-1.2-13-6.2-18c-5-5-6.1-11.5-7.4-18c-1.1-5.3-1.8-10.6-3.4-15.7
		c-1.5-4.7-3.9-9.1-6.1-13.5c-1.2-2.3-2.7-4.5-4.1-6.8c2.4-1.2,4-0.7,5.4,1.5c1.7,2.8,4,5.2,5.6,8c1.4,2.4,2.6,5.1,3.1,7.8
		c1.1,6.3,1.8,12.6,2.5,18.9c0.3,3,1.5,5.4,3.7,7.4c2.4,2.2,4.5,4.8,6.8,7.3c0.4-6.4,0.3-12.6,1.3-18.7c1-5.9,3.1-11.7,4.7-17.5
		c0.5,0.1,1.1,0.2,1.6,0.3c-0.4,8-0.8,16.1-1.2,24.1c8.3-4,10-11.2,10-19.2c0-2.1,0.2-4.3,0.7-6.3c0.3-1.3,1.4-2.3,2.9-3.1
		c-0.8,7.6-1.3,15.3-2.4,22.8c-0.3,2.1-2.3,4.1-3.6,6c-2.4,3.5-4.9,6.9-7.3,10.4c-0.4,0.7-0.8,1.5-0.8,2.3
		c0.3,22.9,2.9,45.6,8.9,67.7c0.1,0.2,0.2,0.4,0.6,1.1c2.3-1.7,4.6-3.4,6.8-5.2c2.8-2.3,5.6-4.6,8.1-7.3c5-5.6,10.2-11,14.5-17.1
		c4.6-6.5,1.7-14.3,2.1-21.5c0.6-9.3,0.3-18.7,0.3-28.1c0-1.9-0.7-3.9-1.5-5.6c-2.8-6-5.8-12-8.8-18c0.5-0.4,0.9-0.9,1.4-1.3
		c1,0.7,2.4,1.3,2.9,2.3c1.6,3.2,2.8,6.7,4.4,9.9c0.5,1,1.8,1.6,3.6,3.2c0-10.3,0-19.3,0-28.3c2.1-1,3.1-0.8,3.2,1.7
		c0.8,11.6,1.8,23,0.4,34.7c-1.2,9.6,0.7,19.6,1.3,30.3c3.2-1.6,5.8-3.3,8.6-4.3c7.2-2.5,10.8-7.7,13.5-14.6
		c6.5-16.8,7.1-16.8,0.6-33.1c-2.7-6.6-0.9-12.7-0.9-19.1c0-6.3,5.4-8.7,8.5-12.9c-7.6,12.3-7.5,24.3,0.9,36.1
		c2.3-2,0.6-6.8,5.6-7.9c-2.4,11.7-4.6,22.5-6.9,33.6c3.3,0.6,5.8-1.2,7.5-3.3c4-5.1,7.6-10.5,11.2-15.8c1.2-1.7,2.1-3.7,4-5.4
		c-0.4,3.5-0.9,7-1.3,10.8c4.4-1.1,8.8-2.1,13.2-3.4c1.2-0.3,2.2-1.5,3-2.5c6.5-8,12.9-16.2,20.1-24c-0.8,3.1-1.7,6.3-2.5,9.3
		c6.5,0.1,9.7-2.1,13.9-9.7c0,4.8-4.1,10.7-9,11.7c-7.2,1.4-12.5,5-16.3,11.2c-3.2,5.2-7.8,8.6-13.6,10.4c-1.2,0.4-2.3,1-3.4,1.4
		c-14.3,5.1-24.7,14.7-33.6,26.8c-3.2,4.4-8.6,7.7-13.6,10.3c-6,3.1-9.7,7-11.3,13.8c-2,8.6-7.5,15.7-13.3,22.3
		c-5,5.6-10.1,11.1-15.3,16.5c-1.8,1.8-2.1,3.7-1.7,6.1c2,10.5,6.7,19.8,11.6,29.1c4.5,8.5,9.1,16.9,13.6,25.4
		c1.3,2.4,3.3,2.9,4.7,1.1c7.9-10,16.7-19.4,20.1-32.1c2.9-10.8-0.1-21-3.8-31c-0.2-0.6-0.5-1.1-0.7-1.7c2.6-1.9,2.6-1.9,4.4,1.6
		c0.9,1.8,1.9,3.7,3.3,6.4c0.8-6,1.4-11,2-16c0.6-4.9,1.2-9.7,2.3-14.6c5,17.3,3.7,34.7,0.4,52.5c10.8-1.9,20.9-4.2,30.1-9.1
		c1.2-0.7,2.3-3,2.3-4.5c-0.2-13-0.5-26-1.1-38.9c-0.2-5-0.2-9.7,2.1-14.5c4.3-9.1,4.8-19,4.1-29c-0.2-3.1-0.4-6.2,0-9.5
		c1.7,5.9,3.4,11.8,5.3,18.7C413.7,94.9,418.4,86.7,423.1,78.6z M403.9,188.2c-13.6,5.1-26.8,10-39.9,15c-1.7,0.7-3.4,2.1-4.4,3.6
		c-5.9,9.8-11.7,19.7-17.4,29.7c-0.7,1.3-0.8,3.3-0.4,4.7c2.2,6.9,4.8,13.6,6.9,20.4c2.4,7.8,4.3,15.7,6.5,24c1.3-1,2.4-1.7,3.4-2.6
		c5.9-5.7,11.8-11.4,17.6-17.2c11.9-12,23.8-24.2,35.8-36.2c1.8-1.8,2.3-3.5,2-5.9C412.6,211.5,408.6,199.9,403.9,188.2z"/>
	<path fill="#ED7BAD" d="M462.5,97.2c-2.3-3.1-6.7-3.8-10.4-1.7c0-0.3,0-0.6,0-0.9c0-4.7-3.4-8.5-7.6-8.5s-7.6,3.8-7.6,8.5
		c0,0.4,0,0.7,0.1,1.1c-0.2-0.1-0.4-0.2-0.6-0.3c-4.2-2.1-9.1-0.8-11,2.9c-1.9,3.7-0.1,8.5,4.1,10.6c0.8,0.4,1.6,0.7,2.4,0.8
		c-0.4,0.3-0.8,0.7-1.1,1.2c-2.9,3.7-2.6,8.8,0.7,11.4c3.3,2.6,8.3,1.7,11.2-2c0.7-0.9,1.2-1.8,1.5-2.8c0.4,1.1,1,2.2,1.8,3.1
		c3.1,3.5,8.2,4.2,11.3,1.4c3.2-2.8,3.2-7.9,0.1-11.4c-0.2-0.3-0.5-0.5-0.7-0.8c1.1-0.3,2.2-0.8,3.3-1.5
		C464,105.6,465,100.6,462.5,97.2z M444.8,111.8c-0.1,0-0.2,0-0.3,0c0,0.1,0,0.1-0.1,0.2c0-0.1,0-0.1-0.1-0.2
		c-3-0.2-5.3-2.7-5.3-5.7c0-3.2,2.6-5.8,5.8-5.8s5.8,2.6,5.8,5.8C450.5,109.2,448,111.8,444.8,111.8z"/>
	<path fill="#E94D80" d="M477.2,115.2c-2.3-3.1-6.7-3.8-10.4-1.7c0-0.3,0-0.6,0-0.9c0-4.7-3.4-8.5-7.6-8.5s-7.6,3.8-7.6,8.5
		c0,0.4,0,0.7,0.1,1.1c-0.2-0.1-0.4-0.2-0.6-0.3c-4.2-2.1-9.1-0.8-11,2.9c-1.9,3.7-0.1,8.5,4.1,10.6c0.8,0.4,1.6,0.7,2.4,0.8
		c-0.4,0.3-0.8,0.7-1.1,1.2c-2.9,3.7-2.6,8.8,0.7,11.4c3.3,2.6,8.3,1.7,11.2-2c0.7-0.9,1.2-1.8,1.5-2.8c0.4,1.1,1,2.2,1.8,3.1
		c3.1,3.5,8.2,4.2,11.3,1.4c3.2-2.8,3.2-7.9,0.1-11.4c-0.2-0.3-0.5-0.5-0.7-0.8c1.1-0.3,2.2-0.8,3.3-1.5
		C478.6,123.6,479.7,118.6,477.2,115.2z M459.4,129.8c-0.1,0-0.2,0-0.3,0c0,0.1,0,0.1-0.1,0.2c0-0.1,0-0.1-0.1-0.2
		c-3-0.2-5.3-2.7-5.3-5.7c0-3.2,2.6-5.8,5.8-5.8s5.8,2.6,5.8,5.8C465.2,127.2,462.6,129.8,459.4,129.8z"/>
	<path fill="#E94D80" d="M562.9,83.8c-2.3-3.1-6.7-3.8-10.4-1.7c0-0.3,0-0.6,0-0.9c0-4.7-3.4-8.5-7.6-8.5c-4.2,0-7.6,3.8-7.6,8.5
		c0,0.4,0,0.7,0.1,1.1c-0.2-0.1-0.4-0.2-0.6-0.3c-4.2-2.1-9.1-0.8-11,2.9c-1.9,3.7-0.1,8.5,4.1,10.6c0.8,0.4,1.6,0.7,2.4,0.8
		c-0.4,0.3-0.8,0.7-1.1,1.2c-2.9,3.7-2.6,8.8,0.7,11.4c3.3,2.6,8.3,1.7,11.2-2c0.7-0.9,1.2-1.8,1.5-2.8c0.4,1.1,1,2.2,1.8,3.1
		c3.1,3.5,8.2,4.2,11.3,1.4c3.2-2.8,3.2-7.9,0.1-11.4c-0.2-0.3-0.5-0.5-0.7-0.8c1.1-0.3,2.2-0.8,3.3-1.5
		C564.3,92.2,565.4,87.2,562.9,83.8z M545.1,98.5c-0.1,0-0.2,0-0.3,0c0,0.1,0,0.1-0.1,0.2c0-0.1,0-0.1-0.1-0.2
		c-3-0.2-5.3-2.7-5.3-5.7c0-3.2,2.6-5.8,5.8-5.8c3.2,0,5.8,2.6,5.8,5.8C550.9,95.9,548.3,98.5,545.1,98.5z"/>
	<path fill="#E94D80" d="M291.2,79.9c-1.4-1.9-4.2-2.3-6.4-1.1c0-0.2,0-0.4,0-0.6c0-2.9-2.1-5.3-4.7-5.3s-4.7,2.4-4.7,5.3
		c0,0.2,0,0.5,0,0.7c-0.1-0.1-0.2-0.1-0.3-0.2c-2.6-1.3-5.7-0.5-6.9,1.8c-1.2,2.3,0,5.3,2.6,6.6c0.5,0.3,1,0.4,1.5,0.5
		c-0.2,0.2-0.5,0.5-0.7,0.7c-1.8,2.3-1.6,5.5,0.4,7.1c2,1.6,5.2,1.1,7-1.2c0.4-0.5,0.7-1.1,0.9-1.7c0.2,0.7,0.6,1.3,1.1,1.9
		c1.9,2.2,5.1,2.6,7,0.9c2-1.7,2-4.9,0.1-7.1c-0.1-0.2-0.3-0.3-0.5-0.5c0.7-0.2,1.4-0.5,2-1C292.1,85.1,292.8,82,291.2,79.9z
		 M280.2,89c-0.1,0-0.1,0-0.2,0c0,0,0,0.1,0,0.1c0,0,0-0.1,0-0.1c-1.8-0.1-3.3-1.7-3.3-3.6c0-2,1.6-3.6,3.6-3.6c2,0,3.6,1.6,3.6,3.6
		C283.8,87.4,282.2,89,280.2,89z"/>
	<path fill="#E94D80" d="M390.9,152.5c-2.3-3.1-6.7-3.8-10.4-1.7c0-0.3,0-0.6,0-0.9c0-4.7-3.4-8.5-7.6-8.5s-7.6,3.8-7.6,8.5
		c0,0.4,0,0.7,0.1,1.1c-0.2-0.1-0.4-0.2-0.6-0.3c-4.2-2.1-9.1-0.8-11,2.9c-1.9,3.7-0.1,8.5,4.1,10.6c0.8,0.4,1.6,0.7,2.4,0.8
		c-0.4,0.3-0.8,0.7-1.1,1.2c-2.9,3.7-2.6,8.8,0.7,11.4c3.3,2.6,8.3,1.7,11.2-2c0.7-0.9,1.2-1.8,1.5-2.8c0.4,1.1,1,2.2,1.8,3.1
		c3.1,3.5,8.2,4.2,11.3,1.4c3.2-2.8,3.2-7.9,0.1-11.4c-0.2-0.3-0.5-0.5-0.7-0.8c1.1-0.3,2.2-0.8,3.3-1.5
		C392.3,160.9,393.4,155.9,390.9,152.5z M373.1,167.2c-0.1,0-0.2,0-0.3,0c0,0.1,0,0.1-0.1,0.2c0-0.1,0-0.1-0.1-0.2
		c-3-0.2-5.3-2.7-5.3-5.7c0-3.2,2.6-5.8,5.8-5.8s5.8,2.6,5.8,5.8C378.9,164.6,376.3,167.2,373.1,167.2z"/>
	<path fill="#E94D80" d="M512.2,281.8c-2.3-3.1-6.7-3.8-10.4-1.7c0-0.3,0-0.6,0-0.9c0-4.7-3.4-8.5-7.6-8.5s-7.6,3.8-7.6,8.5
		c0,0.4,0,0.7,0.1,1.1c-0.2-0.1-0.4-0.2-0.6-0.3c-4.2-2.1-9.1-0.8-11,2.9c-1.9,3.7-0.1,8.5,4.1,10.6c0.8,0.4,1.6,0.7,2.4,0.8
		c-0.4,0.3-0.8,0.7-1.1,1.2c-2.9,3.7-2.6,8.8,0.7,11.4c3.3,2.6,8.3,1.7,11.2-2c0.7-0.9,1.2-1.8,1.5-2.8c0.4,1.1,1,2.2,1.8,3.1
		c3.1,3.5,8.2,4.2,11.3,1.4c3.2-2.8,3.2-7.9,0.1-11.4c-0.2-0.3-0.5-0.5-0.7-0.8c1.1-0.3,2.2-0.8,3.3-1.5
		C513.6,290.2,514.7,285.2,512.2,281.8z M494.4,296.5c-0.1,0-0.2,0-0.3,0c0,0.1,0,0.1-0.1,0.2c0-0.1,0-0.1-0.1-0.2
		c-3-0.2-5.3-2.7-5.3-5.7c0-3.2,2.6-5.8,5.8-5.8s5.8,2.6,5.8,5.8S497.6,296.5,494.4,296.5z"/>
	<path fill="#E94D80" d="M589.4,158c-2.3-3.1-6.7-3.8-10.4-1.7c0-0.3,0-0.6,0-0.9c0-4.7-3.4-8.5-7.6-8.5c-4.2,0-7.6,3.8-7.6,8.5
		c0,0.4,0,0.7,0.1,1.1c-0.2-0.1-0.4-0.2-0.6-0.3c-4.2-2.1-9.1-0.8-11,2.9c-1.9,3.7-0.1,8.5,4.1,10.6c0.8,0.4,1.6,0.7,2.4,0.8
		c-0.4,0.3-0.8,0.7-1.1,1.2c-2.9,3.7-2.6,8.8,0.7,11.4c3.3,2.6,8.3,1.7,11.2-2c0.7-0.9,1.2-1.8,1.5-2.8c0.4,1.1,1,2.2,1.8,3.1
		c3.1,3.5,8.2,4.2,11.3,1.4c3.2-2.8,3.2-7.9,0.1-11.4c-0.2-0.3-0.5-0.5-0.7-0.8c1.1-0.3,2.2-0.8,3.3-1.5
		C590.9,166.4,591.9,161.4,589.4,158z M571.7,172.7c-0.1,0-0.2,0-0.3,0c0,0.1,0,0.1-0.1,0.2c0-0.1,0-0.1-0.1-0.2
		c-3-0.2-5.3-2.7-5.3-5.7c0-3.2,2.6-5.8,5.8-5.8c3.2,0,5.8,2.6,5.8,5.8C577.5,170.1,574.9,172.7,571.7,172.7z"/>
	<path fill="#E94D80" d="M649.5,317.2c-2.3-3.1-6.7-3.8-10.4-1.7c0-0.3,0-0.6,0-0.9c0-4.7-3.4-8.5-7.6-8.5c-4.2,0-7.6,3.8-7.6,8.5
		c0,0.4,0,0.7,0.1,1.1c-0.2-0.1-0.4-0.2-0.6-0.3c-4.2-2.1-9.1-0.8-11,2.9c-1.9,3.7-0.1,8.5,4.1,10.6c0.8,0.4,1.6,0.7,2.4,0.8
		c-0.4,0.3-0.8,0.7-1.1,1.2c-2.9,3.7-2.6,8.8,0.7,11.4c3.3,2.6,8.3,1.7,11.2-2c0.7-0.9,1.2-1.8,1.5-2.8c0.4,1.1,1,2.2,1.8,3.1
		c3.1,3.5,8.2,4.2,11.3,1.4c3.2-2.8,3.2-7.9,0.1-11.4c-0.2-0.3-0.5-0.5-0.7-0.8c1.1-0.3,2.2-0.8,3.3-1.5
		C651,325.6,652,320.6,649.5,317.2z M631.8,331.8c-0.1,0-0.2,0-0.3,0c0,0.1,0,0.1-0.1,0.2c0-0.1,0-0.1-0.1-0.2
		c-3-0.2-5.3-2.7-5.3-5.7c0-3.2,2.6-5.8,5.8-5.8c3.2,0,5.8,2.6,5.8,5.8C637.5,329.2,635,331.8,631.8,331.8z"/>
	<path fill="#E94D80" d="M189.5,188.5c-2.3-3.1-6.7-3.8-10.4-1.7c0-0.3,0-0.6,0-0.9c0-4.7-3.4-8.5-7.6-8.5c-4.2,0-7.6,3.8-7.6,8.5
		c0,0.4,0,0.7,0.1,1.1c-0.2-0.1-0.4-0.2-0.6-0.3c-4.2-2.1-9.1-0.8-11,2.9c-1.9,3.7-0.1,8.5,4.1,10.6c0.8,0.4,1.6,0.7,2.4,0.8
		c-0.4,0.3-0.8,0.7-1.1,1.2c-2.9,3.7-2.6,8.8,0.7,11.4c3.3,2.6,8.3,1.7,11.2-2c0.7-0.9,1.2-1.8,1.5-2.8c0.4,1.1,1,2.2,1.8,3.1
		c3.1,3.5,8.2,4.2,11.3,1.4c3.2-2.8,3.2-7.9,0.1-11.4c-0.2-0.3-0.5-0.5-0.7-0.8c1.1-0.3,2.2-0.8,3.3-1.5
		C191,196.9,192,191.9,189.5,188.5z M171.8,203.2c-0.1,0-0.2,0-0.3,0c0,0.1,0,0.1-0.1,0.2c0-0.1,0-0.1-0.1-0.2
		c-3-0.2-5.3-2.7-5.3-5.7c0-3.2,2.6-5.8,5.8-5.8c3.2,0,5.8,2.6,5.8,5.8C177.5,200.6,175,203.2,171.8,203.2z"/>
	<path fill="#E94D80" d="M203.5,111.8c-2.3-3.1-6.7-3.8-10.4-1.7c0-0.3,0-0.6,0-0.9c0-4.7-3.4-8.5-7.6-8.5s-7.6,3.8-7.6,8.5
		c0,0.4,0,0.7,0.1,1.1c-0.2-0.1-0.4-0.2-0.6-0.3c-4.2-2.1-9.1-0.8-11,2.9c-1.9,3.7-0.1,8.5,4.1,10.6c0.8,0.4,1.6,0.7,2.4,0.8
		c-0.4,0.3-0.8,0.7-1.1,1.2c-2.9,3.7-2.6,8.8,0.7,11.4c3.3,2.6,8.3,1.7,11.2-2c0.7-0.9,1.2-1.8,1.5-2.8c0.4,1.1,1,2.2,1.8,3.1
		c3.1,3.5,8.2,4.2,11.3,1.4c3.2-2.8,3.2-7.9,0.1-11.4c-0.2-0.3-0.5-0.5-0.7-0.8c1.1-0.3,2.2-0.8,3.3-1.5
		C205,120.2,206,115.2,203.5,111.8z M185.8,126.5c-0.1,0-0.2,0-0.3,0c0,0.1,0,0.1-0.1,0.2c0-0.1,0-0.1-0.1-0.2
		c-3-0.2-5.3-2.7-5.3-5.7c0-3.2,2.6-5.8,5.8-5.8s5.8,2.6,5.8,5.8C191.5,123.9,189,126.5,185.8,126.5z"/>
	<path fill="#E94D80" d="M312.2,331.2c-2.3-3.1-6.7-3.8-10.4-1.7c0-0.3,0-0.6,0-0.9c0-4.7-3.4-8.5-7.6-8.5s-7.6,3.8-7.6,8.5
		c0,0.4,0,0.7,0.1,1.1c-0.2-0.1-0.4-0.2-0.6-0.3c-4.2-2.1-9.1-0.8-11,2.9c-1.9,3.7-0.1,8.5,4.1,10.6c0.8,0.4,1.6,0.7,2.4,0.8
		c-0.4,0.3-0.8,0.7-1.1,1.2c-2.9,3.7-2.6,8.8,0.7,11.4c3.3,2.6,8.3,1.7,11.2-2c0.7-0.9,1.2-1.8,1.5-2.8c0.4,1.1,1,2.2,1.8,3.1
		c3.1,3.5,8.2,4.2,11.3,1.4c3.2-2.8,3.2-7.9,0.1-11.4c-0.2-0.3-0.5-0.5-0.7-0.8c1.1-0.3,2.2-0.8,3.3-1.5
		C313.6,339.6,314.7,334.6,312.2,331.2z M294.4,345.8c-0.1,0-0.2,0-0.3,0c0,0.1,0,0.1-0.1,0.2c0-0.1,0-0.1-0.1-0.2
		c-3-0.2-5.3-2.7-5.3-5.7c0-3.2,2.6-5.8,5.8-5.8s5.8,2.6,5.8,5.8C300.2,343.2,297.6,345.8,294.4,345.8z"/>
	<path fill="#E94D80" d="M92.9,367.8c-2.3-3.1-6.7-3.8-10.4-1.7c0-0.3,0-0.6,0-0.9c0-4.7-3.4-8.5-7.6-8.5s-7.6,3.8-7.6,8.5
		c0,0.4,0,0.7,0.1,1.1c-0.2-0.1-0.4-0.2-0.6-0.3c-4.2-2.1-9.1-0.8-11,2.9c-1.9,3.7-0.1,8.5,4.1,10.6c0.8,0.4,1.6,0.7,2.4,0.8
		c-0.4,0.3-0.8,0.7-1.1,1.2c-2.9,3.7-2.6,8.8,0.7,11.4c3.3,2.6,8.3,1.7,11.2-2c0.7-0.9,1.2-1.8,1.5-2.8c0.4,1.1,1,2.2,1.8,3.1
		c3.1,3.5,8.2,4.2,11.3,1.4c3.2-2.8,3.2-7.9,0.1-11.4c-0.2-0.3-0.5-0.5-0.7-0.8c1.1-0.3,2.2-0.8,3.3-1.5
		C94.3,376.2,95.4,371.2,92.9,367.8z M75.1,382.5c-0.1,0-0.2,0-0.3,0c0,0.1,0,0.1-0.1,0.2c0-0.1,0-0.1-0.1-0.2
		c-3-0.2-5.3-2.7-5.3-5.7c0-3.2,2.6-5.8,5.8-5.8s5.8,2.6,5.8,5.8C80.9,379.9,78.3,382.5,75.1,382.5z"/>
	<path fill="#E94D80" d="M215.5,374.5c-2.3-3.1-6.7-3.8-10.4-1.7c0-0.3,0-0.6,0-0.9c0-4.7-3.4-8.5-7.6-8.5s-7.6,3.8-7.6,8.5
		c0,0.4,0,0.7,0.1,1.1c-0.2-0.1-0.4-0.2-0.6-0.3c-4.2-2.1-9.1-0.8-11,2.9c-1.9,3.7-0.1,8.5,4.1,10.6c0.8,0.4,1.6,0.7,2.4,0.8
		c-0.4,0.3-0.8,0.7-1.1,1.2c-2.9,3.7-2.6,8.8,0.7,11.4c3.3,2.6,8.3,1.7,11.2-2c0.7-0.9,1.2-1.8,1.5-2.8c0.4,1.1,1,2.2,1.8,3.1
		c3.1,3.5,8.2,4.2,11.3,1.4c3.2-2.8,3.2-7.9,0.1-11.4c-0.2-0.3-0.5-0.5-0.7-0.8c1.1-0.3,2.2-0.8,3.3-1.5
		C217,382.9,218,377.9,215.5,374.5z M197.8,389.2c-0.1,0-0.2,0-0.3,0c0,0.1,0,0.1-0.1,0.2c0-0.1,0-0.1-0.1-0.2
		c-3-0.2-5.3-2.7-5.3-5.7c0-3.2,2.6-5.8,5.8-5.8s5.8,2.6,5.8,5.8C203.5,386.6,201,389.2,197.8,389.2z"/>
	<path fill="#E94D80" d="M430.9,280.5c-2.3-3.1-6.7-3.8-10.4-1.7c0-0.3,0-0.6,0-0.9c0-4.7-3.4-8.5-7.6-8.5s-7.6,3.8-7.6,8.5
		c0,0.4,0,0.7,0.1,1.1c-0.2-0.1-0.4-0.2-0.6-0.3c-4.2-2.1-9.1-0.8-11,2.9c-1.9,3.7-0.1,8.5,4.1,10.6c0.8,0.4,1.6,0.7,2.4,0.8
		c-0.4,0.3-0.8,0.7-1.1,1.2c-2.9,3.7-2.6,8.8,0.7,11.4c3.3,2.6,8.3,1.7,11.2-2c0.7-0.9,1.2-1.8,1.5-2.8c0.4,1.1,1,2.2,1.8,3.1
		c3.1,3.5,8.2,4.2,11.3,1.4c3.2-2.8,3.2-7.9,0.1-11.4c-0.2-0.3-0.5-0.5-0.7-0.8c1.1-0.3,2.2-0.8,3.3-1.5
		C432.3,288.9,433.4,283.9,430.9,280.5z M413.1,295.2c-0.1,0-0.2,0-0.3,0c0,0.1,0,0.1-0.1,0.2c0-0.1,0-0.1-0.1-0.2
		c-3-0.2-5.3-2.7-5.3-5.7c0-3.2,2.6-5.8,5.8-5.8s5.8,2.6,5.8,5.8C418.9,292.6,416.3,295.2,413.1,295.2z"/>
	<path fill="#ED7BAD" d="M292.4,201c-2.3-3.1-6.7-3.8-10.4-1.7c0-0.3,0-0.6,0-0.9c0-4.7-3.4-8.5-7.6-8.5s-7.6,3.8-7.6,8.5
		c0,0.4,0,0.7,0.1,1.1c-0.2-0.1-0.4-0.2-0.6-0.3c-4.2-2.1-9.1-0.8-11,2.9c-1.9,3.7-0.1,8.5,4.1,10.6c0.8,0.4,1.6,0.7,2.4,0.8
		c-0.4,0.3-0.8,0.7-1.1,1.2c-2.9,3.7-2.6,8.8,0.7,11.4c3.3,2.6,8.3,1.7,11.2-2c0.7-0.9,1.2-1.8,1.5-2.8c0.4,1.1,1,2.2,1.8,3.1
		c3.1,3.5,8.2,4.2,11.3,1.4c3.2-2.8,3.2-7.9,0.1-11.4c-0.2-0.3-0.5-0.5-0.7-0.8c1.1-0.3,2.2-0.8,3.3-1.5
		C293.8,209.3,294.9,204.3,292.4,201z M274.6,215.6c-0.1,0-0.2,0-0.3,0c0,0.1,0,0.1-0.1,0.2c0-0.1,0-0.1-0.1-0.2
		c-3-0.2-5.3-2.7-5.3-5.7c0-3.2,2.6-5.8,5.8-5.8s5.8,2.6,5.8,5.8C280.4,213,277.8,215.6,274.6,215.6z"/>
	<path fill="#ED7BAD" d="M561.9,183.9c-1.4-1.9-4.2-2.3-6.4-1.1c0-0.2,0-0.4,0-0.6c0-2.9-2.1-5.3-4.7-5.3s-4.7,2.4-4.7,5.3
		c0,0.2,0,0.5,0,0.7c-0.1-0.1-0.2-0.1-0.3-0.2c-2.6-1.3-5.7-0.5-6.9,1.8c-1.2,2.3,0,5.3,2.6,6.6c0.5,0.3,1,0.4,1.5,0.5
		c-0.2,0.2-0.5,0.5-0.7,0.7c-1.8,2.3-1.6,5.5,0.4,7.1c2,1.6,5.2,1.1,7-1.2c0.4-0.5,0.7-1.1,0.9-1.7c0.2,0.7,0.6,1.3,1.1,1.9
		c1.9,2.2,5.1,2.6,7,0.9c2-1.7,2-4.9,0.1-7.1c-0.1-0.2-0.3-0.3-0.5-0.5c0.7-0.2,1.4-0.5,2-1C562.8,189.1,563.4,186,561.9,183.9z
		 M550.9,193c-0.1,0-0.1,0-0.2,0c0,0,0,0.1,0,0.1c0,0,0-0.1,0-0.1c-1.8-0.1-3.3-1.7-3.3-3.6c0-2,1.6-3.6,3.6-3.6s3.6,1.6,3.6,3.6
		C554.5,191.4,552.9,193,550.9,193z"/>
	<path fill="#E94D80" d="M469.9,294.4c-1.4-1.9-4.2-2.3-6.4-1.1c0-0.2,0-0.4,0-0.6c0-2.9-2.1-5.3-4.7-5.3s-4.7,2.4-4.7,5.3
		c0,0.2,0,0.5,0,0.7c-0.1-0.1-0.2-0.1-0.3-0.2c-2.6-1.3-5.7-0.5-6.9,1.8c-1.2,2.3,0,5.3,2.6,6.6c0.5,0.3,1,0.4,1.5,0.5
		c-0.2,0.2-0.5,0.5-0.7,0.7c-1.8,2.3-1.6,5.5,0.4,7.1c2,1.6,5.2,1.1,7-1.2c0.4-0.5,0.7-1.1,0.9-1.7c0.2,0.7,0.6,1.3,1.1,1.9
		c1.9,2.2,5.1,2.6,7,0.9c2-1.7,2-4.9,0.1-7.1c-0.1-0.2-0.3-0.3-0.5-0.5c0.7-0.2,1.4-0.5,2-1C470.7,299.6,471.4,296.5,469.9,294.4z
		 M458.8,303.5c-0.1,0-0.1,0-0.2,0c0,0,0,0.1,0,0.1c0,0,0-0.1,0-0.1c-1.8-0.1-3.3-1.7-3.3-3.6c0-2,1.6-3.6,3.6-3.6
		c2,0,3.6,1.6,3.6,3.6S460.8,303.5,458.8,303.5z"/>
	<path fill="#ED7BAD" d="M470,274.8c-1.4-1.9-4.2-2.3-6.4-1.1c0-0.2,0-0.4,0-0.6c0-2.9-2.1-5.3-4.7-5.3s-4.7,2.4-4.7,5.3
		c0,0.2,0,0.5,0,0.7c-0.1-0.1-0.2-0.1-0.3-0.2c-2.6-1.3-5.7-0.5-6.9,1.8c-1.2,2.3,0,5.3,2.6,6.6c0.5,0.3,1,0.4,1.5,0.5
		c-0.2,0.2-0.5,0.5-0.7,0.7c-1.8,2.3-1.6,5.5,0.4,7.1c2,1.6,5.2,1.1,7-1.2c0.4-0.5,0.7-1.1,0.9-1.7c0.2,0.7,0.6,1.3,1.1,1.9
		c1.9,2.2,5.1,2.6,7,0.9c2-1.7,2-4.9,0.1-7.1c-0.1-0.2-0.3-0.3-0.5-0.5c0.7-0.2,1.4-0.5,2-1C470.9,280.1,471.5,276.9,470,274.8z
		 M459,283.9c-0.1,0-0.1,0-0.2,0c0,0,0,0.1,0,0.1c0,0,0-0.1,0-0.1c-1.8-0.1-3.3-1.7-3.3-3.6c0-2,1.6-3.6,3.6-3.6
		c2,0,3.6,1.6,3.6,3.6C462.5,282.3,460.9,283.9,459,283.9z"/>
	<path fill="#E94D80" d="M611.2,339.2c-1.4-1.9-4.2-2.3-6.4-1.1c0-0.2,0-0.4,0-0.6c0-2.9-2.1-5.3-4.7-5.3s-4.7,2.4-4.7,5.3
		c0,0.2,0,0.5,0,0.7c-0.1-0.1-0.2-0.1-0.3-0.2c-2.6-1.3-5.7-0.5-6.9,1.8c-1.2,2.3,0,5.3,2.6,6.6c0.5,0.3,1,0.4,1.5,0.5
		c-0.2,0.2-0.5,0.5-0.7,0.7c-1.8,2.3-1.6,5.5,0.4,7.1c2,1.6,5.2,1.1,7-1.2c0.4-0.5,0.7-1.1,0.9-1.7c0.2,0.7,0.6,1.3,1.1,1.9
		c1.9,2.2,5.1,2.6,7,0.9c2-1.7,2-4.9,0.1-7.1c-0.1-0.2-0.3-0.3-0.5-0.5c0.7-0.2,1.4-0.5,2-1C612.1,344.4,612.8,341.3,611.2,339.2z
		 M600.2,348.3c-0.1,0-0.1,0-0.2,0c0,0,0,0.1,0,0.1c0,0,0-0.1,0-0.1c-1.8-0.1-3.3-1.7-3.3-3.6c0-2,1.6-3.6,3.6-3.6s3.6,1.6,3.6,3.6
		C603.8,346.7,602.2,348.3,600.2,348.3z"/>
	<path fill="#E94D80" d="M670.7,348.9c-1.4-1.9-4.2-2.3-6.4-1.1c0-0.2,0-0.4,0-0.6c0-2.9-2.1-5.3-4.7-5.3s-4.7,2.4-4.7,5.3
		c0,0.2,0,0.5,0,0.7c-0.1-0.1-0.2-0.1-0.3-0.2c-2.6-1.3-5.7-0.5-6.9,1.8c-1.2,2.3,0,5.3,2.6,6.6c0.5,0.3,1,0.4,1.5,0.5
		c-0.2,0.2-0.5,0.5-0.7,0.7c-1.8,2.3-1.6,5.5,0.4,7.1c2,1.6,5.2,1.1,7-1.2c0.4-0.5,0.7-1.1,0.9-1.7c0.2,0.7,0.6,1.3,1.1,1.9
		c1.9,2.2,5.1,2.6,7,0.9c2-1.7,2-4.9,0.1-7.1c-0.1-0.2-0.3-0.3-0.5-0.5c0.7-0.2,1.4-0.5,2-1C671.6,354.1,672.2,351,670.7,348.9z
		 M659.7,358c-0.1,0-0.1,0-0.2,0c0,0,0,0.1,0,0.1c0,0,0-0.1,0-0.1c-1.8-0.1-3.3-1.7-3.3-3.6c0-2,1.6-3.6,3.6-3.6s3.6,1.6,3.6,3.6
		C663.3,356.4,661.7,358,659.7,358z"/>
	<path fill="#E94D80" d="M577.3,358.6c-1.4-1.9-4.2-2.3-6.4-1.1c0-0.2,0-0.4,0-0.6c0-2.9-2.1-5.3-4.7-5.3s-4.7,2.4-4.7,5.3
		c0,0.2,0,0.5,0,0.7c-0.1-0.1-0.2-0.1-0.3-0.2c-2.6-1.3-5.7-0.5-6.9,1.8c-1.2,2.3,0,5.3,2.6,6.6c0.5,0.3,1,0.4,1.5,0.5
		c-0.2,0.2-0.5,0.5-0.7,0.7c-1.8,2.3-1.6,5.5,0.4,7.1c2,1.6,5.2,1.1,7-1.2c0.4-0.5,0.7-1.1,0.9-1.7c0.2,0.7,0.6,1.3,1.1,1.9
		c1.9,2.2,5.1,2.6,7,0.9c2-1.7,2-4.9,0.1-7.1c-0.1-0.2-0.3-0.3-0.5-0.5c0.7-0.2,1.4-0.5,2-1C578.2,363.8,578.9,360.7,577.3,358.6z
		 M566.3,367.7c-0.1,0-0.1,0-0.2,0c0,0,0,0.1,0,0.1c0,0,0-0.1,0-0.1c-1.8-0.1-3.3-1.7-3.3-3.6c0-2,1.6-3.6,3.6-3.6s3.6,1.6,3.6,3.6
		C569.9,366.1,568.3,367.7,566.3,367.7z"/>
	<path fill="#ED7BAD" d="M599.9,362.5c-1.4-1.9-4.2-2.3-6.4-1.1c0-0.2,0-0.4,0-0.6c0-2.9-2.1-5.3-4.7-5.3s-4.7,2.4-4.7,5.3
		c0,0.2,0,0.5,0,0.7c-0.1-0.1-0.2-0.1-0.3-0.2c-2.6-1.3-5.7-0.5-6.9,1.8c-1.2,2.3,0,5.3,2.6,6.6c0.5,0.3,1,0.4,1.5,0.5
		c-0.2,0.2-0.5,0.5-0.7,0.7c-1.8,2.3-1.6,5.5,0.4,7.1c2,1.6,5.2,1.1,7-1.2c0.4-0.5,0.7-1.1,0.9-1.7c0.2,0.7,0.6,1.3,1.1,1.9
		c1.9,2.2,5.1,2.6,7,0.9c2-1.7,2-4.9,0.1-7.1c-0.1-0.2-0.3-0.3-0.5-0.5c0.7-0.2,1.4-0.5,2-1C600.8,367.7,601.4,364.6,599.9,362.5z
		 M588.9,371.6c-0.1,0-0.1,0-0.2,0c0,0,0,0.1,0,0.1c0,0,0-0.1,0-0.1c-1.8-0.1-3.3-1.7-3.3-3.6c0-2,1.6-3.6,3.6-3.6s3.6,1.6,3.6,3.6
		S590.9,371.6,588.9,371.6z"/>
	<path fill="#E94D80" d="M557.9,271.9c-1.4-1.9-4.2-2.3-6.4-1.1c0-0.2,0-0.4,0-0.6c0-2.9-2.1-5.3-4.7-5.3s-4.7,2.4-4.7,5.3
		c0,0.2,0,0.5,0,0.7c-0.1-0.1-0.2-0.1-0.3-0.2c-2.6-1.3-5.7-0.5-6.9,1.8c-1.2,2.3,0,5.3,2.6,6.6c0.5,0.3,1,0.4,1.5,0.5
		c-0.2,0.2-0.5,0.5-0.7,0.7c-1.8,2.3-1.6,5.5,0.4,7.1c2,1.6,5.2,1.1,7-1.2c0.4-0.5,0.7-1.1,0.9-1.7c0.2,0.7,0.6,1.3,1.1,1.9
		c1.9,2.2,5.1,2.6,7,0.9c2-1.7,2-4.9,0.1-7.1c-0.1-0.2-0.3-0.3-0.5-0.5c0.7-0.2,1.4-0.5,2-1C558.8,277.1,559.4,274,557.9,271.9z
		 M546.9,281c-0.1,0-0.1,0-0.2,0c0,0,0,0.1,0,0.1c0,0,0-0.1,0-0.1c-1.8-0.1-3.3-1.7-3.3-3.6c0-2,1.6-3.6,3.6-3.6s3.6,1.6,3.6,3.6
		C550.5,279.4,548.9,281,546.9,281z"/>
	<path fill="#E94D80" d="M524.6,315.9c-1.4-1.9-4.2-2.3-6.4-1.1c0-0.2,0-0.4,0-0.6c0-2.9-2.1-5.3-4.7-5.3s-4.7,2.4-4.7,5.3
		c0,0.2,0,0.5,0,0.7c-0.1-0.1-0.2-0.1-0.3-0.2c-2.6-1.3-5.7-0.5-6.9,1.8c-1.2,2.3,0,5.3,2.6,6.6c0.5,0.3,1,0.4,1.5,0.5
		c-0.2,0.2-0.5,0.5-0.7,0.7c-1.8,2.3-1.6,5.5,0.4,7.1c2,1.6,5.2,1.1,7-1.2c0.4-0.5,0.7-1.1,0.9-1.7c0.2,0.7,0.6,1.3,1.1,1.9
		c1.9,2.2,5.1,2.6,7,0.9c2-1.7,2-4.9,0.1-7.1c-0.1-0.2-0.3-0.3-0.5-0.5c0.7-0.2,1.4-0.5,2-1C525.5,321.1,526.1,318,524.6,315.9z
		 M513.5,325c-0.1,0-0.1,0-0.2,0c0,0,0,0.1,0,0.1c0,0,0-0.1,0-0.1c-1.8-0.1-3.3-1.7-3.3-3.6c0-2,1.6-3.6,3.6-3.6
		c2,0,3.6,1.6,3.6,3.6C517.1,323.4,515.5,325,513.5,325z"/>
	<path fill="#E94D80" d="M505.3,254.6c-1.4-1.9-4.2-2.3-6.4-1.1c0-0.2,0-0.4,0-0.6c0-2.9-2.1-5.3-4.7-5.3s-4.7,2.4-4.7,5.3
		c0,0.2,0,0.5,0,0.7c-0.1-0.1-0.2-0.1-0.3-0.2c-2.6-1.3-5.7-0.5-6.9,1.8c-1.2,2.3,0,5.3,2.6,6.6c0.5,0.3,1,0.4,1.5,0.5
		c-0.2,0.2-0.5,0.5-0.7,0.7c-1.8,2.3-1.6,5.5,0.4,7.1c2,1.6,5.2,1.1,7-1.2c0.4-0.5,0.7-1.1,0.9-1.7c0.2,0.7,0.6,1.3,1.1,1.9
		c1.9,2.2,5.1,2.6,7,0.9c2-1.7,2-4.9,0.1-7.1c-0.1-0.2-0.3-0.3-0.5-0.5c0.7-0.2,1.4-0.5,2-1C506.2,259.8,506.9,256.7,505.3,254.6z
		 M494.3,263.7c-0.1,0-0.1,0-0.2,0c0,0,0,0.1,0,0.1c0,0,0-0.1,0-0.1c-1.8-0.1-3.3-1.7-3.3-3.6c0-2,1.6-3.6,3.6-3.6
		c2,0,3.6,1.6,3.6,3.6C497.9,262.1,496.3,263.7,494.3,263.7z"/>
	<path fill="#E94D80" d="M224.9,293.7c-1.4-1.9-4.2-2.3-6.4-1.1c0-0.2,0-0.4,0-0.6c0-2.9-2.1-5.3-4.7-5.3c-2.6,0-4.7,2.4-4.7,5.3
		c0,0.2,0,0.5,0,0.7c-0.1-0.1-0.2-0.1-0.3-0.2c-2.6-1.3-5.7-0.5-6.9,1.8c-1.2,2.3,0,5.3,2.6,6.6c0.5,0.3,1,0.4,1.5,0.5
		c-0.2,0.2-0.5,0.5-0.7,0.7c-1.8,2.3-1.6,5.5,0.4,7.1c2,1.6,5.2,1.1,7-1.2c0.4-0.5,0.7-1.1,0.9-1.7c0.2,0.7,0.6,1.3,1.1,1.9
		c1.9,2.2,5.1,2.6,7,0.9c2-1.7,2-4.9,0.1-7.1c-0.1-0.2-0.3-0.3-0.5-0.5c0.7-0.2,1.4-0.5,2-1C225.8,298.9,226.5,295.8,224.9,293.7z
		 M213.9,302.8c-0.1,0-0.1,0-0.2,0c0,0,0,0.1,0,0.1c0,0,0-0.1,0-0.1c-1.8-0.1-3.3-1.7-3.3-3.6c0-2,1.6-3.6,3.6-3.6
		c2,0,3.6,1.6,3.6,3.6C217.5,301.2,215.9,302.8,213.9,302.8z"/>
	<path fill="#ED7BAD" d="M179.3,217.3c-1.4-1.9-4.2-2.3-6.4-1.1c0-0.2,0-0.4,0-0.6c0-2.9-2.1-5.3-4.7-5.3c-2.6,0-4.7,2.4-4.7,5.3
		c0,0.2,0,0.5,0,0.7c-0.1-0.1-0.2-0.1-0.3-0.2c-2.6-1.3-5.7-0.5-6.9,1.8c-1.2,2.3,0,5.3,2.6,6.6c0.5,0.3,1,0.4,1.5,0.5
		c-0.2,0.2-0.5,0.5-0.7,0.7c-1.8,2.3-1.6,5.5,0.4,7.1c2,1.6,5.2,1.1,7-1.2c0.4-0.5,0.7-1.1,0.9-1.7c0.2,0.7,0.6,1.3,1.1,1.9
		c1.9,2.2,5.1,2.6,7,0.9c2-1.7,2-4.9,0.1-7.1c-0.1-0.2-0.3-0.3-0.5-0.5c0.7-0.2,1.4-0.5,2-1C180.2,222.5,180.9,219.4,179.3,217.3z
		 M168.3,226.4c-0.1,0-0.1,0-0.2,0c0,0,0,0.1,0,0.1c0,0,0-0.1,0-0.1c-1.8-0.1-3.3-1.7-3.3-3.6c0-2,1.6-3.6,3.6-3.6
		c2,0,3.6,1.6,3.6,3.6S170.3,226.4,168.3,226.4z"/>
	<path fill="#E94D80" d="M211.9,177.9c-1.4-1.9-4.2-2.3-6.4-1.1c0-0.2,0-0.4,0-0.6c0-2.9-2.1-5.3-4.7-5.3s-4.7,2.4-4.7,5.3
		c0,0.2,0,0.5,0,0.7c-0.1-0.1-0.2-0.1-0.3-0.2c-2.6-1.3-5.7-0.5-6.9,1.8c-1.2,2.3,0,5.3,2.6,6.6c0.5,0.3,1,0.4,1.5,0.5
		c-0.2,0.2-0.5,0.5-0.7,0.7c-1.8,2.3-1.6,5.5,0.4,7.1c2,1.6,5.2,1.1,7-1.2c0.4-0.5,0.7-1.1,0.9-1.7c0.2,0.7,0.6,1.3,1.1,1.9
		c1.9,2.2,5.1,2.6,7,0.9c2-1.7,2-4.9,0.1-7.1c-0.1-0.2-0.3-0.3-0.5-0.5c0.7-0.2,1.4-0.5,2-1C212.8,183.1,213.4,180,211.9,177.9z
		 M200.9,187c-0.1,0-0.1,0-0.2,0c0,0,0,0.1,0,0.1c0,0,0-0.1,0-0.1c-1.8-0.1-3.3-1.7-3.3-3.6c0-2,1.6-3.6,3.6-3.6
		c2,0,3.6,1.6,3.6,3.6C204.5,185.4,202.9,187,200.9,187z"/>
	<path fill="#E94D80" d="M125.9,157.2c-1.4-1.9-4.2-2.3-6.4-1.1c0-0.2,0-0.4,0-0.6c0-2.9-2.1-5.3-4.7-5.3c-2.6,0-4.7,2.4-4.7,5.3
		c0,0.2,0,0.5,0,0.7c-0.1-0.1-0.2-0.1-0.3-0.2c-2.6-1.3-5.7-0.5-6.9,1.8c-1.2,2.3,0,5.3,2.6,6.6c0.5,0.3,1,0.4,1.5,0.5
		c-0.2,0.2-0.5,0.5-0.7,0.7c-1.8,2.3-1.6,5.5,0.4,7.1c2,1.6,5.2,1.1,7-1.2c0.4-0.5,0.7-1.1,0.9-1.7c0.2,0.7,0.6,1.3,1.1,1.9
		c1.9,2.2,5.1,2.6,7,0.9c2-1.7,2-4.9,0.1-7.1c-0.1-0.2-0.3-0.3-0.5-0.5c0.7-0.2,1.4-0.5,2-1C126.8,162.4,127.4,159.3,125.9,157.2z
		 M114.9,166.3c-0.1,0-0.1,0-0.2,0c0,0,0,0.1,0,0.1c0,0,0-0.1,0-0.1c-1.8-0.1-3.3-1.7-3.3-3.6c0-2,1.6-3.6,3.6-3.6s3.6,1.6,3.6,3.6
		C118.5,164.7,116.9,166.3,114.9,166.3z"/>
	<path fill="#E94D80" d="M101.2,272.5c-1.4-1.9-4.2-2.3-6.4-1.1c0-0.2,0-0.4,0-0.6c0-2.9-2.1-5.3-4.7-5.3c-2.6,0-4.7,2.4-4.7,5.3
		c0,0.2,0,0.5,0,0.7c-0.1-0.1-0.2-0.1-0.3-0.2c-2.6-1.3-5.7-0.5-6.9,1.8c-1.2,2.3,0,5.3,2.6,6.6c0.5,0.3,1,0.4,1.5,0.5
		c-0.2,0.2-0.5,0.5-0.7,0.7c-1.8,2.3-1.6,5.5,0.4,7.1c2,1.6,5.2,1.1,7-1.2c0.4-0.5,0.7-1.1,0.9-1.7c0.2,0.7,0.6,1.3,1.1,1.9
		c1.9,2.2,5.1,2.6,7,0.9c2-1.7,2-4.9,0.1-7.1c-0.1-0.2-0.3-0.3-0.5-0.5c0.7-0.2,1.4-0.5,2-1C102.1,277.7,102.8,274.6,101.2,272.5z
		 M90.2,281.6c-0.1,0-0.1,0-0.2,0c0,0,0,0.1,0,0.1c0,0,0-0.1,0-0.1c-1.8-0.1-3.3-1.7-3.3-3.6c0-2,1.6-3.6,3.6-3.6s3.6,1.6,3.6,3.6
		S92.2,281.6,90.2,281.6z"/>
	<path fill="#E94D80" d="M179.2,362.2c-1.4-1.9-4.2-2.3-6.4-1.1c0-0.2,0-0.4,0-0.6c0-2.9-2.1-5.3-4.7-5.3c-2.6,0-4.7,2.4-4.7,5.3
		c0,0.2,0,0.5,0,0.7c-0.1-0.1-0.2-0.1-0.3-0.2c-2.6-1.3-5.7-0.5-6.9,1.8c-1.2,2.3,0,5.3,2.6,6.6c0.5,0.3,1,0.4,1.5,0.5
		c-0.2,0.2-0.5,0.5-0.7,0.7c-1.8,2.3-1.6,5.5,0.4,7.1c2,1.6,5.2,1.1,7-1.2c0.4-0.5,0.7-1.1,0.9-1.7c0.2,0.7,0.6,1.3,1.1,1.9
		c1.9,2.2,5.1,2.6,7,0.9c2-1.7,2-4.9,0.1-7.1c-0.1-0.2-0.3-0.3-0.5-0.5c0.7-0.2,1.4-0.5,2-1C180,367.4,180.7,364.3,179.2,362.2z
		 M168.1,371.3c-0.1,0-0.1,0-0.2,0c0,0,0,0.1,0,0.1c0,0,0-0.1,0-0.1c-1.8-0.1-3.3-1.7-3.3-3.6c0-2,1.6-3.6,3.6-3.6
		c2,0,3.6,1.6,3.6,3.6S170.1,371.3,168.1,371.3z"/>
	<path fill="#ED7BAD" d="M161.2,375.9c-1.4-1.9-4.2-2.3-6.4-1.1c0-0.2,0-0.4,0-0.6c0-2.9-2.1-5.3-4.7-5.3c-2.6,0-4.7,2.4-4.7,5.3
		c0,0.2,0,0.5,0,0.7c-0.1-0.1-0.2-0.1-0.3-0.2c-2.6-1.3-5.7-0.5-6.9,1.8c-1.2,2.3,0,5.3,2.6,6.6c0.5,0.3,1,0.4,1.5,0.5
		c-0.2,0.2-0.5,0.5-0.7,0.7c-1.8,2.3-1.6,5.5,0.4,7.1c2,1.6,5.2,1.1,7-1.2c0.4-0.5,0.7-1.1,0.9-1.7c0.2,0.7,0.6,1.3,1.1,1.9
		c1.9,2.2,5.1,2.6,7,0.9c2-1.7,2-4.9,0.1-7.1c-0.1-0.2-0.3-0.3-0.5-0.5c0.7-0.2,1.4-0.5,2-1C162.1,381.1,162.8,378,161.2,375.9z
		 M150.2,385c-0.1,0-0.1,0-0.2,0c0,0,0,0.1,0,0.1c0,0,0-0.1,0-0.1c-1.8-0.1-3.3-1.7-3.3-3.6c0-2,1.6-3.6,3.6-3.6
		c2,0,3.6,1.6,3.6,3.6C153.8,383.4,152.2,385,150.2,385z"/>
	<path fill="#ED7BAD" d="M111.9,390.5c-1.4-1.9-4.2-2.3-6.4-1.1c0-0.2,0-0.4,0-0.6c0-2.9-2.1-5.3-4.7-5.3c-2.6,0-4.7,2.4-4.7,5.3
		c0,0.2,0,0.5,0,0.7c-0.1-0.1-0.2-0.1-0.3-0.2c-2.6-1.3-5.7-0.5-6.9,1.8c-1.2,2.3,0,5.3,2.6,6.6c0.5,0.3,1,0.4,1.5,0.5
		c-0.2,0.2-0.5,0.5-0.7,0.7c-1.8,2.3-1.6,5.5,0.4,7.1c2,1.6,5.2,1.1,7-1.2c0.4-0.5,0.7-1.1,0.9-1.7c0.2,0.7,0.6,1.3,1.1,1.9
		c1.9,2.2,5.1,2.6,7,0.9c2-1.7,2-4.9,0.1-7.1c-0.1-0.2-0.3-0.3-0.5-0.5c0.7-0.2,1.4-0.5,2-1C112.8,395.7,113.4,392.6,111.9,390.5z
		 M100.9,399.6c-0.1,0-0.1,0-0.2,0c0,0,0,0.1,0,0.1c0,0,0-0.1,0-0.1c-1.8-0.1-3.3-1.7-3.3-3.6c0-2,1.6-3.6,3.6-3.6s3.6,1.6,3.6,3.6
		S102.9,399.6,100.9,399.6z"/>
	<path fill="#ED7BAD" d="M71.5,343.7c-1.4-1.9-4.2-2.3-6.4-1.1c0-0.2,0-0.4,0-0.6c0-2.9-2.1-5.3-4.7-5.3s-4.7,2.4-4.7,5.3
		c0,0.2,0,0.5,0,0.7c-0.1-0.1-0.2-0.1-0.3-0.2c-2.6-1.3-5.7-0.5-6.9,1.8c-1.2,2.3,0,5.3,2.6,6.6c0.5,0.3,1,0.4,1.5,0.5
		c-0.2,0.2-0.5,0.5-0.7,0.7c-1.8,2.3-1.6,5.5,0.4,7.1c2,1.6,5.2,1.1,7-1.2c0.4-0.5,0.7-1.1,0.9-1.7c0.2,0.7,0.6,1.3,1.1,1.9
		c1.9,2.2,5.1,2.6,7,0.9c2-1.7,2-4.9,0.1-7.1c-0.1-0.2-0.3-0.3-0.5-0.5c0.7-0.2,1.4-0.5,2-1C72.4,348.9,73,345.8,71.5,343.7z
		 M60.5,352.8c-0.1,0-0.1,0-0.2,0c0,0,0,0.1,0,0.1c0,0,0-0.1,0-0.1c-1.8-0.1-3.3-1.7-3.3-3.6c0-2,1.6-3.6,3.6-3.6s3.6,1.6,3.6,3.6
		C64,351.2,62.4,352.8,60.5,352.8z"/>
	<path fill="#E94D80" d="M41.8,357.3c-1.4-1.9-4.2-2.3-6.4-1.1c0-0.2,0-0.4,0-0.6c0-2.9-2.1-5.3-4.7-5.3s-4.7,2.4-4.7,5.3
		c0,0.2,0,0.5,0,0.7c-0.1-0.1-0.2-0.1-0.3-0.2c-2.6-1.3-5.7-0.5-6.9,1.8c-1.2,2.3,0,5.3,2.6,6.6c0.5,0.3,1,0.4,1.5,0.5
		c-0.2,0.2-0.5,0.5-0.7,0.7c-1.8,2.3-1.6,5.5,0.4,7.1c2,1.6,5.2,1.1,7-1.2c0.4-0.5,0.7-1.1,0.9-1.7c0.2,0.7,0.6,1.3,1.1,1.9
		c1.9,2.2,5.1,2.6,7,0.9c2-1.7,2-4.9,0.1-7.1c-0.1-0.2-0.3-0.3-0.5-0.5c0.7-0.2,1.4-0.5,2-1C42.7,362.5,43.4,359.4,41.8,357.3z
		 M30.8,366.4c-0.1,0-0.1,0-0.2,0c0,0,0,0.1,0,0.1c0,0,0-0.1,0-0.1c-1.8-0.1-3.3-1.7-3.3-3.6c0-2,1.6-3.6,3.6-3.6s3.6,1.6,3.6,3.6
		S32.8,366.4,30.8,366.4z"/>
	<path fill="#E94D80" d="M389.9,186.5c-1.4-1.9-4.2-2.3-6.4-1.1c0-0.2,0-0.4,0-0.6c0-2.9-2.1-5.3-4.7-5.3c-2.6,0-4.7,2.4-4.7,5.3
		c0,0.2,0,0.5,0,0.7c-0.1-0.1-0.2-0.1-0.3-0.2c-2.6-1.3-5.7-0.5-6.9,1.8c-1.2,2.3,0,5.3,2.6,6.6c0.5,0.3,1,0.4,1.5,0.5
		c-0.2,0.2-0.5,0.5-0.7,0.7c-1.8,2.3-1.6,5.5,0.4,7.1c2,1.6,5.2,1.1,7-1.2c0.4-0.5,0.7-1.1,0.9-1.7c0.2,0.7,0.6,1.3,1.1,1.9
		c1.9,2.2,5.1,2.6,7,0.9c2-1.7,2-4.9,0.1-7.1c-0.1-0.2-0.3-0.3-0.5-0.5c0.7-0.2,1.4-0.5,2-1C390.8,191.7,391.4,188.6,389.9,186.5z
		 M378.9,195.6c-0.1,0-0.1,0-0.2,0c0,0,0,0.1,0,0.1c0,0,0-0.1,0-0.1c-1.8-0.1-3.3-1.7-3.3-3.6c0-2,1.6-3.6,3.6-3.6s3.6,1.6,3.6,3.6
		C382.5,194,380.9,195.6,378.9,195.6z"/>
	<path fill="#E94D80" d="M431,137.2c-1.4-1.9-4.2-2.3-6.4-1.1c0-0.2,0-0.4,0-0.6c0-2.9-2.1-5.3-4.7-5.3s-4.7,2.4-4.7,5.3
		c0,0.2,0,0.5,0,0.7c-0.1-0.1-0.2-0.1-0.3-0.2c-2.6-1.3-5.7-0.5-6.9,1.8c-1.2,2.3,0,5.3,2.6,6.6c0.5,0.3,1,0.4,1.5,0.5
		c-0.2,0.2-0.5,0.5-0.7,0.7c-1.8,2.3-1.6,5.5,0.4,7.1c2,1.6,5.2,1.1,7-1.2c0.4-0.5,0.7-1.1,0.9-1.7c0.2,0.7,0.6,1.3,1.1,1.9
		c1.9,2.2,5.1,2.6,7,0.9c2-1.7,2-4.9,0.1-7.1c-0.1-0.2-0.3-0.3-0.5-0.5c0.7-0.2,1.4-0.5,2-1C431.9,142.4,432.6,139.3,431,137.2z
		 M420,146.3c-0.1,0-0.1,0-0.2,0c0,0,0,0.1,0,0.1c0,0,0-0.1,0-0.1c-1.8-0.1-3.3-1.7-3.3-3.6c0-2,1.6-3.6,3.6-3.6
		c2,0,3.6,1.6,3.6,3.6C423.6,144.7,422,146.3,420,146.3z"/>
	<path fill="#E94D80" d="M475.6,78c-1.4-1.9-4.2-2.3-6.4-1.1c0-0.2,0-0.4,0-0.6c0-2.9-2.1-5.3-4.7-5.3s-4.7,2.4-4.7,5.3
		c0,0.2,0,0.5,0,0.7c-0.1-0.1-0.2-0.1-0.3-0.2c-2.6-1.3-5.7-0.5-6.9,1.8c-1.2,2.3,0,5.3,2.6,6.6c0.5,0.3,1,0.4,1.5,0.5
		c-0.2,0.2-0.5,0.5-0.7,0.7c-1.8,2.3-1.6,5.5,0.4,7.1c2,1.6,5.2,1.1,7-1.2c0.4-0.5,0.7-1.1,0.9-1.7c0.2,0.7,0.6,1.3,1.1,1.9
		c1.9,2.2,5.1,2.6,7,0.9c2-1.7,2-4.9,0.1-7.1c-0.1-0.2-0.3-0.3-0.5-0.5c0.7-0.2,1.4-0.5,2-1C476.5,83.2,477.1,80.1,475.6,78z
		 M464.6,87.1c-0.1,0-0.1,0-0.2,0c0,0,0,0.1,0,0.1c0,0,0-0.1,0-0.1c-1.8-0.1-3.3-1.7-3.3-3.6c0-2,1.6-3.6,3.6-3.6s3.6,1.6,3.6,3.6
		C468.1,85.5,466.5,87.1,464.6,87.1z"/>
	<path fill="#E94D80" d="M523.2,90.5c-1.4-1.9-4.2-2.3-6.4-1.1c0-0.2,0-0.4,0-0.6c0-2.9-2.1-5.3-4.7-5.3c-2.6,0-4.7,2.4-4.7,5.3
		c0,0.2,0,0.5,0,0.7c-0.1-0.1-0.2-0.1-0.3-0.2c-2.6-1.3-5.7-0.5-6.9,1.8c-1.2,2.3,0,5.3,2.6,6.6c0.5,0.3,1,0.4,1.5,0.5
		c-0.2,0.2-0.5,0.5-0.7,0.7c-1.8,2.3-1.6,5.5,0.4,7.1c2,1.6,5.2,1.1,7-1.2c0.4-0.5,0.7-1.1,0.9-1.7c0.2,0.7,0.6,1.3,1.1,1.9
		c1.9,2.2,5.1,2.6,7,0.9c2-1.7,2-4.9,0.1-7.1c-0.1-0.2-0.3-0.3-0.5-0.5c0.7-0.2,1.4-0.5,2-1C524.1,95.7,524.8,92.6,523.2,90.5z
		 M512.2,99.6c-0.1,0-0.1,0-0.2,0c0,0,0,0.1,0,0.1c0,0,0-0.1,0-0.1c-1.8-0.1-3.3-1.7-3.3-3.6c0-2,1.6-3.6,3.6-3.6s3.6,1.6,3.6,3.6
		C515.8,98,514.2,99.6,512.2,99.6z"/>
	<path fill="#ED7BAD" d="M509.2,108.6c-1.4-1.9-4.2-2.3-6.4-1.1c0-0.2,0-0.4,0-0.6c0-2.9-2.1-5.3-4.7-5.3s-4.7,2.4-4.7,5.3
		c0,0.2,0,0.5,0,0.7c-0.1-0.1-0.2-0.1-0.3-0.2c-2.6-1.3-5.7-0.5-6.9,1.8c-1.2,2.3,0,5.3,2.6,6.6c0.5,0.3,1,0.4,1.5,0.5
		c-0.2,0.2-0.5,0.5-0.7,0.7c-1.8,2.3-1.6,5.5,0.4,7.1c2,1.6,5.2,1.1,7-1.2c0.4-0.5,0.7-1.1,0.9-1.7c0.2,0.7,0.6,1.3,1.1,1.9
		c1.9,2.2,5.1,2.6,7,0.9c2-1.7,2-4.9,0.1-7.1c-0.1-0.2-0.3-0.3-0.5-0.5c0.7-0.2,1.4-0.5,2-1C510.1,113.8,510.7,110.7,509.2,108.6z
		 M498.1,117.7c-0.1,0-0.1,0-0.2,0c0,0,0,0.1,0,0.1c0,0,0-0.1,0-0.1c-1.8-0.1-3.3-1.7-3.3-3.6c0-2,1.6-3.6,3.6-3.6s3.6,1.6,3.6,3.6
		C501.7,116.1,500.1,117.7,498.1,117.7z"/>
	<path fill="#E94D80" d="M535.9,122.5c-1.4-1.9-4.2-2.3-6.4-1.1c0-0.2,0-0.4,0-0.6c0-2.9-2.1-5.3-4.7-5.3s-4.7,2.4-4.7,5.3
		c0,0.2,0,0.5,0,0.7c-0.1-0.1-0.2-0.1-0.3-0.2c-2.6-1.3-5.7-0.5-6.9,1.8c-1.2,2.3,0,5.3,2.6,6.6c0.5,0.3,1,0.4,1.5,0.5
		c-0.2,0.2-0.5,0.5-0.7,0.7c-1.8,2.3-1.6,5.5,0.4,7.1c2,1.6,5.2,1.1,7-1.2c0.4-0.5,0.7-1.1,0.9-1.7c0.2,0.7,0.6,1.3,1.1,1.9
		c1.9,2.2,5.1,2.6,7,0.9c2-1.7,2-4.9,0.1-7.1c-0.1-0.2-0.3-0.3-0.5-0.5c0.7-0.2,1.4-0.5,2-1C536.8,127.7,537.4,124.6,535.9,122.5z
		 M524.9,131.6c-0.1,0-0.1,0-0.2,0c0,0,0,0.1,0,0.1c0,0,0-0.1,0-0.1c-1.8-0.1-3.3-1.7-3.3-3.6c0-2,1.6-3.6,3.6-3.6s3.6,1.6,3.6,3.6
		C528.5,130,526.9,131.6,524.9,131.6z"/>
	<path fill="#ED7BAD" d="M620.6,235.9c-1.4-1.9-4.2-2.3-6.4-1.1c0-0.2,0-0.4,0-0.6c0-2.9-2.1-5.3-4.7-5.3s-4.7,2.4-4.7,5.3
		c0,0.2,0,0.5,0,0.7c-0.1-0.1-0.2-0.1-0.3-0.2c-2.6-1.3-5.7-0.5-6.9,1.8c-1.2,2.3,0,5.3,2.6,6.6c0.5,0.3,1,0.4,1.5,0.5
		c-0.2,0.2-0.5,0.5-0.7,0.7c-1.8,2.3-1.6,5.5,0.4,7.1c2,1.6,5.2,1.1,7-1.2c0.4-0.5,0.7-1.1,0.9-1.7c0.2,0.7,0.6,1.3,1.1,1.9
		c1.9,2.2,5.1,2.6,7,0.9c2-1.7,2-4.9,0.1-7.1c-0.1-0.2-0.3-0.3-0.5-0.5c0.7-0.2,1.4-0.5,2-1C621.5,241.1,622.1,238,620.6,235.9z
		 M609.5,245c-0.1,0-0.1,0-0.2,0c0,0,0,0.1,0,0.1c0,0,0-0.1,0-0.1c-1.8-0.1-3.3-1.7-3.3-3.6c0-2,1.6-3.6,3.6-3.6s3.6,1.6,3.6,3.6
		C613.1,243.4,611.5,245,609.5,245z"/>
	<path fill="#E94D80" d="M608.6,208.5c-1.4-1.9-4.2-2.3-6.4-1.1c0-0.2,0-0.4,0-0.6c0-2.9-2.1-5.3-4.7-5.3s-4.7,2.4-4.7,5.3
		c0,0.2,0,0.5,0,0.7c-0.1-0.1-0.2-0.1-0.3-0.2c-2.6-1.3-5.7-0.5-6.9,1.8c-1.2,2.3,0,5.3,2.6,6.6c0.5,0.3,1,0.4,1.5,0.5
		c-0.2,0.2-0.5,0.5-0.7,0.7c-1.8,2.3-1.6,5.5,0.4,7.1c2,1.6,5.2,1.1,7-1.2c0.4-0.5,0.7-1.1,0.9-1.7c0.2,0.7,0.6,1.3,1.1,1.9
		c1.9,2.2,5.1,2.6,7,0.9c2-1.7,2-4.9,0.1-7.1c-0.1-0.2-0.3-0.3-0.5-0.5c0.7-0.2,1.4-0.5,2-1C609.5,213.7,610.1,210.6,608.6,208.5z
		 M597.5,217.6c-0.1,0-0.1,0-0.2,0c0,0,0,0.1,0,0.1c0,0,0-0.1,0-0.1c-1.8-0.1-3.3-1.7-3.3-3.6c0-2,1.6-3.6,3.6-3.6s3.6,1.6,3.6,3.6
		S599.5,217.6,597.5,217.6z"/>
	<path fill="#E94D80" d="M635.9,211.9c-1.4-1.9-4.2-2.3-6.4-1.1c0-0.2,0-0.4,0-0.6c0-2.9-2.1-5.3-4.7-5.3s-4.7,2.4-4.7,5.3
		c0,0.2,0,0.5,0,0.7c-0.1-0.1-0.2-0.1-0.3-0.2c-2.6-1.3-5.7-0.5-6.9,1.8c-1.2,2.3,0,5.3,2.6,6.6c0.5,0.3,1,0.4,1.5,0.5
		c-0.2,0.2-0.5,0.5-0.7,0.7c-1.8,2.3-1.6,5.5,0.4,7.1c2,1.6,5.2,1.1,7-1.2c0.4-0.5,0.7-1.1,0.9-1.7c0.2,0.7,0.6,1.3,1.1,1.9
		c1.9,2.2,5.1,2.6,7,0.9c2-1.7,2-4.9,0.1-7.1c-0.1-0.2-0.3-0.3-0.5-0.5c0.7-0.2,1.4-0.5,2-1C636.8,217.1,637.4,214,635.9,211.9z
		 M624.9,221c-0.1,0-0.1,0-0.2,0c0,0,0,0.1,0,0.1c0,0,0-0.1,0-0.1c-1.8-0.1-3.3-1.7-3.3-3.6c0-2,1.6-3.6,3.6-3.6s3.6,1.6,3.6,3.6
		C628.5,219.4,626.9,221,624.9,221z"/>
	<path fill="#E94D80" d="M543.9,160.5c-1.4-1.9-4.2-2.3-6.4-1.1c0-0.2,0-0.4,0-0.6c0-2.9-2.1-5.3-4.7-5.3s-4.7,2.4-4.7,5.3
		c0,0.2,0,0.5,0,0.7c-0.1-0.1-0.2-0.1-0.3-0.2c-2.6-1.3-5.7-0.5-6.9,1.8c-1.2,2.3,0,5.3,2.6,6.6c0.5,0.3,1,0.4,1.5,0.5
		c-0.2,0.2-0.5,0.5-0.7,0.7c-1.8,2.3-1.6,5.5,0.4,7.1c2,1.6,5.2,1.1,7-1.2c0.4-0.5,0.7-1.1,0.9-1.7c0.2,0.7,0.6,1.3,1.1,1.9
		c1.9,2.2,5.1,2.6,7,0.9c2-1.7,2-4.9,0.1-7.1c-0.1-0.2-0.3-0.3-0.5-0.5c0.7-0.2,1.4-0.5,2-1C544.8,165.7,545.4,162.6,543.9,160.5z
		 M532.9,169.6c-0.1,0-0.1,0-0.2,0c0,0,0,0.1,0,0.1c0,0,0-0.1,0-0.1c-1.8-0.1-3.3-1.7-3.3-3.6c0-2,1.6-3.6,3.6-3.6s3.6,1.6,3.6,3.6
		C536.5,168,534.9,169.6,532.9,169.6z"/>
	<path fill="#E94D80" d="M418.2,88.2c-1.4-1.9-4.2-2.3-6.4-1.1c0-0.2,0-0.4,0-0.6c0-2.9-2.1-5.3-4.7-5.3c-2.6,0-4.7,2.4-4.7,5.3
		c0,0.2,0,0.5,0,0.7c-0.1-0.1-0.2-0.1-0.3-0.2c-2.6-1.3-5.7-0.5-6.9,1.8c-1.2,2.3,0,5.3,2.6,6.6c0.5,0.3,1,0.4,1.5,0.5
		c-0.2,0.2-0.5,0.5-0.7,0.7c-1.8,2.3-1.6,5.5,0.4,7.1c2,1.6,5.2,1.1,7-1.2c0.4-0.5,0.7-1.1,0.9-1.7c0.2,0.7,0.6,1.3,1.1,1.9
		c1.9,2.2,5.1,2.6,7,0.9c2-1.7,2-4.9,0.1-7.1c-0.1-0.2-0.3-0.3-0.5-0.5c0.7-0.2,1.4-0.5,2-1C419.1,93.4,419.8,90.3,418.2,88.2z
		 M407.2,97.3c-0.1,0-0.1,0-0.2,0c0,0,0,0.1,0,0.1c0,0,0-0.1,0-0.1c-1.8-0.1-3.3-1.7-3.3-3.6c0-2,1.6-3.6,3.6-3.6s3.6,1.6,3.6,3.6
		C410.8,95.7,409.2,97.3,407.2,97.3z"/>
	<path fill="#ED7BAD" d="M197.9,83.2c-1.4-1.9-4.2-2.3-6.4-1.1c0-0.2,0-0.4,0-0.6c0-2.9-2.1-5.3-4.7-5.3s-4.7,2.4-4.7,5.3
		c0,0.2,0,0.5,0,0.7c-0.1-0.1-0.2-0.1-0.3-0.2c-2.6-1.3-5.7-0.5-6.9,1.8c-1.2,2.3,0,5.3,2.6,6.6c0.5,0.3,1,0.4,1.5,0.5
		c-0.2,0.2-0.5,0.5-0.7,0.7c-1.8,2.3-1.6,5.5,0.4,7.1c2,1.6,5.2,1.1,7-1.2c0.4-0.5,0.7-1.1,0.9-1.7c0.2,0.7,0.6,1.3,1.1,1.9
		c1.9,2.2,5.1,2.6,7,0.9c2-1.7,2-4.9,0.1-7.1c-0.1-0.2-0.3-0.3-0.5-0.5c0.7-0.2,1.4-0.5,2-1C198.8,88.4,199.4,85.3,197.9,83.2z
		 M186.9,92.3c-0.1,0-0.1,0-0.2,0c0,0,0,0.1,0,0.1c0,0,0-0.1,0-0.1c-1.8-0.1-3.3-1.7-3.3-3.6c0-2,1.6-3.6,3.6-3.6
		c2,0,3.6,1.6,3.6,3.6C190.5,90.7,188.9,92.3,186.9,92.3z"/>
	<path fill="#E94D80" d="M94.5,184.6c-1.4-1.9-4.2-2.3-6.4-1.1c0-0.2,0-0.4,0-0.6c0-2.9-2.1-5.3-4.7-5.3c-2.6,0-4.7,2.4-4.7,5.3
		c0,0.2,0,0.5,0,0.7c-0.1-0.1-0.2-0.1-0.3-0.2c-2.6-1.3-5.7-0.5-6.9,1.8c-1.2,2.3,0,5.3,2.6,6.6c0.5,0.3,1,0.4,1.5,0.5
		c-0.2,0.2-0.5,0.5-0.7,0.7c-1.8,2.3-1.6,5.5,0.4,7.1c2,1.6,5.2,1.1,7-1.2c0.4-0.5,0.7-1.1,0.9-1.7c0.2,0.7,0.6,1.3,1.1,1.9
		c1.9,2.2,5.1,2.6,7,0.9c2-1.7,2-4.9,0.1-7.1c-0.1-0.2-0.3-0.3-0.5-0.5c0.7-0.2,1.4-0.5,2-1C95.3,189.8,96,186.7,94.5,184.6z
		 M83.4,193.7c-0.1,0-0.1,0-0.2,0c0,0,0,0.1,0,0.1c0,0,0-0.1,0-0.1c-1.8-0.1-3.3-1.7-3.3-3.6c0-2,1.6-3.6,3.6-3.6s3.6,1.6,3.6,3.6
		C87,192.1,85.4,193.7,83.4,193.7z"/>
	<path fill="#E94D80" d="M62.5,257c-1.4-1.9-4.2-2.3-6.4-1.1c0-0.2,0-0.4,0-0.6c0-2.9-2.1-5.3-4.7-5.3s-4.7,2.4-4.7,5.3
		c0,0.2,0,0.5,0,0.7c-0.1-0.1-0.2-0.1-0.3-0.2c-2.6-1.3-5.7-0.5-6.9,1.8c-1.2,2.3,0,5.3,2.6,6.6c0.5,0.3,1,0.4,1.5,0.5
		c-0.2,0.2-0.5,0.5-0.7,0.7c-1.8,2.3-1.6,5.5,0.4,7.1c2,1.6,5.2,1.1,7-1.2c0.4-0.5,0.7-1.1,0.9-1.7c0.2,0.7,0.6,1.3,1.1,1.9
		c1.9,2.2,5.1,2.6,7,0.9c2-1.7,2-4.9,0.1-7.1c-0.1-0.2-0.3-0.3-0.5-0.5c0.7-0.2,1.4-0.5,2-1C63.4,262.2,64,259.1,62.5,257z
		 M51.5,266.1c-0.1,0-0.1,0-0.2,0c0,0,0,0.1,0,0.1c0,0,0-0.1,0-0.1c-1.8-0.1-3.3-1.7-3.3-3.6c0-2,1.6-3.6,3.6-3.6s3.6,1.6,3.6,3.6
		C55,264.5,53.4,266.1,51.5,266.1z"/>
	<path fill="#E94D80" d="M239.7,159.8c-1.4-1.9-4.2-2.3-6.4-1.1c0-0.2,0-0.4,0-0.6c0-2.9-2.1-5.3-4.7-5.3s-4.7,2.4-4.7,5.3
		c0,0.2,0,0.5,0,0.7c-0.1-0.1-0.2-0.1-0.3-0.2c-2.6-1.3-5.7-0.5-6.9,1.8c-1.2,2.3,0,5.3,2.6,6.6c0.5,0.3,1,0.4,1.5,0.5
		c-0.2,0.2-0.5,0.5-0.7,0.7c-1.8,2.3-1.6,5.5,0.4,7.1c2,1.6,5.2,1.1,7-1.2c0.4-0.5,0.7-1.1,0.9-1.7c0.2,0.7,0.6,1.3,1.1,1.9
		c1.9,2.2,5.1,2.6,7,0.9c2-1.7,2-4.9,0.1-7.1c-0.1-0.2-0.3-0.3-0.5-0.5c0.7-0.2,1.4-0.5,2-1C240.6,165,241.2,161.9,239.7,159.8z
		 M228.7,168.9c-0.1,0-0.1,0-0.2,0c0,0,0,0.1,0,0.1c0,0,0-0.1,0-0.1c-1.8-0.1-3.3-1.7-3.3-3.6c0-2,1.6-3.6,3.6-3.6
		c2,0,3.6,1.6,3.6,3.6C232.3,167.3,230.7,168.9,228.7,168.9z"/>
	<path fill="#ED7BAD" d="M352.6,213.5c-1.4-1.9-4.2-2.3-6.4-1.1c0-0.2,0-0.4,0-0.6c0-2.9-2.1-5.3-4.7-5.3s-4.7,2.4-4.7,5.3
		c0,0.2,0,0.5,0,0.7c-0.1-0.1-0.2-0.1-0.3-0.2c-2.6-1.3-5.7-0.5-6.9,1.8c-1.2,2.3,0,5.3,2.6,6.6c0.5,0.3,1,0.4,1.5,0.5
		c-0.2,0.2-0.5,0.5-0.7,0.7c-1.8,2.3-1.6,5.5,0.4,7.1c2,1.6,5.2,1.1,7-1.2c0.4-0.5,0.7-1.1,0.9-1.7c0.2,0.7,0.6,1.3,1.1,1.9
		c1.9,2.2,5.1,2.6,7,0.9c2-1.7,2-4.9,0.1-7.1c-0.1-0.2-0.3-0.3-0.5-0.5c0.7-0.2,1.4-0.5,2-1C353.5,218.7,354.1,215.6,352.6,213.5z
		 M341.5,222.6c-0.1,0-0.1,0-0.2,0c0,0,0,0.1,0,0.1c0,0,0-0.1,0-0.1c-1.8-0.1-3.3-1.7-3.3-3.6c0-2,1.6-3.6,3.6-3.6
		c2,0,3.6,1.6,3.6,3.6C345.1,221,343.5,222.6,341.5,222.6z"/>
	<path fill="#ED7BAD" d="M220.6,273.5c-1.4-1.9-4.2-2.3-6.4-1.1c0-0.2,0-0.4,0-0.6c0-2.9-2.1-5.3-4.7-5.3c-2.6,0-4.7,2.4-4.7,5.3
		c0,0.2,0,0.5,0,0.7c-0.1-0.1-0.2-0.1-0.3-0.2c-2.6-1.3-5.7-0.5-6.9,1.8c-1.2,2.3,0,5.3,2.6,6.6c0.5,0.3,1,0.4,1.5,0.5
		c-0.2,0.2-0.5,0.5-0.7,0.7c-1.8,2.3-1.6,5.5,0.4,7.1c2,1.6,5.2,1.1,7-1.2c0.4-0.5,0.7-1.1,0.9-1.7c0.2,0.7,0.6,1.3,1.1,1.9
		c1.9,2.2,5.1,2.6,7,0.9c2-1.7,2-4.9,0.1-7.1c-0.1-0.2-0.3-0.3-0.5-0.5c0.7-0.2,1.4-0.5,2-1C221.5,278.7,222.1,275.6,220.6,273.5z
		 M209.5,282.6c-0.1,0-0.1,0-0.2,0c0,0,0,0.1,0,0.1c0,0,0-0.1,0-0.1c-1.8-0.1-3.3-1.7-3.3-3.6c0-2,1.6-3.6,3.6-3.6
		c2,0,3.6,1.6,3.6,3.6S211.5,282.6,209.5,282.6z"/>
	<path fill="#ED7BAD" d="M468.6,328.9c-1.4-1.9-4.2-2.3-6.4-1.1c0-0.2,0-0.4,0-0.6c0-2.9-2.1-5.3-4.7-5.3s-4.7,2.4-4.7,5.3
		c0,0.2,0,0.5,0,0.7c-0.1-0.1-0.2-0.1-0.3-0.2c-2.6-1.3-5.7-0.5-6.9,1.8c-1.2,2.3,0,5.3,2.6,6.6c0.5,0.3,1,0.4,1.5,0.5
		c-0.2,0.2-0.5,0.5-0.7,0.7c-1.8,2.3-1.6,5.5,0.4,7.1c2,1.6,5.2,1.1,7-1.2c0.4-0.5,0.7-1.1,0.9-1.7c0.2,0.7,0.6,1.3,1.1,1.9
		c1.9,2.2,5.1,2.6,7,0.9c2-1.7,2-4.9,0.1-7.1c-0.1-0.2-0.3-0.3-0.5-0.5c0.7-0.2,1.4-0.5,2-1C469.5,334.1,470.1,331,468.6,328.9z
		 M457.5,338c-0.1,0-0.1,0-0.2,0c0,0,0,0.1,0,0.1c0,0,0-0.1,0-0.1c-1.8-0.1-3.3-1.7-3.3-3.6c0-2,1.6-3.6,3.6-3.6
		c2,0,3.6,1.6,3.6,3.6C461.1,336.4,459.5,338,457.5,338z"/>
	<path fill="#ED7BAD" d="M87.9,250.9c-1.4-1.9-4.2-2.3-6.4-1.1c0-0.2,0-0.4,0-0.6c0-2.9-2.1-5.3-4.7-5.3c-2.6,0-4.7,2.4-4.7,5.3
		c0,0.2,0,0.5,0,0.7c-0.1-0.1-0.2-0.1-0.3-0.2c-2.6-1.3-5.7-0.5-6.9,1.8c-1.2,2.3,0,5.3,2.6,6.6c0.5,0.3,1,0.4,1.5,0.5
		c-0.2,0.2-0.5,0.5-0.7,0.7c-1.8,2.3-1.6,5.5,0.4,7.1c2,1.6,5.2,1.1,7-1.2c0.4-0.5,0.7-1.1,0.9-1.7c0.2,0.7,0.6,1.3,1.1,1.9
		c1.9,2.2,5.1,2.6,7,0.9c2-1.7,2-4.9,0.1-7.1c-0.1-0.2-0.3-0.3-0.5-0.5c0.7-0.2,1.4-0.5,2-1C88.8,256.1,89.4,253,87.9,250.9z
		 M76.9,260c-0.1,0-0.1,0-0.2,0c0,0,0,0.1,0,0.1c0,0,0-0.1,0-0.1c-1.8-0.1-3.3-1.7-3.3-3.6c0-2,1.6-3.6,3.6-3.6s3.6,1.6,3.6,3.6
		C80.5,258.4,78.9,260,76.9,260z"/>
	<path fill="#ED7BAD" d="M292.7,170c-1.4-1.9-4.2-2.3-6.4-1.1c0-0.2,0-0.4,0-0.6c0-2.9-2.1-5.3-4.7-5.3s-4.7,2.4-4.7,5.3
		c0,0.2,0,0.5,0,0.7c-0.1-0.1-0.2-0.1-0.3-0.2c-2.6-1.3-5.7-0.5-6.9,1.8c-1.2,2.3,0,5.3,2.6,6.6c0.5,0.3,1,0.4,1.5,0.5
		c-0.2,0.2-0.5,0.5-0.7,0.7c-1.8,2.3-1.6,5.5,0.4,7.1c2,1.6,5.2,1.1,7-1.2c0.4-0.5,0.7-1.1,0.9-1.7c0.2,0.7,0.6,1.3,1.1,1.9
		c1.9,2.2,5.1,2.6,7,0.9c2-1.7,2-4.9,0.1-7.1c-0.1-0.2-0.3-0.3-0.5-0.5c0.7-0.2,1.4-0.5,2-1C293.6,175.2,294.2,172.1,292.7,170z
		 M281.6,179.1c-0.1,0-0.1,0-0.2,0c0,0,0,0.1,0,0.1c0,0,0-0.1,0-0.1c-1.8-0.1-3.3-1.7-3.3-3.6c0-2,1.6-3.6,3.6-3.6s3.6,1.6,3.6,3.6
		C285.2,177.5,283.6,179.1,281.6,179.1z"/>
	<path fill="#E94D80" d="M353.7,86.5c-1.4-1.9-4.2-2.3-6.4-1.1c0-0.2,0-0.4,0-0.6c0-2.9-2.1-5.3-4.7-5.3c-2.6,0-4.7,2.4-4.7,5.3
		c0,0.2,0,0.5,0,0.7c-0.1-0.1-0.2-0.1-0.3-0.2c-2.6-1.3-5.7-0.5-6.9,1.8c-1.2,2.3,0,5.3,2.6,6.6c0.5,0.3,1,0.4,1.5,0.5
		c-0.2,0.2-0.5,0.5-0.7,0.7c-1.8,2.3-1.6,5.5,0.4,7.1c2,1.6,5.2,1.1,7-1.2c0.4-0.5,0.7-1.1,0.9-1.7c0.2,0.7,0.6,1.3,1.1,1.9
		c1.9,2.2,5.1,2.6,7,0.9c2-1.7,2-4.9,0.1-7.1c-0.1-0.2-0.3-0.3-0.5-0.5c0.7-0.2,1.4-0.5,2-1C354.6,91.7,355.2,88.6,353.7,86.5z
		 M342.7,95.5c-0.1,0-0.1,0-0.2,0c0,0,0,0.1,0,0.1c0,0,0-0.1,0-0.1c-1.8-0.1-3.3-1.7-3.3-3.6c0-2,1.6-3.6,3.6-3.6s3.6,1.6,3.6,3.6
		C346.3,93.9,344.7,95.5,342.7,95.5z"/>
	<path fill="#ED7BAD" d="M401.2,51.5c-1.4-1.9-4.2-2.3-6.4-1.1c0-0.2,0-0.4,0-0.6c0-2.9-2.1-5.3-4.7-5.3s-4.7,2.4-4.7,5.3
		c0,0.2,0,0.5,0,0.7c-0.1-0.1-0.2-0.1-0.3-0.2c-2.6-1.3-5.7-0.5-6.9,1.8c-1.2,2.3,0,5.3,2.6,6.6c0.5,0.3,1,0.4,1.5,0.5
		c-0.2,0.2-0.5,0.5-0.7,0.7c-1.8,2.3-1.6,5.5,0.4,7.1c2,1.6,5.2,1.1,7-1.2c0.4-0.5,0.7-1.1,0.9-1.7c0.2,0.7,0.6,1.3,1.1,1.9
		c1.9,2.2,5.1,2.6,7,0.9c2-1.7,2-4.9,0.1-7.1c-0.1-0.2-0.3-0.3-0.5-0.5c0.7-0.2,1.4-0.5,2-1C402.1,56.7,402.8,53.6,401.2,51.5z
		 M390.2,60.6c-0.1,0-0.1,0-0.2,0c0,0,0,0.1,0,0.1c0,0,0-0.1,0-0.1c-1.8-0.1-3.3-1.7-3.3-3.6c0-2,1.6-3.6,3.6-3.6
		c2,0,3.6,1.6,3.6,3.6S392.2,60.6,390.2,60.6z"/>
	<path fill="#ED7BAD" d="M313.3,55.3c-1.4-1.9-4.2-2.3-6.4-1.1c0-0.2,0-0.4,0-0.6c0-2.9-2.1-5.3-4.7-5.3s-4.7,2.4-4.7,5.3
		c0,0.2,0,0.5,0,0.7c-0.1-0.1-0.2-0.1-0.3-0.2c-2.6-1.3-5.7-0.5-6.9,1.8c-1.2,2.3,0,5.3,2.6,6.6c0.5,0.3,1,0.4,1.5,0.5
		c-0.2,0.2-0.5,0.5-0.7,0.7c-1.8,2.3-1.6,5.5,0.4,7.1c2,1.6,5.2,1.1,7-1.2c0.4-0.5,0.7-1.1,0.9-1.7c0.2,0.7,0.6,1.3,1.1,1.9
		c1.9,2.2,5.1,2.6,7,0.9c2-1.7,2-4.9,0.1-7.1c-0.1-0.2-0.3-0.3-0.5-0.5c0.7-0.2,1.4-0.5,2-1C314.2,60.5,314.9,57.4,313.3,55.3z
		 M302.3,64.4c-0.1,0-0.1,0-0.2,0c0,0,0,0.1,0,0.1c0,0,0-0.1,0-0.1c-1.8-0.1-3.3-1.7-3.3-3.6c0-2,1.6-3.6,3.6-3.6
		c2,0,3.6,1.6,3.6,3.6S304.3,64.4,302.3,64.4z"/>
	<path fill="#ED7BAD" d="M258,94.6c-1.4-1.9-4.2-2.3-6.4-1.1c0-0.2,0-0.4,0-0.6c0-2.9-2.1-5.3-4.7-5.3s-4.7,2.4-4.7,5.3
		c0,0.2,0,0.5,0,0.7c-0.1-0.1-0.2-0.1-0.3-0.2c-2.6-1.3-5.7-0.5-6.9,1.8c-1.2,2.3,0,5.3,2.6,6.6c0.5,0.3,1,0.4,1.5,0.5
		c-0.2,0.2-0.5,0.5-0.7,0.7c-1.8,2.3-1.6,5.5,0.4,7.1c2,1.6,5.2,1.1,7-1.2c0.4-0.5,0.7-1.1,0.9-1.7c0.2,0.7,0.6,1.3,1.1,1.9
		c1.9,2.2,5.1,2.6,7,0.9c2-1.7,2-4.9,0.1-7.1c-0.1-0.2-0.3-0.3-0.5-0.5c0.7-0.2,1.4-0.5,2-1C258.9,99.8,259.5,96.7,258,94.6z
		 M247,103.7c-0.1,0-0.1,0-0.2,0c0,0,0,0.1,0,0.1c0,0,0-0.1,0-0.1c-1.8-0.1-3.3-1.7-3.3-3.6c0-2,1.6-3.6,3.6-3.6
		c2,0,3.6,1.6,3.6,3.6C250.6,102.1,249,103.7,247,103.7z"/>
	<path fill="#ED7BAD" d="M249.9,123.5c-1.4-1.9-4.2-2.3-6.4-1.1c0-0.2,0-0.4,0-0.6c0-2.9-2.1-5.3-4.7-5.3s-4.7,2.4-4.7,5.3
		c0,0.2,0,0.5,0,0.7c-0.1-0.1-0.2-0.1-0.3-0.2c-2.6-1.3-5.7-0.5-6.9,1.8c-1.2,2.3,0,5.3,2.6,6.6c0.5,0.3,1,0.4,1.5,0.5
		c-0.2,0.2-0.5,0.5-0.7,0.7c-1.8,2.3-1.6,5.5,0.4,7.1c2,1.6,5.2,1.1,7-1.2c0.4-0.5,0.7-1.1,0.9-1.7c0.2,0.7,0.6,1.3,1.1,1.9
		c1.9,2.2,5.1,2.6,7,0.9c2-1.7,2-4.9,0.1-7.1c-0.1-0.2-0.3-0.3-0.5-0.5c0.7-0.2,1.4-0.5,2-1C250.8,128.7,251.4,125.6,249.9,123.5z
		 M238.9,132.6c-0.1,0-0.1,0-0.2,0c0,0,0,0.1,0,0.1c0,0,0-0.1,0-0.1c-1.8-0.1-3.3-1.7-3.3-3.6c0-2,1.6-3.6,3.6-3.6
		c2,0,3.6,1.6,3.6,3.6C242.5,131,240.9,132.6,238.9,132.6z"/>
	<path fill="#ED7BAD" d="M220.6,139.5c-1.4-1.9-4.2-2.3-6.4-1.1c0-0.2,0-0.4,0-0.6c0-2.9-2.1-5.3-4.7-5.3c-2.6,0-4.7,2.4-4.7,5.3
		c0,0.2,0,0.5,0,0.7c-0.1-0.1-0.2-0.1-0.3-0.2c-2.6-1.3-5.7-0.5-6.9,1.8c-1.2,2.3,0,5.3,2.6,6.6c0.5,0.3,1,0.4,1.5,0.5
		c-0.2,0.2-0.5,0.5-0.7,0.7c-1.8,2.3-1.6,5.5,0.4,7.1c2,1.6,5.2,1.1,7-1.2c0.4-0.5,0.7-1.1,0.9-1.7c0.2,0.7,0.6,1.3,1.1,1.9
		c1.9,2.2,5.1,2.6,7,0.9c2-1.7,2-4.9,0.1-7.1c-0.1-0.2-0.3-0.3-0.5-0.5c0.7-0.2,1.4-0.5,2-1C221.5,144.7,222.1,141.6,220.6,139.5z
		 M209.5,148.6c-0.1,0-0.1,0-0.2,0c0,0,0,0.1,0,0.1c0,0,0-0.1,0-0.1c-1.8-0.1-3.3-1.7-3.3-3.6c0-2,1.6-3.6,3.6-3.6
		c2,0,3.6,1.6,3.6,3.6C213.1,147,211.5,148.6,209.5,148.6z"/>
	<path fill="#ED7BAD" d="M411.3,317.3c-1.4-1.9-4.2-2.3-6.4-1.1c0-0.2,0-0.4,0-0.6c0-2.9-2.1-5.3-4.7-5.3s-4.7,2.4-4.7,5.3
		c0,0.2,0,0.5,0,0.7c-0.1-0.1-0.2-0.1-0.3-0.2c-2.6-1.3-5.7-0.5-6.9,1.8c-1.2,2.3,0,5.3,2.6,6.6c0.5,0.3,1,0.4,1.5,0.5
		c-0.2,0.2-0.5,0.5-0.7,0.7c-1.8,2.3-1.6,5.5,0.4,7.1c2,1.6,5.2,1.1,7-1.2c0.4-0.5,0.7-1.1,0.9-1.7c0.2,0.7,0.6,1.3,1.1,1.9
		c1.9,2.2,5.1,2.6,7,0.9c2-1.7,2-4.9,0.1-7.1c-0.1-0.2-0.3-0.3-0.5-0.5c0.7-0.2,1.4-0.5,2-1C412.2,322.5,412.9,319.4,411.3,317.3z
		 M400.3,326.4c-0.1,0-0.1,0-0.2,0c0,0,0,0.1,0,0.1c0,0,0-0.1,0-0.1c-1.8-0.1-3.3-1.7-3.3-3.6c0-2,1.6-3.6,3.6-3.6
		c2,0,3.6,1.6,3.6,3.6S402.3,326.4,400.3,326.4z"/>
	<path fill="#ED7BAD" d="M611.9,264.2c-1.4-1.9-4.2-2.3-6.4-1.1c0-0.2,0-0.4,0-0.6c0-2.9-2.1-5.3-4.7-5.3s-4.7,2.4-4.7,5.3
		c0,0.2,0,0.5,0,0.7c-0.1-0.1-0.2-0.1-0.3-0.2c-2.6-1.3-5.7-0.5-6.9,1.8c-1.2,2.3,0,5.3,2.6,6.6c0.5,0.3,1,0.4,1.5,0.5
		c-0.2,0.2-0.5,0.5-0.7,0.7c-1.8,2.3-1.6,5.5,0.4,7.1c2,1.6,5.2,1.1,7-1.2c0.4-0.5,0.7-1.1,0.9-1.7c0.2,0.7,0.6,1.3,1.1,1.9
		c1.9,2.2,5.1,2.6,7,0.9c2-1.7,2-4.9,0.1-7.1c-0.1-0.2-0.3-0.3-0.5-0.5c0.7-0.2,1.4-0.5,2-1C612.8,269.4,613.4,266.3,611.9,264.2z
		 M600.9,273.3c-0.1,0-0.1,0-0.2,0c0,0,0,0.1,0,0.1c0,0,0-0.1,0-0.1c-1.8-0.1-3.3-1.7-3.3-3.6c0-2,1.6-3.6,3.6-3.6s3.6,1.6,3.6,3.6
		S602.9,273.3,600.9,273.3z"/>
	<path fill="#ED7BAD" d="M165.3,278c-1.4-1.9-4.2-2.3-6.4-1.1c0-0.2,0-0.4,0-0.6c0-2.9-2.1-5.3-4.7-5.3s-4.7,2.4-4.7,5.3
		c0,0.2,0,0.5,0,0.7c-0.1-0.1-0.2-0.1-0.3-0.2c-2.6-1.3-5.7-0.5-6.9,1.8c-1.2,2.3,0,5.3,2.6,6.6c0.5,0.3,1,0.4,1.5,0.5
		c-0.2,0.2-0.5,0.5-0.7,0.7c-1.8,2.3-1.6,5.5,0.4,7.1c2,1.6,5.2,1.1,7-1.2c0.4-0.5,0.7-1.1,0.9-1.7c0.2,0.7,0.6,1.3,1.1,1.9
		c1.9,2.2,5.1,2.6,7,0.9c2-1.7,2-4.9,0.1-7.1c-0.1-0.2-0.3-0.3-0.5-0.5c0.7-0.2,1.4-0.5,2-1C166.2,283.2,166.9,280.1,165.3,278z
		 M154.3,287.1c-0.1,0-0.1,0-0.2,0c0,0,0,0.1,0,0.1c0,0,0-0.1,0-0.1c-1.8-0.1-3.3-1.7-3.3-3.6c0-2,1.6-3.6,3.6-3.6
		c2,0,3.6,1.6,3.6,3.6C157.9,285.5,156.3,287.1,154.3,287.1z"/>
	<path fill="#ED7BAD" d="M273.2,338.2c-1.4-1.9-4.2-2.3-6.4-1.1c0-0.2,0-0.4,0-0.6c0-2.9-2.1-5.3-4.7-5.3s-4.7,2.4-4.7,5.3
		c0,0.2,0,0.5,0,0.7c-0.1-0.1-0.2-0.1-0.3-0.2c-2.6-1.3-5.7-0.5-6.9,1.8c-1.2,2.3,0,5.3,2.6,6.6c0.5,0.3,1,0.4,1.5,0.5
		c-0.2,0.2-0.5,0.5-0.7,0.7c-1.8,2.3-1.6,5.5,0.4,7.1c2,1.6,5.2,1.1,7-1.2c0.4-0.5,0.7-1.1,0.9-1.7c0.2,0.7,0.6,1.3,1.1,1.9
		c1.9,2.2,5.1,2.6,7,0.9c2-1.7,2-4.9,0.1-7.1c-0.1-0.2-0.3-0.3-0.5-0.5c0.7-0.2,1.4-0.5,2-1C274.1,343.4,274.8,340.3,273.2,338.2z
		 M262.2,347.3c-0.1,0-0.1,0-0.2,0c0,0,0,0.1,0,0.1c0,0,0-0.1,0-0.1c-1.8-0.1-3.3-1.7-3.3-3.6c0-2,1.6-3.6,3.6-3.6
		c2,0,3.6,1.6,3.6,3.6S264.2,347.3,262.2,347.3z"/>
	<path fill="#ED7BAD" d="M271.1,275.6c-2.3-3.1-6.7-3.8-10.4-1.7c0-0.3,0-0.6,0-0.9c0-4.7-3.4-8.5-7.6-8.5c-4.2,0-7.6,3.8-7.6,8.5
		c0,0.4,0,0.7,0.1,1.1c-0.2-0.1-0.4-0.2-0.6-0.3c-4.2-2.1-9.1-0.8-11,2.9c-1.9,3.7-0.1,8.5,4.1,10.6c0.8,0.4,1.6,0.7,2.4,0.8
		c-0.4,0.3-0.8,0.7-1.1,1.2c-2.9,3.7-2.6,8.8,0.7,11.4c3.3,2.6,8.3,1.7,11.2-2c0.7-0.9,1.2-1.8,1.5-2.8c0.4,1.1,1,2.2,1.8,3.1
		c3.1,3.5,8.2,4.2,11.3,1.4c3.2-2.8,3.2-7.9,0.1-11.4c-0.2-0.3-0.5-0.5-0.7-0.8c1.1-0.3,2.2-0.8,3.3-1.5
		C272.5,284,273.6,279,271.1,275.6z M253.3,290.3c-0.1,0-0.2,0-0.3,0c0,0.1,0,0.1-0.1,0.2c0-0.1,0-0.1-0.1-0.2
		c-3-0.2-5.3-2.7-5.3-5.7c0-3.2,2.6-5.8,5.8-5.8c3.2,0,5.8,2.6,5.8,5.8C259.1,287.7,256.5,290.3,253.3,290.3z"/>
	<path fill="#ED7BAD" d="M101.1,303.6c-2.3-3.1-6.7-3.8-10.4-1.7c0-0.3,0-0.6,0-0.9c0-4.7-3.4-8.5-7.6-8.5s-7.6,3.8-7.6,8.5
		c0,0.4,0,0.7,0.1,1.1c-0.2-0.1-0.4-0.2-0.6-0.3c-4.2-2.1-9.1-0.8-11,2.9c-1.9,3.7-0.1,8.5,4.1,10.6c0.8,0.4,1.6,0.7,2.4,0.8
		c-0.4,0.3-0.8,0.7-1.1,1.2c-2.9,3.7-2.6,8.8,0.7,11.4c3.3,2.6,8.3,1.7,11.2-2c0.7-0.9,1.2-1.8,1.5-2.8c0.4,1.1,1,2.2,1.8,3.1
		c3.1,3.5,8.2,4.2,11.3,1.4c3.2-2.8,3.2-7.9,0.1-11.4c-0.2-0.3-0.5-0.5-0.7-0.8c1.1-0.3,2.2-0.8,3.3-1.5
		C102.5,312,103.6,307,101.1,303.6z M83.3,318.3c-0.1,0-0.2,0-0.3,0c0,0.1,0,0.1-0.1,0.2c0-0.1,0-0.1-0.1-0.2
		c-3-0.2-5.3-2.7-5.3-5.7c0-3.2,2.6-5.8,5.8-5.8s5.8,2.6,5.8,5.8C89.1,315.7,86.5,318.3,83.3,318.3z"/>
	<path fill="#ED7BAD" d="M58.4,207c-2.3-3.1-6.7-3.8-10.4-1.7c0-0.3,0-0.6,0-0.9c0-4.7-3.4-8.5-7.6-8.5s-7.6,3.8-7.6,8.5
		c0,0.4,0,0.7,0.1,1.1c-0.2-0.1-0.4-0.2-0.6-0.3c-4.2-2.1-9.1-0.8-11,2.9c-1.9,3.7-0.1,8.5,4.1,10.6c0.8,0.4,1.6,0.7,2.4,0.8
		c-0.4,0.3-0.8,0.7-1.1,1.2c-2.9,3.7-2.6,8.8,0.7,11.4c3.3,2.6,8.3,1.7,11.2-2c0.7-0.9,1.2-1.8,1.5-2.8c0.4,1.1,1,2.2,1.8,3.1
		c3.1,3.5,8.2,4.2,11.3,1.4c3.2-2.8,3.2-7.9,0.1-11.4c-0.2-0.3-0.5-0.5-0.7-0.8c1.1-0.3,2.2-0.8,3.3-1.5
		C59.8,215.3,60.9,210.3,58.4,207z M40.6,221.6c-0.1,0-0.2,0-0.3,0c0,0.1,0,0.1-0.1,0.2c0-0.1,0-0.1-0.1-0.2c-3-0.2-5.3-2.7-5.3-5.7
		c0-3.2,2.6-5.8,5.8-5.8c3.2,0,5.8,2.6,5.8,5.8C46.4,219,43.8,221.6,40.6,221.6z"/>
	<path fill="#ED7BAD" d="M141.1,190.3c-2.3-3.1-6.7-3.8-10.4-1.7c0-0.3,0-0.6,0-0.9c0-4.7-3.4-8.5-7.6-8.5s-7.6,3.8-7.6,8.5
		c0,0.4,0,0.7,0.1,1.1c-0.2-0.1-0.4-0.2-0.6-0.3c-4.2-2.1-9.1-0.8-11,2.9c-1.9,3.7-0.1,8.5,4.1,10.6c0.8,0.4,1.6,0.7,2.4,0.8
		c-0.4,0.3-0.8,0.7-1.1,1.2c-2.9,3.7-2.6,8.8,0.7,11.4c3.3,2.6,8.3,1.7,11.2-2c0.7-0.9,1.2-1.8,1.5-2.8c0.4,1.1,1,2.2,1.8,3.1
		c3.1,3.5,8.2,4.2,11.3,1.4c3.2-2.8,3.2-7.9,0.1-11.4c-0.2-0.3-0.5-0.5-0.7-0.8c1.1-0.3,2.2-0.8,3.3-1.5
		C142.5,198.7,143.6,193.7,141.1,190.3z M123.3,204.9c-0.1,0-0.2,0-0.3,0c0,0.1,0,0.1-0.1,0.2c0-0.1,0-0.1-0.1-0.2
		c-3-0.2-5.3-2.7-5.3-5.7c0-3.2,2.6-5.8,5.8-5.8s5.8,2.6,5.8,5.8C129.1,202.4,126.5,204.9,123.3,204.9z"/>
	<path fill="#ED7BAD" d="M164.6,113.6c-2.3-3.1-6.7-3.8-10.4-1.7c0-0.3,0-0.6,0-0.9c0-4.7-3.4-8.5-7.6-8.5s-7.6,3.8-7.6,8.5
		c0,0.4,0,0.7,0.1,1.1c-0.2-0.1-0.4-0.2-0.6-0.3c-4.2-2.1-9.1-0.8-11,2.9c-1.9,3.7-0.1,8.5,4.1,10.6c0.8,0.4,1.6,0.7,2.4,0.8
		c-0.4,0.3-0.8,0.7-1.1,1.2c-2.9,3.7-2.6,8.8,0.7,11.4c3.3,2.6,8.3,1.7,11.2-2c0.7-0.9,1.2-1.8,1.5-2.8c0.4,1.1,1,2.2,1.8,3.1
		c3.1,3.5,8.2,4.2,11.3,1.4c3.2-2.8,3.2-7.9,0.1-11.4c-0.2-0.3-0.5-0.5-0.7-0.8c1.1-0.3,2.2-0.8,3.3-1.5
		C166,121.9,167,116.9,164.6,113.6z M146.8,128.2c-0.1,0-0.2,0-0.3,0c0,0.1,0,0.1-0.1,0.2c0-0.1,0-0.1-0.1-0.2
		c-3-0.2-5.3-2.7-5.3-5.7c0-3.2,2.6-5.8,5.8-5.8s5.8,2.6,5.8,5.8C152.6,125.6,150,128.2,146.8,128.2z"/>
	<path fill="#ED7BAD" d="M280.4,46.3c-2.3-3.1-6.7-3.8-10.4-1.7c0-0.3,0-0.6,0-0.9c0-4.7-3.4-8.5-7.6-8.5s-7.6,3.8-7.6,8.5
		c0,0.4,0,0.7,0.1,1.1c-0.2-0.1-0.4-0.2-0.6-0.3c-4.2-2.1-9.1-0.8-11,2.9c-1.9,3.7-0.1,8.5,4.1,10.6c0.8,0.4,1.6,0.7,2.4,0.8
		c-0.4,0.3-0.8,0.7-1.1,1.2c-2.9,3.7-2.6,8.8,0.7,11.4c3.3,2.6,8.3,1.7,11.2-2c0.7-0.9,1.2-1.8,1.5-2.8c0.4,1.1,1,2.2,1.8,3.1
		c3.1,3.5,8.2,4.2,11.3,1.4c3.2-2.8,3.2-7.9,0.1-11.4c-0.2-0.3-0.5-0.5-0.7-0.8c1.1-0.3,2.2-0.8,3.3-1.5
		C281.8,54.7,282.9,49.7,280.4,46.3z M262.6,60.9c-0.1,0-0.2,0-0.3,0c0,0.1,0,0.1-0.1,0.2c0-0.1,0-0.1-0.1-0.2
		c-3-0.2-5.3-2.7-5.3-5.7c0-3.2,2.6-5.8,5.8-5.8s5.8,2.6,5.8,5.8S265.8,60.9,262.6,60.9z"/>
	<path fill="#ED7BAD" d="M437.7,167c-2.3-3.1-6.7-3.8-10.4-1.7c0-0.3,0-0.6,0-0.9c0-4.7-3.4-8.5-7.6-8.5s-7.6,3.8-7.6,8.5
		c0,0.4,0,0.7,0.1,1.1c-0.2-0.1-0.4-0.2-0.6-0.3c-4.2-2.1-9.1-0.8-11,2.9c-1.9,3.7-0.1,8.5,4.1,10.6c0.8,0.4,1.6,0.7,2.4,0.8
		c-0.4,0.3-0.8,0.7-1.1,1.2c-2.9,3.7-2.6,8.8,0.7,11.4c3.3,2.6,8.3,1.7,11.2-2c0.7-0.9,1.2-1.8,1.5-2.8c0.4,1.1,1,2.2,1.8,3.1
		c3.1,3.5,8.2,4.2,11.3,1.4c3.2-2.8,3.2-7.9,0.1-11.4c-0.2-0.3-0.5-0.5-0.7-0.8c1.1-0.3,2.2-0.8,3.3-1.5
		C439.2,175.3,440.2,170.3,437.7,167z M420,181.6c-0.1,0-0.2,0-0.3,0c0,0.1,0,0.1-0.1,0.2c0-0.1,0-0.1-0.1-0.2
		c-3-0.2-5.3-2.7-5.3-5.7c0-3.2,2.6-5.8,5.8-5.8s5.8,2.6,5.8,5.8C425.7,179,423.2,181.6,420,181.6z"/>
	<path fill="#ED7BAD" d="M531.1,196.3c-2.3-3.1-6.7-3.8-10.4-1.7c0-0.3,0-0.6,0-0.9c0-4.7-3.4-8.5-7.6-8.5c-4.2,0-7.6,3.8-7.6,8.5
		c0,0.4,0,0.7,0.1,1.1c-0.2-0.1-0.4-0.2-0.6-0.3c-4.2-2.1-9.1-0.8-11,2.9c-1.9,3.7-0.1,8.5,4.1,10.6c0.8,0.4,1.6,0.7,2.4,0.8
		c-0.4,0.3-0.8,0.7-1.1,1.2c-2.9,3.7-2.6,8.8,0.7,11.4c3.3,2.6,8.3,1.7,11.2-2c0.7-0.9,1.2-1.8,1.5-2.8c0.4,1.1,1,2.2,1.8,3.1
		c3.1,3.5,8.2,4.2,11.3,1.4c3.2-2.8,3.2-7.9,0.1-11.4c-0.2-0.3-0.5-0.5-0.7-0.8c1.1-0.3,2.2-0.8,3.3-1.5
		C532.5,204.7,533.6,199.7,531.1,196.3z M513.3,210.9c-0.1,0-0.2,0-0.3,0c0,0.1,0,0.1-0.1,0.2c0-0.1,0-0.1-0.1-0.2
		c-3-0.2-5.3-2.7-5.3-5.7c0-3.2,2.6-5.8,5.8-5.8c3.2,0,5.8,2.6,5.8,5.8C519.1,208.4,516.5,210.9,513.3,210.9z"/>
	<path fill="#ED7BAD" d="M354.6,39.9c-2.3-3.1-6.7-3.8-10.4-1.7c0-0.3,0-0.6,0-0.9c0-4.7-3.4-8.5-7.6-8.5s-7.6,3.8-7.6,8.5
		c0,0.4,0,0.7,0.1,1.1c-0.2-0.1-0.4-0.2-0.6-0.3c-4.2-2.1-9.1-0.8-11,2.9c-1.9,3.7-0.1,8.5,4.1,10.6c0.8,0.4,1.6,0.7,2.4,0.8
		c-0.4,0.3-0.8,0.7-1.1,1.2c-2.9,3.7-2.6,8.8,0.7,11.4c3.3,2.6,8.3,1.7,11.2-2c0.7-0.9,1.2-1.8,1.5-2.8c0.4,1.1,1,2.2,1.8,3.1
		c3.1,3.5,8.2,4.2,11.3,1.4c3.2-2.8,3.2-7.9,0.1-11.4c-0.2-0.3-0.5-0.5-0.7-0.8c1.1-0.3,2.2-0.8,3.3-1.5
		C356,48.3,357,43.3,354.6,39.9z M336.8,54.6c-0.1,0-0.2,0-0.3,0c0,0.1,0,0.1-0.1,0.2c0-0.1,0-0.1-0.1-0.2c-3-0.2-5.3-2.7-5.3-5.7
		c0-3.2,2.6-5.8,5.8-5.8s5.8,2.6,5.8,5.8S340,54.6,336.8,54.6z"/>
	<path fill="#ED7BAD" d="M525.7,392c-2.3-3.1-6.7-3.8-10.4-1.7c0-0.3,0-0.6,0-0.9c0-4.7-3.4-8.5-7.6-8.5c-4.2,0-7.6,3.8-7.6,8.5
		c0,0.4,0,0.7,0.1,1.1c-0.2-0.1-0.4-0.2-0.6-0.3c-4.2-2.1-9.1-0.8-11,2.9c-1.9,3.7-0.1,8.5,4.1,10.6c0.8,0.4,1.6,0.7,2.4,0.8
		c-0.4,0.3-0.8,0.7-1.1,1.2c-2.9,3.7-2.6,8.8,0.7,11.4c3.3,2.6,8.3,1.7,11.2-2c0.7-0.9,1.2-1.8,1.5-2.8c0.4,1.1,1,2.2,1.8,3.1
		c3.1,3.5,8.2,4.2,11.3,1.4c3.2-2.8,3.2-7.9,0.1-11.4c-0.2-0.3-0.5-0.5-0.7-0.8c1.1-0.3,2.2-0.8,3.3-1.5
		C527.2,400.3,528.2,395.3,525.7,392z M508,406.6c-0.1,0-0.2,0-0.3,0c0,0.1,0,0.1-0.1,0.2c0-0.1,0-0.1-0.1-0.2
		c-3-0.2-5.3-2.7-5.3-5.7c0-3.2,2.6-5.8,5.8-5.8c3.2,0,5.8,2.6,5.8,5.8C513.7,404,511.2,406.6,508,406.6z"/>
	<path fill="#ED7BAD" d="M589.7,294.3c-2.3-3.1-6.7-3.8-10.4-1.7c0-0.3,0-0.6,0-0.9c0-4.7-3.4-8.5-7.6-8.5c-4.2,0-7.6,3.8-7.6,8.5
		c0,0.4,0,0.7,0.1,1.1c-0.2-0.1-0.4-0.2-0.6-0.3c-4.2-2.1-9.1-0.8-11,2.9c-1.9,3.7-0.1,8.5,4.1,10.6c0.8,0.4,1.6,0.7,2.4,0.8
		c-0.4,0.3-0.8,0.7-1.1,1.2c-2.9,3.7-2.6,8.8,0.7,11.4c3.3,2.6,8.3,1.7,11.2-2c0.7-0.9,1.2-1.8,1.5-2.8c0.4,1.1,1,2.2,1.8,3.1
		c3.1,3.5,8.2,4.2,11.3,1.4c3.2-2.8,3.2-7.9,0.1-11.4c-0.2-0.3-0.5-0.5-0.7-0.8c1.1-0.3,2.2-0.8,3.3-1.5
		C591.2,302.7,592.2,297.7,589.7,294.3z M572,308.9c-0.1,0-0.2,0-0.3,0c0,0.1,0,0.1-0.1,0.2c0-0.1,0-0.1-0.1-0.2
		c-3-0.2-5.3-2.7-5.3-5.7c0-3.2,2.6-5.8,5.8-5.8s5.8,2.6,5.8,5.8C577.7,306.4,575.2,308.9,572,308.9z"/>
	<path fill="#ED7BAD" d="M593.7,218.3c-2.3-3.1-6.7-3.8-10.4-1.7c0-0.3,0-0.6,0-0.9c0-4.7-3.4-8.5-7.6-8.5c-4.2,0-7.6,3.8-7.6,8.5
		c0,0.4,0,0.7,0.1,1.1c-0.2-0.1-0.4-0.2-0.6-0.3c-4.2-2.1-9.1-0.8-11,2.9c-1.9,3.7-0.1,8.5,4.1,10.6c0.8,0.4,1.6,0.7,2.4,0.8
		c-0.4,0.3-0.8,0.7-1.1,1.2c-2.9,3.7-2.6,8.8,0.7,11.4c3.3,2.6,8.3,1.7,11.2-2c0.7-0.9,1.2-1.8,1.5-2.8c0.4,1.1,1,2.2,1.8,3.1
		c3.1,3.5,8.2,4.2,11.3,1.4c3.2-2.8,3.2-7.9,0.1-11.4c-0.2-0.3-0.5-0.5-0.7-0.8c1.1-0.3,2.2-0.8,3.3-1.5
		C595.2,226.7,596.2,221.7,593.7,218.3z M576,232.9c-0.1,0-0.2,0-0.3,0c0,0.1,0,0.1-0.1,0.2c0-0.1,0-0.1-0.1-0.2
		c-3-0.2-5.3-2.7-5.3-5.7c0-3.2,2.6-5.8,5.8-5.8s5.8,2.6,5.8,5.8S579.2,232.9,576,232.9z"/>
	<path fill="#ED7BAD" d="M464.4,233.6c-2.3-3.1-6.7-3.8-10.4-1.7c0-0.3,0-0.6,0-0.9c0-4.7-3.4-8.5-7.6-8.5s-7.6,3.8-7.6,8.5
		c0,0.4,0,0.7,0.1,1.1c-0.2-0.1-0.4-0.2-0.6-0.3c-4.2-2.1-9.1-0.8-11,2.9c-1.9,3.7-0.1,8.5,4.1,10.6c0.8,0.4,1.6,0.7,2.4,0.8
		c-0.4,0.3-0.8,0.7-1.1,1.2c-2.9,3.7-2.6,8.8,0.7,11.4c3.3,2.6,8.3,1.7,11.2-2c0.7-0.9,1.2-1.8,1.5-2.8c0.4,1.1,1,2.2,1.8,3.1
		c3.1,3.5,8.2,4.2,11.3,1.4c3.2-2.8,3.2-7.9,0.1-11.4c-0.2-0.3-0.5-0.5-0.7-0.8c1.1-0.3,2.2-0.8,3.3-1.5
		C465.8,242,466.9,237,464.4,233.6z M446.6,248.3c-0.1,0-0.2,0-0.3,0c0,0.1,0,0.1-0.1,0.2c0-0.1,0-0.1-0.1-0.2
		c-3-0.2-5.3-2.7-5.3-5.7c0-3.2,2.6-5.8,5.8-5.8s5.8,2.6,5.8,5.8S449.8,248.3,446.6,248.3z"/>
	<path fill="#ED7BAD" d="M399.1,241c-2.3-3.1-6.7-3.8-10.4-1.7c0-0.3,0-0.6,0-0.9c0-4.7-3.4-8.5-7.6-8.5s-7.6,3.8-7.6,8.5
		c0,0.4,0,0.7,0.1,1.1c-0.2-0.1-0.4-0.2-0.6-0.3c-4.2-2.1-9.1-0.8-11,2.9c-1.9,3.7-0.1,8.5,4.1,10.6c0.8,0.4,1.6,0.7,2.4,0.8
		c-0.4,0.3-0.8,0.7-1.1,1.2c-2.9,3.7-2.6,8.8,0.7,11.4c3.3,2.6,8.3,1.7,11.2-2c0.7-0.9,1.2-1.8,1.5-2.8c0.4,1.1,1,2.2,1.8,3.1
		c3.1,3.5,8.2,4.2,11.3,1.4c3.2-2.8,3.2-7.9,0.1-11.4c-0.2-0.3-0.5-0.5-0.7-0.8c1.1-0.3,2.2-0.8,3.3-1.5
		C400.5,249.3,401.6,244.3,399.1,241z M381.3,255.6c-0.1,0-0.2,0-0.3,0c0,0.1,0,0.1-0.1,0.2c0-0.1,0-0.1-0.1-0.2
		c-3-0.2-5.3-2.7-5.3-5.7c0-3.2,2.6-5.8,5.8-5.8s5.8,2.6,5.8,5.8C387.1,253,384.5,255.6,381.3,255.6z"/>
	<path fill="#ED7BAD" d="M336.2,123.4c-2.3-3.1-6.7-3.8-10.4-1.7c0-0.3,0-0.6,0-0.9c0-4.7-3.4-8.5-7.6-8.5s-7.6,3.8-7.6,8.5
		c0,0.4,0,0.7,0.1,1.1c-0.2-0.1-0.4-0.2-0.6-0.3c-4.2-2.1-9.1-0.8-11,2.9c-1.9,3.7-0.1,8.5,4.1,10.6c0.8,0.4,1.6,0.7,2.4,0.8
		c-0.4,0.3-0.8,0.7-1.1,1.2c-2.9,3.7-2.6,8.8,0.7,11.4c3.3,2.6,8.3,1.7,11.2-2c0.7-0.9,1.2-1.8,1.5-2.8c0.4,1.1,1,2.2,1.8,3.1
		c3.1,3.5,8.2,4.2,11.3,1.4c3.2-2.8,3.2-7.9,0.1-11.4c-0.2-0.3-0.5-0.5-0.7-0.8c1.1-0.3,2.2-0.8,3.3-1.5
		C337.6,131.8,338.7,126.8,336.2,123.4z M318.4,138.1c-0.1,0-0.2,0-0.3,0c0,0.1,0,0.1-0.1,0.2c0-0.1,0-0.1-0.1-0.2
		c-3-0.2-5.3-2.7-5.3-5.7c0-3.2,2.6-5.8,5.8-5.8s5.8,2.6,5.8,5.8C324.2,135.5,321.6,138.1,318.4,138.1z"/>
	<path fill="#E94D80" d="M476.4,372.3c-2.3-3.1-6.7-3.8-10.4-1.7c0-0.3,0-0.6,0-0.9c0-4.7-3.4-8.5-7.6-8.5s-7.6,3.8-7.6,8.5
		c0,0.4,0,0.7,0.1,1.1c-0.2-0.1-0.4-0.2-0.6-0.3c-4.2-2.1-9.1-0.8-11,2.9c-1.9,3.7-0.1,8.5,4.1,10.6c0.8,0.4,1.6,0.7,2.4,0.8
		c-0.4,0.3-0.8,0.7-1.1,1.2c-2.9,3.7-2.6,8.8,0.7,11.4c3.3,2.6,8.3,1.7,11.2-2c0.7-0.9,1.2-1.8,1.5-2.8c0.4,1.1,1,2.2,1.8,3.1
		c3.1,3.5,8.2,4.2,11.3,1.4c3.2-2.8,3.2-7.9,0.1-11.4c-0.2-0.3-0.5-0.5-0.7-0.8c1.1-0.3,2.2-0.8,3.3-1.5
		C477.8,380.7,478.9,375.7,476.4,372.3z M458.6,386.9c-0.1,0-0.2,0-0.3,0c0,0.1,0,0.1-0.1,0.2c0-0.1,0-0.1-0.1-0.2
		c-3-0.2-5.3-2.7-5.3-5.7c0-3.2,2.6-5.8,5.8-5.8s5.8,2.6,5.8,5.8S461.8,386.9,458.6,386.9z"/>
</g>
<path fill="#D5A873" d="M111.5,150.4h-7c-4,0-7.3-3.3-7.3-7.3v-14.4c0-4,3.3-7.3,7.3-7.3h7c4,0,7.3,3.3,7.3,7.3v14.4
	C118.8,147.1,115.5,150.4,111.5,150.4z"/>
<path fill="#94C123" d="M162.9,191.4l0.3,0.1c0.4,0.2,0.9,0,1.1-0.5l29.9-75.2c0.2-0.4,0-0.9-0.5-1.1l-0.3-0.1
	c-0.4-0.2-0.9,0-1.1,0.5l-29.9,75.2C162.3,190.7,162.5,191.2,162.9,191.4z"/>
<path fill="#D5A873" d="M148.9,200.5c4.6-4.9,12.6-7.6,16.4-10.7c2-1.7,4-3.5,6.2-5c5.2-3.7,11.2-5.8,16.4-9.5
	c1-0.7,1.7-1.8,2.3-2.8c0.2-0.4,0.4-1.1-0.3-1.6c-0.1-0.1-0.9,0-1.3,0.2c-1.8,1-3.5,2.1-5.2,3.2c-0.4,0.3-0.9,0.5-1.5,0.5
	c2.4-1.6,4.9-3.2,7.3-4.9c1.2-0.8,2.2-1.9,3.1-3c0.3-0.4,0.7-1.3,0.1-1.9c-0.6-0.6-1.7-0.5-2.3-0.2c-1.9,1-3.7,2.2-5.6,3.3
	c-1.7,1-3.3,2-5.2,2.7c2-1.3,4-2.6,5.8-4c1.8-1.4,3.6-2.8,5.2-4.4c0.6-0.6,1.1-1.9,0.6-2.9c-0.7-0.8-2.2-0.4-2.9,0
	c-2.4,1.5-4.6,3.3-6.9,4.9c-0.7,0.5-1.5,0.8-2.4,0.9c1.6-1.8,3.3-3.6,4.9-5.4c0.5-0.6,1.1-1.2,1.3-1.8c0.2-0.6,0.6-1.2,0-2.1
	c-0.6-0.2-0.9-0.8-2,0.4c-2.8,2.3-5.5,4.8-8.3,7.2c-1.1,1-2.3,2-3.5,2.9c0.7-2.1,0.8-4,1.3-6.9c0-0.6,0.1-1.9-1.2-1.9
	c-0.8,0.3-1.6,0.7-2.1,1.5c-1.9,2.5-0.9,6.1-3.2,8.4c-1.1,1.1-2.2,4.1-2.2,4.1s-1,3.2-1.8,4c-6.2,6-14.2,7.6-21.3,12.4
	C142.2,196.3,142.8,198.2,148.9,200.5z"/>
<path fill="#3BAA35" d="M130.3,247.4H92.1c-1.2,0-2.3-1.4-2.3-3.2l3-99.9c0-1.8,1-3.2,2.3-3.2l27.2,0.5c1.2,0,2.3,1.4,2.3,3.2
	l8,99.4C132.6,246,131.5,247.4,130.3,247.4z"/>
<path fill="#1E1E1C" d="M123.9,368.3c-15.3,0-22.3-0.3-22.3-0.3v13.9h48.3C149.9,381.9,153.6,376.5,123.9,368.3z"/>
<path fill="#94C123" d="M140.9,205.8l-5.6,3.4c-2.1,1.3-4.8,0.6-6-1.5l-27.2-44.6c-1.3-2.1-0.6-4.8,1.5-6l5.6-3.4
	c2.1-1.3,4.8-0.6,6,1.5l27.2,44.6C143.7,201.9,143,204.6,140.9,205.8z"/>
<polygon fill="#B2B2B2" points="101.6,384.5 149.1,384.5 149.9,381.9 101.6,381.9 "/>
<path fill="#302D7E" d="M130.3,247.4H92.1c-0.3,0-0.6-0.1-0.8-0.2c-0.1,0.9-0.1,1.9-0.1,2.8c0,10.5,4.3,19.5,10.7,24.1v91.1
	c0,1.8,0.5,3.2,1.1,3.2h19c0.6,0,1.1-1.4,1.1-3.2v-93.3c4.9-5,8.1-12.9,8.1-21.9c0-0.9,0-1.9-0.1-2.8
	C130.8,247.4,130.6,247.4,130.3,247.4z"/>
<path fill="#94C123" d="M130.9,207.6l-4.2-6.9c-1-1.7-0.5-3.9,1.2-4.9l25-15.3c1.7-1,3.9-0.5,4.9,1.2l4.2,6.9c1,1.7,0.5,3.9-1.2,4.9
	l-25,15.3C134.2,209.8,131.9,209.3,130.9,207.6z"/>
<path fill="#D5A873" d="M143.1,100.4c-0.4-2.6-3.2-6.5-3.6-7.2c-2.4-16.1-14.3-28.3-28.7-28.3c-16.1,0-29.2,15.3-29.2,34.2
	s13.1,34.2,29.2,34.2c14.3,0,26.2-12.1,28.7-28.1C140.6,104.5,143.4,102.7,143.1,100.4z"/>
<path fill="#1E1E1C" d="M132.2,83.8c0,0-4.7-1-7.5,0.8s-2.6,4.5-2.6,4.5s2.4-3.7,7-4.2C133.7,84.3,132.2,83.8,132.2,83.8z"/>
<path fill="#C89D66" d="M102.1,94c0,0-3.4-5.4-6.9-2.5s-1.1,8.1-1.1,8.1s-1.7,2.8-0.9,4.9c0.9,2.1,6.7,6.6,8.1,3.7
	S102.1,94,102.1,94z"/>
<path fill="#1E1E1C" d="M131.6,74.9c2.3-1.5,4.9,0.1,4.9,0.1l-6.7-9.7c0,0-9.7-9-18.8-7.2c-9.2,1.8-44.2,3.8-40.3,35
	c0.6,4.5,1,8.3,1.5,11.6c0.4,3.2,0.8,5.8,1.1,8.1L73.1,125l1.7-1.9c0,0.2,0.1,0.4,0.1,0.6l0,4.1l2.4-2.8c0,0,0.1,0,0.1,0l0.5,3.3
	l2.6-4.2c0.1,0,0.1-0.1,0.2-0.1l1.1,5.1l3.2-6l2.2,2.7l0.1-7.1c0.1-0.1,0.1-0.2,0.2-0.3c2.8-6.2-1.3-26.5,3-29
	c4.3-2.5,14.3-5.3,16.8,4.2s2.3,10,2.3,10l4.2-0.8c0,0-2.8-14.8-0.3-18.3c0.2-0.3,0.5-0.6,0.7-0.9l1.7,2.1l0.1-3.9c0,0,0,0,0.1-0.1
	l0.7,1.9l1.2-3.3c0,0,0,0,0,0l0,3.1l4.2-4.9l2.9,2.8l-0.3-3l4.5,4.2l-1.6-5.3c0,0,0.1,0,0.1-0.1l3.3,1.9l-1.5-2.7l3.2,1.4
	L131.6,74.9z"/>
<g>
	<path fill="none" d="M131.9,88.7c-0.1,0-0.3,0.1-0.4,0.2c1.5,1.6,0.8,2.9,0,3.8c0.1,0.2,0.3,0.3,0.4,0.3c0.5,0,0.8-1,0.8-2.2
		S132.4,88.7,131.9,88.7z"/>
	<path fill="#FFFFFF" d="M131.5,88.9c-0.3,0.4-0.5,1.1-0.5,1.9c0,0.8,0.2,1.5,0.4,1.9C132.3,91.9,133,90.6,131.5,88.9z"/>
</g>
<path fill="#FFFFFF" d="M130.7,88.1l-5.1,2.9l4.9,2.8C130.5,93.7,135.2,91.2,130.7,88.1z"/>
<ellipse fill="#5A552B" cx="131.2" cy="90.9" rx="1.5" ry="3"/>
<path fill="#D5A873" d="M115.6,138.4c0,0,7.1-8.5,15.2-9.3s7.3-11.5-1.8-18.9"/>
<path fill="#D5A873" d="M576.8,121h7c4,0,7.3-3.3,7.3-7.3V99.3c0-4-3.3-7.3-7.3-7.3h-7c-4,0-7.3,3.3-7.3,7.3v14.4
	C569.5,117.7,572.8,121,576.8,121z"/>
<path fill="#94C123" d="M522.9,148.3l-0.2,0.2c-0.4,0.3-0.9,0.2-1.2-0.2l-49.3-64.2c-0.3-0.4-0.2-0.9,0.2-1.2l0.2-0.2
	c0.4-0.3,0.9-0.2,1.2,0.2l49.3,64.2C523.4,147.5,523.3,148,522.9,148.3z"/>
<path fill="#D5A873" d="M539.4,171c-4.6-4.9-12.6-7.6-16.4-10.7c-2-1.7-4-3.5-6.2-5c-5.2-3.7-11.2-5.8-16.4-9.5
	c-1-0.7-1.7-1.8-2.3-2.8c-0.2-0.4-0.4-1.1,0.3-1.6c0.1-0.1,0.9,0,1.3,0.2c1.8,1,3.5,2.1,5.2,3.2c0.4,0.3,0.9,0.5,1.5,0.5
	c-2.4-1.6-4.9-3.2-7.3-4.9c-1.2-0.8-2.2-1.9-3.1-3c-0.3-0.4-0.7-1.3-0.1-1.9c0.6-0.6,1.7-0.5,2.3-0.2c1.9,1,3.7,2.2,5.6,3.3
	c1.7,1,3.3,2,5.2,2.7c-2-1.3-4-2.6-5.8-4c-1.8-1.4-3.6-2.8-5.2-4.4c-0.6-0.6-1.1-1.9-0.6-2.9c0.7-0.8,2.2-0.4,2.9,0
	c2.4,1.5,4.6,3.3,6.9,4.9c0.7,0.5,1.5,0.8,2.4,0.9c-1.6-1.8-3.3-3.6-4.9-5.4c-0.5-0.6-1.1-1.2-1.3-1.8c-0.2-0.6-0.6-1.2,0-2.1
	c0.6-0.2,0.9-0.8,2,0.4c2.8,2.3,5.5,4.8,8.3,7.2c1.1,1,2.3,2,3.5,2.9c-0.7-2.1-0.8-4-1.3-6.9c0-0.6-0.1-1.9,1.2-1.9
	c0.8,0.3,1.6,0.7,2.1,1.5c1.9,2.5,0.9,6.1,3.2,8.4c1.1,1.1,2.2,4.1,2.2,4.1s1,3.2,1.8,4c6.2,6,14.2,7.6,21.3,12.4
	C546,166.9,545.5,168.7,539.4,171z"/>
<path fill="#078E38" d="M558,218h38.2c1.2,0,2.3-1.4,2.3-3.2l-3-99.9c0-1.8-1-3.2-2.3-3.2l-27.2,0.5c-1.2,0-2.3,1.4-2.3,3.2l-8,99.4
	C555.7,216.5,556.7,218,558,218z"/>
<path fill="#BE1823" d="M564.4,338.8c15.3,0,22.3-0.3,22.3-0.3v13.9h-48.3C538.4,352.4,534.6,347,564.4,338.8z"/>
<path fill="#056734" d="M547.3,176.4l5.6,3.4c2.1,1.3,4.8,0.6,6-1.5l27.2-44.6c1.3-2.1,0.6-4.8-1.5-6l-5.6-3.4
	c-2.1-1.3-4.8-0.6-6,1.5l-27.2,44.6C544.6,172.4,545.3,175.1,547.3,176.4z"/>
<polygon fill="#B2B2B2" points="586.6,355 539.1,355 538.4,352.4 586.6,352.4 "/>
<path fill="#1F71B8" d="M558,218h38.2c0.3,0,0.6-0.1,0.8-0.2c0.1,0.9,0.1,1.9,0.1,2.8c0,10.5-4.3,19.5-10.7,24.1v91.1
	c0,1.8-0.5,3.2-1.1,3.2h-19c-0.6,0-1.1-1.4-1.1-3.2v-93.3c-4.9-5-8.1-12.9-8.1-21.9c0-0.9,0-1.9,0.1-2.8
	C557.5,217.9,557.7,218,558,218z"/>
<path fill="#056734" d="M557.4,178.1l4.2-6.9c1-1.7,0.5-3.9-1.2-4.9l-25-15.3c-1.7-1-3.9-0.5-4.9,1.2l-4.2,6.9
	c-1,1.7-0.5,3.9,1.2,4.9l25,15.3C554.1,180.3,556.4,179.8,557.4,178.1z"/>
<path fill="#D5A873" d="M545.2,71c0.4-2.6,3.2-6.5,3.6-7.2c2.4-16.1,14.3-28.3,28.7-28.3c16.1,0,29.2,15.3,29.2,34.2
	s-13.1,34.2-29.2,34.2c-14.3,0-26.2-12.1-28.7-28.1C547.7,75.1,544.8,73.2,545.2,71z"/>
<path fill="#EB9730" d="M556.1,54.3c0,0,4.7-1,7.5,0.8s2.6,4.5,2.6,4.5s-2.4-3.7-7-4.2C554.6,54.8,556.1,54.3,556.1,54.3z"/>
<path fill="#C89D66" d="M586.2,64.5c0,0,3.4-5.4,6.9-2.5s1.1,8.1,1.1,8.1s1.7,2.8,0.9,4.9c-0.9,2.1-6.7,6.6-8.1,3.7
	S586.2,64.5,586.2,64.5z"/>
<path fill="none" d="M556.4,59.2c0.1,0,0.3,0.1,0.4,0.2c-1.5,1.6-0.8,2.9,0,3.8c-0.1,0.2-0.3,0.3-0.4,0.3c-0.5,0-0.8-1-0.8-2.2
	S555.9,59.2,556.4,59.2z"/>
<path fill="#FFFFFF" d="M556.8,59.5c0.3,0.4,0.5,1.1,0.5,1.9c0,0.8-0.2,1.5-0.4,1.9C555.9,62.4,555.3,61.1,556.8,59.5z"/>
<path fill="#FFFFFF" d="M557.6,58.6l5.1,2.9l-4.9,2.8C557.7,64.3,553.1,61.8,557.6,58.6z"/>
<ellipse fill="#422A19" cx="557.1" cy="61.4" rx="1.5" ry="3"/>
<path fill="#D5A873" d="M572.7,108.9c0,0-7.1-8.5-15.2-9.3c-8.2-0.8-7.3-11.5,1.8-18.9"/>
<path fill="#EF8405" d="M563,26.5c0,0-15.5,2-13.8,10s6.5,14,12.8,14.8s23.8,3.3,27.8,5.5s8.5,7.5,8.3,9.3s-1.8,22.5,2.5,23.3
	S614,74,615,70S621,26,563,26.5z"/>
<path fill="#EF8405" d="M614,54.3c0,0,6-5,18,1.8s3.3,25,14,33.3s-16.5,34.3-16.5,34.3s5.3-25,2.3-35.5s-8.5-22.8-16.8-25.8"/>
<path fill="#3BAA35" d="M615.3,63.7L615.3,63.7c0.9-0.1,1.5-1,1.4-1.9l-1.4-9.4c-0.1-0.9-1-1.5-1.9-1.4l0,0c-0.9,0.1-1.5,1-1.4,1.9
	l1.4,9.4C613.6,63.2,614.5,63.9,615.3,63.7z"/>
</svg>
