<?xml version="1.0" encoding="utf-8"?>
<!-- Generator: Adobe Illustrator 15.0.0, SVG Export Plug-In . SVG Version: 6.00 Build 0)  -->
<!DOCTYPE svg PUBLIC "-//W3C//DTD SVG 1.1//EN" "http://www.w3.org/Graphics/SVG/1.1/DTD/svg11.dtd">
<svg version="1.1" id="Ebene_1" xmlns="http://www.w3.org/2000/svg" xmlns:xlink="http://www.w3.org/1999/xlink" x="0px" y="0px"
	 width="1090px" height="1000px" viewBox="1500.5 0 1090 1000" enable-background="new 1500.5 0 1090 1000" xml:space="preserve">
<path fill="#F9B233" d="M1788.838,849.889c-13.816,7.536-28.889,13.996-44.32,17.943c-35.529,8.973-58.855-6.459-66.393-42.167
	c-5.383-25.301-4.665-50.78-0.537-76.081c1.973-11.305,5.023-22.25,7.715-34.094c45.577,47.372,92.948,87.565,161.673,98.152
	C1826.34,826.562,1808.217,839.302,1788.838,849.889z"/>
<path d="M2294.194,389.178c0.849,0.754,1.764,1.262,2.458,2.104c2.661,2.815-0.072,18.896-0.072,18.896
	c-2.278-1.793-28.766-17.166-39.742-23.259c-17.716-9.87-25.062-25.105-24.237-44.851c0.534-15.226,4.05-30.309-4.629-44.982
	c-3.319-5.75,0.946-12.356,7.61-15.168c6.82-2.902,12.326-0.9,16.316,5.291c4.617,7.279,3.604,14.495,0.521,22.076
	c-3.435,8.406-7.18,16.992-8.743,25.768c-5.752,32.742,16.631,56.079,50.829,53.945L2294.194,389.178z"/>
<path fill="#28190F" d="M2080.602,636.539c-6.459-16.149-12.021-32.658-19.379-48.269c-9.869-21.354-8.793-46.475,4.307-66.033
	c6.28-9.33,38.22-57.42,114.66-73.03c24.582-0.897,46.653-0.359,68.724,4.127c32.657,6.46,56.164,24.224,67.468,55.805
	c5.384,15.611,8.255,32.119,12.023,48.269c10.228,42.706-10.229,73.928-38.759,103.176c-16.688,15.611-47.192,32.119-48.628,32.657
	c-10.406,3.948-21.173,6.998-33.555,10.767c-28.351,6.818-35.527,4.665-50.242-1.794c-8.612-2.333-16.866-4.846-26.018-7.357
	c-39.477-11.843-40.015-28.71-43.783-42.168C2085.088,647.125,2082.755,641.922,2080.602,636.539z"/>
<path fill="#683C14" d="M2291.662,380.487c24.293-22.521,52.779-38.139,83.305-50.582c18.75-7.718,38.152-13.946,58.985-13.75
	c22.681,0.165,18.001,14.392,14.116,36.73c-2.107,11.783-16.673,24.764-21.901,35.448c-26.404,52.954-36.942,94.745-78.847,135.928
	c-9.327,9.322-19.74,9.947-30.712,5.301c-6.021-2.533-12.023-6.113-16.628-10.498c-27.201-25.941-43.896-56.292-38.684-95.354
	C2260.962,423.49,2262.631,408.438,2291.662,380.487z"/>
<path fill="#F9B233" d="M1865.637,782.062c-39.655-22.788-71.774-54.189-98.152-91.153c-10.766-14.894-18.66-32.119-26.915-48.628
	c-5.741-11.663-3.409-23.326,3.948-34.093c14.354-21.353,33.913-36.246,57.061-46.833c12.561-5.742,13.816-5.024,21.532,6.46
	c2.153,3.051,3.947,6.28,6.101,9.331c26.198,37.502,51.678,75.722,78.952,112.507c16.688,22.608,36.426,43.064,62.085,55.983
	c7.178,3.589,8.793,7.896,5.204,13.996c-3.409,5.742-7.356,11.843-12.382,16.149c-15.252,13.099-33.733,18.841-52.395,19.918
	C1893.449,795.699,1879.095,789.777,1865.637,782.062z"/>
<path fill="#F9B233" d="M1994.293,515.957c25.301,13.458,44.32,33.555,60.291,56.702c20.814,30.325,38.22,62.085,41.27,99.767
	c1.615,20.456-5.921,31.581-25.301,38.579c-20.814,7.356-39.476,1.436-56.163-10.228c-57.42-39.835-95.819-94.563-121.479-158.802
	c-6.46-16.508-1.077-26.377,16.329-30.863c12.74-3.409,25.838-5.024,38.758-7.536
	C1964.865,503.756,1980.117,508.241,1994.293,515.957z"/>
<path fill="#28190F" d="M1965.941,747.431c-20.275-17.227-41.449-33.734-59.572-53.113c-36.426-38.938-63.162-85.053-91.154-130.092
	c-1.256-2.153-1.256-6.101-0.18-8.612c8.793-20.994,33.555-36.067,55.984-33.914c9.869,0.897,16.867,3.409,20.814,15.432
	c15.253,46.115,43.424,84.873,75.902,120.581c18.482,20.097,38.758,38.399,65.135,48.089c10.049,3.769,11.664,6.64,5.922,15.971
	c-12.381,20.097-31.581,29.966-56.343,34.271C1977.605,753.711,1970.607,751.737,1965.941,747.431z"/>
<path fill="#28190F" d="M1842.849,817.052c-22.43-0.538-42.706-7.536-62.085-18.303c-36.426-20.097-65.494-49.165-95.999-76.619
	c-1.614-1.436-2.871-4.485-2.512-6.639c4.665-28.352,14.175-54.549,35.528-74.646c4.127-3.947,11.125-5.203,17.047-6.639
	c1.614-0.359,5.203,2.333,5.921,4.307c10.407,29.606,28.53,54.369,48.986,77.337c24.941,27.992,52.575,52.934,86.668,69.621
	c7.356,3.589,15.252,5.922,24.044,9.331C1882.145,806.465,1864.74,817.411,1842.849,817.052z"/>
<path fill="#683C14" d="M2144.84,651.97c-0.358,1.795-0.896,3.769-1.436,5.742c-9.51,30.684-26.915,56.882-47.551,80.926
	c-16.688,19.38-35.887,35.17-61.905,40.732c-5.742,1.256-11.663,3.589-15.072-3.051c-3.589-6.639-1.257-12.381,4.485-17.405
	c9.151-8.254,18.303-16.688,26.557-25.659c18.482-20.097,28.71-45.038,40.015-69.621c5.204-11.305,12.381-21.712,19.917-31.761
	c5.024-6.639,12.92-8.254,20.994-4.845c8.254,3.409,14.355,12.381,14.355,20.994C2145.02,649.1,2145.02,650.714,2144.84,651.97z"/>
<path fill="#28190F" d="M1953.92,946.066c-1.436-0.18-2.871-0.18-4.307-0.358c-13.1-1.974-22.25-9.689-26.736-21.532
	c-4.127-10.946,3.409-18.482,11.305-23.686c10.945-7.178,22.609-13.278,34.451-18.662c15.971-7.177,32.299-13.099,48.628-19.379
	c8.612-3.229,16.867,0,22.071,8.254c3.588,5.384,5.562,11.484,0.179,16.329c-19.021,16.688-37.861,33.375-57.778,48.627
	C1974.017,941.581,1954.278,946.605,1953.92,946.066z"/>
<path fill="#683C14" d="M2242.992,616.441c4.845-10.945,15.072-16.148,25.121-8.972c5.203,3.769,10.766,9.869,12.021,15.791
	c5.742,28.71,10.408,57.958,15.073,87.026c1.256,8.434-5.562,17.585-14.534,21.174c-8.613,3.409-16.508,1.436-21.892-6.64
	c-3.769-5.742-7.356-12.022-8.792-18.481c-4.307-20.994-7.537-42.168-11.305-63.162
	C2239.045,642.998,2236.532,626.67,2242.992,616.441z"/>
<path fill="#683C14" d="M2168.525,652.688c0.718-7.356,5.024-13.099,12.022-13.816c7.896-0.896,16.329,0,24.224,1.615
	c5.742,1.076,8.254,6.28,6.998,12.74c-1.974,9.869-3.409,19.737-5.203,29.606c-3.23,18.661-6.46,37.323-10.049,55.805
	c-1.974,10.049-9.689,16.688-18.303,16.149c-8.254-0.358-13.457-6.101-14.534-17.226c-0.897-8.254-0.897-16.509-1.614-28.71
	C2164.04,692.882,2166.373,672.964,2168.525,652.688z"/>
<path fill="#28190F" d="M2017.081,772.372c6.998,12.381,15.253,7.896,23.327,2.871c0,34.272,0,66.392,0,100.126
	c-13.637-6.819-26.916-8.434-41.629-1.257C2000.215,838.584,2005.956,806.106,2017.081,772.372z"/>
<path fill="#28190F" d="M2341.682,736.844c-9.689,2.691-17.584-3.769-26.557-3.947c-12.739-0.18-25.3,0-40.014,0
	c12.201-8.613,18.841-18.303,18.841-31.761c0-1.615,3.409-4.665,5.203-4.665c12.202-0.18,24.583-1.436,36.426,1.076
	c8.075,1.615,16.329,7.357,21.892,13.638c10.407,11.663,6.639,24.762-7.357,31.76
	C2346.706,740.433,2343.477,736.306,2341.682,736.844z"/>
<path fill="#28190F" d="M2221.998,821.717c-7.178,13.458-15.252,26.557-23.865,39.297c-2.691,3.769-7.896,6.46-12.561,8.254
	c-6.46,2.513-17.405-2.332-21.892-8.612c-4.485-6.28-2.333-12.202,1.795-17.405c9.689-12.382,19.737-24.404,29.786-36.426
	c2.153-2.513,5.742-4.127,7.357-5.204C2211.591,798.031,2225.766,814.36,2221.998,821.717z"/>
<path fill="#28190F" d="M2187.188,825.127c-8.973-8.434-16.329-43.962-15.971-73.569c8.075-2.691,15.611-5.383,24.225-8.434
	c7.178,20.994,14.714,42.706,23.147,66.93C2201.9,805.927,2190.955,809.336,2187.188,825.127z"/>
<path fill="#28190F" d="M2292.695,806.465c-1.076-2.691,1.795-7.178,3.769-9.33c16.329-17.406,31.401-35.529,38.22-59.215
	c0.718-2.332,6.46-4.307,9.689-4.307c1.975,0,4.846,4.307,5.384,7.178c0.897,3.409,0.179,7.357-0.718,10.946
	c-5.562,22.429-17.585,40.911-34.811,55.983c-2.871,2.513-7.178,8.793-14.176,7.896
	C2293.055,812.745,2293.772,809.516,2292.695,806.465z"/>
<path fill="#28190F" d="M2143.404,901.926c-2.691,0.896-7.356,1.794-9.689-2.153c-0.896-0.539-0.358-5.562,0.897-7.357
	c8.074-11.305,16.508-22.43,25.301-33.375c1.614-1.974,5.024-3.589,7.177-3.051c1.795,0.359,3.051,3.769,3.769,4.666
	C2170.858,872.318,2155.248,897.798,2143.404,901.926z"/>
<path d="M2261.949,425.199c-0.09-0.155-0.27-0.465-0.514-0.531c-2.362-0.502-4.969-1.068-7.485-1.48
	c-22.335-2.438-37.546-14.789-45.851-35.272c-4.905-12.087-10.229-23.102-22.08-30.349c-6.338-3.801-6.154-12.814-1.506-18.4
	c5.182-6.099,12.275-7.087,17.55-2.259c4.85,4.452,7.997,11.338,10.073,17.805c3.207,10.579,4.035,21.704,7.244,32.284
	c3.906,12.869,12.871,21.576,25.664,25.793c6.553,2.018,12.723,3.015,18.103,1.566S2264.665,430.262,2261.949,425.199z"/>
<path fill="#28190F" d="M1913.905,978.186c-2.871,1.975-7.716,4.307-11.483,0.539c-1.077-0.359-2.154-5.922-1.257-8.434
	c5.562-14.894,11.663-29.787,18.123-44.501c1.077-2.512,4.486-5.203,6.998-5.383c2.333,0,4.665,3.409,5.742,4.127
	C1935.438,937.274,1925.748,970.291,1913.905,978.186z"/>
<path fill="#28190F" d="M2297.621,402.068c12.148-11.423,26.447-19.127,41.617-25.311c9.32-3.913,19.115-6.995,29.539-6.764
	c11.408,0.025,17.062,6.32,15.178,17.697c-0.998,5.908-2.849,11.933-5.449,17.296c-12.867,26.726-31.184,49.427-52.115,70.149
	c-4.719,4.561-9.828,4.938-15.463,2.496c-3.008-1.389-5.9-3.213-8.314-5.489c-13.918-13.282-22.477-28.741-19.957-48.569
	C2282.438,423.516,2283.195,415.913,2297.621,402.068z"/>
<g>
	<path fill="#E4E9EC" stroke="#D9D9D9" stroke-miterlimit="10" d="M2196.697,453.154c-9.689-5.203-19.918-9.51-29.248-15.432
		c-58.855-37.322-117.352-75.004-176.207-112.507c-61.188-38.938-122.734-77.337-188.049-109.097
		c-12.92-6.28-19.918-15.432-23.507-28.53c-9.689-35.708-10.587-71.775-3.947-108.2c3.409-17.944,8.612-35.169,20.635-49.524
		c8.793-10.408,19.559-15.791,33.734-15.791c19.738,0.179,36.784,8.075,53.113,17.764c34.99,20.635,63.88,48.627,91.153,78.234
		c60.65,65.674,111.969,138.166,158.443,214.248c21.891,35.887,41.09,73.39,61.367,110.354c2.691,4.845,3.768,10.587,5.562,15.79
		C2198.851,451.36,2197.953,452.257,2196.697,453.154z"/>
	<path fill="none" stroke="#D9D9D9" stroke-miterlimit="10" d="M1934.361,74.185c0,0-38.221-37.144-45.397,13.099
		c-7.178,50.242,303.786,363.718,303.786,363.718"/>
	<path fill="#E4E9EC" stroke="#D9D9D9" stroke-miterlimit="10" d="M2024.797,504.832c-38.758-2.871-77.517-5.383-115.736-10.766
		c-58.138-8.255-115.916-19.918-174.054-27.992c-33.555-4.666-60.29-19.559-83.617-43.065
		c-23.507-23.865-44.859-49.345-62.444-77.695c-17.943-28.89-32.837-59.214-37.502-93.487c-4.666-34.452,1.795-66.033,29.428-89.898
		c5.562-4.845,13.278-8.254,20.455-9.689c20.277-3.948,39.836,1.615,59.035,7.536c48.269,14.894,92.948,37.323,137.27,61.009
		c137.269,73.569,264.668,162.929,393.863,249.237c7.895,5.383,14.893,12.561,21.173,19.917c4.845,5.742,3.051,10.946-3.947,14.535
		c-2.871,1.436-5.922,2.512-8.972,2.871c-18.662,1.794-37.502,3.229-52.037,4.485
		C2103.57,509.318,2064.094,507.523,2024.797,504.832z"/>
	<path fill="none" stroke="#D9D9D9" stroke-miterlimit="10" d="M1939.206,362.539c0,0-41.81,14.354-21.532,37.144
		c20.275,22.788,297.864,100.484,297.864,100.484s-459.357-232.012-473.712-259.645c-14.355-27.633,22.788-33.555,22.788-33.555"/>
	<path fill="none" stroke="#D9D9D9" stroke-miterlimit="10" d="M1715.628,308.708c0,0,165.081,143.549,210.479,160.237
		c45.396,16.688,282.612,35.349,282.612,35.349"/>
	<path fill="none" stroke="#D9D9D9" stroke-miterlimit="10" d="M1571.899,259.722c0,0,19.021,41.809,75.363,113.583
		c56.343,71.775,195.048,39.477,195.048,39.477"/>
	<path fill="none" stroke="#D9D9D9" stroke-miterlimit="10" d="M1583.922,173.413c155.571,139.96,172.259,80.208,172.259,80.208"/>
	<path fill="none" stroke="#D9D9D9" stroke-miterlimit="10" d="M1553.955,235.677c4.846,16.867,12.022,12.022,12.022,12.022
		c58.676,21.532,348.107,135.116,348.107,135.116"/>
	<line fill="none" stroke="#D9D9D9" stroke-miterlimit="10" x1="1621.064" y1="267.976" x2="1672.384" y2="244.111"/>
	<path fill="none" stroke="#D9D9D9" stroke-miterlimit="10" d="M1612.451,151.88c0,0,27.454,32.299,69.442,55.087
		c41.988,22.789,62.265,10.766,62.265,10.766"/>
	<line fill="none" stroke="#D9D9D9" stroke-miterlimit="10" x1="1771.791" y1="326.651" x2="1845.898" y2="306.196"/>
	<path fill="none" stroke="#D9D9D9" stroke-miterlimit="10" d="M2097.109,264.387l-101.74-26.377
		c-48.986-43.064-63.341-1.076-56.163,12.022c7.177,13.278,151.982,137.628,151.982,137.628"/>
	<line fill="none" stroke="#D9D9D9" stroke-miterlimit="10" x1="1776.457" y1="155.469" x2="1939.206" y2="250.032"/>
	<path fill="none" stroke="#D9D9D9" stroke-miterlimit="10" d="M1774.124,101.638c0,0,88.462,73.031,122.017,89.718
		s33.555-28.71,33.555-28.71"/>
	<line fill="none" stroke="#D9D9D9" stroke-miterlimit="10" x1="1784.891" y1="54.985" x2="1893.809" y2="102.895"/>
</g>
<path fill="#683C14" d="M2344.169,521.475c0,0,120.166-88.81,130.665-105.308s3.264-27.391-42.667-2.667
	s-77.666,37.501-77.666,37.501L2344.169,521.475z"/>
</svg>
