<?xml version="1.0" encoding="utf-8"?>
<!-- Generator: Adobe Illustrator 18.0.0, SVG Export Plug-In . SVG Version: 6.00 Build 0)  -->
<!DOCTYPE svg PUBLIC "-//W3C//DTD SVG 1.1//EN" "http://www.w3.org/Graphics/SVG/1.1/DTD/svg11.dtd">
<svg version="1.1" id="Ebene_1" xmlns="http://www.w3.org/2000/svg" xmlns:xlink="http://www.w3.org/1999/xlink" x="0px" y="0px"
	 viewBox="0 0 1000 1000" enable-background="new 0 0 1000 1000" xml:space="preserve">
<path fill="#F9B233" d="M240.3,842.3c-13.1,7.2-27.4,13.3-42.1,17.1c-33.8,8.5-55.9-6.2-63.1-40.1c-5.1-24-4.4-48.3-0.5-72.3
	c1.8-10.7,4.7-21.1,7.3-32.4c43.3,45,88.3,83.2,153.6,93.3C275.9,820.4,258.7,832.5,240.3,842.3z"/>
<path d="M867.2,511.7c-1,0.3-1.9,0.8-2.9,1c-3.6,0.9-15.5-9-15.5-9c2.5-1.1,27.8-15.6,38-21.7c16.5-9.9,32.5-8.7,48.4,1.4
	c12.3,7.7,23,17.8,39.2,17.6c6.3,0,9.8,6.7,8.9,13.5c-0.8,7-5.1,10.6-12.1,10.9c-8.2,0.3-13.6-4-18.4-10.1
	c-5.3-6.8-10.6-13.9-17.1-19.4c-24.2-20.3-54-13-68.5,16.2V511.7z"/>
<path fill="#28190F" d="M517.6,640c-6.1-15.4-11.4-31.1-18.4-45.9c-9.4-20.2-8.3-44.1,4.1-62.7c6-8.9,36.4-54.6,109-69.4
	c23.4-0.9,44.3-0.4,65.3,3.9c31,6.1,53.4,23,64.1,53c5.1,14.9,7.8,30.6,11.4,45.9c9.7,40.5-9.7,70.2-36.8,98
	c-15.9,14.8-44.8,30.5-46.2,31c-9.9,3.7-20.1,6.6-31.9,10.2c-26.9,6.5-33.7,4.4-47.7-1.7c-8.2-2.2-16-4.6-24.7-7
	c-37.5-11.3-38-27.3-41.6-40.1C521.8,649.9,519.6,644.9,517.6,640z"/>
<path fill="#683C14" d="M875.7,513.6c6.9,30.7,6.3,61.6,2,92.6c-2.5,19.1-6.6,38-16.7,55.1c-10.9,18.6-26.3,21.8-42.8,8
	c-8.6-7.3-16.5-16-22.8-25.4c-31.1-46.9-50.5-98.8-64.5-152.8c-3.3-12.1,1.2-21,10.2-27.8c4.9-3.8,10.7-7,16.5-8.7
	c34.2-10,67.1-9.3,96.8,13.5C854.6,468.1,866.4,476.6,875.7,513.6z"/>
<path fill="#F9B233" d="M313.5,778.1c-37.7-21.6-68.2-51.5-93.3-86.6c-10.3-14.1-17.8-30.5-25.6-46.2c-5.4-11.1-3.2-22.2,3.8-32.4
	c13.6-20.3,32.2-34.4,54.2-44.5c12-5.5,13.2-4.8,20.5,6.1c2,2.9,3.8,6,5.8,8.9c24.9,35.6,49.1,71.9,75,106.9
	c15.9,21.5,34.6,40.9,59,53.2c6.8,3.4,8.3,7.5,4.9,13.3c-3.3,5.4-7,11.2-11.8,15.3c-14.5,12.4-32.1,17.9-49.8,18.9
	C339.7,791,326.2,785.4,313.5,778.1z"/>
<path fill="#F9B233" d="M435.5,525c24.1,12.8,42.1,31.9,57.3,53.9c19.8,28.8,36.3,59,39.2,94.8c1.6,19.5-5.6,30.1-24,36.7
	c-19.8,7-37.5,1.4-53.4-9.7c-54.5-37.9-91-89.9-115.4-150.9c-6.2-15.7-1-25,15.5-29.3c12.1-3.3,24.5-4.8,36.8-7.2
	C407.5,513.6,422.2,517.7,435.5,525z"/>
<path fill="#28190F" d="M408.6,745.1c-19.3-16.4-39.4-32.1-56.6-50.5c-34.6-37-60-80.8-86.6-123.6c-1.2-2.1-1.2-5.8-0.2-8.2
	c8.4-19.9,31.9-34.2,53.2-32.2c9.4,0.9,16,3.3,19.8,14.7c14.5,43.8,41.2,80.7,72.1,114.6c17.6,19.1,36.8,36.5,61.9,45.7
	c9.5,3.6,11.1,6.3,5.6,15.2c-11.7,19.1-30,28.5-53.5,32.6C419.6,751.2,413.2,749.3,408.6,745.1z"/>
<path fill="#28190F" d="M291.6,811.2c-21.3-0.5-40.6-7.2-59-17.4c-34.6-19.1-62.2-46.7-91.2-72.8c-1.5-1.4-2.7-4.3-2.4-6.3
	c4.5-26.9,13.5-51.8,33.8-70.9c3.9-3.7,10.6-4.9,16.2-6.3c1.5-0.3,4.9,2.2,5.6,4.1c9.8,28.1,27.1,51.7,46.5,73.5
	c23.7,26.6,50,50.3,82.4,66.2c6.9,3.4,14.4,5.7,22.8,8.9C328.9,801.3,312.6,811.7,291.6,811.2z"/>
<path fill="#683C14" d="M578.7,654.5c-0.4,1.7-0.9,3.6-1.4,5.5c-9.1,29.2-25.6,54.1-45.2,76.9c-15.8,18.4-34.1,33.4-58.8,38.7
	c-5.4,1.2-11.1,3.4-14.3-2.9c-3.4-6.3-1.2-11.7,4.3-16.5c8.7-7.9,17.4-15.9,25.2-24.4c17.5-19.1,27.3-42.8,38-66.2
	c4.9-10.8,11.7-20.7,18.9-30.2c4.7-6.3,12.2-7.8,19.9-4.6c7.8,3.2,13.6,11.7,13.6,19.9C578.9,651.7,578.7,653.1,578.7,654.5z"/>
<path fill="#28190F" d="M397.2,933.9c-1.4-0.1-2.7-0.1-4.1-0.3c-12.4-1.9-21.1-9.2-25.4-20.5c-4-10.4,3.2-17.6,10.7-22.5
	c10.4-6.8,21.4-12.6,32.7-17.7c15.2-6.8,30.7-12.4,46.2-18.4c8.2-3.1,16.1,0,21,7.8c3.4,5.1,5.3,10.9,0.2,15.5
	c-18.1,15.9-36,31.7-54.9,46.2C416.4,929.7,397.5,934.4,397.2,933.9z"/>
<path fill="#683C14" d="M671.8,620.7c4.6-10.4,14.4-15.3,23.9-8.5c4.9,3.6,10.2,9.4,11.4,15c5.4,27.3,9.9,55.1,14.3,82.7
	c1.2,8-5.3,16.7-13.8,20.1c-8.2,3.2-15.7,1.4-20.8-6.3c-3.6-5.5-7-11.5-8.4-17.6c-4.1-19.9-7.1-40.1-10.7-60
	C668.1,646,665.7,630.4,671.8,620.7z"/>
<path fill="#683C14" d="M601.2,655.3c0.7-7,4.8-12.4,11.4-13.1c7.5-0.9,15.5,0,23,1.5c5.4,1,7.8,6,6.6,12.1
	c-1.8,9.3-3.2,18.7-4.9,28.1c-3,17.7-6.1,35.4-9.5,53c-1.9,9.5-9.2,15.8-17.4,15.3c-7.8-0.4-12.8-5.8-13.8-16.4
	c-0.8-7.9-0.8-15.7-1.5-27.3C596.8,693.2,599,674.4,601.2,655.3z"/>
<path fill="#28190F" d="M457.3,769c6.7,11.7,14.5,7.5,22.2,2.7c0,32.5,0,63,0,95.1c-13-6.5-25.6-8-39.6-1.2
	C441.1,831.8,446.6,800.9,457.3,769z"/>
<path fill="#28190F" d="M765.6,735c-9.2,2.5-16.7-3.6-25.2-3.8c-12.1-0.2-24,0-38,0c11.6-8.2,17.9-17.4,17.9-30.2
	c0-1.5,3.2-4.4,4.9-4.4c11.6-0.2,23.3-1.4,34.6,1c7.7,1.6,15.5,7,20.8,13c9.9,11.1,6.3,23.6-7,30.2
	C770.5,738.5,767.5,734.6,765.6,735z"/>
<path fill="#28190F" d="M651.9,815.6c-6.8,12.7-14.5,25.2-22.7,37.3c-2.5,3.5-7.5,6.1-11.9,7.8c-6.1,2.4-16.5-2.3-20.8-8.2
	s-2.2-11.6,1.7-16.5c9.2-11.8,18.8-23.2,28.3-34.6c2.1-2.3,5.5-3.9,7-4.9C642.2,793.3,655.5,808.8,651.9,815.6z"/>
<path fill="#28190F" d="M618.8,819c-8.6-8-15.5-41.8-15.2-69.9c7.7-2.5,14.8-5.1,23-8c6.8,20,14,40.6,22,63.6
	C632.8,800.8,622.4,804,618.8,819z"/>
<path fill="#28190F" d="M719.1,801.4c-1-2.6,1.7-6.9,3.6-8.9c15.5-16.6,29.8-33.8,36.3-56.3c0.7-2.2,6.1-4.1,9.2-4.1
	c1.9,0,4.6,4.1,5.1,6.8c0.8,3.2,0.2,7-0.7,10.4c-5.3,21.3-16.7,38.9-33.1,53.2c-2.8,2.4-6.9,8.4-13.5,7.5
	C719.4,807.2,720.1,804,719.1,801.4z"/>
<path fill="#28190F" d="M577.2,892c-2.6,0.9-7,1.8-9.2-2c-0.8-0.5-0.3-5.3,0.9-7c7.6-10.7,15.6-21.3,24-31.7
	c1.5-1.9,4.8-3.4,6.8-2.9c1.7,0.3,2.9,3.5,3.6,4.4C603.4,863.7,588.4,888.1,577.2,892z"/>
<path d="M852.8,468.1c0.2,0,0.5,0,0.7-0.2c1.6-1.7,3.3-3.6,4.8-5.5c12.6-17.2,30-23.9,50.8-21c12.3,1.7,23.9,2.5,35.5-3.8
	c6.2-3.4,13.5,1,15.9,7.5c2.5,7.1,0,13.5-6.5,15.5c-5.9,1.8-13.1,1.2-19.4-0.2c-10.2-2.4-19.8-7-30-9.4c-12.4-2.9-23.9,0.4-33.4,8.9
	c-4.8,4.5-8.5,9.1-9.9,14.2C859.7,479.2,847.4,467.8,852.8,468.1z"/>
<path fill="#28190F" d="M359.1,964.5c-2.7,1.9-7.3,4.1-10.9,0.5c-1-0.3-2.1-5.6-1.2-8c5.3-14.2,11.1-28.3,17.2-42.3
	c1-2.4,4.2-4.9,6.6-5.1c2.3,0,4.5,3.2,5.5,3.9C379.7,925.6,370.4,956.9,359.1,964.5z"/>
<path fill="#28190F" d="M859.3,505.1c4.1,17.4,3.6,34.8,1.2,52.2c-1.3,10.7-3.7,21.5-9.5,31c-6.2,10.6-15.1,12.4-24.6,4.6
	c-4.9-4.1-9.5-9-13.1-14.3c-17.9-26.2-29.2-55.4-37.2-85.9c-1.7-6.8,0.7-11.8,6-15.7c2.9-2.1,6.1-3.8,9.5-4.8
	c19.8-5.8,38.7-5.5,55.8,7.5C847.6,479.7,854.4,484.5,859.3,505.1z"/>
<path opacity="0.7" fill="#E4E9EC" d="M628,465.6c-9.2-5-18.9-9.1-27.8-14.7c-55.9-35.5-111.5-71.3-167.4-106.9
	c-58.2-37-116.6-73.5-178.8-103.7c-12.2-6-18.9-14.7-22.3-27.1c-9.3-33.9-10.1-68.2-3.8-102.8c3.2-17.1,8.2-33.5,19.6-47.1
	c8.4-9.9,18.6-15,32.1-15c18.8,0.2,35,7.7,50.5,16.9c33.2,19.6,60.7,46.2,86.6,74.3c57.7,62.4,106.4,131.3,150.6,203.6
	c20.8,34.1,39,69.8,58.3,104.9c2.6,4.6,3.6,10.1,5.3,15C630,463.9,629,464.7,628,465.6z"/>
<path opacity="0.7" fill="#E4E9EC" d="M464.5,514.3c-36.9-2.7-73.7-5.1-110-10.2c-55.3-7.8-110.2-18.9-165.4-26.6
	c-31.9-4.4-57.3-18.6-79.5-40.9C87.3,414,67,389.7,50.3,362.8c-17-27.4-31.2-56.2-35.6-88.8c-4.4-32.7,1.7-62.7,28-85.4
	c5.2-4.6,12.6-7.8,19.4-9.2c19.3-3.7,37.9,1.6,56.1,7.2c45.8,14.2,88.3,35.5,130.4,58c130.5,69.9,251.5,154.8,374.3,236.8
	c7.5,5.1,14.1,11.9,20.1,18.9c4.6,5.4,2.8,10.4-3.8,13.8c-2.7,1.3-5.6,2.4-8.5,2.7c-17.7,1.7-35.6,3.1-49.4,4.3
	C539.5,518.9,501.8,517.2,464.5,514.3z"/>
<g>
	<path fill="#422A19" d="M609.9,460.1c27.5,0.7,68.2,13.3,82.9,26.3l0.7,8.2c-5.8,15.5-63.7,17.5-90,6.8
		c-25.4-10.2-23.2-24.9-23.2-24.9C582.5,459.9,610.1,459.9,609.9,460.1z"/>
	<path fill="#3B2515" d="M654.1,531.7c-2.2-0.6-3.1-2.8-4.8-3.8c-2.5-1.5-4.9-2.9-7.8-4.6c3.4-0.3,5.8-1.4,7.3-4.1
		c0.1-0.3,1.2-0.5,1.5-0.3c2.4,1.2,5,2.4,7,4.3c1.3,1.2,2.4,3.2,2.7,5.1c0.9,3.6-1.3,5.7-4.9,5.5
		C654.8,532.9,654.6,531.7,654.1,531.7z"/>
	<path fill="#3B2515" d="M641.6,543.9c0-0.7,0.9-1.6,1.4-1.9c4.4-2.9,8.9-6.1,11.6-10.9c0.4-0.3,1.7-0.5,2.4-0.3
		c0.6,0.2,0.9,1.2,0.9,1.9c-0.2,0.9-0.6,1.7-0.9,2.4c-2.3,4.6-6.1,8-10.7,10.4c-0.9,0.5-2.1,1.5-3.6,1
		C641.3,545.5,641.5,544.8,641.6,543.9z"/>
	<path fill="#3B2515" d="M648.6,497.9c2.1-1.7,4.6-1.9,6,0.7c0.7,1.3,1.2,3,0.9,4.4c-1.7,6.5-3.8,12.8-5.8,19.1
		c-0.7,1.7-2.9,2.9-5.1,2.7c-2.1-0.2-3.6-1.4-3.8-3.6c-0.1-1.5-0.1-3.1,0.2-4.6c1.2-4.8,2.7-9.4,4.1-14
		C645.2,502.6,646.4,499,648.6,497.9z"/>
	<path fill="#3B2515" d="M681.6,528.1c-2.2,0-3.7-1.9-5.6-2.4c-2.7-0.7-5.5-1.3-8.7-2.2c3.3-1.2,5.3-3.1,6-6c0-0.4,1.1-0.9,1.4-0.7
		c2.7,0.5,5.6,1,8,2.2c1.7,0.9,3.2,2.6,4.1,4.3c1.5,3.1,0,5.8-3.4,6.5C682.9,529,682.4,528,681.6,528.1z"/>
	<path fill="#3B2515" d="M677,545.5c-0.4-0.5,0-1.7,0.3-2.2c2.7-4.8,5.3-9.4,5.6-15c0-0.5,1.2-1.2,1.9-1.4c0.5,0,1.2,0.9,1.5,1.4
		c0.3,0.7,0.3,1.5,0.3,2.4c0,5.1-1.8,9.9-4.9,14c-0.5,0.7-1.2,2.2-2.7,2.4C677.3,546.9,677.4,546,677,545.5z"/>
	<path fill="#3B2515" d="M667.5,496.5c1.6-2.3,4.1-2.9,6-0.9c1,1.2,2,2.7,2,4.1c0,6.6-0.3,13.3-0.5,19.9c0,1.9-1.9,3.8-4.1,4.1
		c-2,0.3-3.7-0.4-4.6-2.4c-0.7-1.3-1.2-2.9-1.2-4.4c-0.1-4.8,0-9.7,0.2-14.5C665.3,502.4,665.5,498.6,667.5,496.5z"/>
	<path fill="#3B2515" d="M595,529.3c-1.7-1.4-1.7-3.6-2.9-5.3c-1.7-2.4-6.7-11.4-8.7-14c3.3,1,6,0.9,8.4-1c0.1-0.2,1.2,0,1.5,0.3
		c1.7,2,3.6,4.2,4.8,6.6c0.9,1.5,4.1,10.5,3.8,12.4c-0.6,3.6-3.4,4.6-6.6,3.1C595.3,530.5,595.6,529.3,595,529.3z"/>
	<path fill="#3B2515" d="M575.9,529.1c0.3-0.5,1.5-0.5,2.2-0.5c5.3,0.6,10.6,1,15.9-0.9c0.5-0.2,1.5,0.5,2,1.2
		c0.2,0.4-0.2,1.4-0.7,1.9c-0.5,0.7-1.3,1.1-2,1.4c-4.7,1.9-9.7,2.2-14.8,1c-0.8-0.1-2.5-0.1-3.4-1.5
		C574.8,530,575.5,529.7,575.9,529.1z"/>
	<path fill="#3B2515" d="M596.3,486.9c2.4-1.2,4.9-0.7,5.6,2c0.3,1.3,0.5,3.2-0.2,4.4c-3.1,5.8-6.3,11.6-9.7,17.4
		c-1,1.7-3.6,2.4-5.6,1.7s-3.1-2.1-2.9-4.3c0-1.5,0.3-3,1-4.4c2.2-4.2,4.6-8.3,7-12.6C591.7,491.1,593.6,487.9,596.3,486.9z"/>
	<path fill="#421A13" d="M646,464.9c15.5,3.6,38.7,13.1,46.9,19.6l0.2,3.2c0,0-2,2.1-2,2.4c-10.6,0.9-35-4.4-49.8-10.4
		c-14.8-5.9-12.8-11.9-12.8-11.9C630,461.8,645.7,465.2,646,464.9z"/>
	<path fill="#3B2515" d="M624.3,535.3c-1.9-1-2.3-3.4-3.8-4.8c-2-2.1-8.5-10.1-10.9-12.3c3.4,0.5,6-0.2,8-2.4c0.1-0.3,1.2-0.3,1.5,0
		c2.1,1.9,4.5,3.6,6,5.8c1,1.6,5.8,9.9,5.8,11.8c-0.1,3.6-2.7,5.3-6.1,4.3C624.6,536.7,624.8,535.5,624.3,535.3z"/>
	<path fill="#3B2515" d="M607.3,542.7c0.2-0.5,1.2-1.2,1.9-1.4c5.2-1.5,10.3-3.4,14.2-7.3c0.4-0.5,1.7-0.1,2.4,0.2
		c0.4,0.1,0.4,1.3,0.2,2c-0.2,0.6-0.9,1.3-1.4,2c-3.6,3.8-8,6.2-13.1,7.2c-0.9,0.2-2.6,0.9-3.8,0C606.7,544,607.2,543.5,607.3,542.7
		z"/>
	<path fill="#3B2515" d="M617.7,493.7c2.2-1.6,4.8-1.6,6,1c0.7,1.3,1,3,0.7,4.4c-2,6.5-4.4,12.6-6.6,18.9c-0.5,1.7-2.9,2.9-5.1,2.6
		c-2.1-0.4-3.4-1.6-3.6-3.8c0-1.5-0.2-3.2,0.3-4.6c1.6-4.6,3.3-9,4.8-13.6C614.4,498.6,615.6,495.1,617.7,493.7z"/>
</g>
</svg>
