<?xml version="1.0" encoding="utf-8"?>
<!-- Generator: Adobe Illustrator 18.0.0, SVG Export Plug-In . SVG Version: 6.00 Build 0)  -->
<!DOCTYPE svg PUBLIC "-//W3C//DTD SVG 1.1//EN" "http://www.w3.org/Graphics/SVG/1.1/DTD/svg11.dtd">
<svg version="1.1" id="Ebene_1" xmlns="http://www.w3.org/2000/svg" xmlns:xlink="http://www.w3.org/1999/xlink" x="0px" y="0px"
	 viewBox="0 0 1090 1000" enable-background="new 0 0 1090 1000" xml:space="preserve">
<path fill="#F9B233" d="M312.8,849.9c-13.8,7.5-28.9,14-44.3,17.9c-35.5,9-58.9-6.5-66.4-42.2c-5.4-25.3-4.7-50.8-0.5-76.1
	c2-11.3,5-22.3,7.7-34.1c45.6,47.4,92.9,87.6,161.7,98.2C350.3,826.6,332.2,839.3,312.8,849.9z"/>
<path d="M818.2,389.2c0.8,0.8,1.8,1.3,2.5,2.1c2.7,2.8-0.1,18.9-0.1,18.9c-2.3-1.8-28.8-17.2-39.7-23.3
	c-17.7-9.9-25.1-25.1-24.2-44.9c0.5-15.2,4.1-30.3-4.6-45c-3.3-5.8,0.9-12.4,7.6-15.2c6.8-2.9,12.3-0.9,16.3,5.3
	c4.6,7.3,3.6,14.5,0.5,22.1c-3.4,8.4-7.2,17-8.7,25.8c-5.8,32.7,16.6,56.1,50.8,53.9L818.2,389.2z"/>
<path fill="#28190F" d="M604.6,636.5c-6.5-16.1-12-32.7-19.4-48.3c-9.9-21.4-8.8-46.5,4.3-66c6.3-9.3,38.2-57.4,114.7-73
	c24.6-0.9,46.7-0.4,68.7,4.1c32.7,6.5,56.2,24.2,67.5,55.8c5.4,15.6,8.3,32.1,12,48.3c10.2,42.7-10.2,73.9-38.8,103.2
	c-16.7,15.6-47.2,32.1-48.6,32.7c-10.4,3.9-21.2,7-33.6,10.8c-28.4,6.8-35.5,4.7-50.2-1.8c-8.6-2.3-16.9-4.8-26-7.4
	c-39.5-11.8-40-28.7-43.8-42.2C609.1,647.1,606.8,641.9,604.6,636.5z"/>
<path fill="#683C14" d="M815.7,380.5c24.3-22.5,52.8-38.1,83.3-50.6c18.8-7.7,38.2-13.9,59-13.8c22.7,0.2,18,14.4,14.1,36.7
	c-2.1,11.8-16.7,24.8-21.9,35.4c-26.4,53-36.9,94.7-78.8,135.9c-9.3,9.3-19.7,9.9-30.7,5.3c-6-2.5-12-6.1-16.6-10.5
	c-27.2-25.9-43.9-56.3-38.7-95.4C785,423.5,786.6,408.4,815.7,380.5z"/>
<path fill="#F9B233" d="M389.6,782.1c-39.7-22.8-71.8-54.2-98.2-91.2c-10.8-14.9-18.7-32.1-26.9-48.6c-5.7-11.7-3.4-23.3,3.9-34.1
	c14.4-21.4,33.9-36.2,57.1-46.8c12.6-5.7,13.8-5,21.5,6.5c2.2,3.1,3.9,6.3,6.1,9.3c26.2,37.5,51.7,75.7,79,112.5
	c16.7,22.6,36.4,43.1,62.1,56c7.2,3.6,8.8,7.9,5.2,14c-3.4,5.7-7.4,11.8-12.4,16.1c-15.3,13.1-33.7,18.8-52.4,19.9
	C417.4,795.7,403.1,789.8,389.6,782.1z"/>
<path fill="#F9B233" d="M518.3,516c25.3,13.5,44.3,33.6,60.3,56.7c20.8,30.3,38.2,62.1,41.3,99.8c1.6,20.5-5.9,31.6-25.3,38.6
	c-20.8,7.4-39.5,1.4-56.2-10.2C481,660.9,442.6,606.2,416.9,542c-6.5-16.5-1.1-26.4,16.3-30.9c12.7-3.4,25.8-5,38.8-7.5
	C488.9,503.8,504.1,508.2,518.3,516z"/>
<path fill="#28190F" d="M489.9,747.4c-20.3-17.2-41.4-33.7-59.6-53.1c-36.4-38.9-63.2-85.1-91.2-130.1c-1.3-2.2-1.3-6.1-0.2-8.6
	c8.8-21,33.6-36.1,56-33.9c9.9,0.9,16.9,3.4,20.8,15.4c15.3,46.1,43.4,84.9,75.9,120.6c18.5,20.1,38.8,38.4,65.1,48.1
	c10,3.8,11.7,6.6,5.9,16c-12.4,20.1-31.6,30-56.3,34.3C501.6,753.7,494.6,751.7,489.9,747.4z"/>
<path fill="#28190F" d="M366.8,817.1c-22.4-0.5-42.7-7.5-62.1-18.3c-36.4-20.1-65.5-49.2-96-76.6c-1.6-1.4-2.9-4.5-2.5-6.6
	c4.7-28.4,14.2-54.5,35.5-74.6c4.1-3.9,11.1-5.2,17-6.6c1.6-0.4,5.2,2.3,5.9,4.3c10.4,29.6,28.5,54.4,49,77.3
	c24.9,28,52.6,52.9,86.7,69.6c7.4,3.6,15.3,5.9,24,9.3C406.1,806.5,388.7,817.4,366.8,817.1z"/>
<path fill="#683C14" d="M668.8,652c-0.4,1.8-0.9,3.8-1.4,5.7c-9.5,30.7-26.9,56.9-47.6,80.9c-16.7,19.4-35.9,35.2-61.9,40.7
	c-5.7,1.3-11.7,3.6-15.1-3.1c-3.6-6.6-1.3-12.4,4.5-17.4c9.2-8.3,18.3-16.7,26.6-25.7c18.5-20.1,28.7-45,40-69.6
	c5.2-11.3,12.4-21.7,19.9-31.8c5-6.6,12.9-8.3,21-4.8c8.3,3.4,14.4,12.4,14.4,21C669,649.1,669,650.7,668.8,652z"/>
<path fill="#28190F" d="M477.9,946.1c-1.4-0.2-2.9-0.2-4.3-0.4c-13.1-2-22.3-9.7-26.7-21.5c-4.1-10.9,3.4-18.5,11.3-23.7
	c10.9-7.2,22.6-13.3,34.5-18.7c16-7.2,32.3-13.1,48.6-19.4c8.6-3.2,16.9,0,22.1,8.3c3.6,5.4,5.6,11.5,0.2,16.3
	c-19,16.7-37.9,33.4-57.8,48.6C498,941.6,478.3,946.6,477.9,946.1z"/>
<path fill="#683C14" d="M767,616.4c4.8-10.9,15.1-16.1,25.1-9c5.2,3.8,10.8,9.9,12,15.8c5.7,28.7,10.4,58,15.1,87
	c1.3,8.4-5.6,17.6-14.5,21.2c-8.6,3.4-16.5,1.4-21.9-6.6c-3.8-5.7-7.4-12-8.8-18.5c-4.3-21-7.5-42.2-11.3-63.2
	C763,643,760.5,626.7,767,616.4z"/>
<path fill="#683C14" d="M692.5,652.7c0.7-7.4,5-13.1,12-13.8c7.9-0.9,16.3,0,24.2,1.6c5.7,1.1,8.3,6.3,7,12.7
	c-2,9.9-3.4,19.7-5.2,29.6c-3.2,18.7-6.5,37.3-10,55.8c-2,10-9.7,16.7-18.3,16.1c-8.3-0.4-13.5-6.1-14.5-17.2
	c-0.9-8.3-0.9-16.5-1.6-28.7C688,692.9,690.4,673,692.5,652.7z"/>
<path fill="#28190F" d="M541.1,772.4c7,12.4,15.3,7.9,23.3,2.9c0,34.3,0,66.4,0,100.1c-13.6-6.8-26.9-8.4-41.6-1.3
	C524.2,838.6,530,806.1,541.1,772.4z"/>
<path fill="#28190F" d="M865.7,736.8c-9.7,2.7-17.6-3.8-26.6-3.9c-12.7-0.2-25.3,0-40,0c12.2-8.6,18.8-18.3,18.8-31.8
	c0-1.6,3.4-4.7,5.2-4.7c12.2-0.2,24.6-1.4,36.4,1.1c8.1,1.6,16.3,7.4,21.9,13.6c10.4,11.7,6.6,24.8-7.4,31.8
	C870.7,740.4,867.5,736.3,865.7,736.8z"/>
<path fill="#28190F" d="M746,821.7c-7.2,13.5-15.3,26.6-23.9,39.3c-2.7,3.8-7.9,6.5-12.6,8.3c-6.5,2.5-17.4-2.3-21.9-8.6
	c-4.5-6.3-2.3-12.2,1.8-17.4c9.7-12.4,19.7-24.4,29.8-36.4c2.2-2.5,5.7-4.1,7.4-5.2C735.6,798,749.8,814.4,746,821.7z"/>
<path fill="#28190F" d="M711.2,825.1c-9-8.4-16.3-44-16-73.6c8.1-2.7,15.6-5.4,24.2-8.4c7.2,21,14.7,42.7,23.1,66.9
	C725.9,805.9,715,809.3,711.2,825.1z"/>
<path fill="#28190F" d="M816.7,806.5c-1.1-2.7,1.8-7.2,3.8-9.3c16.3-17.4,31.4-35.5,38.2-59.2c0.7-2.3,6.5-4.3,9.7-4.3
	c2,0,4.8,4.3,5.4,7.2c0.9,3.4,0.2,7.4-0.7,10.9c-5.6,22.4-17.6,40.9-34.8,56c-2.9,2.5-7.2,8.8-14.2,7.9
	C817.1,812.7,817.8,809.5,816.7,806.5z"/>
<path fill="#28190F" d="M667.4,901.9c-2.7,0.9-7.4,1.8-9.7-2.2c-0.9-0.5-0.4-5.6,0.9-7.4c8.1-11.3,16.5-22.4,25.3-33.4
	c1.6-2,5-3.6,7.2-3.1c1.8,0.4,3.1,3.8,3.8,4.7C694.9,872.3,679.2,897.8,667.4,901.9z"/>
<path d="M785.9,425.2c-0.1-0.2-0.3-0.5-0.5-0.5c-2.4-0.5-5-1.1-7.5-1.5c-22.3-2.4-37.5-14.8-45.9-35.3
	c-4.9-12.1-10.2-23.1-22.1-30.3c-6.3-3.8-6.2-12.8-1.5-18.4c5.2-6.1,12.3-7.1,17.6-2.3c4.9,4.5,8,11.3,10.1,17.8
	c3.2,10.6,4,21.7,7.2,32.3c3.9,12.9,12.9,21.6,25.7,25.8c6.6,2,12.7,3,18.1,1.6S788.7,430.3,785.9,425.2z"/>
<path fill="#28190F" d="M437.9,978.2c-2.9,2-7.7,4.3-11.5,0.5c-1.1-0.4-2.2-5.9-1.3-8.4c5.6-14.9,11.7-29.8,18.1-44.5
	c1.1-2.5,4.5-5.2,7-5.4c2.3,0,4.7,3.4,5.7,4.1C459.4,937.3,449.7,970.3,437.9,978.2z"/>
<path fill="#28190F" d="M821.6,402.1c12.1-11.4,26.4-19.1,41.6-25.3c9.3-3.9,19.1-7,29.5-6.8c11.4,0,17.1,6.3,15.2,17.7
	c-1,5.9-2.8,11.9-5.4,17.3c-12.9,26.7-31.2,49.4-52.1,70.1c-4.7,4.6-9.8,4.9-15.5,2.5c-3-1.4-5.9-3.2-8.3-5.5
	c-13.9-13.3-22.5-28.7-20-48.6C806.4,423.5,807.2,415.9,821.6,402.1z"/>
<path opacity="0.7" fill="#E4E9EC" d="M720.7,453.2c-9.7-5.2-19.9-9.5-29.2-15.4c-58.9-37.3-117.4-75-176.2-112.5
	c-61.2-38.9-122.7-77.3-188-109.1c-12.9-6.3-19.9-15.4-23.5-28.5c-9.7-35.7-10.6-71.8-3.9-108.2c3.4-17.9,8.6-35.2,20.6-49.5
	c8.8-10.4,19.6-15.8,33.7-15.8c19.7,0.2,36.8,8.1,53.1,17.8c35,20.6,63.9,48.6,91.2,78.2c60.7,65.7,112,138.2,158.4,214.2
	c21.9,35.9,41.1,73.4,61.4,110.4c2.7,4.8,3.8,10.6,5.6,15.8C722.9,451.4,722,452.3,720.7,453.2z"/>
<path opacity="0.7" fill="#E4E9EC" d="M548.8,504.8c-38.8-2.9-77.5-5.4-115.7-10.8c-58.1-8.3-115.9-19.9-174.1-28
	c-33.6-4.7-60.3-19.6-83.6-43.1c-23.5-23.9-44.9-49.3-62.4-77.7c-17.9-28.9-32.8-59.2-37.5-93.5c-4.7-34.5,1.8-66,29.4-89.9
	c5.6-4.8,13.3-8.3,20.5-9.7c20.3-3.9,39.8,1.6,59,7.5c48.3,14.9,92.9,37.3,137.3,61C458.9,294.4,586.3,383.7,715.5,470
	c7.9,5.4,14.9,12.6,21.2,19.9c4.8,5.7,3.1,10.9-3.9,14.5c-2.9,1.4-5.9,2.5-9,2.9c-18.7,1.8-37.5,3.2-52,4.5
	C627.6,509.3,588.1,507.5,548.8,504.8z"/>
<path fill="#683C14" d="M868.2,521.5c0,0,120.2-88.8,130.7-105.3s3.3-27.4-42.7-2.7S878.5,451,878.5,451L868.2,521.5z"/>
</svg>
