<?xml version="1.0" encoding="utf-8"?>
<!-- Generator: Adobe Illustrator 18.0.0, SVG Export Plug-In . SVG Version: 6.00 Build 0)  -->
<!DOCTYPE svg PUBLIC "-//W3C//DTD SVG 1.1//EN" "http://www.w3.org/Graphics/SVG/1.1/DTD/svg11.dtd">
<svg version="1.1" id="Ebene_1" xmlns="http://www.w3.org/2000/svg" xmlns:xlink="http://www.w3.org/1999/xlink" x="0px" y="0px"
	 viewBox="0 0 1000 1000" enable-background="new 0 0 1000 1000" xml:space="preserve">
<path fill="#F9B233" d="M236.5,821c-12.7,6.9-26.5,12.8-40.6,16.4c-32.6,8.3-54-6-60.9-38.7c-5-23.2-4.3-46.6-0.5-69.8
	c1.8-10.4,4.6-20.5,7.1-31.3c41.8,43.5,85.2,80.4,148.3,90.1C270.9,799.6,254.3,811.3,236.5,821z"/>
<path d="M841.7,501.7c-1,0.4-1.8,0.8-2.8,1c-3.5,0.8-15-8.7-15-8.7c2.5-1,26.8-15,36.7-20.9c16-9.5,31.5-8.4,46.8,1.3
	c11.8,7.4,22.2,17.2,37.9,17c6.1,0,9.4,6.4,8.5,13c-0.8,6.8-5,10.2-11.7,10.6c-7.9,0.4-13.2-3.8-17.8-9.7
	c-5.1-6.6-10.2-13.5-16.4-18.8c-23.4-19.6-52.2-12.5-66.1,15.6L841.7,501.7L841.7,501.7z"/>
<path fill="#28190F" d="M504.1,625.2c-6-14.8-11-30-17.8-44.3c-9.1-19.6-8.1-42.7,3.9-60.6c5.8-8.5,35-52.7,105.2-67
	c22.6-0.8,42.8-0.4,63,3.8c30,6,51.6,22.2,61.9,51.2c5,14.3,7.6,29.4,11,44.3c9.4,39.2-9.4,67.8-35.6,94.7
	c-15.3,14.3-43.3,29.4-44.6,30c-9.5,3.6-19.4,6.4-30.8,9.9c-26.1,6.2-32.6,4.3-46.1-1.7c-7.9-2.1-15.5-4.4-23.9-6.8
	c-36.2-10.8-36.7-26.3-40.2-38.7C508.3,635,506.1,630.2,504.1,625.2z"/>
<path fill="#683C14" d="M849.7,503.6c6.8,29.6,6.1,59.4,2,89.4c-2.5,18.4-6.4,36.7-16.1,53.2c-10.6,18-25.3,21.1-41.3,7.7
	c-8.4-7.1-16-15.5-22-24.5c-30-45.2-48.7-95.3-62.2-147.5c-3.1-11.7,1.2-20.3,9.9-26.8c4.8-3.6,10.4-6.8,16-8.4
	c33.1-9.7,64.9-9.1,93.5,13C829.6,459.4,840.8,467.7,849.7,503.6z"/>
<path fill="#F9B233" d="M307,758.8c-36.4-20.9-65.9-49.7-90.1-83.7c-9.9-13.7-17.2-29.4-24.7-44.6c-5.2-10.7-3.1-21.4,3.6-31.3
	c13.2-19.6,31.1-33.2,52.4-42.9c11.6-5.2,12.7-4.6,19.7,6c2,2.8,3.6,5.8,5.6,8.5c24,34.4,47.4,69.4,72.5,103.2
	c15.3,20.7,33.4,39.5,57,51.4c6.6,3.3,8.1,7.2,4.8,12.8c-3.1,5.2-6.8,10.8-11.4,14.8c-14,12-30.9,17.2-48.1,18.3
	C332.5,771.3,319.3,765.9,307,758.8z"/>
<path fill="#F9B233" d="M425,514.7c23.2,12.4,40.6,30.8,55.3,52c19.1,27.8,35,57,37.9,91.6c1.5,18.8-5.4,29-23.2,35.4
	c-19.1,6.8-36.2,1.3-51.6-9.4c-52.7-36.5-87.9-86.8-111.5-145.7c-6-15.1-1-24.2,15-28.3c11.7-3.1,23.7-4.6,35.6-6.9
	C398,503.5,412,507.5,425,514.7z"/>
<path fill="#28190F" d="M399,727c-18.6-15.8-38-30.9-54.7-48.7c-33.4-35.7-58-78.1-83.7-119.4c-1.2-2-1.2-5.6-0.2-7.9
	c8.1-19.3,30.8-33.1,51.4-31.1c9.1,0.8,15.5,3.1,19.1,14.1c14,42.3,39.8,77.9,69.6,110.6c17,18.4,35.6,35.2,59.7,44.1
	c9.2,3.5,10.7,6.1,5.4,14.7c-11.4,18.4-29,27.5-51.7,31.5C409.6,732.8,403.2,730.9,399,727z"/>
<path fill="#28190F" d="M286.1,790.9c-20.6-0.5-39.2-6.9-57-16.8C195.7,755.7,169,729,141,703.9c-1.5-1.3-2.7-4.1-2.3-6.1
	c4.3-26.1,13-50,32.6-68.4c3.8-3.6,10.2-4.8,15.6-6.1c1.5-0.4,4.8,2.1,5.4,3.9c9.5,27.2,26.1,49.9,45,70.9
	c22.8,25.7,48.3,48.5,79.5,63.9c6.8,3.3,14,5.4,22,8.5C322.1,781.2,306.1,791.2,286.1,790.9z"/>
<path fill="#683C14" d="M563.1,639.4c-0.4,1.7-0.8,3.5-1.3,5.2c-8.7,28.2-24.7,52.2-43.7,74.2c-15.3,17.8-32.9,32.3-56.8,37.3
	c-5.2,1.2-10.7,3.3-13.9-2.8c-3.3-6.1-1.2-11.4,4.1-16c8.4-7.6,16.8-15.3,24.4-23.6c17-18.4,26.3-41.3,36.7-63.9
	c4.8-10.4,11.4-19.9,18.3-29.2c4.6-6.1,11.8-7.6,19.3-4.4c7.6,3.1,13.2,11.4,13.2,19.3C563.3,636.8,563.3,638.3,563.1,639.4z"/>
<path fill="#28190F" d="M388,909.3c-1.3-0.2-2.7-0.2-3.9-0.4c-12-1.8-20.5-8.9-24.5-19.7c-3.8-10,3.1-17,10.4-21.7
	c10-6.6,20.7-12.2,31.7-17.2c14.7-6.6,29.6-12,44.6-17.8c7.9-2.9,15.5,0,20.3,7.6c3.3,5,5.1,10.6,0.2,15
	c-17.4,15.3-34.8,30.6-53,44.6C406.4,905.1,388.3,909.7,388,909.3z"/>
<path fill="#683C14" d="M653.1,606.8c4.4-10,13.9-14.8,23-8.3c4.8,3.5,9.9,9.1,11,14.5c5.2,26.3,9.5,53.2,13.9,79.8
	c1.2,7.7-5.1,16.1-13.3,19.4c-7.9,3.1-15.1,1.3-20.1-6.1c-3.5-5.2-6.8-11-8.1-17c-3.9-19.3-6.9-38.7-10.4-58
	C649.5,631.2,647.2,616.2,653.1,606.8z"/>
<path fill="#683C14" d="M584.9,640.1c0.6-6.8,4.6-12,11-12.7c7.2-0.8,15,0,22.2,1.5c5.2,1,7.6,5.8,6.4,11.7
	c-1.8,9.1-3.1,18.1-4.8,27.2c-2.9,17.2-6,34.2-9.2,51.2c-1.8,9.2-8.9,15.3-16.8,14.8c-7.6-0.4-12.4-5.6-13.3-15.8
	c-0.8-7.6-0.8-15.1-1.5-26.3C580.7,677,582.8,658.7,584.9,640.1z"/>
<path fill="#28190F" d="M445.9,749.9c6.4,11.4,14,7.2,21.4,2.7c0,31.5,0,60.9,0,91.8c-12.5-6.2-24.7-7.7-38.2-1.2
	C430.5,810.6,435.7,780.8,445.9,749.9z"/>
<path fill="#28190F" d="M743.7,717.2c-8.9,2.5-16.1-3.5-24.4-3.6c-11.7-0.2-23.2,0-36.7,0c11.2-7.9,17.2-16.8,17.2-29.2
	c0-1.5,3.1-4.3,4.8-4.3c11.2-0.2,22.6-1.3,33.4,1c7.4,1.5,15,6.8,20.1,12.5c9.5,10.7,6.1,22.8-6.8,29.2
	C748.3,720.6,745.3,716.8,743.7,717.2z"/>
<path fill="#28190F" d="M633.9,795.1c-6.6,12.4-14,24.4-21.9,36.1c-2.5,3.5-7.2,6-11.6,7.6c-6,2.3-16-2.1-20.1-7.9
	c-4.1-5.8-2.1-11.2,1.7-16c8.9-11.4,18.1-22.4,27.3-33.4c2-2.3,5.2-3.8,6.8-4.8C624.3,773.4,637.3,788.4,633.9,795.1z"/>
<path fill="#28190F" d="M601.9,798.3c-8.3-7.7-15-40.4-14.7-67.5c7.4-2.5,14.3-5,22.2-7.7c6.6,19.3,13.5,39.2,21.2,61.4
	C615.4,780.6,605.4,783.8,601.9,798.3z"/>
<path fill="#28190F" d="M698.7,781.2c-1-2.5,1.7-6.6,3.5-8.5c15-16,28.8-32.6,35-54.3c0.6-2.1,6-3.9,8.9-3.9c1.8,0,4.4,3.9,5,6.6
	c0.8,3.1,0.2,6.8-0.6,10c-5.1,20.6-16.1,37.5-31.9,51.4c-2.7,2.3-6.6,8.1-13,7.2C699.1,786.9,699.7,783.9,698.7,781.2z"/>
<path fill="#28190F" d="M561.7,868.7c-2.5,0.8-6.8,1.7-8.9-2c-0.8-0.5-0.4-5.1,0.8-6.8c7.4-10.4,15.1-20.6,23.2-30.6
	c1.5-1.8,4.6-3.3,6.6-2.8c1.7,0.4,2.8,3.5,3.5,4.3C587,841.6,572.7,865,561.7,868.7z"/>
<path d="M827.8,459.4c0.2,0,0.5,0,0.6-0.2c1.5-1.7,3.1-3.5,4.6-5.2c12.2-16.6,29-23,49.1-20.3c11.8,1.7,23,2.5,34.2-3.6
	c6-3.3,13,1,15.3,7.2c2.5,6.9,0,13-6.2,15c-5.8,1.8-12.7,1.2-18.8-0.2c-9.9-2.3-19.1-6.8-29-9.1c-12-2.8-23,0.4-32.3,8.5
	c-4.6,4.3-8.3,8.7-9.5,13.7S822.6,459.4,827.8,459.4z"/>
<path fill="#28190F" d="M351.2,938.7c-2.7,1.8-7.1,3.9-10.6,0.5c-1-0.4-2-5.4-1.2-7.7c5.1-13.7,10.7-27.3,16.6-40.8
	c1-2.3,4.1-4.8,6.4-5c2.1,0,4.3,3.1,5.2,3.8C371,901.2,362.1,931.5,351.2,938.7z"/>
<path fill="#28190F" d="M829.8,498.4c3.5,14.9,3,29.8,1,44.7c-1.2,9.2-3.2,18.4-8.2,26.6c-5.2,9.1-12.8,10.6-21,3.9
	c-4.2-3.5-8.2-7.7-11.3-12.3c-15.3-22.5-25-47.4-31.8-73.6c-1.5-5.9,0.6-10.1,5.1-13.4c2.5-1.7,5.2-3.2,8.2-4.1
	c17-5,33.1-4.7,47.7,6.4C819.7,476.5,825.4,480.6,829.8,498.4z"/>
<path opacity="0.7" fill="#E4E9EC" enable-background="new    " d="M610.6,457.1c-8.9-4.8-18.3-8.7-26.8-14.1
	c-54-34.2-107.7-68.8-161.7-103.2c-56.1-35.7-112.6-70.9-172.5-100.1c-11.8-5.8-18.3-14.1-21.6-26.1c-8.9-32.8-9.7-65.9-3.6-99.3
	c3.1-16.4,7.9-32.3,18.9-45.4c8.1-9.5,18-14.5,30.9-14.5c18.1,0.2,33.8,7.4,48.7,16.3c32.1,18.9,58.6,44.6,83.7,71.7
	c55.7,60.3,102.8,126.8,145.3,196.5c20.1,32.9,37.7,67.3,56.3,101.3c2.5,4.4,3.5,9.7,5.1,14.5C612.7,455.4,611.8,456.2,610.6,457.1z
	"/>
<path opacity="0.7" fill="#E4E9EC" enable-background="new    " d="M452.9,504.4c-35.6-2.7-71.1-5-106.1-9.9
	c-53.3-7.6-106.3-18.3-159.7-25.7c-30.8-4.3-55.3-18-76.7-39.5C88.8,407.3,69.2,384,53.1,358c-16.4-26.5-30.1-54.3-34.4-85.8
	c-4.3-31.7,1.7-60.6,27-82.5c5.1-4.4,12.2-7.6,18.8-8.9c18.6-3.6,36.5,1.5,54.1,6.9c44.3,13.7,85.2,34.2,126,56
	c125.9,67.7,242.8,149.6,361.3,228.8c7.2,5,13.7,11.6,19.4,18.3c4.4,5.2,2.8,10-3.6,13.3c-2.7,1.3-5.4,2.3-8.3,2.7
	c-17.2,1.7-34.4,2.9-47.7,4.1C525.2,508.5,489,506.9,452.9,504.4z"/>
</svg>
