<?xml version="1.0" encoding="utf-8"?>
<!-- Generator: Adobe Illustrator 18.0.0, SVG Export Plug-In . SVG Version: 6.00 Build 0)  -->
<!DOCTYPE svg PUBLIC "-//W3C//DTD SVG 1.1//EN" "http://www.w3.org/Graphics/SVG/1.1/DTD/svg11.dtd">
<svg version="1.1" id="Ebene_1" xmlns="http://www.w3.org/2000/svg" xmlns:xlink="http://www.w3.org/1999/xlink" x="0px" y="0px"
	 viewBox="0 0 300 530" enable-background="new 0 0 300 530" xml:space="preserve">
<g>
	<path fill="#006633" d="M140.1,362.5l-6,10.3c0,0-3.7-54-9.7-57c4.3-1,8.3-3.3,10.7,3.7c2.3,7,4.7,10,4.7,10L140.1,362.5z"/>
	<path opacity="0.5" fill="#2D2E83" d="M85.3,129.1c2.6-0.2,5.3,1.7,8.1,2c6.1,0.5,13.2,5.7,17.1-2.8c7.7,3.5,12.9,1.1,17.9-6.8
		c-1.3,6.5-4.9,12.5-1.3,15.2h52.4c0.4-0.7,0.9-1.4,1.5-2.2c3.8-5.1,6.9-3.2,11.1-2.7c1.9,0.2,4.3-1.5,6.2-2.8
		c2.9-2,5.6-4.4,8.5-6.4c2-1.4,4.3-2.3,7.1-3.8c1.4,0.6,4,1.8,5.9,2.6c2.5-2.6,5.4-6.5,6.2-6.1c5.7,2.8,7.3-2.1,10.2-4.6
		c2-1.7,4.3-3.1,6.3-4.9c1.6-1.3,4.4-3.7,4.1-4.3c-1.3-2.5-3.4-4.6-5.5-6.5c-0.6-0.6-2.1-0.1-4.7-0.1c9.6-4.3,9.7-4.5,5.9-16.5
		c2-1.4,3.9-2.5,5.3-4c0.4-0.4-0.7-3.1-1.6-3.5c-3.4-1.6-7-2.7-9.6-3.7c2.8-1,6.5-2.3,10.1-3.5c-1.8-4-3.2-7.3-4.7-10.6
		c-2.7,0-4.8,0-8.3,0c3.1-2.5,4.9-4.1,6.9-5.7c-9.2-10.2-12.6,3.6-17.7,4.4c3.1-7.4,6.2-14.7,9.4-22.3c-1.7-0.3-3-0.6-3.9-0.7
		c1.5-4.6,3-9.2,4.8-14.6c-3.9,1.9-7.6,3.8-11.6,5.7c-1.2-1.8-2.3-3.4-3.3-5.1c-0.2,0.4-0.5,0.8-0.7,1.1c-2.3-1.1-4.5-2.3-7.3-3.6
		c-0.6,0.3-2.2,1.1-3.6,1.9c-4.2-3.9-8.1-7.5-12.6-11.8c-1.2,11.4-11.7,4.3-15.6,8.4c-3-1.8-5.5-4.5-7.5-4.2
		c-7.6,1.1-15,3.4-22.6,4.9c-1.3,0.3-2.9-1.2-4.4-1.8c-0.5-0.2-1.1-0.5-1.7-0.8c-1,1.7-1.9,3.2-2.8,4.7c-1.9-1.2-4.9-2-5.3-3.6
		c-2.3-8-5.3-2.2-8.2-0.5c-1.3-1.4-2.6-2.8-3.8-4c-4.4,2.6-8.5,5.1-13.3,8c-1.3,1.9-4.9,4.7-4.9,7.6c-0.1,3.2,3.1,6.5,5.4,10.8
		c-12.7-6.9-13.1-6.9-17.6,0.1c-2.2-1.1-4.5-2.1-5.9-2.8C84,35,82.7,40.3,81,46.5c0.4,0.4,1.7,2.1,3.8,4.5c-2.6-0.2-4.2-0.3-5.9-0.5
		c-0.5,3-1,5.8-1.6,8.6c-8.5-7.4-9.6-7.3-16,1c-3.6,0-7,0-9.7,0c1.5,5.8,2.9,10.3,3.6,14.8c0.8,5.1-1.9,8.8-7.2,11.7
		c8.7,2.9,13.3,12,23.3,9.1c-3.8,2.2-7.6,3.5-11.3,5.2c-4.2,1.9-6.2,8-3.4,8.7c6.4,1.5,5.3,7.2,8,11.2c2.5-1.1,5.1-2.4,7.7-3.6
		c0.4,2.9,0.7,5.6,1.2,9.1c2.6-1.6,4.5-2.8,6.7-4.1C79.5,126.8,79.7,129.7,85.3,129.1z"/>
	<path fill="#009640" d="M120.1,165.4c0,0,21.9,39.2,26.1,63.3c-0.2,13.7-0.7,53.5-0.7,53.5s-7.2-20.9-9.5-47.4
		c-2.4-23.9-7.2-42.6-7.2-42.6L120.1,165.4z"/>
	<path fill="#312783" d="M85.3,129.1c2.6-0.2,5.3,1.7,8.1,2c6.1,0.5,13.2,5.7,17.1-2.8c7.7,3.5,12.9,1.1,17.9-6.8
		c-1.3,6.5-4.9,12.5-1.3,15.2h52.4c0.4-0.7,0.9-1.4,1.5-2.2c3.8-5.1,6.9-3.2,11.1-2.7c1.9,0.2,4.3-1.5,6.2-2.8
		c2.9-2,5.6-4.4,8.5-6.4c2-1.4,4.3-2.3,7.1-3.8c1.4,0.6,4,1.8,5.9,2.6c2.5-2.6,5.4-6.5,6.2-6.1c5.7,2.8,7.3-2.1,10.2-4.6
		c2-1.7,4.3-3.1,6.3-4.9c1.6-1.3,4.4-3.7,4.1-4.3c-1.3-2.5-3.4-4.6-5.5-6.5c-0.6-0.6-2.1-0.1-4.7-0.1c9.6-4.3,9.7-4.5,5.9-16.5
		c2-1.4,3.9-2.5,5.3-4c0.4-0.4-0.7-3.1-1.6-3.5c-3.4-1.6-7-2.7-9.6-3.7c2.8-1,6.5-2.3,10.1-3.5c-1.8-4-3.2-7.3-4.7-10.6
		c-2.7,0-4.8,0-8.3,0c3.1-2.5,4.9-4.1,6.9-5.7c-9.2-10.2-12.6,3.6-17.7,4.4c3.1-7.4,6.2-14.7,9.4-22.3c-1.7-0.3-3-0.6-3.9-0.7
		c1.5-4.6,3-9.2,4.8-14.6c-3.9,1.9-7.6,3.8-11.6,5.7c-1.2-1.8-2.3-3.4-3.3-5.1c-0.2,0.4-0.5,0.8-0.7,1.1c-2.3-1.1-4.5-2.3-7.3-3.6
		c-0.6,0.3-2.2,1.1-3.6,1.9c-4.2-3.9-8.1-7.5-12.6-11.8c-1.2,11.4-11.7,4.3-15.6,8.4c-3-1.8-5.5-4.5-7.5-4.2
		c-7.6,1.1-15,3.4-22.6,4.9c-1.3,0.3-2.9-1.2-4.4-1.8c-0.5-0.2-1.1-0.5-1.7-0.8c-1,1.7-1.9,3.2-2.8,4.7c-1.9-1.2-4.9-2-5.3-3.6
		c-2.3-8-5.3-2.2-8.2-0.5c-1.3-1.4-2.6-2.8-3.8-4c-4.4,2.6-8.5,5.1-13.3,8c-1.3,1.9-4.9,4.7-4.9,7.6c-0.1,3.2,3.1,6.5,5.4,10.8
		c-12.7-6.9-13.1-6.9-17.6,0.1c-2.2-1.1-4.5-2.1-5.9-2.8C84,35,82.7,40.3,81,46.5c0.4,0.4,1.7,2.1,3.8,4.5c-2.6-0.2-4.2-0.3-5.9-0.5
		c-0.5,3-1,5.8-1.6,8.6c-8.5-7.4-9.6-7.3-16,1c-3.6,0-7,0-9.7,0c1.5,5.8,2.9,10.3,3.6,14.8c0.8,5.1-1.9,8.8-7.2,11.7
		c8.7,2.9,13.3,12,23.3,9.1c-3.8,2.2-7.6,3.5-11.3,5.2c-4.2,1.9-6.2,8-3.4,8.7c6.4,1.5,5.3,7.2,8,11.2c2.5-1.1,5.1-2.4,7.7-3.6
		c0.4,2.9,0.7,5.6,1.2,9.1c2.6-1.6,4.5-2.8,6.7-4.1C79.5,126.8,79.7,129.7,85.3,129.1z"/>
	<path d="M131.1,134.8"/>
	<path fill="#008D36" d="M134.1,158.2l11.7,19.7v15.7c0,0,4,32,0,36c-1.7,9-1.3,27-1.3,27l9.1-22.7c0,0,1.2-50.3,4.9-55.7
		c4.3-6,13-22.3,13-22.3l-4.3-18.3l-33,4.3V158.2z"/>
	<path fill="#3AAA35" d="M153.6,231.8l0.9-1.4l16.9-27.6c0,0,7.7-11.3,11.3-11c3.7,0.3,13.3,0,13.3,0s6.7,11,5.7,15.7
		c-1,4.7-6.3,47.3-7.7,37.3c-1.3-10-5.3-47.8-5.3-47.8s-16,14.2-17.3,20.2s-18.7,40.7-18.7,49.7s-1.7,17.7-1.7,17.7
		s-4.7,37.7-3.7,39.3c1,1.7-0.1,6.7-0.1,6.7l-7.2,31v-95.3L153.6,231.8z"/>
	<path fill="#006633" d="M153.1,128.8l-22,6l3,23.3l2.7,2.3l-0.7-12.3l8,6.3l9-8.3l3.3,12.3l9.3-12l5.7,9.3c0,0,5.9-19.7,4.3-21
		c-2-1.7-5.3-6-5.3-6s-3.3,5.7-7.3,2.7c-5,5-5,5-5,5l-6.3-1.7L153.1,128.8z"/>
	<path fill="#008D36" d="M174.1,233.5c0,0-15.7,51.3-16.3,63c-4.3,24-10.3,31.3-10.3,31.3l-13.3,45l2.3,145.3l13,6.3l-5-132
		l15.3-70.3L174.1,233.5z"/>
	<path fill="#2D2E9C" d="M188.4,85c-0.5-1-1.3-1.8-2.1-2.5c-0.2-0.2-0.8,0-1.8,0c3.8-1.7,3.8-1.7,2.3-6.4c0.8-0.6,1.5-1,2.1-1.6
		c0.1-0.2-0.3-1.2-0.6-1.4c-1.3-0.6-2.7-1.1-3.8-1.4c1.1-0.4,2.5-0.9,3.9-1.4c-0.7-1.6-1.3-2.8-1.8-4.1c-1,0-1.9,0-3.2,0
		c1.2-1,1.9-1.6,2.7-2.2c-3.6-4-4.9,1.4-6.9,1.7c1.2-2.9,2.4-5.7,3.7-8.7c-0.7-0.1-1.2-0.2-1.5-0.3c0.6-1.8,1.2-3.6,1.9-5.7
		c-1.5,0.7-3,1.5-4.5,2.2c-0.5-0.7-0.9-1.3-1.3-2c-0.1,0.1-0.2,0.3-0.3,0.4c-0.9-0.4-1.8-0.9-2.8-1.4c-0.2,0.1-0.8,0.4-1.4,0.7
		c-1.6-1.5-3.1-2.9-4.9-4.6c-0.5,4.4-4.5,1.7-6.1,3.3c-1.2-0.7-2.1-1.8-2.9-1.6c-3,0.4-5.9,1.3-8.8,1.9c-0.5,0.1-1.1-0.5-1.7-0.7
		c-0.2-0.1-0.4-0.2-0.7-0.3c-0.4,0.7-0.7,1.2-1.1,1.8c-0.7-0.5-1.9-0.8-2.1-1.4c-0.9-3.1-2-0.9-3.2-0.2c-0.5-0.5-1-1.1-1.5-1.6
		c-1.7,1-3.3,2-5.2,3.1c-0.5,0.7-1.9,1.8-1.9,3c0,1.3,1.2,2.5,2.1,4.2c-4.9-2.7-5.1-2.7-6.9,0c-0.9-0.4-1.8-0.8-2.3-1.1
		c-0.6,2.2-1.1,4.2-1.7,6.6c0.1,0.2,0.7,0.8,1.5,1.8c-1-0.1-1.6-0.1-2.3-0.2c-0.2,1.2-0.4,2.2-0.6,3.4c-3.3-2.9-3.7-2.9-6.2,0.4
		c-1.4,0-2.7,0-3.8,0c0.6,2.3,1.1,4,1.4,5.8c0.3,2-0.7,3.4-2.8,4.6c3.4,1.1,5.2,4.7,9.1,3.6c1.9,1.5,3.2,1.3,4.6,2l6.4,1.9l33.5,1.5
		l9.5-1.3l7.6-0.3l3.5-0.6L188.4,85z"/>
	<path fill="#6300FF" d="M159.6,78.1h-5l-1.3-1.8l-7.8,1.8c0,0-5.3,1-6.3,2s-8,5.7-8,5.7l1.3,1.2h2.7l-1.7,2.8l0.2,4.8l3.3-0.8
		l5.7-5.7l2.8,0.7l-1.3,6.8l-0.8,5.8l4-3.2l4.7,1.8l1-9.5l1.7-0.2l1.8,2.8l3.2,9.2l7.2-3.7l2.3-1.8l-1.5-1l-4.7-7.3l2.7-0.5l3.5,1.3
		l1.5-5.6L159.6,78.1z"/>
</g>
</svg>
