<?xml version="1.0" encoding="utf-8"?>
<!-- Generator: Adobe Illustrator 18.0.0, SVG Export Plug-In . SVG Version: 6.00 Build 0)  -->
<!DOCTYPE svg PUBLIC "-//W3C//DTD SVG 1.1//EN" "http://www.w3.org/Graphics/SVG/1.1/DTD/svg11.dtd">
<svg version="1.1" id="Ebene_1" xmlns="http://www.w3.org/2000/svg" xmlns:xlink="http://www.w3.org/1999/xlink" x="0px" y="0px"
	 viewBox="0 0 300 530" enable-background="new 0 0 300 530" xml:space="preserve">
<g>
	<path fill="#006633" d="M127,529.6l-10-0.3c0-1.3,3.4-133.2-1.5-162.4c-5-30.3,2.4-119.5,2.7-123.2l10,0.8
		c-0.1,0.9-7.7,91.7-2.8,120.8C130.4,395.5,127.1,524.2,127,529.6z"/>
	<path fill="#BE1622" d="M123.2,24.5c0,0-7.8-13.7-20.5-2.7c-15.3,2-26,6-26.7,8c-0.7,2-7,8-8,8s-7.3,6-6.3,9s-1.3,7-4.7,5
		c-3.3-2-11.3-5.7-11.3-5.7s-3.7,8.7-3.7,12c0,3.3-11,10-8,19.3c0.3,8.7-2,11.2-2,11.2s9.3,2.8,8.3,9.2c-4.7,8.3-6.7,8.7-8.3,13.3
		c-1.7,4.7-4,8-4,8s3.7,4.7,3.7,7c0,2.3-3,13.7,8,24.7c0,9.7,0.7,13,1.7,13.3c1,0.3,6.3,2.7,6.3,8c0,5.3,5,8.3,12,7.7
		c7-0.7,7.7,4,7.7,4s10.4-11.6,15.7-12c5.2-0.4,8.3-1.3,8.3-1.3L123.2,24.5z"/>
	<path fill="#9E1622" d="M249.7,195.9c0,0-0.3,10,3,12.3c3.3,2.3,8.7,9,4.3,10c-4.3,1-14.3,4.3-14.7,10.7c-0.3,6.3-4.7,15.7-7,17.3
		c-2.3,1.7-12.3,3.7-12.7,5.7c-0.3,2-10.3,5.7-10.3-3c0-8.7-7.3-11.3-7.3-11.3s-9.3,3.3-11,12.3c-5.7-0.7-11.8-9.7-25.9-4.3
		s-22.4,10.7-26.4,8.8c-4-1.8-9-3.5-9-3.5s-19.3-0.7-21-3.3c-1.7-2.7-12.7-6.7-11.3-16c-9-10.3-19-13.3-19-13.3s-17.2-2.4-14.5-19.5
		S249.7,195.9,249.7,195.9z"/>
	<path fill="#DF1622" d="M197.7,43.2l3.8,1.7c0,0,1.1,2.3,0,8.7c-0.8,5.3-1.8,12,3.5,12s11-3,12.7-2.8c1.7,0.2,8,0.8,13,6.2s7,9,7,9
		s0.7-6.3,5.7-5.3s17,9,18,16.2c1,7.2,5.3,18.8,5.3,18.8s0,8.3-3.3,18.3c1.3,9.3,2.7,11.7,6.7,18c1.7,5,1.7,14,3,15.7
		c1.3,1.7,5.3,6,0,10c-5.3,4-9,9.3-9,11.7c0,2.3-5.3,5.4-5.3,5.4s2.7,6,1,8.6c-1.7,2.7-9,9.7-21,9.7c-7.7,3-12,4.3-19,18.3
		c-8.7,3.3-27.3-3.7-27.3-3.7s-16.7-2-17-7c-0.3-5-7.2-26-7.2-26l-8.5-13.1l-32.6-22.3L197.7,43.2z"/>
	<path fill="#AD1622" d="M176.7,199.8c0,0-6,9.3-12,9.3s-14.3-1.7-16,8.3c-1.7,6.6-15.3,4.7-15.3,4.7s-7,0.7-10.2,11.7
		c-7.8,1.3-18.5-15-18.5-15s3-13.3-18.3-11.7c-11.7-1.3-16.3,3-21-13c-4-7.7,2.7-14,2.7-14l34.3-22.3l74.3,18.3V199.8z"/>
	<path fill="#CF1622" d="M88.7,88.7v7.5c0,0,5.4,1.7,5.4,3.3c0,1.7,4.7,10.7-7,17.3s-15,8.7-12.3,20.7c2.7,12,1,23,1,23
		s3.1,9,8.7,10s6.6,2,7.6,4.7c1,2.7,9.3,12,16,11.3c6.7-0.7,14.3-1.7,21-7c6.7-5.3,7.3-8.7,11.3-4.3c4,4.3,6.3,8.3,11.7,9
		c5.3,0.7,10.3-3.7,10.3-5.3c0-0.8-1.7-3.8-3.6-6.7c-2.1-3.5-4.4-6.9-4.4-6.9l8-34l10.2-14.3L88.7,88.7z"/>
	<path fill="#C61622" d="M172.6,116.8c0,0,8-17.5,17.5-23s4.8-10.4,4-23.5c-1-15.5,7.5-21.5,7.5-21.5v-8.5l3.5-3c0,0-2-22-32.5-11.5
		c-1.5-11,0-26-44.5-11c-18.5,15.5-21.5,15.5-21.5,15.5s-17.5,10-21.5,10.5c-4,3.5-6.5,11-4,15.5s3,13.5,1,15.5s-8,11.5,2,15
		c1.5,0.5,3.1,1.2,4.6,1.8c8.3,3.7,15.4,8.7,15.4,8.7s0.5-3,6.5,5.5s13.5,11,13.5,11L172.6,116.8z"/>
	<path fill="#1D1D1B" d="M154.4,123.8c0,0-9.9-26.7-12.6-26.7s-29,3.7-16.4,28.7c16.6,2.4,29,4,29,4V123.8z"/>
	<path fill="#1D1D1B" d="M148.1,137.6c0,0-14.3-3.2-18,0c-3.7,3.2-6.7,22.2,16,26.6c11.2-11,8.3-20.3,8.3-20.3L148.1,137.6z"/>
	<path fill="#1D1D1B" d="M158.7,116.8c0,0-1.8-17,3.9-18s24.1,4,24.4,14.7s-14.3,10.3-14.3,10.3L158.7,116.8z"/>
	<path fill="#1D1D1B" d="M189.9,152c0,0-2.4,10.8-11.2,11.3c-8.7,0.5-14.7-20-14.7-20l4.9-6.8C169.1,136.5,191.6,141,189.9,152z"/>
	<path fill="#77C10F" d="M147.4,131.8c0,0,0.6,8.6,3,12.7c2.4,4.1,2.4,4.1,2.4,4.1l17.3-8.8c0,0-18-5.3-15.7-19.7
		C150.9,129.4,147.4,131.8,147.4,131.8z"/>
	<path fill="#95C11F" d="M154.5,126.8c0,0-4.1-15.8,8.6-11.8s16.9,20,7.4,24.7C161,144.6,154.5,126.8,154.5,126.8z"/>
</g>
</svg>
