<?xml version="1.0" encoding="utf-8"?>
<!-- Generator: Adobe Illustrator 18.0.0, SVG Export Plug-In . SVG Version: 6.00 Build 0)  -->
<!DOCTYPE svg PUBLIC "-//W3C//DTD SVG 1.1//EN" "http://www.w3.org/Graphics/SVG/1.1/DTD/svg11.dtd">
<svg version="1.1" id="Ebene_1" xmlns="http://www.w3.org/2000/svg" xmlns:xlink="http://www.w3.org/1999/xlink" x="0px" y="0px"
	 viewBox="0 0 300 530" enable-background="new 0 0 300 530" xml:space="preserve">
<g>
	<path fill="#009933" d="M154.7,31c2.5,19.5-0.4,39.1-0.6,58.6c-1.6,127,4.3,252,7.1,377.9c0.4,18-0.2,36,0.2,54l-17.3,0.4
		c-0.5-23.5,1.8-47,1.3-70.5c-0.8-34.5,2.2-69.1,1.4-103.6c-2.3-100.5,2.7-201.1,0.4-301.6c-0.1-4.7-0.6-9.4-1.3-14.1"/>
	<path fill="#009933" d="M214.2,366.9c-6.1,31.7-41.6,51.4-53.8,49.1c-12.2-2.4,8.1-27.3,14.2-59c8.2-42.5,82.4-55.7,94.6-53.4
		C281.5,306,220.3,335.2,214.2,366.9z"/>
	<path fill="#009933" d="M106,331.2c5.4,22.6,31.6,35.7,40.3,33.6c8.7-2.1-6.8-19.4-12.2-42c-7.3-30.3-61.2-37.4-69.9-35.3
		S100.5,308.6,106,331.2z"/>
	<path fill="#951B81" d="M172.3,38.9l-2,7.8c0,0,85.6,47.2,86.8,121.7C277.4,117.1,249.9,59.1,172.3,38.9z"/>
	<path fill="#A3195B" d="M145.9,32.2c0,0,144.8,64,59.6,138.4c-14.6,7.2-26.6,0.1-32.3-3.5c0,0,25,9,26.3-14.4
		c1.3-23.4-4.9-89.3-58-109.2C138.8,40.4,145.9,32.2,145.9,32.2z"/>
	<path fill="#A3195B" d="M175,37.2c0,0,109.4-13.2,121.5,96.3C270.2,108.6,259.2,79.3,175,37.2z"/>
	<path d="M166,56.7"/>
	<path fill="#951B81" d="M153.4,44.4c0,0-5.6-3.5-7.9,3.9c-6.3,20.5-9,73.6,33.8,126.8C188,154.5,207.7,85.4,153.4,44.4z"/>
	<path fill="#951B81" d="M122,47.3c0,0-69.5,30.9-44.1,124.9C91.5,114,145.7,116.5,136,49.3C135.5,45.9,122.8,51.1,122,47.3z"/>
	<path fill="#A3195B" d="M131.7,35.7c0,0-151.9,44.5-77.2,129.4c13.5,9,26.3,3.5,32.5,0.8c0,0-25.9,5.7-24.2-17.7
		s16.5-87.9,71.7-100.7C137.6,44.8,131.7,35.7,131.7,35.7z"/>
	<path fill="#951B81" d="M124.5,39.4c0,0-109.4-13.2-121.5,96.3C29.3,110.7,18.9,79.7,124.5,39.4z"/>
	<path fill="#A3195B" d="M132.2,44.3c0,0-40.3,94.6-4.2,132.8c24-24.9,32.2-103,16.7-128.6C142.9,45.7,133.7,46.5,132.2,44.3z"/>
	<path fill="#432918" d="M191.9,45.4c0,0-6-34.2-42.2-34.2c-36.5,0-47.8,35.5-47.8,35.5S142.8,62,191.9,45.4z"/>
</g>
</svg>
