<?xml version="1.0" encoding="utf-8"?>
<!-- Generator: Adobe Illustrator 15.0.0, SVG Export Plug-In . SVG Version: 6.00 Build 0)  -->
<!DOCTYPE svg PUBLIC "-//W3C//DTD SVG 1.1//EN" "http://www.w3.org/Graphics/SVG/1.1/DTD/svg11.dtd">
<svg version="1.1" id="Ebene_1" xmlns="http://www.w3.org/2000/svg" xmlns:xlink="http://www.w3.org/1999/xlink" x="0px" y="0px"
	 width="23.433px" height="26.874px" viewBox="0 0 23.433 26.874" enable-background="new 0 0 23.433 26.874" xml:space="preserve">
<polygon fill="#FFFFFF" points="-116.22,69.792 -116.22,38.125 -125.304,42.125 -134.387,38.125 -134.387,69.792 -143.221,69.792 
	-125.304,85.599 -107.387,69.792 "/>
<path fill="#339999" d="M11.717,0C5.246,0,0,5.246,0,11.717c0,2.669,0.903,5.122,2.406,7.092l-0.761,8.065l6.402-4.036
	c1.155,0.381,2.387,0.595,3.67,0.595c6.471,0,11.716-5.246,11.716-11.716C23.433,5.246,18.188,0,11.717,0z"/>
<polygon fill="#FFFFFF" points="18.069,10.14 13.294,10.14 13.294,5.364 10.139,5.364 10.139,10.14 5.364,10.14 5.364,13.294 
	10.139,13.294 10.139,18.069 13.294,18.069 13.294,13.294 18.069,13.294 "/>
</svg>
