<?xml version="1.0" encoding="utf-8"?>
<!-- Generator: Adobe Illustrator 18.0.0, SVG Export Plug-In . SVG Version: 6.00 Build 0)  -->
<!DOCTYPE svg PUBLIC "-//W3C//DTD SVG 1.1//EN" "http://www.w3.org/Graphics/SVG/1.1/DTD/svg11.dtd">
<svg version="1.1" id="Ebene_1" xmlns="http://www.w3.org/2000/svg" xmlns:xlink="http://www.w3.org/1999/xlink" x="0px" y="0px"
	 viewBox="0 0 466.3 385.4" enable-background="new 0 0 466.3 385.4" xml:space="preserve">
<g>
	<path fill="#585857" d="M52.6,98.8c-24.2,0-44,19.8-44,44v260.5h17.1V143c0-22.8,18.7-27.5,41.5-27.5h6.3V98.8H52.6z"/>
	<path fill="#E5352B" d="M225.4,366.2H80.9c-4.7,0-8.5-3.8-8.5-8.5V92.2c0-4.7,3.8-8.5,8.5-8.5h144.5c4.7,0,8.5,3.8,8.5,8.5v265.5
		C233.9,362.3,230.1,366.2,225.4,366.2z"/>
	<path fill="#868686" d="M209.7,386.3H94.8c-4.9,0-8.9-4-8.9-8.9l-2-218.2c0-4.9,32-14.9,36.9-14.9h67.9c4.9,0,32.9,9,32.9,13.9
		l-3,219.2C218.6,382.3,214.6,386.3,209.7,386.3z"/>
	<path fill="#4A431E" d="M84.7,157.7c0,0-77,52.8-59.7,120.1c9.3,36,31.3,27,52.7,31.7v-2c0,0-25-7-28-45.7
		c5-35.3,36.3-50.3,36.3-50.3L84.7,157.7z"/>
	<path fill="#4A431E" d="M220.4,156.7c0,0,40.2,15.1,54.7,84.1c10.5,29.5,18,42.5,14.5,52.5s-12,18-16,15s-13.5,2.5-19-19
		c-5.5-21.5-11.5-44-11.5-44s-10.5-27-23-33.5C219.1,195.8,220.4,156.7,220.4,156.7z"/>
	<path fill="#BE1823" d="M348.2,246.5l-50,10c-2.5,0.5-5-1.2-5.5-3.7l-0.5-2.7c-0.5-2.5,1.2-5,3.7-5.5l50-10c2.5-0.5,5,1.2,5.5,3.7
		l0.5,2.7C352.4,243.6,350.7,246,348.2,246.5z"/>
	<path fill="#4A431E" d="M210.8,69.3c-7.1,39.3-25.8,76.9-57.6,76.9s-47.5-29.9-57.6-76.9c0-36.6,25.8-61.7,57.6-61.7
		S210.8,32.7,210.8,69.3z"/>
	<path fill="#5A552B" d="M197.1,87.6c-5.4,30-19.7,58.6-43.9,58.6s-36.2-22.8-43.9-58.6c0-27.9,19.7-47,43.9-47
		S197.1,59.7,197.1,87.6z"/>
	<path fill="#70706F" d="M184.8,135.8c-0.5-14.1-14.3-25.4-31.2-25.4s-30.7,11.3-31.2,25.4h0v20.1h62.4L184.8,135.8L184.8,135.8z"/>
	<ellipse fill="#1E1E1C" cx="153.6" cy="155.5" rx="31.5" ry="26.1"/>
	<path fill="#585857" d="M153.6,136c-14.4,0-26.1,8.7-26.1,19.5c0,10.8,11.7,19.5,26.1,19.5s26.1-8.7,26.1-19.5
		C179.7,144.7,168,136,153.6,136z M153.6,168c-9,0-16.2-5.4-16.2-12.1c0-6.7,7.3-12.1,16.2-12.1c9,0,16.2,5.4,16.2,12.1
		C169.8,162.6,162.5,168,153.6,168z"/>
	<ellipse fill="#1E1E1C" cx="126.4" cy="87.3" rx="19.4" ry="21.6"/>
	<ellipse fill="#FFFFFF" cx="126.4" cy="88.1" rx="13.8" ry="15.4"/>
	<ellipse fill="#1E1E1C" cx="181.5" cy="87.3" rx="19.4" ry="21.6"/>
	<ellipse fill="#FFFFFF" cx="181.5" cy="88.1" rx="13.8" ry="15.4"/>
	<path fill="#302D7E" d="M292.2,263.7l-77.4,15.4c-4.4,0.9-8.8-2-9.7-6.4l-1.4-6.9c-0.9-4.4,2-8.8,6.4-9.7l77.4-15.4
		c4.4-0.9,8.8,2,9.7,6.4l1.4,6.9C299.5,258.5,296.6,262.9,292.2,263.7z"/>
	<path fill="#302D7E" d="M453.6,225l-99.1,26.2c-4.9,1-9.7-2.2-10.7-7.2l-1-5.2c-1-4.9,2.2-9.7,7.2-10.7L451,215
		c2.7-0.5,5.9,3.9,5.9,3.9S456.3,224.5,453.6,225z"/>
	<path fill="#009640" d="M120.8,144.3"/>
	<path fill="#BE1823" d="M96.2,145.5c0,0,0.7,62.2-13.1,72c-0.7,20.3-0.7,20.3-0.7,20.3s24.8-24.4,26.7-46.7
		c2-23.3,1.6-47.7,1.6-47.7L96.2,145.5z"/>
	<path fill="#BE1823" d="M208.9,143.2c0,0-0.7,62.2,13.1,72c0.7,20.3,0.7,20.3,0.7,20.3s-24.8-24.4-26.7-46.7
		c-2-23.3-1.6-47.7-1.6-47.7L208.9,143.2z"/>
	<path fill="#585857" d="M123,401.8V303c0-22.8,18.7-27.5,41.5-27.5h6.3v-16.6h-21c-24.2,0-44,19.8-44,44v99H123z"/>
	<path fill="#302D7E" d="M230,292l-60.8,12.1c-6.1,1.2-12.2-2.8-13.4-8.9l-5.3-26.3c-1.2-6.1,2.8-12.2,8.9-13.4l60.8-12.1
		c6.1-1.2,12.2,2.8,13.4,8.9l5.3,26.3C240.2,284.7,236.2,290.7,230,292z"/>
	<path fill="#5A552B" d="M263.7,240.8c0,0,29,42.5,25.5,52.5s-12,18-16,15s-13.5,2.5-19-19s-2.5-22-2.5-22L263.7,240.8z"/>
	<path fill="#4A431E" d="M279.6,274.7"/>
	<g>
		<path fill="#F29107" d="M267.9,241.2c0,0,6.4-6.4,10.2-0.7c2.4,5,6.9,17.9,7,20.6c0.1,2.8-0.4,3.4-0.4,3.4s-0.7,3.5-0.9,5.1
			c-1,1.6-2.5,2.2-5.1,2.3c-3,0.4-4.5,1-6.2,2.8c-2.1,2.2-4.6,2.8-7.3,1.3s-3.3-1-3.3-1s-1.1-0.2-1.8,0.3c-0.7,0.6-2.3,2.1-4.6,0.9
			c-2.3-1.2-4.6-2.7-6.1-4.7c-1.9,0.1-3.3-0.2-4.5-2.3c-1.8-1.1-3.5-2.1-4.2-6.3s-0.9-11.3-0.6-12.1s2.2-4.6,6.7-3.9
			c1.1-0.9,4.9-3.4,8.4-2.2c0.3-1.8,0.7-4.4,5.2-5.1c3.6-0.3,5.9,0.3,6.5,2.6C267.5,241.6,267.9,241.2,267.9,241.2z"/>
		<path fill="#EF8405" d="M273.1,265.3c-0.2-0.6-3.9-16.2-5-19.3c-0.9-2.8-1.2-3.7-1.2-3.7l-0.1,0.1c-0.1,0.1-0.5,0.8,0.5,3.9
			c1,3,5.4,18.3,5.5,18.4L273.1,265.3z"/>
		<path fill="#EF8405" d="M260,268.7l0.4,0.6c-1.3-2-3.9-19.2-4.9-25.5l-0.2,1C255.4,245.7,258.3,266.2,260,268.7z"/>
		<path fill="#EF8405" d="M249.4,271.5l0.4,0.4c-1.5-2.2-2.2-13.1-2.6-18.7c-0.2-2.5-0.3-3.7-0.4-4c-0.2-0.7-0.1-1.7,0.1-2l0-0.2
			c0,0.1-1.3,1.2-0.9,2.5c0.1,0.2,0.2,2,0.3,3.8C246.9,261.1,247.9,269.3,249.4,271.5z"/>
	</g>
	<path fill="#5A552B" d="M107.9,294.1l-16-6.8c0,0-44.1-14.3-51.4-7.6s-9.5,17.2-4.1,19.9c5.4,2.7,6.2,13.3,30.2,11.1
		c23-2.2,34.2-4.7,36.5-6.9"/>
	<path fill="#F29107" d="M66.2,312c12.9-3.9,29.5-2.4,39.1-4c5.2-0.8,10.4-1.9,15.7-2.4c12.7-1.1,25.2,1.2,37.8,0.1
		c2.4-0.2,4.7-1.4,6.9-2.5c0.7-0.4,1.8-1.5,1.1-3.1c-0.1-0.3-1.6-1-2.5-1c-4.1,0-8.2,0.2-12.3,0.3c-1,0-2,0-3.1-0.7
		c5.9-0.3,11.7-0.5,17.6-1.1c2.9-0.3,5.7-1.1,8.4-2.1c1-0.4,2.6-1.5,2.1-3.1c-0.5-1.7-2.3-2.6-3.7-2.7c-4.3-0.3-8.7,0-13,0.1
		c-3.9,0-7.7,0-11.6-0.6c4.7-0.3,9.4-0.4,14.1-1c4.5-0.5,9.1-1.2,13.4-2.4c1.6-0.5,3.8-2.2,3.9-4.3c-0.3-2.1-3.4-3-5.1-2.9
		c-5.6,0.1-11.2,1-16.9,1.5c-1.6,0.1-3.3-0.2-5-0.9c4.7-1.5,9.3-2.9,14-4.4c1.4-0.5,3-0.9,4.1-1.9c1-0.9,2.3-1.4,2.1-3.7
		c-0.8-1-0.8-2.3-4-1.3c-7.2,1.2-14.4,2.7-21.6,4.1c-3,0.6-6,1.1-9,1.5c3.2-2.9,5.4-6.2,9.2-10.6c0.6-1.1,2.1-3.3-0.1-4.5
		c-1.7-0.2-3.4-0.3-5.2,0.5c-5.8,2.4-7.7,9.7-14,11.2c-3.1,0.8-7.9,4.8-7.9,4.8s-5,4.5-7.1,5c-16.8,4.1-32-1.5-49.2-0.4
		C59,295.8,57.9,301.9,66.2,312z"/>
</g>
</svg>
