<?xml version="1.0" encoding="utf-8"?>
<!-- Generator: Adobe Illustrator 18.0.0, SVG Export Plug-In . SVG Version: 6.00 Build 0)  -->
<!DOCTYPE svg PUBLIC "-//W3C//DTD SVG 1.1//EN" "http://www.w3.org/Graphics/SVG/1.1/DTD/svg11.dtd">
<svg version="1.1" id="Ebene_1" xmlns="http://www.w3.org/2000/svg" xmlns:xlink="http://www.w3.org/1999/xlink" x="0px" y="0px"
	 viewBox="0 0 500 457.6" enable-background="new 0 0 500 457.6" xml:space="preserve">
<path fill="#585857" d="M56.4,149.3c-25.9,0-47.2,21.2-47.2,47.2v279.3h18.3V196.7c0-24.4,20.1-29.5,44.5-29.5h6.8v-17.9H56.4z"/>
<path fill="#E5352B" d="M241.7,436H86.7c-5,0-9.1-4.1-9.1-9.1V142.2c0-5,4.1-9.1,9.1-9.1h154.9c5,0,9.1,4.1,9.1,9.1v284.7
	C250.8,431.9,246.7,436,241.7,436z"/>
<path fill="#868686" d="M224.9,457.6H101.7c-5.3,0-9.5-4.3-9.5-9.5l-2.1-234c0-5.3,34.3-16,39.6-16h72.8c5.3,0,35.3,9.7,35.3,14.9
	l-3.2,235C234.4,453.3,230.1,457.6,224.9,457.6z"/>
<path fill="#4A431E" d="M90.8,212.5c0,0-82.6,56.6-64,128.8c10,38.6,33.6,29,56.5,34v-2.1c0,0-26.8-7.5-30-49
	c5.4-37.9,38.9-53.9,38.9-53.9L90.8,212.5z"/>
<path fill="#4A431E" d="M236.3,211.4c0,0,43.1,16.2,58.7,90.2c11.3,31.6,19.3,45.6,15.5,56.3c-3.8,10.7-12.9,19.3-17.2,16.1
	c-4.3-3.2-14.5,2.7-20.4-20.4s-12.3-47.2-12.3-47.2s-11.3-29-24.7-35.9C234.9,253.3,236.3,211.4,236.3,211.4z"/>
<path fill="#BE1823" d="M373.4,307.7l-53.6,10.7c-2.7,0.5-5.4-1.3-5.9-4l-0.5-2.9c-0.5-2.7,1.3-5.4,4-5.9l53.6-10.7
	c2.7-0.5,5.4,1.3,5.9,4l0.5,2.9C377.9,304.6,376,307.2,373.4,307.7z"/>
<path fill="#4A431E" d="M226,117.7c-7.6,42.1-27.7,82.5-61.8,82.5s-50.9-32.1-61.8-82.5c0-39.2,27.7-66.2,61.8-66.2
	S226,78.4,226,117.7z"/>
<path fill="#5A552B" d="M211.3,137.3c-5.8,32.2-21.1,62.8-47.1,62.8s-38.8-24.4-47.1-62.8c0-29.9,21.1-50.4,47.1-50.4
	S211.3,107.4,211.3,137.3z"/>
<path fill="#70706F" d="M198.2,189c-0.5-15.1-15.3-27.2-33.5-27.2s-32.9,12.1-33.5,27.2l0,0v21.6h66.9L198.2,189L198.2,189z"/>
<ellipse fill="#1E1E1C" cx="164.7" cy="210.1" rx="33.8" ry="28"/>
<path fill="#585857" d="M164.7,189.2c-15.4,0-28,9.3-28,20.9s12.5,20.9,28,20.9s28-9.3,28-20.9C192.7,198.5,180.1,189.2,164.7,189.2
	z M164.7,223.5c-9.7,0-17.4-5.8-17.4-13c0-7.2,7.8-13,17.4-13c9.7,0,17.4,5.8,17.4,13C182.1,217.7,174.2,223.5,164.7,223.5z"/>
<ellipse fill="#1E1E1C" cx="135.5" cy="137" rx="20.8" ry="23.2"/>
<ellipse fill="#FFFFFF" cx="135.5" cy="137.8" rx="14.8" ry="16.5"/>
<ellipse fill="#1E1E1C" cx="194.6" cy="137" rx="20.8" ry="23.2"/>
<ellipse fill="#FFFFFF" cx="194.6" cy="137.8" rx="14.8" ry="16.5"/>
<path fill="#302D7E" d="M313.3,326.1l-83,16.5c-4.7,1-9.4-2.1-10.4-6.9l-1.5-7.4c-1-4.7,2.1-9.4,6.9-10.4l83-16.5
	c4.7-1,9.4,2.1,10.4,6.9l1.5,7.4C321.1,320.6,318,325.3,313.3,326.1z"/>
<path fill="#302D7E" d="M486.4,284.6l-106.3,28.1c-5.3,1.1-10.4-2.4-11.5-7.7l-1.1-5.6c-1.1-5.3,2.4-10.4,7.7-11.5l108.3-14
	c2.9-0.5,6.3,4.2,6.3,4.2S489.3,284.1,486.4,284.6z"/>
<path fill="#009640" d="M129.5,198.1"/>
<path fill="#BE1823" d="M103.2,199.4c0,0,0.8,66.7-14,77.2c-0.8,21.8-0.8,21.8-0.8,21.8s26.6-26.2,28.6-50.1
	c2.1-25,1.7-51.1,1.7-51.1L103.2,199.4z"/>
<path fill="#BE1823" d="M224,196.9c0,0-0.8,66.7,14,77.2c0.8,21.8,0.8,21.8,0.8,21.8s-26.6-26.2-28.6-50.1
	c-2.1-25-1.7-51.1-1.7-51.1L224,196.9z"/>
<path fill="#585857" d="M131.9,474.2V368.3c0-24.4,20.1-29.5,44.5-29.5h6.8V321h-22.5c-25.9,0-47.2,21.2-47.2,47.2v106.2h18.4V474.2
	z"/>
<path fill="#302D7E" d="M246.6,356.5l-79.2,14c-6.5,1.3-13.1-4-14.4-10.5l-5.7-24.2c-1.3-6.5,3-13.1,9.5-14.4l79.2-17
	c6.5-1.3,13.1,3,14.4,9.5l5.7,28.2C257.6,348.6,253.3,355.1,246.6,356.5z"/>
<path fill="#5A552B" d="M282.8,301.6c0,0,31.1,45.6,27.3,56.3c-3.8,10.7-12.9,19.3-17.2,16.1c-4.3-3.2-14.5,2.7-20.4-20.4
	s-2.7-23.6-2.7-23.6L282.8,301.6z"/>
<path fill="#4A431E" d="M299.8,337.9"/>
<g>
	<path fill="#F29107" d="M287.3,302c0,0,6.9-6.9,10.9-0.8c2.6,5.4,7.4,19.2,7.5,22.1c0.1,3-0.4,3.6-0.4,3.6s-0.8,3.8-1,5.5
		c-1.1,1.7-2.7,2.4-5.5,2.5c-3.2,0.4-4.8,1.1-6.6,3c-2.3,2.4-4.9,3-7.8,1.4s-3.5-1.1-3.5-1.1s-1.2-0.2-1.9,0.3
		c-0.8,0.6-2.5,2.3-4.9,1c-2.5-1.3-4.9-2.9-6.5-5c-2,0.1-3.5-0.2-4.8-2.5c-1.9-1.2-3.8-2.3-4.5-6.8c-0.8-4.5-1-12.1-0.6-13
		c0.3-0.9,2.4-4.9,7.2-4.2c1.2-1,5.3-3.6,9-2.4c0.3-1.9,0.8-4.7,5.6-5.5c3.9-0.3,6.3,0.3,7,2.8C286.8,302.4,287.3,302,287.3,302z"/>
	<path fill="#EF8405" d="M292.8,327.8c-0.2-0.6-4.2-17.4-5.4-20.7c-1-3-1.3-4-1.3-4l-0.1,0.1c-0.1,0.1-0.5,0.9,0.5,4.2
		c1.1,3.2,5.8,19.6,5.9,19.7L292.8,327.8z"/>
	<path fill="#EF8405" d="M278.8,331.5l0.4,0.6c-1.4-2.1-4.2-20.6-5.3-27.3l-0.2,1.1C273.9,306.8,277,328.8,278.8,331.5z"/>
	<path fill="#EF8405" d="M267.4,334.5l0.4,0.4c-1.6-2.4-2.4-14-2.8-20.1c-0.2-2.7-0.3-4-0.4-4.3c-0.2-0.8-0.1-1.8,0.1-2.1v-0.2
		c0,0.1-1.4,1.3-1,2.7c0.1,0.2,0.2,2.1,0.3,4.1C264.7,323.3,265.8,332.1,267.4,334.5z"/>
</g>
<path fill="#5A552B" d="M115.7,358.7l-17.2-7.3c0,0-47.3-15.3-55.1-8.1c-7.8,7.2-10.2,18.4-4.4,21.3c5.8,2.9,6.6,14.3,32.4,11.9
	c24.7-2.4,36.7-5,39.1-7.4"/>
<path fill="#F29107" d="M72,377.9c13.8-4.2,31.6-2.6,41.9-4.3c5.6-0.9,11.2-2,16.8-2.6c13.6-1.2,27,1.3,40.5,0.1
	c2.6-0.2,5-0.5,7.4-1.7c0.8-0.4,1.9-1.6,1.2-3.3c-0.2-1.6-1.7-2.1-2.7-2.1c-4.4,0-8.8,0.2-13.2,0.3c-1.1,0-2.1,0-3.3-0.8
	c6.3-0.3,12.5-0.5,18.9-1.2c3.1-0.3,6.1-1.2,9-2.3c1.1-0.4,2.8-1.6,2.3-3.3c-0.5-1.8-2.5-2.8-4-2.9c-4.6-0.3-9.3,0-13.9,0.1
	c-4.2,0-8.3,0-12.4-0.6c5-0.3,10.1-0.4,15.1-1.1c4.8-0.5,9.8-1.3,14.4-2.6c1.7-0.5,4.1-2.4,4.2-4.6c-0.3-2.3-3.6-3.2-5.5-3.1
	c-6,0.1-12,1.1-18.1,1.6c-1.7,0.1-8.5,0.8-10.4,0c5-1.6,15-3.5,20.1-5.1c1.5-0.5,4.3-1.7,6.3-2.6c2.9-1.1,1.8-6.5-4-5.4
	c-7.7,1.3-15.4,2.9-23.2,4.4c-3.2,0.6-6.4,1.2-9.7,1.6c3.4-3.1,5.8-6.6,9.9-11.4c0.6-1.2,2.3-5.5-0.1-6.8c-1.8-0.2-3.6,1.7-5.6,2.5
	c-6.2,2.6-9.7,8.9-15,12c-4.3,2.1-8.5,5.1-8.5,5.1s-5.4,4.8-7.6,5.4c-18,4.4-34.3-1.6-52.8-0.4C64.3,360.6,63.1,367.1,72,377.9z"/>
</svg>
