<?xml version="1.0" encoding="utf-8"?>
<!-- Generator: Adobe Illustrator 18.0.0, SVG Export Plug-In . SVG Version: 6.00 Build 0)  -->
<!DOCTYPE svg PUBLIC "-//W3C//DTD SVG 1.1//EN" "http://www.w3.org/Graphics/SVG/1.1/DTD/svg11.dtd">
<svg version="1.1" id="Ebene_1" xmlns="http://www.w3.org/2000/svg" xmlns:xlink="http://www.w3.org/1999/xlink" x="0px" y="0px"
	 viewBox="0 0 812.4 713.5" enable-background="new 0 0 812.4 713.5" xml:space="preserve">
<path opacity="0.55" fill="#7ABA48" d="M799.6,372.1c0-69-49.3-126.7-115.1-140.8c-5.3-90.9-88.7-163.2-190.8-163.2
	c-28.5,0-55.6,5.7-79.9,15.8c-25.1-43.8-72.7-73.3-127.4-73.3c-80.8,0-146.2,64.5-146.2,144.1c0,6.6,0.5,13.2,1.3,19.5
	C78,189.9,31,246.5,31,313.9c0,33.9,11.9,65.1,31.8,89.7C37.7,418,21,443.2,21,472c0,44.7,40.2,81,89.8,81c26.9,0,51-10.7,67.5-27.6
	c39.5,42.7,95.2,69.3,157,69.3c27.2,0,53.2-5.2,77.2-14.6c24.1,73.2,97.4,126.5,184.2,126.5c106.3,0,192.5-80,192.5-178.7
	c0-25.9-5.9-50.4-16.6-72.6C789.6,431.9,799.6,403.1,799.6,372.1z"/>
</svg>
