<?xml version="1.0" encoding="utf-8"?>
<!-- Generator: Adobe Illustrator 15.0.0, SVG Export Plug-In . SVG Version: 6.00 Build 0)  -->
<!DOCTYPE svg PUBLIC "-//W3C//DTD SVG 1.1//EN" "http://www.w3.org/Graphics/SVG/1.1/DTD/svg11.dtd">
<svg version="1.1" id="Ebene_1" xmlns="http://www.w3.org/2000/svg" xmlns:xlink="http://www.w3.org/1999/xlink" x="0px" y="0px"
	 width="234.607px" height="225.408px" viewBox="0 0 234.607 225.408" enable-background="new 0 0 234.607 225.408"
	 xml:space="preserve">
<g>
	<g>
		<g>
			<path fill="#FFFFFF" d="M69.545,134.417c-4.812-0.582-12.563-2.028-22.469-5.607c-15.698,2.795-30.62,11.997-24.216,38.308
				c4.282,17.593,12.554,23.315,21.501,23.315c12.137,0,25.509-10.521,31.866-16.222c-2.104-5.481-3.479-10.86-4.33-14.907
				C70.01,150.34,69.204,141.186,69.545,134.417z"/>
		</g>
	</g>
	<g>
		<path fill="#FFFFFF" d="M188.815,128.696c-9.779,3.562-17.474,5.046-22.364,5.667c0.345,6.778-0.465,15.96-2.354,24.941
			c-0.802,3.811-2.069,8.804-3.97,13.95c5.712,5.3,20.112,17.338,33.092,17.338c8.948,0,17.219-5.72,21.5-23.315
			C221.352,140.027,205.105,131.13,188.815,128.696z"/>
	</g>
	<g>
		<g>
			<path fill="#FFFFFF" d="M66.759,81.575c0-5.273,0.806-10.357,2.3-15.139c-4.15-7.336-14.738-21.774-33.801-21.775
				c-3.442,0-7.159,0.471-11.166,1.539c-33.75,9-15.25,60.165,9.75,72.582c16.644,8.268,29.396,10.854,36.065,11.663
				c0.229-1.558,0.547-2.893,0.957-3.945c3.066-7.886,8.808-11.309,11.841-12.625C73.689,105.102,66.759,93.848,66.759,81.575z"/>
			<path fill="#FFFFFF" d="M211.482,46.2c-4.004-1.068-7.724-1.539-11.165-1.539c-19.754-0.002-30.402,15.495-34.224,22.536
				c1.347,4.56,2.081,9.382,2.081,14.378c0,12.132-6.774,23.265-15.639,31.991c2.723,1.039,9.248,4.334,12.593,12.934
				c0.405,1.041,0.719,2.36,0.947,3.895c6.776-0.864,19.349-3.513,35.656-11.612C226.732,106.365,245.232,55.2,211.482,46.2z"/>
		</g>
	</g>
	<path fill="#FFFFFF" d="M132.59,37.393c-0.094-3.06,0.386-7.471,3.236-11.12c2.7-3.455,7.064-5.621,13.012-6.474
		c1.19,3.258,4.309,5.588,7.979,5.588c4.697,0,8.504-3.808,8.504-8.504s-3.807-8.504-8.504-8.504c-3.976,0-7.304,2.731-8.235,6.417
		c-7.496,0.992-13.103,3.8-16.696,8.398c-3.28,4.199-4.193,9.031-4.295,12.79c-3.262-0.725-6.647-1.118-10.124-1.118
		c-4.072,0-8.022,0.526-11.79,1.51c-0.511-8.741-2.57-23.976-10.662-26.323c-5.032-1.46-10.626,2.064-17.338,11.021
		c-0.82-0.264-1.692-0.408-2.599-0.408c-4.696,0-8.504,3.809-8.504,8.505s3.808,8.504,8.504,8.504s8.504-3.808,8.504-8.504
		c0-1.973-0.678-3.783-1.805-5.227c6.884-9.136,10.486-9.485,11.843-9.09c4.399,1.275,6.66,13.254,7.128,23.117
		c-17.519,6.74-29.99,23.738-29.99,43.603c0,25.493,33.913,46.708,46.708,46.708s46.708-21.215,46.708-46.708
		C164.175,61.112,150.943,43.694,132.59,37.393z M112.044,90.875l-5.141,5.141l-9.301-9.301l-9.301,9.301l-5.141-5.141l9.301-9.301
		l-9.301-9.301l5.141-5.141l9.301,9.301l9.301-9.301l5.141,5.141l-9.301,9.301L112.044,90.875z M151.415,90.875l-5.141,5.141
		l-9.301-9.301l-9.302,9.301l-5.141-5.141l9.301-9.301l-9.301-9.301l5.141-5.141l9.302,9.301l9.301-9.301l5.141,5.141l-9.301,9.301
		L151.415,90.875z"/>
	<g>
		<path fill="#FFFFFF" d="M75.079,126.809"/>
	</g>
	<path fill="#FFFFFF" d="M150.742,115.272c-2.681,2.47-5.513,4.724-8.383,6.724c-2.873,2.116-6.401,4.339-10.389,6.102
		c-5.596,2.688-10.754,4.186-14.503,4.186c-3.256,0-7.577-1.13-12.324-3.188c-3.232-1.248-6.158-2.87-8.703-4.572
		c-4.015-2.465-8.063-5.442-11.826-8.854c-2.202,1.427-7.321,5.334-10.022,12.28c-3.5,9,0.75,51.25,18,63.5
		c11.462,8.14,17.679,10.482,21.344,11.14c1.507,3.996,3.291,11.433-2.755,14.439c0,0,13.571-2.485,13.936-15.28
		c3.891-1.304,9.614-4.142,18.284-10.299c17.25-12.25,21.5-54.5,18-63.5C158.389,120.206,152.367,116.232,150.742,115.272z
		 M137.611,183.296c-8.539,6.064-15.309,9.542-18.572,9.542c-0.172,0-0.332-0.003-0.479-0.006c-0.24-0.004-0.464-0.008-0.675-0.008
		c-0.212,0-0.437,0.004-0.677,0.008c-0.145,0.003-0.3,0.006-0.468,0.006c-3.126,0-9.817-3.478-18.356-9.542
		c-0.756-0.537-1.502-1.223-2.236-2.016c6.826,1.833,14.272,2.826,21.898,2.826c7.669,0.001,15.055-0.981,21.807-2.832
		C139.117,182.071,138.369,182.758,137.611,183.296z M150.255,157.082c-0.398,1.832-0.841,3.595-1.315,5.296
		c-7.403,5.646-18.554,8.867-30.895,8.867c-12.164,0-23.506-3.145-30.881-8.477c-0.517-1.82-0.997-3.713-1.426-5.687
		c-0.058-0.267-0.106-0.524-0.162-0.788c9.615,4.682,20.91,7.031,32.211,7.031c11.484,0,22.961-2.427,32.677-7.261
		C150.394,156.404,150.331,156.738,150.255,157.082z M151.935,136.473c-16.275,15.496-52.019,15.496-68.295,0
		c-0.053-0.051-0.106-0.08-0.16-0.119c0.045-2.411,0.234-4.105,0.456-4.839c0.411-1.044,0.921-1.979,1.471-2.808
		c6.9,5.747,18.111,12.742,31.811,12.742c13.944,0,25.928-7.306,33.175-13.027c0.625,0.896,1.206,1.927,1.665,3.093
		c0.216,0.713,0.401,2.334,0.453,4.64C152.318,136.19,152.125,136.292,151.935,136.473z"/>
</g>
</svg>
