<?xml version="1.0" encoding="utf-8"?>
<!-- Generator: Adobe Illustrator 18.0.0, SVG Export Plug-In . SVG Version: 6.00 Build 0)  -->
<!DOCTYPE svg PUBLIC "-//W3C//DTD SVG 1.1//EN" "http://www.w3.org/Graphics/SVG/1.1/DTD/svg11.dtd">
<svg version="1.1" id="Ebene_1" xmlns="http://www.w3.org/2000/svg" xmlns:xlink="http://www.w3.org/1999/xlink" x="0px" y="0px"
	 viewBox="0 0 397.8 512.4" enable-background="new 0 0 397.8 512.4" xml:space="preserve">
<line fill="none" stroke="#585857" stroke-width="2" stroke-miterlimit="10" x1="197.2" y1="103.1" x2="206.5" y2="367.6"/>
<polyline fill="none" stroke="#585857" stroke-width="2" stroke-miterlimit="10" points="100.1,212.9 185.6,392.9 230.6,392.9 
	299.5,212.9 "/>
<polyline fill="none" stroke="#585857" stroke-width="2" stroke-miterlimit="10" points="6.8,207 185.6,392.9 230.6,392.9 
	393,205.7 "/>
<path fill="#28190F" d="M230.5,409.6c-1-1.7-1.1-4.1-0.2-5.5c0.9-1.4,2.3-1.9,3.9-1c2.4,1.3,4.8,2.7,6.9,4.4
	c4.7,3.8,9.3,7.8,14.6,10.1c2.4,1,4.8,1.8,7.3,2.6c1.5,0.5,2.5,1.4,2.8,3c0.2,1.6-1,1.7-2,2c-4.8,1.4-9.8,0-14.7-2.3
	c-6.1-2.8-12-6.4-17.2-11.6c-0.3-0.3-0.6-0.7-0.9-1C230.8,410.1,230.7,409.8,230.5,409.6z"/>
<path fill="#28190F" d="M276.9,444.6c-2.3,0.3-2.6-0.1-4,1.7c-4.1-7.1-8.1-13.8-12.2-21c2.3,0.1,4.6,0,4.5-3.5
	C271.6,427.5,272.3,437.3,276.9,444.6z"/>
<path fill="#28190F" d="M280.6,466.4c-0.4,0.3-1.5,1.6-2.3,1.5c-0.9-0.1-1.9-1.4-2.1-2.4c-1.3-6.1-2.4-12.2-3.4-18.4
	c-0.2-1,0.6-3.3,1-3.3c1.5-1.4,3.1-0.3,4,0.5C279.3,449.8,281.5,460.5,280.6,466.4z"/>
<path fill="#28190F" d="M261.8,382.1c-0.5,0.3-1.6-0.1-2.1-0.4c-4.2-2.7-2.6-3.2-7.7-3.7c-0.5,0-1.1-1.1-1.3-1.8
	c-0.1-0.4,0.7-1.1,1.3-1.4c0.7-0.3,1.5-0.3,2.3-0.3c4.8,0.3,3.2,0.1,6.9,3.1c0.6,0.5,2.1,1.2,2.1,2.6
	C263,381.8,262.3,381.8,261.8,382.1z"/>
<path fill="#28190F" d="M173.7,358.4c-2.6-1.9-5.4-1.3-6.6,1.7c-0.6,1.6-0.9,3.7-0.4,5.3c0.7,2.4,2.1,4.6,3.3,6.8
	c0.2,0.3,1.1,0.7,1.4,0.5c2.5-1.3,4.9-1,7.6,0.4c-1.4-2.7-2.7-5-3.8-7.4c-0.8-1.7-0.4-3.8-1.8-5.3
	C173.1,360.2,173.6,359.3,173.7,358.4z"/>
<path fill="#28190F" d="M172,358.5c0.4-1.4,1.9-1.8,2.6-2.2c4.2-2.2,8.7-3.2,13.4-2.5c0.8,0.1,1.6,0.3,2.2,0.7
	c0.5,0.3,1.1,1.2,1,1.6c-0.2,0.6-1.1,1.6-1.6,1.5c-5.1-0.5-9.7,1.1-14.4,3c-0.6,0.2-1.7,0.4-2.1,0C172.7,360.1,172,360,172,358.5z"
	/>
<path fill="#28190F" d="M189.4,381.8c-4.4-0.6-8.8-1.1-13.2-1.9c-1.4-0.2-2.7-1-3.9-1.7c-1.7-1-2.2-2.7-1.6-4.5
	c0.7-1.9,2.5-3.4,4.3-3.2c6.1,0.7,12.2,1.5,18.2,2.5c1.2,0.2,2.6,1.3,3.4,2.4c1.6,2,0.6,4.2-1.7,5.3
	C192.8,382.1,189.4,381.7,189.4,381.8z"/>
<path d="M253.5,341.5c-2.3-0.2-4.5-0.5-6.7-0.7c-2.3-0.2-3.5-1.6-4.4-3.5c-0.6-1.2-0.5-2.5-0.4-3.8c0.7-6.3,1.3-12.6,2-18.8
	c0.9-8.5,1.8-17.1,2.8-25.6c0.2-1.9,0.6-3.9,0.9-5.8c0.3-1.7,0.7-3.5,1.1-5.2c0.4-1.6,0.8-3.3,1.3-4.9c0.7-2.3,1.4-4.7,2.3-7
	c0.8-2.2,1.7-4.3,2.8-6.3c1.3-2.3,2.7-4.6,4.2-6.7c1.7-2.3,3.8-4.1,6.5-5c1.4-0.5,2.9-0.8,4.4-0.4c0.9,0.2,1.6,1,1.6,1.9
	c0,0.6,0,1.3-0.1,1.9c-0.9,8.9-1.8,17.7-2.8,26.6c-2,18.8-3.9,37.6-5.9,56.5c-0.3,2.7-0.6,5.4-0.8,8c-0.2,3.5-0.3,7.1-0.5,10.6
	c-0.2,4-0.3,8-0.5,12c-0.2,4.4-0.4,8.7-0.6,13.1c-0.2,4-0.3,7.9-0.5,11.9c-0.1,3.4-0.3,6.9-0.4,10.3c-0.2,4.1-0.4,8.2-0.6,12.3
	c-0.2,4.1-0.4,8.2-0.6,12.3c-0.1,1.2-0.2,2.5-0.4,3.7c-0.4,2.3-1.8,3-3.9,2.9c-3.7-0.2-7.5-0.6-11.2-1.2c-2.5-0.4-3.4-1.6-3.4-4.1
	c0.1-1.8,0.4-3.5,0.6-5.2c0.8-5.1,1.6-10.1,2.4-15.2c0.6-3.4,1.1-6.9,1.7-10.3c0.6-3.8,1.3-7.5,1.9-11.3c0.7-4.5,1.5-8.9,2.2-13.4
	c0.6-3.9,1.3-7.7,1.9-11.6c0.6-3.4,1.1-6.8,1.7-10.2c0.4-2.3,0.8-4.6,1.2-6.9C253.4,342,253.4,341.8,253.5,341.5z"/>
<path fill="#28190F" d="M183.5,424.7c-0.3-2-1.7-3.8-3.4-4.4c-1.6-0.5-3,0-3.7,1.7c-1,2.5-2,5.1-2.6,7.8c-1.2,5.9-2.3,11.9-5,17
	c-1.2,2.3-2.6,4.5-4,6.6c-0.9,1.3-1.1,2.7-0.2,4.1c0.9,1.4,1.9,0.7,2.9,0.3c4.6-2,7.6-6.1,10-11c3-6.1,5.3-12.5,6-19.8
	c0-0.5,0.1-0.9,0.1-1.4C183.6,425.3,183.5,425,183.5,424.7z"/>
<path fill="#28190F" d="M169.6,481.1c2-1.2,2-1.7,4.2-1.2c-1.3-8.1-2.5-15.8-3.7-24c-1.8,1.5-3.5,2.9-5.7,0.2
	C162.9,464.5,168.6,472.5,169.6,481.1z"/>
<path fill="#28190F" d="M168.7,481.5c0.1-1.2,0.7-3,2.8-2.9c0.4-0.2,2.4,1.1,2.9,2c3.1,5.4,6.2,10.9,9,16.4c0.5,0.9,0.5,2.5-0.1,3.2
	c-0.5,0.6-2.2,0.3-2.7,0.3C176.1,496.3,171,486.6,168.7,481.5z"/>
<path fill="#28190F" d="M183.7,409.6c1-1.7,1.1-4.1,0.2-5.5c-0.9-1.4-2.3-1.9-3.9-1c-2.4,1.3-4.8,2.7-6.9,4.4
	c-4.7,3.8-9.3,7.8-14.6,10.1c-2.4,1-4.8,1.8-7.3,2.6c-1.5,0.5-2.5,1.4-2.8,3c-0.2,1.6,1,1.7,2,2c4.8,1.4,9.8,0,14.7-2.3
	c6.1-2.8,12-6.4,17.2-11.6c0.3-0.3,0.6-0.7,0.9-1C183.4,410.1,183.6,409.8,183.7,409.6z"/>
<path fill="#28190F" d="M137.3,444.6c2.3,0.3,2.6-0.1,4,1.7c4.1-7.1,8.1-13.8,12.2-21c-2.3,0.1-4.6,0-4.5-3.5
	C142.6,427.5,142,437.3,137.3,444.6z"/>
<path fill="#28190F" d="M136.4,444.3c0.9-0.8,2.4-1.9,4-0.5c0.4,0.1,1.2,2.3,1,3.3c-1,6.2-2.1,12.3-3.4,18.4c-0.2,1-1.2,2.3-2.1,2.4
	c-0.8,0.1-1.9-1.2-2.3-1.5C132.7,460.5,134.9,449.8,136.4,444.3z"/>
<path fill="#28190F" d="M150.9,380.3c0.1-1.4,1.5-2.1,2.1-2.6c3.7-3,2.1-2.8,6.9-3.1c0.8,0,1.6,0,2.3,0.3c0.6,0.2,1.3,1,1.3,1.4
	c-0.1,0.7-0.8,1.8-1.3,1.8c-5.1,0.5-3.5,1-7.7,3.7c-0.5,0.3-1.5,0.7-2.1,0.4C151.9,381.8,151.2,381.8,150.9,380.3z"/>
<path d="M154.9,319.3c-0.4,0-0.7,0.1-1,0.1c-2.3,0.1-4.7,0.4-7,0.4c-1.7,0-3-1-4.1-2.2c-1.6-1.9-2.3-4.1-2.4-6.5
	c-0.4-8.5-0.9-17-1.3-25.5c-0.3-6.6-0.7-13.2-1-19.8c-0.2-4.2-0.4-8.4-0.6-12.6c0-1,0-1.9,0.6-2.8c0.4-0.5,0.9-0.6,1.4-0.2
	c0.7,0.5,0.8,1.3,0.9,2c0.2,1.1,0.3,2.2,0.4,3.3c1.1,10,2.2,20,3.3,29.9c0.4,3.7,0.8,7.4,1.3,11.1c0.1,0.9,0.6,1.6,1.3,2.2
	c0.9,0.6,1.9,0.2,2.3-0.6c0.3-0.7,0.6-1.6,0.5-2.4c-0.2-4.9-0.6-9.7-0.8-14.5c-0.3-6.2-0.6-12.4-0.9-18.7c-0.2-3.7-0.3-7.4-0.4-11.1
	c0-0.7,0.1-1.4,0.6-1.9c0.4-0.5,0.8-0.5,1.3-0.1c0.6,0.5,0.9,1.1,1,1.9c0.4,3.6,0.8,7.3,1.2,10.9c0.9,8,1.8,16.1,2.7,24.1
	c0.1,1.3,0.2,2.7,0.4,4c0.2,1.8,0.5,3.5,0.7,5.3c0.1,0.9,0.4,1.8,1.3,2.3c0.9,0.5,2,0.3,2.4-0.6c0.3-0.7,0.5-1.4,0.5-2.1
	c-0.3-6.7-0.8-13.4-1.1-20c-0.4-8-0.8-16-1.2-23.9c0-0.7,0.3-1.6,0.7-2.3c0.5-0.8,1.3-0.7,1.7,0.2c0.3,0.7,0.6,1.5,0.7,2.2
	c0.6,5.3,1.1,10.7,1.7,16c0.9,8.5,1.9,17.1,2.8,25.6c0.1,1,0.4,2,0.6,3c0.2,0.7,0.6,1.2,1.3,1.4c1.3,0.4,1.9-0.2,2.3-1.6
	c0.3-1,0.2-2.2,0.2-3.3c-0.3-6-0.7-12-1-17.9c-0.1-1.1-0.1-2.1-0.2-3.2c-0.3-6.9-0.7-13.9-1-20.8c0-0.7,0.1-1.4,0.4-2
	c0.2-0.4,0.7-0.9,1-0.9c0.4,0,0.9,0.4,1.1,0.8c0.3,0.5,0.4,1.1,0.5,1.7c0.6,4.6,1.1,9.3,1.6,13.9c0.3,2.6,0.5,5.3,0.8,7.9
	c0.9,8.6,1.9,17.2,2.8,25.8c0.4,3.8,0.9,7.6,1.3,11.4c0.2,1.6,0,3.1-0.6,4.5c-0.6,1.6-1.6,3.1-3.3,3.8c-0.9,0.4-2,0.7-3,0.8
	c-2,0.3-4,0.3-6.1,0.5c0,0.4,0,0.7,0.1,1.1c0.3,2.9,0.7,5.9,1.1,8.8c0.6,5,1.3,10,2,14.9c0.5,3.7,1,7.4,1.5,11.1
	c0.7,4.9,1.3,9.9,2,14.8c0.7,5.2,1.4,10.3,2,15.5c0.6,4.7,1.2,9.5,1.9,14.2c0.5,3.7,1,7.4,1.5,11.1c0.4,2.9,0.8,5.7,1.1,8.6
	c0.1,1.2-0.1,2.4-1,3.2c-0.6,0.5-1.3,1-2.1,1.1c-3.9,0.4-7.7,0.8-11.6,1c-2,0.1-3.2-0.6-3.9-2.9c-0.7-2.3-0.2-4.6-0.4-6.9
	c-0.2-2.1-0.2-4.2-0.3-6.3c-0.1-4.3-0.2-8.6-0.4-12.9c-0.2-5.8-0.4-11.5-0.5-17.3c-0.1-4-0.2-8-0.3-12c-0.1-4.7-0.3-9.5-0.4-14.2
	c-0.2-5.2-0.3-10.4-0.5-15.6c-0.1-4.6-0.3-9.1-0.4-13.7C154.9,321.3,154.9,320.4,154.9,319.3z"/>
<path fill="#28190F" d="M152.5,379.9c-2.9-1.4-5.5-0.3-6.1,2.9c-0.3,1.7-0.2,3.8,0.6,5.3c1.1,2.2,2.9,4.1,4.5,6.1
	c0.2,0.3,1.2,0.5,1.5,0.3c2.2-1.7,4.6-1.9,7.6-1c-1.9-2.4-3.5-4.4-5.1-6.5c-1.1-1.5-1.1-3.6-2.8-4.8
	C152.3,381.9,152.5,380.8,152.5,379.9z"/>
<path fill="#28190F" d="M187.8,399.3c-4.4,0.2-24.4,1.2-28.8,1.3c-1.4,0-2.8-0.4-4.1-0.9c-1.9-0.7-2.6-2.2-2.4-4.1
	c0.3-2,1.9-3.8,3.6-3.9c6.1-0.4,27.7-1.5,33.8-1.6c1.3,0,2.8,0.8,3.8,1.7c1.9,1.7,1.3,4-0.7,5.5C191.3,399,187.8,399.2,187.8,399.3z
	"/>
<path fill="#28190F" d="M240.5,358.4c2.6-1.9,5.4-1.3,6.6,1.7c0.6,1.6,0.9,3.7,0.4,5.3c-0.7,2.4-2.1,4.6-3.3,6.8
	c-0.2,0.3-1.1,0.7-1.4,0.5c-2.5-1.3-4.9-1-7.6,0.4c1.4-2.7,2.7-5,3.8-7.4c0.8-1.7,0.4-3.8,1.8-5.3
	C241.1,360.2,240.7,359.3,240.5,358.4z"/>
<path fill="#28190F" d="M241,360.6c-0.4,0.4-1.5,0.2-2.1,0c-4.6-1.8-9.2-3.4-14.4-3c-0.5,0-1.3-0.9-1.6-1.5c-0.1-0.4,0.5-1.3,1-1.6
	c0.6-0.4,1.4-0.6,2.2-0.7c4.8-0.6,9.2,0.3,13.4,2.5c0.7,0.4,2.2,0.8,2.6,2.2C242.2,360,241.5,360.1,241,360.6z"/>
<path fill="#28190F" d="M224.8,381.8c4.4-0.6,8.8-1.1,13.2-1.9c1.4-0.2,2.7-1,3.9-1.7c1.7-1,2.2-2.7,1.6-4.5
	c-0.7-1.9-2.5-3.4-4.3-3.2c-6.1,0.7-12.2,1.5-18.2,2.5c-1.2,0.2-2.6,1.3-3.4,2.4c-1.6,2-0.6,4.2,1.7,5.3
	C221.4,382.1,224.8,381.7,224.8,381.8z"/>
<path fill="#28190F" d="M230.7,424.7c0.3-2,1.7-3.8,3.4-4.4c1.6-0.5,3,0,3.7,1.7c1,2.5,2,5.1,2.6,7.8c1.2,5.9,2.3,11.9,5,17
	c1.2,2.3,2.6,4.5,4,6.6c0.9,1.3,1.1,2.7,0.2,4.1c-0.9,1.4-1.9,0.7-2.9,0.3c-4.6-2-7.6-6.1-10-11c-3-6.1-5.3-12.5-6-19.8
	c0-0.5-0.1-0.9-0.1-1.4C230.7,425.3,230.7,425,230.7,424.7z"/>
<path fill="#28190F" d="M244.6,481.1c-2-1.2-2-1.7-4.2-1.2c1.3-8.1,2.5-15.8,3.7-24c1.8,1.5,3.5,2.9,5.7,0.2
	C251.3,464.5,245.6,472.5,244.6,481.1z"/>
<path fill="#28190F" d="M233.7,500.4c-0.5,0-2.1,0.3-2.7-0.3c-0.6-0.6-0.6-2.2-0.1-3.2c2.9-5.5,5.9-11,9-16.4c0.5-0.9,2.5-2.2,2.9-2
	c2.1-0.1,2.6,1.7,2.8,2.9C243.2,486.6,238.1,496.3,233.7,500.4z"/>
<path fill="#28190F" d="M261.7,379.9c2.9-1.4,5.5-0.3,6.1,2.9c0.3,1.7,0.2,3.8-0.6,5.3c-1.1,2.2-2.9,4.1-4.5,6.1
	c-0.2,0.3-1.2,0.5-1.5,0.3c-2.2-1.7-4.6-1.9-7.6-1c1.9-2.4,3.5-4.4,5.1-6.5c1.1-1.5,1.1-3.6,2.8-4.8
	C261.9,381.9,261.7,380.8,261.7,379.9z"/>
<path fill="#28190F" d="M226.4,399.3c4.4,0.2,24.4,1.2,28.8,1.3c1.4,0,2.8-0.4,4.1-0.9c1.9-0.7,2.6-2.2,2.4-4.1
	c-0.3-2-1.9-3.8-3.6-3.9c-6.1-0.4-27.7-1.5-33.8-1.6c-1.3,0-2.8,0.8-3.8,1.7c-1.9,1.7-1.3,4,0.7,5.5
	C223,399,226.4,399.2,226.4,399.3z"/>
<path fill="#422A19" d="M208,458c0,0-22.6,0.2-27.2-19.6s3.2-50.9,16.7-63.1c1.2,0.2,10.4-1.5,10.4-1.5l10.4,1.5
	c13.6,12.1,21.3,43.2,16.7,63.1C235.1,438.4,229.5,458.4,208,458z"/>
<path fill="#422A19" d="M211.6,349.7c0-2-1.6-3.6-3.6-3.6c-2,0-3.6,1.6-3.6,3.6c0,0.3,0,0.5,0.1,0.8h-0.3v23.9h6.5V352
	C211.3,351.4,211.6,350.6,211.6,349.7z"/>
<path fill="#28190F" d="M210.5,345.5c0,0,5.2-0.3,6.8,21.5c-0.3,1.3-0.3,1.3-0.3,1.3l1.6-0.5l-2.6,8.1l-7.8-0.5L210.5,345.5z"/>
<path fill="#28190F" d="M205.5,345.5c0,0-5.2-0.3-6.8,21.5c0.3,1.3,0.3,1.3,0.3,1.3l-1.6-0.5l2.6,8.1l7.8-0.5L205.5,345.5z"/>
<path fill="#421A13" d="M208,421.4c0,0-12.7,0.1-15.3-11.1c-2.6-11.2,1.8-28.7,9.4-35.5c0.7,0.1,5.9-0.8,5.9-0.8l5.9,0.8
	c7.7,6.8,12,24.3,9.4,35.5C223.3,410.3,220.1,421.6,208,421.4z"/>
<ellipse transform="matrix(0.9711 -0.2385 0.2385 0.9711 -82.1434 59.3228)" fill="#421A13" cx="204" cy="369" rx="1.2" ry="4.4"/>
<ellipse transform="matrix(0.975 0.2221 -0.2221 0.975 87.2657 -37.8258)" fill="#421A13" cx="211.8" cy="369" rx="1.2" ry="4.4"/>
<path fill="#585857" d="M181.5,407.2c-0.3,1.3-0.5,2.5-0.8,3.8c3.2,0.6,16.8,3.1,31.7,3.1c7.7,0,15.7-0.7,22.7-2.6
	c-0.2-1.3-0.5-2.6-0.7-3.8C214.9,413.3,185.6,408,181.5,407.2z"/>
<path fill="#BE1823" d="M100.1,217.9c-7.5-19.5-26.9-33.3-49.6-33.3c-18.9,0-35.5,9.6-44.8,24c-0.4-4.6-0.5-9.3-0.5-14.1
	C5.1,90.6,92.3,6.4,199.8,6.4C199.8,6.4,94.1,70.2,100.1,217.9z"/>
<path fill="#E5352B" d="M199.8,6.4v211.5c-7.5-19.5-27.3-33.3-50-33.3s-42.1,13.9-49.6,33.3C94.1,70.2,199.8,6.4,199.8,6.4"/>
<path fill="#E5352B" d="M299.4,217.9c7.5-19.5,26.9-33.3,49.6-33.3c18.9,0,35.5,9.6,44.8,24c0.4-4.6,0.5-9.3,0.5-14.1
	c0-103.9-87.1-188.1-194.7-188.1C199.8,6.4,305.5,70.2,299.4,217.9z"/>
<path fill="#BE1823" d="M199.8,6.4l0,211.5c7.5-19.5,27.3-33.3,50-33.3s42.1,13.9,49.6,33.3C305.5,70.2,199.8,6.4,199.8,6.4"/>
</svg>
