<?xml version="1.0" encoding="utf-8"?>
<!-- Generator: Adobe Illustrator 18.0.0, SVG Export Plug-In . SVG Version: 6.00 Build 0)  -->
<!DOCTYPE svg PUBLIC "-//W3C//DTD SVG 1.1//EN" "http://www.w3.org/Graphics/SVG/1.1/DTD/svg11.dtd">
<svg version="1.1" id="Ebene_1" xmlns="http://www.w3.org/2000/svg" xmlns:xlink="http://www.w3.org/1999/xlink" x="0px" y="0px"
	 viewBox="0 0 220.8 327.7" enable-background="new 0 0 220.8 327.7" xml:space="preserve">
<path fill="#80C11F" d="M124.8,50.9c0,0,4-44.4-33.9-43.6C73.6,9.5,52.1,18.1,60.2,50.9C50.1,47.6,32.7,39.5,21,62.6
	c-6.1,14.1,8.5,35.1,16.2,36c-11.7,3.2-48.5,20.2-17.6,49.7c5.5,6.9,25.3,9.7,25.3,9.7s-9.3,13.7,0.4,24.2s23.8,44.4,61,24.2
	s33.5-11.3,33.5-11.3s19.4-19,14.5-41.6c14.9,5.3,59.8,13.3,55.3-24.2c-2-23.4-29.1-34.3-29.1-34.3s52.5-11.7,10.9-49.3
	C191.5,45.6,164,25.8,124.8,50.9z"/>
<polygon fill="#432918" points="106.6,120.7 109.5,120.7 113.1,149.4 133.7,134.1 138.9,133.3 114.3,158.3 116.7,195.1 160.8,190.6 
	160.8,202.4 117.1,202.4 128,321.5 97.3,321.5 101,228.2 69,202.4 72.3,202.4 102.2,218.9 105,169.6 79.6,149.4 84.8,145.4 
	105.4,159.9 "/>
<polygon fill="#CA9E67" points="153.9,281.5 153.9,202.4 150.3,202.4 150.3,281.5 130.9,281.5 130.9,202.4 127.2,202.4 127.2,281.5 
	120.8,281.5 120.8,288.8 160.8,288.8 160.8,281.5 "/>
<path fill="#3AAA35" d="M96.9,189c2.6-2.3,4.1-5.3,4.1-8.5c0-7.4-8-13.3-17.8-13.3c-5.9,0-11.1,2.1-14.3,5.4
	c-1-6.3-6.2-11.1-12.5-11.1c-7,0-12.7,6-12.7,13.3c0,2.5,0.7,4.9,1.9,6.9c-7.2,0.7-12.8,6.4-12.8,13.3c0,2.8,0.9,5.4,2.5,7.6
	c-1.6,1.9-2.5,4.2-2.5,6.7c0,6.5,6.4,11.9,14.3,11.9c0.1,0,0.2,0,0.2,0c-0.7,4.6,0.6,8.5,3.5,9.8c3.6,1.7,8.6-1.3,11.8-6.7
	c2.2,4.7,7.3,7.9,13.1,7.9c7.9,0,14.3-6,14.3-13.3c0-1.5-0.3-2.9-0.8-4.3c0.8,0.1,1.7,0.2,2.6,0.2c7.9,0,14.3-6,14.3-13.3
	C106.2,195.8,102.3,190.9,96.9,189z"/>
</svg>
