<?xml version="1.0" encoding="utf-8"?>
<!-- Generator: Adobe Illustrator 18.0.0, SVG Export Plug-In . SVG Version: 6.00 Build 0)  -->
<!DOCTYPE svg PUBLIC "-//W3C//DTD SVG 1.1//EN" "http://www.w3.org/Graphics/SVG/1.1/DTD/svg11.dtd">
<svg version="1.1" xmlns="http://www.w3.org/2000/svg" xmlns:xlink="http://www.w3.org/1999/xlink" x="0px" y="0px"
	 viewBox="1.3 202.1 1000 730.6" enable-background="new 1.3 202.1 1000 730.6" xml:space="preserve">
<g id="Waben">
	<rect x="-4.9" y="195.1" fill="#F59B19" width="1016.6" height="743.4"/>
	<polygon fill="#F39205" points="29.5,853.9 7.3,815.7 29.5,777.3 73.7,777.3 95.7,815.7 73.7,853.9 	"/>
	<polygon fill="#F39205" points="29.5,689.3 7.3,650.7 29.5,612.5 73.7,612.5 95.7,650.7 73.7,689.3 	"/>
	<polygon fill="#F39205" points="28.5,201.9 7.3,238.9 29.5,277.1 73.7,277.1 95.7,238.9 74.5,201.9 	"/>
	<polygon fill="#F39205" points="29.5,359.5 7.3,321.1 29.5,282.9 73.7,282.9 95.7,321.1 73.7,359.5 	"/>
	<polygon fill="#F39205" points="29.5,442.1 7.3,403.5 29.5,365.3 73.7,365.3 95.7,403.5 73.7,442.1 	"/>
	<polygon fill="#F39205" points="29.5,606.7 7.3,568.5 29.5,530.1 73.7,530.1 95.7,568.5 73.7,606.7 	"/>
	<polygon fill="#F39205" points="29.5,771.5 7.3,733.3 29.5,694.9 73.7,694.9 95.7,733.3 73.7,771.5 	"/>
	<polygon fill="#F39205" points="29.5,859.7 7.3,897.9 27.3,932.7 75.7,932.7 95.7,897.9 73.7,859.7 	"/>
	<polygon fill="#F39205" points="29.5,524.3 7.3,486.1 29.5,447.7 73.7,447.7 95.7,486.1 73.7,524.3 	"/>
	<polygon fill="#F39205" points="100.9,894.5 78.7,856.3 100.9,817.9 145.1,817.9 167.3,856.3 145.1,894.5 	"/>
	<polygon fill="#F39205" points="100.9,729.9 78.7,691.5 100.9,653.3 145.1,653.3 167.3,691.5 145.1,729.9 	"/>
	<polygon fill="#F39205" points="100.9,317.7 78.7,279.5 100.9,241.1 145.1,241.1 167.3,279.5 145.1,317.7 	"/>
	<polygon fill="#F39205" points="100.9,400.3 78.7,361.9 100.9,323.5 145.1,323.5 167.3,361.9 145.1,400.3 	"/>
	<polygon fill="#F39205" points="100.9,482.7 78.7,444.3 100.9,405.9 145.1,405.9 167.3,444.3 145.1,482.7 	"/>
	<polygon fill="#F39205" points="100.9,647.5 78.7,609.1 100.9,570.9 145.1,570.9 167.3,609.1 145.1,647.5 	"/>
	<polygon fill="#F39205" points="100.9,812.3 78.7,773.9 100.9,735.5 145.1,735.5 167.3,773.9 145.1,812.3 	"/>
	<polygon fill="#F39205" points="100.9,900.5 82.1,932.7 163.7,932.7 145.1,900.5 	"/>
	<polygon fill="#F39205" points="100.9,565.1 78.7,526.7 100.9,488.3 145.1,488.3 167.3,526.7 145.1,565.1 	"/>
	<polygon fill="#F39205" points="81.5,201.9 100.9,235.5 145.1,235.5 164.5,201.9 	"/>
	<polygon fill="#F39205" points="172.3,853.9 150.1,815.7 172.3,777.3 216.5,777.3 238.7,815.7 216.5,853.9 	"/>
	<polygon fill="#F39205" points="172.3,689.3 150.1,650.7 172.3,612.5 216.5,612.5 238.7,650.7 216.5,689.3 	"/>
	<polygon fill="#F39205" points="171.5,201.9 150.1,238.9 172.3,277.1 216.5,277.1 238.7,238.9 217.3,201.9 	"/>
	<polygon fill="#F39205" points="172.3,359.5 150.1,321.1 172.3,282.9 216.5,282.9 238.7,321.1 216.5,359.5 	"/>
	<polygon fill="#F39205" points="172.3,442.1 150.1,403.5 172.3,365.3 216.5,365.3 238.7,403.5 216.5,442.1 	"/>
	<polygon fill="#F39205" points="172.3,606.7 150.1,568.5 172.3,530.1 216.5,530.1 238.7,568.5 216.5,606.7 	"/>
	<polygon fill="#F39205" points="172.3,771.5 150.1,733.3 172.3,694.9 216.5,694.9 238.7,733.3 216.5,771.5 	"/>
	<polygon fill="#F39205" points="172.3,859.7 150.1,897.9 170.1,932.7 218.5,932.7 238.7,897.9 216.5,859.7 	"/>
	<polygon fill="#F39205" points="172.3,524.3 150.1,486.1 172.3,447.7 216.5,447.7 238.7,486.1 216.5,524.3 	"/>
	<polygon fill="#F39205" points="243.7,894.5 221.5,856.3 243.7,817.9 287.9,817.9 310.1,856.3 287.9,894.5 	"/>
	<polygon fill="#F39205" points="243.7,729.9 221.5,691.5 243.7,653.3 287.9,653.3 310.1,691.5 287.9,729.9 	"/>
	<polygon fill="#F39205" points="243.7,317.7 221.5,279.5 243.7,241.1 287.9,241.1 310.1,279.5 287.9,317.7 	"/>
	<polygon fill="#F39205" points="243.7,400.3 221.5,361.9 243.7,323.5 287.9,323.5 310.1,361.9 287.9,400.3 	"/>
	<polygon fill="#F39205" points="243.7,482.7 221.5,444.3 243.7,405.9 287.9,405.9 310.1,444.3 287.9,482.7 	"/>
	<polygon fill="#F39205" points="243.7,647.5 221.5,609.1 243.7,570.9 287.9,570.9 310.1,609.1 287.9,647.5 	"/>
	<polygon fill="#F39205" points="243.7,812.3 221.5,773.9 243.7,735.5 287.9,735.5 310.1,773.9 287.9,812.3 	"/>
	<polygon fill="#F39205" points="243.7,900.5 224.9,932.7 306.7,932.7 287.9,900.5 	"/>
	<polygon fill="#F39205" points="243.7,565.1 221.5,526.7 243.7,488.3 287.9,488.3 310.1,526.7 287.9,565.1 	"/>
	<polygon fill="#F39205" points="224.3,201.9 243.7,235.5 287.9,235.5 307.3,201.9 	"/>
	<polygon fill="#F39205" points="315.1,853.9 292.9,815.7 315.1,777.3 359.3,777.3 381.5,815.7 359.3,853.9 	"/>
	<polygon fill="#F39205" points="315.1,689.3 292.9,650.7 315.1,612.5 359.3,612.5 381.5,650.7 359.3,689.3 	"/>
	<polygon fill="#F39205" points="314.3,201.9 292.9,238.9 315.1,277.1 359.3,277.1 381.5,238.9 360.3,201.9 	"/>
	<polygon fill="#F39205" points="315.1,359.5 292.9,321.1 315.1,282.9 359.3,282.9 381.5,321.1 359.3,359.5 	"/>
	<polygon fill="#F39205" points="315.1,442.1 292.9,403.5 315.1,365.3 359.3,365.3 381.5,403.5 359.3,442.1 	"/>
	<polygon fill="#F39205" points="315.1,606.7 292.9,568.5 315.1,530.1 359.3,530.1 381.5,568.5 359.3,606.7 	"/>
	<polygon fill="#F39205" points="315.1,771.5 292.9,733.3 315.1,694.9 359.3,694.9 381.5,733.3 359.3,771.5 	"/>
	<polygon fill="#F39205" points="315.1,859.7 292.9,897.9 312.9,932.7 361.5,932.7 381.5,897.9 359.3,859.7 	"/>
	<polygon fill="#F39205" points="315.1,524.3 292.9,486.1 315.1,447.7 359.3,447.7 381.5,486.1 359.3,524.3 	"/>
	<polygon fill="#F39205" points="386.5,894.5 364.5,856.3 386.5,817.9 430.9,817.9 453.1,856.3 430.9,894.5 	"/>
	<polygon fill="#F39205" points="386.5,729.9 364.5,691.5 386.5,653.3 430.9,653.3 453.1,691.5 430.9,729.9 	"/>
	<polygon fill="#F39205" points="386.5,317.7 364.5,279.5 386.5,241.1 430.9,241.1 453.1,279.5 430.9,317.7 	"/>
	<polygon fill="#F39205" points="386.5,400.3 364.5,361.9 386.5,323.5 430.9,323.5 453.1,361.9 430.9,400.3 	"/>
	<polygon fill="#F39205" points="386.5,482.7 364.5,444.3 386.5,405.9 430.9,405.9 453.1,444.3 430.9,482.7 	"/>
	<polygon fill="#F39205" points="386.5,647.5 364.5,609.1 386.5,570.9 430.9,570.9 453.1,609.1 430.9,647.5 	"/>
	<polygon fill="#F39205" points="386.5,812.3 364.5,773.9 386.5,735.5 430.9,735.5 453.1,773.9 430.9,812.3 	"/>
	<polygon fill="#F39205" points="386.5,900.5 367.9,932.7 449.5,932.7 430.9,900.5 	"/>
	<polygon fill="#F39205" points="386.5,565.1 364.5,526.7 386.5,488.3 430.9,488.3 453.1,526.7 430.9,565.1 	"/>
	<polygon fill="#F39205" points="367.1,201.9 386.5,235.5 430.9,235.5 450.3,201.9 	"/>
	<polygon fill="#F39205" points="457.9,853.9 435.7,815.7 457.9,777.3 502.3,777.3 524.3,815.7 502.3,853.9 	"/>
	<polygon fill="#F39205" points="457.9,689.3 435.7,650.7 457.9,612.5 502.3,612.5 524.3,650.7 502.3,689.3 	"/>
	<polygon fill="#F39205" points="457.1,201.9 435.7,238.9 457.9,277.1 502.3,277.1 524.3,238.9 503.1,201.9 	"/>
	<polygon fill="#F39205" points="457.9,359.5 435.7,321.1 457.9,282.9 502.3,282.9 524.3,321.1 502.3,359.5 	"/>
	<polygon fill="#F39205" points="457.9,442.1 435.7,403.5 457.9,365.3 502.3,365.3 524.3,403.5 502.3,442.1 	"/>
	<polygon fill="#F39205" points="457.9,606.7 435.7,568.5 457.9,530.1 502.3,530.1 524.3,568.5 502.3,606.7 	"/>
	<polygon fill="#F39205" points="457.9,771.5 435.7,733.3 457.9,694.9 502.3,694.9 524.3,733.3 502.3,771.5 	"/>
	<polygon fill="#F39205" points="457.9,859.7 435.7,897.9 455.9,932.7 504.3,932.7 524.3,897.9 502.3,859.7 	"/>
	<polygon fill="#F39205" points="457.9,524.3 435.7,486.1 457.9,447.7 502.3,447.7 524.3,486.1 502.3,524.3 	"/>
	<polygon fill="#F39205" points="529.5,894.5 507.3,856.3 529.5,817.9 573.7,817.9 595.9,856.3 573.7,894.5 	"/>
	<polygon fill="#F39205" points="529.5,729.9 507.3,691.5 529.5,653.3 573.7,653.3 595.9,691.5 573.7,729.9 	"/>
	<polygon fill="#F39205" points="529.5,317.7 507.3,279.5 529.5,241.1 573.7,241.1 595.9,279.5 573.7,317.7 	"/>
	<polygon fill="#F39205" points="529.5,400.3 507.3,361.9 529.5,323.5 573.7,323.5 595.9,361.9 573.7,400.3 	"/>
	<polygon fill="#F39205" points="529.5,482.7 507.3,444.3 529.5,405.9 573.7,405.9 595.9,444.3 573.7,482.7 	"/>
	<polygon fill="#F39205" points="529.5,647.5 507.3,609.1 529.5,570.9 573.7,570.9 595.9,609.1 573.7,647.5 	"/>
	<polygon fill="#F39205" points="529.5,812.3 507.3,773.9 529.5,735.5 573.7,735.5 595.9,773.9 573.7,812.3 	"/>
	<polygon fill="#F39205" points="529.5,900.5 510.7,932.7 592.3,932.7 573.7,900.5 	"/>
	<polygon fill="#F39205" points="529.5,565.1 507.3,526.7 529.5,488.3 573.7,488.3 595.9,526.7 573.7,565.1 	"/>
	<polygon fill="#F39205" points="510.1,201.9 529.5,235.5 573.7,235.5 593.1,201.9 	"/>
	<polygon fill="#F39205" points="600.9,853.9 578.7,815.7 600.9,777.3 645.1,777.3 667.3,815.7 645.1,853.9 	"/>
	<polygon fill="#F39205" points="600.9,689.3 578.7,650.7 600.9,612.5 645.1,612.5 667.3,650.7 645.1,689.3 	"/>
	<polygon fill="#F39205" points="599.9,201.9 578.7,238.9 600.9,277.1 645.1,277.1 667.3,238.9 645.9,201.9 	"/>
	<polygon fill="#F39205" points="600.9,359.5 578.7,321.1 600.9,282.9 645.1,282.9 667.3,321.1 645.1,359.5 	"/>
	<polygon fill="#F39205" points="600.9,442.1 578.7,403.5 600.9,365.3 645.1,365.3 667.3,403.5 645.1,442.1 	"/>
	<polygon fill="#F39205" points="600.9,606.7 578.7,568.5 600.9,530.1 645.1,530.1 667.3,568.5 645.1,606.7 	"/>
	<polygon fill="#F39205" points="600.9,771.5 578.7,733.3 600.9,694.9 645.1,694.9 667.3,733.3 645.1,771.5 	"/>
	<polygon fill="#F39205" points="600.9,859.7 578.7,897.9 598.7,932.7 647.1,932.7 667.3,897.9 645.1,859.7 	"/>
	<polygon fill="#F39205" points="600.9,524.3 578.7,486.1 600.9,447.7 645.1,447.7 667.3,486.1 645.1,524.3 	"/>
	<polygon fill="#F39205" points="672.3,894.5 650.1,856.3 672.3,817.9 716.5,817.9 738.7,856.3 716.5,894.5 	"/>
	<polygon fill="#F39205" points="672.3,729.9 650.1,691.5 672.3,653.3 716.5,653.3 738.7,691.5 716.5,729.9 	"/>
	<polygon fill="#F39205" points="672.3,317.7 650.1,279.5 672.3,241.1 716.5,241.1 738.7,279.5 716.5,317.7 	"/>
	<polygon fill="#F39205" points="672.3,400.3 650.1,361.9 672.3,323.5 716.5,323.5 738.7,361.9 716.5,400.3 	"/>
	<polygon fill="#F39205" points="672.3,482.7 650.1,444.3 672.3,405.9 716.5,405.9 738.7,444.3 716.5,482.7 	"/>
	<polygon fill="#F39205" points="672.3,647.5 650.1,609.1 672.3,570.9 716.5,570.9 738.7,609.1 716.5,647.5 	"/>
	<polygon fill="#F39205" points="672.3,812.3 650.1,773.9 672.3,735.5 716.5,735.5 738.7,773.9 716.5,812.3 	"/>
	<polygon fill="#F39205" points="672.3,900.5 653.5,932.7 735.1,932.7 716.5,900.5 	"/>
	<polygon fill="#F39205" points="672.3,565.1 650.1,526.7 672.3,488.3 716.5,488.3 738.7,526.7 716.5,565.1 	"/>
	<polygon fill="#F39205" points="652.9,201.9 672.3,235.5 716.5,235.5 735.9,201.9 	"/>
	<polygon fill="#F39205" points="743.7,853.9 721.5,815.7 743.7,777.3 787.9,777.3 810.1,815.7 787.9,853.9 	"/>
	<polygon fill="#F39205" points="743.7,689.3 721.5,650.7 743.7,612.5 787.9,612.5 810.1,650.7 787.9,689.3 	"/>
	<polygon fill="#F39205" points="742.9,201.9 721.5,238.9 743.7,277.1 787.9,277.1 810.1,238.9 788.7,201.9 	"/>
	<polygon fill="#F39205" points="743.7,359.5 721.5,321.1 743.7,282.9 787.9,282.9 810.1,321.1 787.9,359.5 	"/>
	<polygon fill="#F39205" points="743.7,442.1 721.5,403.5 743.7,365.3 787.9,365.3 810.1,403.5 787.9,442.1 	"/>
	<polygon fill="#F39205" points="743.7,606.7 721.5,568.5 743.7,530.1 787.9,530.1 810.1,568.5 787.9,606.7 	"/>
	<polygon fill="#F39205" points="743.7,771.5 721.5,733.3 743.7,694.9 787.9,694.9 810.1,733.3 787.9,771.5 	"/>
	<polygon fill="#F39205" points="743.7,859.7 721.5,897.9 741.5,932.7 789.9,932.7 810.1,897.9 787.9,859.7 	"/>
	<polygon fill="#F39205" points="743.7,524.3 721.5,486.1 743.7,447.7 787.9,447.7 810.1,486.1 787.9,524.3 	"/>
	<polygon fill="#F39205" points="815.1,894.5 792.9,856.3 815.1,817.9 859.5,817.9 881.5,856.3 859.5,894.5 	"/>
	<polygon fill="#F39205" points="815.1,729.9 792.9,691.5 815.1,653.3 859.5,653.3 881.5,691.5 859.5,729.9 	"/>
	<polygon fill="#F39205" points="815.1,317.7 792.9,279.5 815.1,241.1 859.5,241.1 881.5,279.5 859.5,317.7 	"/>
	<polygon fill="#F39205" points="815.1,400.3 792.9,361.9 815.1,323.5 859.5,323.5 881.5,361.9 859.5,400.3 	"/>
	<polygon fill="#F39205" points="815.1,482.7 792.9,444.3 815.1,405.9 859.5,405.9 881.5,444.3 859.5,482.7 	"/>
	<polygon fill="#F39205" points="815.1,647.5 792.9,609.1 815.1,570.9 859.5,570.9 881.5,609.1 859.5,647.5 	"/>
	<polygon fill="#F39205" points="815.1,812.3 792.9,773.9 815.1,735.5 859.5,735.5 881.5,773.9 859.5,812.3 	"/>
	<polygon fill="#F39205" points="815.1,900.5 796.3,932.7 878.1,932.7 859.5,900.5 	"/>
	<polygon fill="#F39205" points="815.1,565.1 792.9,526.7 815.1,488.3 859.5,488.3 881.5,526.7 859.5,565.1 	"/>
	<polygon fill="#F39205" points="795.7,201.9 815.1,235.5 859.5,235.5 878.7,201.9 	"/>
	<polygon fill="#F39205" points="886.5,853.9 864.3,815.7 886.5,777.3 930.7,777.3 952.9,815.7 930.7,853.9 	"/>
	<polygon fill="#F39205" points="886.5,689.3 864.3,650.7 886.5,612.5 930.7,612.5 952.9,650.7 930.7,689.3 	"/>
	<polygon fill="#F39205" points="885.7,201.9 864.3,238.9 886.5,277.1 930.7,277.1 952.9,238.9 931.7,201.9 	"/>
	<polygon fill="#F39205" points="886.5,359.5 864.3,321.1 886.5,282.9 930.7,282.9 952.9,321.1 930.7,359.5 	"/>
	<polygon fill="#F39205" points="886.5,442.1 864.3,403.5 886.5,365.3 930.7,365.3 952.9,403.5 930.7,442.1 	"/>
	<polygon fill="#F39205" points="886.5,606.7 864.3,568.5 886.5,530.1 930.7,530.1 952.9,568.5 930.7,606.7 	"/>
	<polygon fill="#F39205" points="886.5,771.5 864.3,733.3 886.5,694.9 930.7,694.9 952.9,733.3 930.7,771.5 	"/>
	<polygon fill="#F39205" points="886.5,859.7 864.3,897.9 884.3,932.7 932.9,932.7 952.9,897.9 930.7,859.7 	"/>
	<polygon fill="#F39205" points="886.5,524.3 864.3,486.1 886.5,447.7 930.7,447.7 952.9,486.1 930.7,524.3 	"/>
	<polygon fill="#F39205" points="957.9,817.9 935.9,856.3 957.9,894.5 1000.9,894.5 1000.9,817.9 	"/>
	<polygon fill="#F39205" points="957.9,653.3 935.9,691.5 957.9,729.9 1000.9,729.9 1000.9,653.3 	"/>
	<polygon fill="#F39205" points="957.9,241.1 935.9,279.5 957.9,317.7 1000.9,317.7 1000.9,241.1 	"/>
	<polygon fill="#F39205" points="957.9,323.5 935.9,361.9 957.9,400.3 1000.9,400.3 1000.9,323.5 	"/>
	<polygon fill="#F39205" points="957.9,405.9 935.9,444.3 957.9,482.7 1000.9,482.7 1000.9,405.9 	"/>
	<polygon fill="#F39205" points="957.9,570.9 935.9,609.1 957.9,647.5 1000.9,647.5 1000.9,570.9 	"/>
	<polygon fill="#F39205" points="957.9,735.5 935.9,773.9 957.9,812.3 1000.9,812.3 1000.9,735.5 	"/>
	<polygon fill="#F39205" points="957.9,900.5 939.3,932.7 1000.9,932.7 1000.9,900.5 	"/>
	<polygon fill="#F39205" points="957.9,488.3 935.9,526.7 957.9,565.1 1000.9,565.1 1000.9,488.3 	"/>
	<polygon fill="#F39205" points="938.5,201.9 957.9,235.5 1000.9,235.5 1000.9,201.9 	"/>
	<polygon fill="#F39205" points="2.3,819.1 0.9,819.1 0.9,895.7 2.3,895.7 24.5,857.5 	"/>
	<polygon fill="#F39205" points="2.3,736.7 0.9,736.7 0.9,813.5 2.3,813.5 24.5,775.1 	"/>
	<polygon fill="#F39205" points="2.3,654.3 0.9,654.3 0.9,731.1 2.3,731.1 24.5,692.5 	"/>
	<polygon fill="#F39205" points="2.3,571.9 0.9,571.9 0.9,648.5 2.3,648.5 24.5,610.3 	"/>
	<polygon fill="#F39205" points="2.3,489.5 0.9,489.5 0.9,566.1 2.3,566.1 24.5,527.9 	"/>
	<polygon fill="#F39205" points="2.3,407.1 0.9,407.1 0.9,483.9 2.3,483.9 24.5,445.3 	"/>
	<polygon fill="#F39205" points="2.3,324.7 0.9,324.7 0.9,401.3 2.3,401.3 24.5,363.1 	"/>
	<polygon fill="#F39205" points="2.3,242.3 0.9,242.3 0.9,318.9 2.3,318.9 24.5,280.7 	"/>
	<polygon fill="#F39205" points="0.9,203.1 0.9,236.7 2.3,236.7 21.7,203.1 	"/>
	<polygon fill="#F39205" points="2.3,900.1 0.9,900.1 0.9,976.7 2.3,976.7 24.5,938.5 	"/>
</g>
<g id="Honig">
	<path fill="#F38200" d="M531.7,416l48.7-1l10,12.7c0,0-11.7,3.7-10.7,9.3c1,5.7,3,15.8-3.7,17.3c-7.2,1.6-12.5-12.7-7.7-18
		c4.9-5.5,1.7-9.7-0.3-11s-1.4-1.1-3.3-0.7c-8.8,2.2,0.7,11.5-4.7,16.3c-2.6,2.4-11-2.2-7-8.3c5.3-8.2-2.7-9.7-2.7-9.7s-1-0.7-3.7,1
		c-2.3,1.4-8.2,10.2-3.3,23c2.9,7.7-4.7,21.1-9.3,14.7c-4.8-6.7-6.4-18.9-5.3-25.7C529.5,430.6,531.7,416,531.7,416z"/>
	<path fill="#F38200" d="M449.5,663.5c0,0-2,10.5,1.8,14.5s14.5,0.3,16.3-2s2.8-4.8,2.8-5.8s-0.8-5-0.8-5l-2.5-6.5l-0.8-2.8l0.3-5.8
		c0,0,4.3-6.5,3.5-1.5s-1,12,2.8,12.8c3.1,1.1,5.1-4.3,2.3-7c-2.4-2.3-0.1-12.4,6.3-7.8c1.9,1.8,8.7,7.6,6.3,12.5
		c-4.6,9.1-1.9,13.6-1.5,14.5s5.6,3.8,6.8-1.8c0.4-2.8-1.1-5.8-2.5-7.8c-1.4-2.9,3-6.3,3-6.3s8.9-6.8,9.3-1.5c0.2,2.9,5.5,1.5,7,0.5
		s4-3.3,5-5.8s4.3-6,4.3-6l2-0.8l-1.8-8.8l-19.3,12.8l-8,3l-8.8-11l-7.8-7.3L449.5,663.5z"/>
	<path fill="#F38200" d="M281.6,343.7c0,0-37,52.6-40.3,55.2c-4.3,8.6-2.1,18.3,4.9,24.7c6.9,6.4,24.9-1.4,27.6-5.5
		c2.7-4.1,4.1-8.5,4-10.2c-0.1-1.7-1.9-8.5-1.9-8.5l-5.1-10.8l-1.6-4.6l-0.3-9.9c0,0,6.5-11.7,5.8-3s-0.2,20.7,6.4,21.5
		c5.5,1.5,8.2-8,3-12.3C279.6,376.6,281.6,343.7,281.6,343.7z"/>
	<path fill="#F38200" d="M638.9,686.2c0,0,36,50.6,39.3,53.2c2.4,4.8,0.1,36.2,0.3,59.6c0.1,9.6,4,17.8,3.6,22.4
		c-1.1,12.3-11.4,14-17.4,12.2c-7.4-0.9-9.7-15.2,0-44.2c0-25.3-4.9-53.3-4.9-53.3s-1.7,37.2-8.2,38c-5.5,1.5-16.5-45.6-14-58.3
		C638.7,710.1,638.9,686.2,638.9,686.2z"/>
	<path fill="#F38200" d="M668.4,858c0,0-14.4,18.2-15.1,33.6c1.1,31.9,33.8,23.6,31.4,1.7C682.4,871.4,668.4,858,668.4,858z"/>
	<path fill="#F38200" d="M907.1,432.3c0,0-6,7.6-6.3,13.9c0.4,13.2,14,9.8,13.1,0.7C912.9,437.9,907.1,432.3,907.1,432.3z"/>
	<path fill="#F38200" d="M83.1,572.4c0,0-9.3,9.6-5.7,15.1c3.4,3.7,7.2,9.5,7.2,15.2c-0.8,11.6-12.4,7.1-13.4,5.4
		s-7.9-10.2-0.8-30.1c2.6-7.4-21.6-19.2-20.4-21.5L83.1,572.4z"/>
	<path fill="#F38200" d="M908.2,428.2c0,0-1-9.2-3.5-13.7s-9.1-14.2-12.3-15.3c-5.5-1.8-7-4.3-4.3-10.7s12-12.7,12-12.7
		s6.7-4,9.3,0.3c3.7,7-3,6.2-1.3,14c3,16.3,21.8,4.3,27.3,0.3c11.7-5.7,10-25.7,10-25.7l-55-1.3l-12.7,29l28.3,34.3L908.2,428.2z"/>
</g>
<g id="Risse">
	<polygon fill="#F59B19" points="639,202.1 576,318 602,361 569,402 528,402 504,448 450,444 427,485 450,527 428,570 450,609 
		498,608 526,649 503,700 529,731 505,771 525,815 494,870 538,820 515,766 546,723 517,694 542,642 508,591 457,585 445,568 
		470,521 445,478 453,463 513,464 538,418 590,417 621,366 601,328 715,200 	"/>
	<polygon fill="#F59B19" points="573,414 593,450 645,449 665,492 635,524 666,574 711,579 734,611 784,618 801,654 784,687 
		804,735 780,774 833,860 799,773 831,728 802,691 824,643 791,596 749,596 723,556 676,559 661,529 695,483 653,423 620,429 
		588,407 	"/>
	<polygon fill="#F59B19" points="-13,237 19,288 73,295 81,324 66,346 84,409 137,415 170,463 210,462 238,483 224,513 170,512 
		133,557 157,609 132,641 158,695 137,722 156,772 141,800 100,799 61,852 40,911 87,865 108,812 167,815 182,774 154,723 183,687 
		155,653 170,601 151,563 171,526 230,527 255,487 219,443 173,444 153,391 111,391 93,348 114,301 88,268 111.1,236 86,195 
		65,194.3 89,232 65,273.1 26.5,270.6 12.4,231 32,194.7 -22,192 	"/>
	<polygon fill="#F59B19" points="305,946 266,890 298,854 268,801 290,769 271,723 304,674 351,679 369,648 338,600 365,565 
		349,535 379,485 353,447 414,355 371,446 375,458 396,494 368,541 388,569 361,604 383,640 379.9,658 365,688 357,704 310,696 
		289,728 311,768 359,765 375,731 437,691 390,738 370,778 302,786 295,806 328,848 305,887 361,941 	"/>
	<polygon fill="#F59B19" points="1004,218.5 963,227.5 941,241.5 920,279.5 944,321.5 931,348.5 886,351.5 863,356.5 816,383.5 
		882,362.5 860,397.5 908,428.5 882,394.5 896,366.5 945,366.5 968,324.5 940,275.5 970,244.5 1006,242.5 	"/>
	<polygon fill="#F59B19" points="300,202.1 283,230 232,228 200,271 239,323 284,325 336,416 299,317 247,305 223,270 241,245 
		281,243 306,286 351,288 371,320 356,278 313,278 290,240 323,197 	"/>
	<polygon fill="#F59B19" points="738,601 714,644 659,642 638,686 673,749 679,804 693,725 656,689 668,669 729,666 751,606 	"/>
	<polygon fill="#F59B19" points="785,771 747,834 796,788 	"/>
	<polygon fill="#F59B19" points="284,325 252,384 298,334 	"/>
	<polygon fill="#F59B19" points="326,280 341,261 326,240 342,217 337,241 351,259 340,282 	"/>
	<polygon fill="#F59B19" points="798,605.3 821.4,616.8 842.5,598.4 870.5,610.3 843,609.5 825.2,626.4 797.9,619.4 	"/>
	<polygon fill="#F59B19" points="615,941 630,922 615,901 631,878 626,902 640,920 629,943 	"/>
	<polygon fill="#F59B19" points="21,538 37,566 50,547 84,573 52,558 31,582 12,553 	"/>
	<polygon fill="#F59B19" points="515,629 494,640 478,629 456,651 449,664 463,653 476,637 491,658 524,638 	"/>
	<polygon fill="#F59B19" points="945,243.5 937,222.5 920,242.5 918,206.5 870,238.5 910,219.5 917,263.5 934,243.5 934,263.5 	"/>
	<polygon fill="#F59B19" points="86,849 108,830 119,861 128,844 138,860 146,849 148,878 143,864 134,868 130,857 114,875 105,844 
		76,864 	"/>
	<polygon fill="#F59B19" points="810,754 830,744 835,764 860,766 872,757 884,734 910,754 916,708 941,731 925,724 919,769 
		889,748 866,778 831,772 825,758 795,766 	"/>
	<polygon fill="#F59B19" points="914,760 899,807 924,802 900,841 928,829 918,826 935,797 913,796 919,762 	"/>
	<polygon fill="#F59B19" points="988.2,237 1020.2,288 1074.2,295 1082.2,324 1067.2,346 1085.2,409 1138.2,415 1171.2,463 
		1211.2,462 1239.2,483 1225.2,513 1171.2,512 1134.2,557 1158.2,609 1133.2,641 1159.2,695 1138.2,722 1157.2,772 1142.2,800 
		1101.2,799 1062.2,852 1041.2,911 1088.2,865 1109.2,812 1168.2,815 1183.2,774 1155.2,723 1184.2,687 1156.2,653 1171.2,601 
		1152.2,563 1172.2,526 1231.2,527 1256.2,487 1220.2,443 1174.2,444 1154.2,391 1112.2,391 1094.2,348 1115.2,301 1089.2,268 
		1112.3,236 1087.2,195 1066.1,194.3 1090.1,232 1066.2,273.1 1027.7,270.6 1013.5,231 1033.2,194.7 979.2,192 	"/>
</g>
<g id="Ebene_5">
	<g>
		<path fill="#F9B233" d="M202.2,770.5c-0.2-5.7-3-10-6.4-14.2c1-0.1,1.9-0.2,2.9-0.3c2.1-0.1,4.2,0.1,6.2,0.8c2.8,1,3.9,3,2.8,5.9
			c-0.5,1.2-1.2,2.4-1.9,3.5C204.7,767.6,203.4,769,202.2,770.5z"/>
		<path d="M170.6,816.7c-2.7,0.9-3.6,3.4-2.1,5.7c0.4,0.6,0.9,1.1,1.5,1.7c0.5,0.5,0.8,1,0.7,1.7c-0.1,0.6-0.5,0.9-1.1,0.9
			c-0.6,0-1.1-0.4-1.1-0.9c0.2-1.4-0.6-2.4-1.1-3.6c-0.7-1.5-0.6-2.9,0.4-4.2c0.6-0.8,2.2-2.8,2.3-3c0,0,0.7,1.1,0.6,1.4
			C170.6,816.5,170.6,816.6,170.6,816.7L170.6,816.7z"/>
		<path opacity="0.7" fill="#E4E9EC" enable-background="new    " d="M168.3,797.7c-0.1-0.4-0.3-0.9-0.3-1.3
			c-0.2-3.5-0.4-7-0.4-10.4c0-7.4,0.5-14.7,2-21.9c0.7-3.3,1.5-6.5,3.1-9.4c0.7-1.4,1.6-2.7,3-3.5c1-0.6,2-0.7,3.1-0.3
			c1.5,0.5,2.6,1.5,3.6,2.6c2,2.3,3.5,4.9,4.4,7.8c0.3,1.1,0.2,2-0.4,3c-3.2,5.1-5.9,10.4-8.6,15.8c-2.5,5.2-5,10.3-7.6,15.5
			c-0.4,0.8-0.9,1.6-1.4,2.3C168.5,797.7,168.4,797.7,168.3,797.7z"/>
		<path fill="#28190F" d="M186.6,788.6c1.1,0.4,2.4,0.7,3,4c0.1,0.8,0.2,1.5,0.3,2.2c0.4,1.3,0.5,1.9-0.4,4.1
			c-0.4,1-0.8,1.8-1.2,2.6c-0.1,0.1-1.7,2.4-3.2,3.7c-2.7,2-5.5,3.4-8.8,2.1c-1.3-0.5-2.6-0.9-3.8-1.5c-2.5-1.2-3.7-3.4-3.9-6.1
			c-0.1-1.9,0-3.7,0.4-5.7c2-6.1,6.3-8.2,7.1-8.7c1.7-0.9,3.8-0.7,5.5,0.3c1.2,0.8,2.5,1.4,3.8,2.1
			C185.7,788.1,186.1,788.4,186.6,788.6z"/>
		<path fill="#683C14" d="M168.7,816.5c-0.5-0.4-0.9-0.6-1.4-0.5c-0.5,0.1-0.9,0.3-1.3,0.7c-0.8,0.7-1.2,1.7-1.1,2.8
			c0.1,0.9,0.4,1.8,0.5,2.7c0.1,0.6,0,1.2-0.2,1.7c-0.2,0.5-0.8,0.7-1.4,0.4c-0.5-0.3-0.8-1-0.5-1.5c0.7-0.9,0.7-1.9,0.7-3
			c0-1.8,0.7-3.3,2.4-4.2c0.2-0.1,0.4-0.2,0.5-0.4c0,0,0,0,0-0.1c-1.7-2.8-1.4-5.7-0.1-8.5c0.2-0.5,0.5-0.9,0.9-1.3
			c0.7-0.7,1.5-1,2.5-0.6c4.5,1.8,8.8,4,12.5,7.2c0.7,0.6,1.4,1.4,1.9,2.2c1,1.6,0.6,2.9-1.1,3.6c-1.6,0.7-3.3,0.8-4.9,0.9
			c-2.7,0-5.4-0.2-8-1.2C170.4,817.4,170.6,817.4,168.7,816.5z"/>
		<path fill="#F9B233" d="M200.1,775.6c-0.3,1.5-0.9,3-2.2,4.1c-0.4,0.4-0.9,0.6-1.4,0.9c-0.5,0.2-0.9,0.1-1.1-0.6
			c-0.8-2.2-2.3-4.1-4-5.7c-2.7-2.6-5.6-5.1-8.4-7.6c-0.2-0.2-0.5-0.4-0.7-0.6c-0.9-0.7-0.9-0.9-0.3-1.8c1.1-1.8,2.5-3.2,4.4-4.2
			c1-0.5,1.9-0.6,2.8,0c1.3,0.8,2.6,1.7,3.7,2.7c2.8,2.5,5,5.5,6.5,9C199.9,772.9,200.2,774.2,200.1,775.6z"/>
		<path fill="#F9B233" d="M175.7,775.7c0.3-1,0.6-2.1,1-3.1c0.5-1.4,1.4-1.7,2.7-1c5,2.8,9.1,6.5,11.8,11.6c0.8,1.5,1.1,3.1,0.3,4.7
			c-0.8,1.5-1.8,2-3.4,1.7c-3.1-0.6-5.5-2.4-7.8-4.4c-1.7-1.5-3.2-3.3-4-5.5C175.8,778.4,175.6,777.1,175.7,775.7z"/>
		<path fill="#28190F" d="M196.1,781c-0.6,2-1.6,3.5-3.4,4.3c-0.8,0.4-1,0.2-1.3-0.6c-0.5-2.3-1.8-4.1-3.3-5.8
			c-2.6-3-5.5-5.7-9.1-7.4c-0.9-0.4-1.1-1-1.1-1.9c0.1-1.9,1.5-3.7,3.3-4.2c0.2-0.1,0.5,0,0.7,0.1c3.4,2.7,6.9,5.4,9.7,8.8
			c1.4,1.7,2.5,3.6,3.8,5.4C195.8,780.1,195.9,780.6,196.1,781z"/>
		<path fill="#28190F" d="M200.1,774.7c-0.2-0.8-0.3-1.4-0.5-2.1c-1-3-2.8-5.5-4.8-7.8c-1.7-1.9-3.5-3.6-5.8-4.8
			c-0.2-0.1-0.3-0.4-0.3-0.5c0.2-0.5,0.4-1,0.7-1.3c1.9-1.5,4.1-2.1,6.5-2.2c0.2,0,0.4,0.1,0.5,0.3c1.9,2.8,4,5.5,5.3,8.6
			c0.7,1.7,1.1,3.4,0.9,5.3C202.3,772,201.2,773.3,200.1,774.7z"/>
		<path fill="#683C14" d="M185.6,793.3c-0.7-0.1-1.4-0.7-1.6-1.4c-0.2-0.7,0-1.3,0.6-1.7c0.9-0.5,1.8-1,2.8-1.3
			c2.1-0.7,4.3-1.3,6.1-2.6c0.8-0.6,1.6-1.2,2.4-1.9c0.5-0.4,1-0.6,1.5-0.2c0.5,0.3,0.3,0.8,0.1,1.3c-0.7,2.1-2.2,3.5-4,4.7
			c-2.2,1.4-4.5,2.6-7.1,3.1c-0.2,0-0.3,0-0.5,0.1C185.8,793.3,185.7,793.3,185.6,793.3z"/>
		<path fill="#28190F" d="M210.8,782.8c-1.5,1.5-3,2.9-4.6,4.2c-0.5,0.4-0.9,0.2-1.3-0.2c-0.6-0.5-0.8-1.2-0.4-1.9
			c0.7-1.3,1.3-2.6,2.1-3.8c0.6-0.9,1.2-1.8,1.9-2.6c0.5-0.6,1.2-1.1,2.1-0.7c0.9,0.5,1.5,1.3,1.5,2.4c0,0.1,0,0.2,0,0.4
			C212,780.7,211.4,782.2,210.8,782.8z"/>
		<path fill="#683C14" d="M184.2,800.9c1.7,0.5,3.4,1,5.1,1.6c0.5,0.2,1,0.5,1.4,0.9c0.6,0.5,0.7,1.2,0.3,1.9
			c-0.4,0.7-1.2,1.2-1.9,1c-2.3-0.7-4.7-1.4-7-2.1c-0.5-0.2-0.9-0.7-1.2-1.1c-0.5-0.9,0-1.7,1-2
			C182.9,800.6,184.2,800.9,184.2,800.9z"/>
		<path fill="#683C14" d="M190.4,795.3c1,0.2,1.7,0.3,2.3,0.4c0.9,0.2,1.3,0.7,1.3,1.4c0,0.7-0.7,1.3-1.5,1.3
			c-1.6,0.1-3.1,0.2-4.7,0.3c-0.8,0-1.7,0.1-2.5,0.1c-0.5,0-0.9-0.2-1-0.7c0-0.7,0-1.4,0.1-2c0.1-0.6,0.6-0.9,1.3-0.8
			C187.4,795.3,189.1,795.3,190.4,795.3z"/>
		<path fill="#28190F" d="M205.6,783.6c-0.7,1.1-0.7,2.2-0.3,3.4c-2.8-0.3-5.4-0.7-8.2-1c0.5-0.6,0.9-1.2,0-1.9
			C199.9,783.5,202.7,783.3,205.6,783.6z"/>
		<path fill="#28190F" d="M191.3,811.1c-0.7,1.1-1.8,1.3-2.7,0.3c-0.5-0.5-0.8-1.3-0.9-1.9c-0.1-1,0.1-2,0.3-3
			c0-0.1,0.3-0.4,0.4-0.4c1.1,0.1,2-0.3,2.8-1.2c-0.1,1.2-0.3,2.2-0.4,3.3c-0.1,0.7,0.4,1.4,0.1,2.2
			C190.8,810.4,191.1,810.8,191.3,811.1z"/>
		<path fill="#28190F" d="M197.6,799.6c0.1-0.1,0.3-0.4,0.5-0.6c1.1-0.7,2.2-1.4,3.3-2.1c0.5-0.3,1-0.4,1.4,0
			c0.5,0.4,0.8,1.4,0.5,1.9c-0.2,0.4-0.5,0.8-0.8,0.9c-1.1,0.6-2.3,1.1-3.5,1.6C198.4,801.6,197.2,800.3,197.6,799.6z"/>
		<path fill="#28190F" d="M198.1,801c-1.9-0.9-3.6-1.8-5.3-2.6c0.3-0.7,0.6-1.3,0.9-1.9c2.4,0.3,5.3,1.2,5.9,2.1
			C198.3,798.7,197.9,799.5,198.1,801z"/>
		<path fill="#28190F" d="M197.8,807.7c0,0.6-0.6,0.9-0.8,1.1c-1.4,1.3-3,2.1-4.9,2.3c-0.3,0-0.6,0.1-0.9-0.1
			c-0.2-0.1-0.6-0.3-0.5-0.5c0-0.3,0.3-0.7,0.5-0.8c2-0.3,3.6-1.4,5.2-2.5c0.2-0.1,0.6-0.3,0.8-0.2
			C197.3,807.1,197.6,807.1,197.8,807.7z"/>
		<path fill="#28190F" d="M202.7,797.6c-0.1-0.1-0.3-0.2-0.3-0.4c0-0.2,0.1-0.4,0.3-0.6c1-0.6,2-1.2,3-1.7c0.2-0.1,0.6-0.1,0.6,0
			c0.3,0.2,0.2,0.6,0.1,0.8C206,796.6,203.7,797.7,202.7,797.6z"/>
		<path d="M167.3,815.9c-0.5,0.1-0.9,0.3-1.3,0.7c-0.8,0.7-1.2,1.7-1.1,2.8c0.1,0.9,0.4,1.8,0.5,2.7c0.1,0.6,0,1.2-0.2,1.7
			c-0.2,0.5-0.8,0.7-1.4,0.4c-0.5-0.3-0.8-1-0.5-1.5c0.7-0.9,0.7-1.9,0.7-3c0-1.8,0.7-3.2,2.4-4.2c0.2-0.1,0.4-0.2,0.5-0.4
			c0,0,0,0,0-0.1C166.9,814.7,167.8,815.9,167.3,815.9z"/>
		<path fill="#28190F" d="M210.4,778.6c0-0.1-0.3-0.3-0.3-0.5c0-0.2,0.3-0.5,0.5-0.5c1.3-0.4,2.6-0.7,3.8-1c0.2-0.1,0.7,0.1,0.7,0.2
			c0.3,0.3,0,0.7-0.2,0.9C214.2,778.6,211.4,779,210.4,778.6z"/>
		<path opacity="0.7" fill="#E4E9EC" enable-background="new    " d="M175.8,796.7c-0.8,0.9-1.9,2-3,3.1c-0.2,0.2-0.4,0.3-0.7,0.4
			c-0.6,0.3-1,0.1-1.1-0.5c-0.1-0.8-0.2-1.6-0.1-2.4c1.4-12.8,2.5-25.6,5.2-38.2c0.9-4.1,1.8-8.1,3.4-11.9c0.7-1.5,1.3-3.1,2.7-4.1
			c0.5-0.4,1.1-0.7,1.7-0.8c3-0.5,5.3,0.8,7.2,2.9c1.9,2.1,3,4.7,3.9,7.3c0.9,2.6,1.3,5.3,1.6,8.1c0.2,2.7-0.2,5.2-1.7,7.6
			c-2.6,4.1-4.9,8.4-7.5,12.5c-1.7,2.7-3.6,5.3-5.5,7.9C179.9,791.2,177.9,793.8,175.8,796.7z"/>
		
			<rect x="173.5" y="810.9" transform="matrix(-0.3789 -0.9254 0.9254 -0.3789 -513.4672 1283.6229)" fill="#1E1E1C" width="1.1" height="6.4"/>
		
			<rect x="173.6" y="811" transform="matrix(0.8873 -0.4612 0.4612 0.8873 -355.8987 172.0762)" fill="#1E1E1C" width="1.1" height="6.4"/>
	</g>
	<g>
		<path fill="#F9B233" d="M213.4,819.5c-0.4,1.2-1,2.5-1.7,3.6c-1.7,2.5-3.9,2.9-6.4,1.1c-1.7-1.2-3.1-2.8-4.3-4.6
			c-0.5-0.8-0.9-1.6-1.4-2.5c5.4,0.3,10.5,0.1,15.3-3C214.4,816,214,817.8,213.4,819.5z"/>
		<path d="M234.1,761.5c0,0.1-0.1,0.2-0.1,0.2c-0.2,0.3-1.5,0.3-1.5,0.3c0.1-0.2,0.9-2.6,1.2-3.6c0.5-1.6,1.6-2.5,3.2-2.8
			c1.2-0.2,2.5-0.2,3.5-1.2c0.4-0.4,1-0.1,1.4,0.3c0.4,0.5,0.3,1-0.1,1.4c-0.5,0.5-1.1,0.5-1.8,0.4c-0.7-0.1-1.5-0.3-2.2-0.2
			C234.8,756.5,233.4,758.8,234.1,761.5L234.1,761.5z"/>
		<path opacity="0.7" fill="#E4E9EC" enable-background="new    " d="M217.6,770.9c-0.4,0.8-0.6,1.7-1.1,2.5
			c-2.7,5.1-5.5,10.1-8.2,15.2c-2.9,5.3-5.6,10.6-7.9,16.1c-0.5,1.1-1.2,1.7-2.2,2.1c-2.9,1-5.9,1.3-8.9,1c-1.5-0.2-2.9-0.5-4.2-1.4
			c-0.9-0.7-1.4-1.5-1.5-2.7c-0.1-1.6,0.4-3.1,1.1-4.5c1.5-3,3.6-5.5,5.9-8c5.1-5.4,10.7-10,16.7-14.3c2.8-2,5.8-3.8,8.7-5.7
			c0.4-0.2,0.8-0.4,1.3-0.6C217.4,770.7,217.5,770.8,217.6,770.9z"/>
		<path fill="#28190F" d="M219.3,790.2c-1.3-0.6-2.6-1.3-3.9-1.9c-1.8-0.7-3.1-2.3-3.4-4.3c-0.1-0.9-0.9-5.6,2.9-10.9
			c1.4-1.4,2.8-2.6,4.4-3.6c2.3-1.4,4.8-1.7,7.2-0.4c1.2,0.7,2.3,1.5,3.4,2.3c3,2,3.5,5.1,3.4,8.4c-0.1,1.9-1.1,4.6-1.1,4.7
			c-0.4,0.8-0.9,1.6-1.4,2.5c-1.3,2-1.9,2.3-3.2,2.7c-0.7,0.3-1.3,0.6-2,1c-3.1,1.5-4,0.5-5-0.1
			C220.1,790.6,219.7,790.4,219.3,790.2z"/>
		<path fill="#683C14" d="M234.8,761.1c2.2,1.6,4,3.6,5.6,5.8c1,1.4,1.8,2.8,2.2,4.5c0.4,1.8-0.4,2.9-2.3,3c-1,0-2-0.1-3-0.3
			c-4.7-1.2-9-3.4-13.1-6c-0.9-0.6-1.2-1.4-1-2.4c0.1-0.5,0.3-1.1,0.5-1.5c1.6-2.6,3.8-4.5,7-4.8c0,0,0,0,0-0.1c0-0.2,0-0.4,0-0.6
			c-0.2-1.9,0.5-3.3,2-4.3c0.9-0.6,1.7-1.2,2.1-2.3c0.2-0.6,0.9-0.7,1.5-0.5c0.6,0.3,0.8,0.9,0.5,1.4c-0.3,0.5-0.8,0.8-1.3,1.1
			c-0.8,0.4-1.7,0.7-2.5,1.2c-1,0.5-1.5,1.4-1.6,2.5c0,0.6,0,1.1,0.2,1.5s0.6,0.7,1.2,0.8C234.8,761.1,234.6,761,234.8,761.1z"/>
		<path fill="#F9B233" d="M214.3,811.1c-3.7,0.8-7.4,0.7-11.1-0.1c-1.5-0.3-2.9-0.9-4.4-1.5c-1-0.4-1.5-1.2-1.7-2.3
			c-0.3-2.1,0-4.1,0.9-6c0.4-1.1,0.6-1.1,1.7-0.8c0.3,0.1,0.6,0.2,0.9,0.2c3.7,0.8,7.4,1.7,11.1,2.4c2.3,0.4,4.6,0.6,6.9-0.1
			c0.6-0.2,1,0,1.1,0.6c0.1,0.5,0.2,1.1,0.1,1.7c-0.2,1.6-1,3-2.1,4.1C216.7,810.3,215.5,810.8,214.3,811.1z"/>
		<path fill="#F9B233" d="M207.3,787.7c2.3-0.6,4.6-0.4,6.8,0.1c3,0.7,5.8,1.6,8.1,3.8c1.2,1.2,1.4,2.3,0.6,3.8
			c-0.9,1.6-2.3,2.3-4,2.5c-5.7,0.8-11.1-0.4-16.3-2.9c-1.3-0.6-1.5-1.5-0.7-2.8c0.6-0.9,1.3-1.7,1.9-2.6
			C204.8,788.6,206,788,207.3,787.7z"/>
		<path fill="#28190F" d="M218.4,803.3c-2.2,0.1-4.4,0.3-6.6,0.1c-4.4-0.3-8.6-1.7-12.8-2.8c-0.2-0.1-0.4-0.3-0.5-0.5
			c-0.6-1.8,0-4.1,1.5-5.2c0.7-0.5,1.2-0.7,2.1-0.2c3.5,2,7.4,2.8,11.4,3.1c2.2,0.2,4.5,0.2,6.7-0.7c0.8-0.3,1.1-0.2,1.3,0.6
			c0.4,1.9-0.2,3.6-1.5,5.2C219.5,803.1,219,803.3,218.4,803.3z"/>
		<path fill="#28190F" d="M214.8,814.5c-1.4,1.2-3,1.9-4.8,2.3c-3.3,0.8-6.7,0.7-10.1,0.7c-0.2,0-0.4-0.1-0.5-0.3
			c-1.3-2-2.2-4.1-2-6.5c0-0.5,0.4-0.9,0.7-1.4c0.1-0.1,0.4-0.1,0.6-0.1c2.3,1.2,4.8,1.7,7.3,2c3.1,0.3,6.2,0.3,9.2-0.6
			c0.6-0.2,1.3-0.5,2-0.8C216.6,811.6,216.2,813.3,214.8,814.5z"/>
		<path fill="#683C14" d="M224,787.6c0.1,0.1,0.2,0.3,0.2,0.4c1.1,2.4,1.5,5,1.6,7.6c0.1,2.1-0.2,4.1-1.5,5.9
			c-0.3,0.4-0.5,0.9-1.1,0.7c-0.6-0.2-0.8-0.7-0.7-1.3c0.1-1,0.2-2,0.2-3c0-2.3-0.8-4.3-1.5-6.5c-0.3-1-0.5-2-0.6-3
			c-0.1-0.7,0.3-1.2,1-1.5c0.7-0.3,1.6,0,2,0.5C223.9,787.4,224,787.5,224,787.6z"/>
		<path fill="#28190F" d="M228.8,816.1c-0.1,0.1-0.2,0.2-0.3,0.2c-0.9,0.6-1.9,0.6-2.8,0.2c-0.9-0.4-0.8-1.3-0.6-2.1
			c0.3-1,0.6-2.1,1.1-3.1c0.6-1.3,1.2-2.6,1.9-3.9c0.3-0.7,1-0.9,1.8-0.7c0.5,0.1,1,0.4,0.9,1c-0.2,2.1-0.4,4.1-0.8,6.2
			C229.8,814.7,228.9,816.1,228.8,816.1z"/>
		<path fill="#683C14" d="M228,779.9c-0.3-0.9,0-1.8,1-1.9c0.5-0.1,1.2,0,1.6,0.3c1.9,1.4,3.9,3,5.8,4.5c0.5,0.4,0.6,1.4,0.3,2.1
			c-0.3,0.7-0.9,1-1.7,0.8c-0.6-0.1-1.1-0.3-1.6-0.6c-1.4-1-2.8-2.2-4.2-3.2C229.3,781.7,228.2,780.9,228,779.9z"/>
		<path fill="#683C14" d="M225.5,786.3c-0.4-0.5-0.4-1.1,0-1.5c0.4-0.5,1-0.9,1.6-1.3c0.4-0.3,0.9-0.1,1.1,0.4
			c0.4,0.7,0.9,1.4,1.3,2.1c0.8,1.3,1.7,2.6,2.5,4c0.4,0.7,0.3,1.6-0.2,2c-0.5,0.4-1.2,0.4-1.8-0.2c-0.5-0.5-1-1-1.7-1.7
			C227.5,789,226.5,787.6,225.5,786.3z"/>
		<path fill="#28190F" d="M223,802c1.1,0.4,1.4-0.4,1.6-1.1c1.9,2.1,3.7,4,5.6,6.1c-1.2,0.3-2.1,1-2.6,2.2
			C225.6,807,224.2,804.7,223,802z"/>
		<path fill="#28190F" d="M240.7,781.7c-0.4,0.7-1.3,0.8-1.8,1.2c-0.8,0.7-1.5,1.4-2.4,2.2c0.3-1.2,0.1-2.2-0.6-3
			c-0.1-0.1-0.1-0.5,0.1-0.6c0.7-0.7,1.4-1.5,2.3-2c0.6-0.3,1.4-0.5,2.1-0.4c1.3,0.1,1.8,1.1,1.3,2.3
			C241.3,781.7,240.8,781.6,240.7,781.7z"/>
		<path fill="#28190F" d="M238.2,793.6c0.3,1.2,0.6,2.5,0.7,3.7c0,0.4-0.1,0.8-0.3,1.2c-0.3,0.5-1.2,0.8-1.8,0.7
			c-0.6-0.1-0.8-0.6-0.9-1.2c-0.1-1.3-0.2-2.6-0.2-3.9c0-0.3,0.1-0.6,0.2-0.7C236.2,792.7,238,792.9,238.2,793.6z"/>
		<path fill="#28190F" d="M236.3,795.7c-1,0-3.4-1.8-5.1-3.6c0.3-0.6,0.6-1.2,1-1.9c1.6,0.9,3.3,1.8,5.1,2.8
			C236.1,793.7,235.6,794.6,236.3,795.7z"/>
		<path fill="#28190F" d="M241.7,788.7c-0.2-0.1-0.3-0.5-0.3-0.8c0-2-0.1-3.9-1-5.7c-0.1-0.2,0.2-0.6,0.3-0.8c0.1-0.1,0.5,0,0.7,0.1
			c0.2,0.2,0.4,0.4,0.6,0.7c0.9,1.7,1.2,3.5,1,5.4c0,0.3,0.1,0.9-0.4,1.3C242,789.1,241.9,788.8,241.7,788.7z"/>
		<path fill="#28190F" d="M237.9,802.9c-0.1,0.2-0.3,0.5-0.7,0.4c-0.1,0-0.3-0.3-0.4-0.5c-0.1-1.1-0.3-2.3-0.3-3.4
			c0-0.2,0.1-0.5,0.3-0.6c0.1-0.1,0.4,0.1,0.5,0.1C237.9,799.5,238.4,801.9,237.9,802.9z"/>
		<path d="M230.8,759.4C230.8,759.4,230.8,759.4,230.8,759.4c0-0.3,0-0.5,0-0.7c-0.2-1.9,0.5-3.3,2-4.3c0.9-0.6,1.7-1.2,2.1-2.3
			c0.2-0.6,0.9-0.7,1.5-0.5c0.6,0.3,0.8,0.9,0.5,1.4c-0.3,0.5-0.8,0.8-1.3,1.1c-0.8,0.4-1.7,0.7-2.5,1.2c-1,0.5-1.5,1.4-1.6,2.5
			c0,0.6,0,1.1,0.2,1.5S230.4,759.7,230.8,759.4z"/>
		<path fill="#28190F" d="M228.2,820.3c-0.1,0.3-0.2,0.7-0.7,0.7c-0.1,0-0.5-0.2-0.5-0.4c-0.5-1.2-1-2.5-1.4-3.7
			c-0.1-0.2,0-0.6,0.1-0.7c0.1-0.1,0.5-0.1,0.6-0.1C227.2,816.6,228.4,819.2,228.2,820.3z"/>
		<path opacity="0.7" fill="#E4E9EC" enable-background="new    " d="M217.8,787c-1,3-2,6.1-3.2,9c-1.9,4.5-4,8.8-5.8,13.3
			c-1.1,2.6-2.8,4.4-5.2,5.8c-2.4,1.4-4.9,2.6-7.5,3.4c-2.7,0.8-5.4,1.4-8.3,1.1c-2.9-0.3-5.2-1.5-6.6-4.2c-0.3-0.5-0.4-1.2-0.3-1.8
			c0.1-1.7,1-3.2,1.8-4.6c2.2-3.5,4.9-6.7,7.7-9.7c8.7-9.5,18.5-17.8,28.1-26.4c0.6-0.5,1.3-0.9,2-1.3c0.6-0.3,0.9,0,1.1,0.6
			c0.1,0.3,0.1,0.5,0.1,0.8c-0.3,1.5-0.5,3.1-0.7,4.3C219.8,780.8,218.8,783.9,217.8,787z"/>
		
			<rect x="233.5" y="762.6" transform="matrix(-0.9735 0.2287 -0.2287 -0.9735 637.0379 1457.7952)" fill="#1E1E1C" width="1.1" height="6.4"/>
		
			<rect x="233.6" y="762.6" transform="matrix(0.1394 0.9902 -0.9902 0.1394 959.8578 427.1846)" fill="#1E1E1C" width="1.1" height="6.4"/>
	</g>
	<g>
		<path fill="#F9B233" d="M147.8,837.1c6.3,7,14.3,9.5,23.1,11.1c-1.2,1.2-2.2,2.3-3.3,3.4c-2.6,2.3-5.4,4.3-8.7,5.6
			c-4.6,1.8-8.1,0.3-9.7-4.4c-0.7-2.1-1.1-4.2-1.2-6.4C147.7,843.4,147.8,840.4,147.8,837.1z"/>
		<path d="M138.9,745.7c2.4-4,0.9-8.1-3.4-9.4c-1.2-0.4-2.4-0.5-3.6-0.5c-1.1-0.1-2-0.4-2.6-1.4c-0.5-0.9-0.4-1.7,0.4-2.3
			c0.7-0.6,1.8-0.7,2.3,0c1.2,2,3.3,2.5,5.1,3.3c2.4,1.1,3.8,2.9,3.9,5.7c0.1,1.7,0.3,5.8,0.4,6.2c0,0-2.1-0.7-2.3-1.2
			C138.9,746,138.9,745.8,138.9,745.7L138.9,745.7z"/>
		<path opacity="0.7" fill="#E4E9EC" enable-background="new    " d="M161.8,767.3c0.6,0.5,1.3,0.9,1.8,1.4
			c3.8,4.2,7.9,8.3,11.5,12.7c7.7,9.3,14.8,19,20.6,29.6c2.6,4.8,5,9.7,6.1,15.1c0.5,2.5,0.8,5,0,7.6c-0.6,1.8-1.8,3-3.5,3.6
			c-2.4,0.9-4.8,0.9-7.2,0.5c-5-0.7-9.6-2.4-13.7-5.2c-1.5-1-2.4-2.3-2.6-4.3c-1.3-9.8-3.5-19.4-5.9-28.9
			c-2.3-9.2-4.6-18.3-6.8-27.5c-0.4-1.4-0.5-2.9-0.7-4.4C161.5,767.4,161.6,767.3,161.8,767.3z"/>
		<path fill="#28190F" d="M148.3,797.9c-1.8,0.6-3.8,1.7-8-1.9c-1-0.9-1.9-1.6-2.8-2.4c-1.8-1.2-2.6-1.9-3.9-5.6
			c-0.5-1.7-0.9-3.1-1.3-4.6c0-0.2-0.4-4.9,0.1-7.9c1.2-5.4,3.3-10,8.9-12c2.1-0.8,4.2-1.7,6.4-2.2c4.4-1,8.2,0.3,11.3,3.6
			c2.1,2.2,3.8,4.6,5.5,7.5c3.9,9.8,0.7,17,0.1,18.4c-1.3,2.9-4,4.9-7.2,5.4c-2.3,0.3-4.6,0.9-6.9,1.4
			C149.9,797.7,149.2,797.8,148.3,797.9z"/>
		<path fill="#683C14" d="M141.4,744.1c1.1,0.1,1.8-0.3,2.3-0.8c0.5-0.6,0.8-1.4,0.9-2.3c0.3-1.8-0.2-3.4-1.5-4.7
			c-1.1-1-2.4-1.8-3.5-2.9c-0.7-0.6-1.3-1.5-1.5-2.3c-0.3-0.9,0.3-1.7,1.4-2c1-0.2,2.1,0.3,2.1,1.3c0.1,1.9,1.1,3.2,2.3,4.5
			c2,2.3,2.5,4.9,1.4,7.7c-0.1,0.3-0.2,0.7-0.3,1c0,0,0,0.1,0,0.1c5,1.8,7.7,5.7,9.1,10.5c0.2,0.8,0.3,1.8,0.2,2.7
			c-0.1,1.6-0.8,2.8-2.5,3.4c-7.6,2.5-15.3,4.2-23.3,4.1c-1.6,0-3.3-0.3-4.8-0.8c-2.9-0.9-3.7-3-2.4-5.7c1.3-2.5,3.2-4.5,5.3-6.3
			c3.4-2.9,7-5.4,11.2-6.9C138.3,744.7,138,744.8,141.4,744.1z"/>
		<path fill="#F9B233" d="M145.1,828.6c-1.3-2.2-2-4.7-1.6-7.4c0.1-0.9,0.5-1.8,0.9-2.6c0.4-0.9,1-1,2-0.4c3.4,2,7.1,2.7,10.9,2.9
			c6.2,0.4,12.4,0.5,18.6,0.7c0.5,0,1,0,1.5,0c1.9,0,2,0.1,2.3,2c0.5,3.4,0.3,6.7-1.1,9.9c-0.7,1.6-1.8,2.8-3.6,3
			c-2.5,0.3-5,0.7-7.5,0.5c-6.2-0.3-12.1-1.6-17.6-4.5C148.1,831.7,146.4,830.5,145.1,828.6z"/>
		<path fill="#F9B233" d="M175.6,802.8c0.7,1.7,1.4,3.3,2,5c0.8,2.3,0.1,3.7-2.3,4.1c-9.2,1.8-18.3,1.5-27-2.1
			c-2.6-1-4.6-2.7-5.3-5.6c-0.6-2.7,0.1-4.4,2.5-5.7c4.5-2.4,9.4-2.8,14.4-2.7c3.8,0.1,7.5,0.8,10.9,2.7
			C172.7,799.5,174.3,800.9,175.6,802.8z"/>
		<path fill="#28190F" d="M144.4,817.5c-1.3-3.1-1.6-6.1-0.2-8.9c0.6-1.3,1.1-1.4,2.3-0.5c3,2.3,6.6,3.2,10.3,3.9
			c6.5,1.1,12.9,1.4,19.3-0.3c1.7-0.4,2.5,0.2,3.3,1.2c1.9,2.4,2,6.3,0.3,8.9c-0.2,0.3-0.7,0.6-1,0.6c-7.2,0.1-14.4,0.5-21.5-0.8
			c-3.5-0.6-7-1.8-10.4-2.9C145.7,818.5,145,817.9,144.4,817.5z"/>
		<path fill="#28190F" d="M146,829.7c1,0.8,1.9,1.5,2.8,2c4.4,2.6,9.3,4,14.3,4.7c4.1,0.6,8.3,0.9,12.4-0.1c0.3-0.1,0.8,0.1,0.9,0.4
			c0.3,0.8,0.6,1.7,0.5,2.4c-0.7,3.9-3,6.9-5.9,9.5c-0.2,0.2-0.7,0.3-0.9,0.2c-5.4-1.4-10.8-2.6-15.8-5.3c-2.6-1.4-4.9-3.2-6.7-5.7
			C146,835.4,146,832.6,146,829.7z"/>
		<path fill="#683C14" d="M144.6,791c1-0.6,2.4-0.6,3.4,0.1c1,0.7,1.4,1.7,1,2.7c-0.6,1.6-1.2,3.2-2.1,4.6c-2,3.1-4,6.1-5,9.7
			c-0.4,1.6-0.7,3.3-1,4.9c-0.1,1-0.6,1.7-1.6,1.8c-1,0.1-1.2-0.7-1.5-1.5c-1.3-3.4-0.9-6.7,0.1-10c1.2-4.1,2.9-8,5.7-11.4
			c0.2-0.2,0.4-0.4,0.5-0.6C144.3,791.2,144.5,791.1,144.6,791z"/>
		<path fill="#28190F" d="M123.9,830.8c0.3-3.4,0.8-6.8,1.3-10.2c0.2-1,1-1.2,1.9-1.2c1.3,0,2.3,0.7,2.6,1.9c0.5,2.3,1,4.6,1.4,7
			c0.3,1.7,0.4,3.5,0.4,5.3c0,1.3-0.3,2.7-1.9,3c-1.7,0.4-3.2-0.1-4.4-1.5c-0.1-0.2-0.2-0.3-0.4-0.5
			C124.7,834.7,123.8,832.1,123.9,830.8z"/>
		<path fill="#683C14" d="M138.3,780c-2.7,1.1-5.3,2.3-8,3.4c-0.8,0.3-1.8,0.4-2.8,0.4c-1.3,0-2.1-0.8-2.4-2
			c-0.3-1.3,0.3-2.7,1.3-3.2c3.6-1.6,7.3-3.2,11-4.7c0.8-0.3,1.9-0.1,2.7,0.2c1.6,0.6,1.7,2.2,0.8,3.5
			C140.3,779,138.3,779.9,138.3,780z"/>
		<path fill="#683C14" d="M136.5,793.5c-1.4,0.8-2.4,1.4-3.4,1.9c-1.3,0.7-2.4,0.5-3-0.4c-0.7-0.9-0.5-2.3,0.5-3.3
			c1.8-1.8,3.7-3.5,5.6-5.3c1-0.9,2-1.8,3-2.8c0.6-0.6,1.4-0.7,2-0.1c0.8,0.8,1.5,1.7,2,2.6c0.4,0.8,0.1,1.8-0.7,2.4
			C140.2,790.4,138.1,792.2,136.5,793.5z"/>
		<path fill="#28190F" d="M129.7,824.3c-0.3-2.2-1.4-3.6-3.2-4.6c3.8-2.5,7.5-4.9,11.4-7.4c0,1.3,0.1,2.6,2,2.4
			C136.9,818.5,133.6,821.5,129.7,824.3z"/>
		<path fill="#28190F" d="M118.7,774.7c-0.2-2.1,1-3.5,3.1-3.2c1.1,0.2,2.4,0.7,3.2,1.5c1.2,1.2,1.9,2.7,2.8,4.1
			c0.1,0.2,0,0.8-0.1,0.9c-1.5,1-2.1,2.5-2.2,4.5c-1.1-1.7-2-3.1-2.9-4.5c-0.7-1-2-1.4-2.4-2.7C120,775,119.2,774.9,118.7,774.7z"/>
		<path fill="#28190F" d="M122.9,795.8c0,0.3,0.1,0.8,0,1.2c-0.6,2-1.2,4.1-1.9,6.1c-0.3,0.8-0.8,1.5-1.8,1.5
			c-1.1,0-2.4-0.9-2.6-1.9c-0.1-0.7-0.2-1.5,0-2c0.8-1.9,1.7-3.8,2.7-5.6C119.8,794.1,122.6,794.5,122.9,795.8z"/>
		<path fill="#28190F" d="M120.8,794.6c3.4-0.8,6.4-1.6,9.3-2.3c0.3,1.2,0.5,2.3,0.8,3.4c-3.3,2.2-7.9,4-9.5,3.6
			C122.9,797.7,122.5,796.2,120.8,794.6z"/>
		<path fill="#28190F" d="M114.1,785.7c-0.6-0.7-0.2-1.7-0.1-2.2c0.4-3.1,1.7-5.8,3.8-8.1c0.3-0.4,0.7-0.7,1.2-0.9
			c0.4-0.1,1.1-0.1,1.2,0.1c0.2,0.4,0.4,1.2,0.2,1.4c-2.2,2.5-3.1,5.6-3.9,8.7c-0.1,0.4-0.4,1-0.8,1.1
			C115.3,786,115,786.3,114.1,785.7z"/>
		<path fill="#28190F" d="M118.6,803.8c0.2,0,0.6-0.1,0.8,0.1c0.2,0.2,0.3,0.7,0.2,1c-0.6,1.8-1.2,3.6-1.9,5.3
			c-0.1,0.3-0.6,0.7-0.8,0.7c-0.6,0-0.9-0.6-1-0.9C115.5,808.3,117.2,804.6,118.6,803.8z"/>
		<path d="M143.7,743.3c0.5-0.6,0.8-1.4,0.9-2.3c0.3-1.8-0.2-3.4-1.5-4.7c-1.1-1-2.4-1.8-3.5-2.9c-0.7-0.6-1.3-1.5-1.5-2.3
			c-0.3-0.9,0.3-1.7,1.4-2c1-0.2,2.1,0.3,2.1,1.3c0.1,1.9,1.1,3.2,2.3,4.5c1.9,2.2,2.5,4.8,1.4,7.7c-0.1,0.3-0.2,0.7-0.3,1
			c0,0,0,0.1,0,0.1C145.5,744.5,143.2,743.9,143.7,743.3z"/>
		<path fill="#28190F" d="M128.9,835.6c0.2,0.1,0.7,0.1,0.9,0.4c0.2,0.3,0.1,0.9-0.1,1.2c-1.2,1.8-2.4,3.6-3.7,5.3
			c-0.2,0.3-0.9,0.6-1.1,0.5c-0.7-0.2-0.8-0.9-0.8-1.3C124.1,839.7,127.2,836.2,128.9,835.6z"/>
		<path opacity="0.7" fill="#E4E9EC" enable-background="new    " d="M153.4,776.4c0.2-2,0.4-4.5,0.6-7.1c0.1-0.4,0.2-0.8,0.4-1.2
			c0.5-1,1.2-1.2,2-0.5c1,0.9,2,1.8,2.7,2.9c11.7,17.5,23.8,34.8,33.7,53.5c3.2,6,6.2,12.1,8.2,18.6c0.8,2.6,1.6,5.3,1,8
			c-0.2,1-0.7,2-1.3,2.8c-3.2,3.7-7.5,4.6-12.2,4c-4.6-0.6-8.7-2.6-12.7-5.1c-3.9-2.4-7.3-5.3-10.5-8.5c-3.2-3.2-5.2-6.8-5.8-11.4
			c-1.1-7.9-2.7-15.7-3.8-23.6c-0.7-5.2-1.1-10.4-1.4-15.7C153.9,787.7,153.7,782.3,153.4,776.4z"/>
		
			<rect x="136.3" y="747.4" transform="matrix(0.8848 0.4659 -0.4659 0.8848 366.4404 22.7423)" fill="#1E1E1C" width="1.8" height="10.5"/>
		
			<rect x="136.2" y="747.4" transform="matrix(-0.3837 0.9234 -0.9234 -0.3837 884.6946 914.8959)" fill="#1E1E1C" width="1.8" height="10.5"/>
	</g>
	<g>
		<path fill="#F9B233" d="M107.3,783.5c-9.4,0.7-16.2,5.6-22.9,11.5c-0.2-1.6-0.5-3.1-0.7-4.7c-0.3-3.5-0.1-6.9,0.9-10.3
			c1.4-4.7,4.7-6.6,9.4-5c2,0.7,4,1.7,5.8,2.9C102.3,779.6,104.7,781.5,107.3,783.5z"/>
		<path d="M185.2,832.2c1.7,4.3,5.9,5.7,9.6,3.1c1-0.7,1.8-1.6,2.7-2.5c0.8-0.8,1.6-1.4,2.7-1.2c1,0.1,1.6,0.7,1.6,1.7
			c0,1-0.5,1.9-1.4,1.8c-2.3-0.2-3.9,1.1-5.8,2c-2.4,1.3-4.7,1.2-6.9-0.4c-1.4-1-4.8-3.3-5.2-3.5c0,0,1.8-1.3,2.3-1.1
			C184.9,832.1,185,832.2,185.2,832.2L185.2,832.2z"/>
		<path opacity="0.7" fill="#E4E9EC" enable-background="new    " d="M154.1,837.2c-0.7,0.2-1.5,0.5-2.2,0.6
			c-5.7,0.5-11.4,1.1-17.1,1.4c-12.1,0.5-24.1,0.2-36.1-1.7c-5.4-0.9-10.7-2-15.7-4.4c-2.3-1.1-4.5-2.4-6-4.7
			c-1.1-1.6-1.3-3.2-0.7-5c0.7-2.4,2.3-4.3,4-6c3.6-3.5,7.7-6.1,12.5-7.7c1.7-0.6,3.3-0.5,5,0.5c8.5,5,17.5,9,26.5,13
			c8.7,3.8,17.3,7.6,25.9,11.4c1.4,0.6,2.6,1.4,3.9,2.2C154.2,836.9,154.1,837.1,154.1,837.2z"/>
		<path fill="#28190F" d="M138,807.8c0.7-1.8,0.9-4,6.4-5.2c1.3-0.2,2.4-0.5,3.6-0.7c2.1-0.7,3.1-0.9,6.8,0.3
			c1.6,0.6,3.1,1.2,4.4,1.8c0.2,0.1,4.1,2.7,6.2,4.9c3.5,4.3,5.9,8.7,4.1,14.4c-0.7,2.1-1.3,4.3-2.2,6.4c-1.9,4.1-5.3,6.3-9.7,6.8
			c-3,0.4-6,0.2-9.3-0.2c-10.2-2.9-13.9-9.8-14.7-11.1c-1.5-2.8-1.4-6.2,0.1-9c1.2-2,2.1-4.2,3.1-6.3
			C137.3,809.3,137.6,808.6,138,807.8z"/>
		<path fill="#683C14" d="M184.9,835.2c-0.7,0.8-0.9,1.6-0.7,2.3c0.1,0.7,0.6,1.4,1.2,2.1c1.3,1.3,2.8,1.9,4.6,1.7
			c1.5-0.2,2.9-0.8,4.4-1c0.9-0.1,1.9-0.1,2.8,0.2c0.9,0.4,1.2,1.3,0.7,2.3c-0.4,0.9-1.5,1.4-2.3,0.9c-1.6-1-3.2-1.1-5-1
			c-3,0.2-5.4-1-7-3.6c-0.2-0.3-0.4-0.6-0.6-0.8c0,0-0.1,0-0.1,0c-4.5,2.9-9.2,2.6-13.9,0.8c-0.8-0.3-1.6-0.8-2.2-1.4
			c-1.2-1.1-1.7-2.4-1.1-4.1c2.6-7.5,6-14.7,10.9-21c1-1.3,2.2-2.4,3.5-3.3c2.5-1.8,4.7-1.1,6,1.6c1.2,2.5,1.6,5.3,1.7,8
			c0.3,4.5,0,8.9-1.4,13.1C186.3,832.4,186.4,832.1,184.9,835.2z"/>
		<path fill="#F9B233" d="M115.7,786.6c2.5,0.3,4.9,1.3,6.9,3.3c0.6,0.6,1.1,1.5,1.5,2.3c0.4,0.9,0.2,1.4-0.9,1.8
			c-3.6,1.5-6.5,4-9,6.9c-4.1,4.7-8,9.6-11.9,14.3c-0.3,0.4-0.6,0.8-0.9,1.2c-1.2,1.5-1.3,1.6-3,0.6c-3-1.7-5.5-3.9-7.2-7
			c-0.9-1.5-1.1-3.1-0.2-4.7c1.3-2.1,2.5-4.4,4.2-6.3c4-4.7,8.7-8.6,14.3-11.2C111.4,787,113.4,786.4,115.7,786.6z"/>
		<path fill="#F9B233" d="M117.5,826.5c-1.7-0.5-3.5-0.8-5.1-1.5c-2.3-0.8-2.9-2.2-1.9-4.3c4.2-8.4,10-15.4,18.2-20.1
			c2.4-1.4,5-2,7.7-0.8c2.5,1.2,3.4,2.7,3,5.5c-0.8,5.1-3.5,9.2-6.7,13c-2.4,3-5.2,5.5-8.8,7C121.9,826.2,119.8,826.6,117.5,826.5z"
			/>
		<path fill="#28190F" d="M125,792.7c3.3,0.9,5.8,2.4,7.2,5.3c0.7,1.3,0.4,1.7-1,2.1c-3.7,1-6.6,3.3-9.3,5.8
			c-4.8,4.5-9,9.4-11.6,15.5c-0.7,1.6-1.6,1.8-3,1.9c-3.1,0-6.2-2.3-7.2-5.2c-0.1-0.4-0.1-0.9,0.1-1.2c4.3-5.8,8.4-11.7,13.7-16.6
			c2.7-2.4,5.7-4.4,8.6-6.5C123.4,793.2,124.3,793,125,792.7z"/>
		<path fill="#28190F" d="M114.3,786.6c-1.2,0.4-2.3,0.6-3.3,1c-4.8,1.9-8.8,5-12.5,8.5c-3,2.9-5.7,6-7.5,9.9
			c-0.1,0.3-0.6,0.6-0.8,0.5c-0.8-0.3-1.7-0.5-2.2-1.1c-2.7-3-3.7-6.6-4-10.5c0-0.3,0.2-0.7,0.4-0.9c4.4-3.4,8.7-7,13.8-9.3
			c2.7-1.2,5.6-2,8.6-1.8C109.7,783.1,112,784.8,114.3,786.6z"/>
		<path fill="#683C14" d="M145.8,809.1c-0.1,1.2-1,2.3-2.2,2.7c-1.1,0.4-2.2,0.1-2.8-0.9c-0.9-1.4-1.8-2.9-2.3-4.5
			c-1.3-3.5-2.4-6.9-4.6-9.9c-1-1.3-2.2-2.5-3.3-3.8c-0.7-0.7-1-1.5-0.4-2.4c0.5-0.9,1.3-0.5,2.1-0.2c3.5,1,5.9,3.4,7.9,6.2
			c2.5,3.5,4.6,7.2,5.5,11.5c0,0.3,0.1,0.6,0.1,0.8C145.8,808.8,145.8,809,145.8,809.1z"/>
		<path fill="#28190F" d="M126.9,768.4c2.5,2.3,4.9,4.7,7.3,7.2c0.7,0.7,0.3,1.5-0.2,2.2c-0.8,1.1-1.9,1.4-3.1,0.9
			c-2.1-1-4.3-2-6.4-3.2c-1.5-0.9-3-1.8-4.4-2.9c-1-0.8-2-1.9-1.3-3.3c0.7-1.6,2.1-2.5,3.8-2.6c0.2,0,0.4,0,0.6,0
			C123.3,766.7,125.9,767.6,126.9,768.4z"/>
		<path fill="#683C14" d="M158.3,810.8c0.7-2.8,1.4-5.6,2.2-8.4c0.3-0.9,0.8-1.7,1.4-2.4c0.8-1,1.9-1.2,3-0.7c1.2,0.6,2,1.9,1.7,3
			c-0.9,3.9-1.9,7.8-3,11.6c-0.2,0.8-1.1,1.5-1.8,2c-1.4,0.9-2.8,0-3.3-1.5C157.9,813,158.4,810.8,158.3,810.8z"/>
		<path fill="#683C14" d="M148.7,801.1c0.2-1.6,0.3-2.8,0.5-3.9c0.3-1.5,1-2.2,2.2-2.2c1.2,0,2.1,1,2.3,2.4c0.3,2.5,0.5,5.1,0.7,7.6
			c0.1,1.4,0.2,2.7,0.4,4.1c0.1,0.9-0.3,1.6-1.1,1.6c-1.1,0.1-2.2,0.2-3.3-0.1c-0.9-0.2-1.5-1-1.5-2
			C148.9,806,148.8,803.3,148.7,801.1z"/>
		<path fill="#28190F" d="M128.5,777c1.9,1.1,3.7,1.1,5.6,0.3c-0.4,4.6-0.7,8.9-1.1,13.5c-1-0.8-2.1-1.5-3.2,0.1
			C128.7,786.2,128.3,781.8,128.5,777z"/>
		<path fill="#28190F" d="M174.5,798.6c1.8,1.1,2.2,2.9,0.6,4.4c-0.8,0.8-2,1.5-3.1,1.6c-1.6,0.2-3.3-0.1-4.9-0.3
			c-0.2,0-0.7-0.5-0.6-0.7c0.1-1.8-0.6-3.2-2.2-4.5c2,0.2,3.7,0.3,5.4,0.4c1.2,0.1,2.3-0.7,3.6-0.2
			C173.5,799.4,174,798.9,174.5,798.6z"/>
		<path fill="#28190F" d="M155.2,789c-0.2-0.2-0.7-0.4-0.9-0.8c-1.2-1.7-2.5-3.5-3.6-5.2c-0.5-0.7-0.7-1.6-0.1-2.4
			c0.7-0.8,2.2-1.3,3.1-0.9c0.6,0.3,1.3,0.7,1.6,1.2c1,1.8,2,3.7,2.8,5.6C158.5,787.5,156.4,789.6,155.2,789z"/>
		<path fill="#28190F" d="M157.5,788c-1.4,3.2-2.7,6-3.9,8.8c-1.1-0.5-2.1-1-3.2-1.4c0.3-4,1.7-8.7,3-9.8
			C153.7,787.8,155.2,788.4,157.5,788z"/>
		<path fill="#28190F" d="M168.5,788.2c0.9-0.1,1.5,0.8,1.8,1.2c2.2,2.2,3.6,4.9,4.1,7.9c0.1,0.5,0.1,1,0,1.5
			c-0.1,0.4-0.5,0.9-0.8,0.9c-0.4,0-1.2-0.4-1.3-0.7c-0.7-3.3-2.5-5.9-4.5-8.4c-0.2-0.3-0.6-0.9-0.4-1.3
			C167.6,788.9,167.6,788.5,168.5,788.2z"/>
		<path fill="#28190F" d="M151.6,780.7c-0.1,0.1-0.3,0.6-0.6,0.6c-0.3,0-0.7-0.2-0.9-0.5c-1.1-1.6-2.1-3.2-3-4.8
			c-0.2-0.3-0.2-0.9,0-1c0.4-0.5,1-0.3,1.3-0.2C149.9,775.5,151.7,779.1,151.6,780.7z"/>
		<path d="M184.1,837.5c0.1,0.7,0.6,1.4,1.2,2.1c1.3,1.3,2.8,1.9,4.6,1.7c1.5-0.2,2.9-0.8,4.4-1c0.9-0.1,1.9-0.1,2.8,0.2
			c0.9,0.4,1.2,1.3,0.7,2.3c-0.4,0.9-1.5,1.4-2.3,0.9c-1.6-1-3.2-1.1-5-1c-3,0.2-5.4-1-7-3.6c-0.2-0.3-0.4-0.6-0.6-0.8
			c0,0-0.1,0-0.1,0C182.1,838.3,184,836.8,184.1,837.5z"/>
		<path fill="#28190F" d="M120,769.4c-0.2,0.1-0.5,0.5-0.8,0.5c-0.3-0.1-0.8-0.4-0.9-0.8c-0.7-2.1-1.4-4.1-2-6.2
			c-0.1-0.4,0.1-1.1,0.3-1.1c0.6-0.5,1.2-0.1,1.5,0.2C119.7,763.2,120.6,767.7,120,769.4z"/>
		<path opacity="0.7" fill="#E4E9EC" enable-background="new    " d="M152,825c1.5,1.3,3.3,3,5.2,4.8c0.3,0.3,0.5,0.7,0.7,1.1
			c0.5,1,0.2,1.7-0.8,1.9c-1.3,0.3-2.6,0.5-3.9,0.4c-21-1.4-42.1-2.4-62.9-5.9c-6.7-1.1-13.4-2.4-19.8-4.8c-2.6-1-5.1-2-7-4.1
			c-0.6-0.8-1.2-1.8-1.4-2.7c-1-4.8,0.9-8.8,4.3-12.1c3.3-3.3,7.4-5.3,11.8-6.9c4.3-1.6,8.7-2.5,13.1-3.2c4.5-0.6,8.5,0,12.6,2.3
			c6.9,4,14.1,7.5,21,11.4c4.5,2.6,8.9,5.5,13.3,8.4C142.7,818.5,147.1,821.6,152,825z"/>
		
			<rect x="179.8" y="821.4" transform="matrix(-0.9091 0.4166 -0.4166 -0.9091 689.3312 1502.9365)" fill="#1E1E1C" width="1.8" height="10.5"/>
		
			<rect x="179.9" y="821.3" transform="matrix(-0.4973 -0.8676 0.8676 -0.4973 -446.4393 1394.4089)" fill="#1E1E1C" width="1.8" height="10.5"/>
	</g>
	<g>
		<path fill="#F9B233" d="M176.6,857.7c-6.5,6.9-8.2,15.1-9.1,24c-1.3-1-2.5-2-3.7-3c-2.5-2.4-4.7-5-6.3-8.2c-2.2-4.4-1-8,3.6-10
			c2-0.9,4.1-1.4,6.2-1.8C170.3,858.2,173.3,858,176.6,857.7z"/>
		<path d="M266.9,840.9c4.2,2,8.2,0.2,9.1-4.2c0.3-1.2,0.2-2.4,0.2-3.7c0-1.1,0.2-2.1,1.2-2.7c0.8-0.6,1.6-0.6,2.3,0.2
			c0.7,0.7,0.9,1.7,0.2,2.3c-1.8,1.4-2.2,3.5-2.9,5.4c-0.9,2.5-2.6,4.1-5.3,4.4c-1.7,0.2-5.8,0.8-6.2,0.9c0,0,0.5-2.2,1-2.4
			C266.7,841.1,266.8,841,266.9,840.9L266.9,840.9z"/>
		<path opacity="0.7" fill="#E4E9EC" enable-background="new    " d="M247.4,865.7c-0.4,0.6-0.7,1.4-1.2,1.9
			c-3.9,4.2-7.6,8.5-11.6,12.6c-8.6,8.5-17.7,16.4-27.8,23.1c-4.6,3-9.2,5.8-14.5,7.4c-2.5,0.7-5,1.2-7.6,0.6
			c-1.9-0.4-3.1-1.5-3.9-3.2c-1.1-2.3-1.3-4.7-1.1-7.2c0.3-5,1.6-9.7,4-14.1c0.9-1.6,2.1-2.6,4-3c9.6-2.1,19-5.2,28.3-8.3
			c9-3,17.9-6.1,26.8-9.1c1.4-0.5,2.9-0.7,4.3-1.1C247.3,865.3,247.4,865.5,247.4,865.7z"/>
		<path fill="#28190F" d="M215.7,854.9c-0.7-1.8-2.1-3.6,1.2-8.2c0.8-1,1.4-2,2.2-3c1-1.9,1.6-2.7,5.2-4.4c1.6-0.6,3-1.2,4.5-1.6
			c0.2-0.1,4.8-0.8,7.9-0.6c5.5,0.8,10.3,2.4,12.7,7.8c0.9,2,2,4,2.7,6.2c1.4,4.3,0.4,8.2-2.6,11.6c-2,2.3-4.3,4.2-7,6.2
			c-9.5,4.7-16.9,2.2-18.4,1.7c-3-1-5.2-3.6-6-6.7c-0.5-2.3-1.3-4.5-1.9-6.8C216.1,856.5,216,855.7,215.7,854.9z"/>
		<path fill="#683C14" d="M268.8,843.4c0,1.1,0.4,1.7,1,2.2c0.6,0.5,1.4,0.6,2.4,0.7c1.8,0.1,3.4-0.5,4.5-1.9
			c0.9-1.2,1.6-2.5,2.6-3.7c0.6-0.7,1.3-1.4,2.2-1.7c0.9-0.3,1.7,0.2,2.1,1.2c0.3,0.9-0.1,2.1-1.1,2.2c-1.9,0.3-3.1,1.4-4.3,2.7
			c-2.1,2.1-4.6,2.9-7.6,2.1c-0.3-0.1-0.7-0.1-1-0.2c0,0-0.1,0-0.1,0c-1.3,5.2-5,8.1-9.7,10c-0.8,0.3-1.7,0.5-2.6,0.5
			c-1.6,0-2.9-0.6-3.6-2.2c-3.2-7.3-5.5-14.9-6.1-22.9c-0.1-1.6,0-3.3,0.3-4.9c0.6-3,2.7-4,5.5-2.8c2.6,1,4.8,2.8,6.7,4.7
			c3.2,3.1,6,6.5,7.9,10.6C267.9,840.3,267.8,840.1,268.8,843.4z"/>
		<path fill="#F9B233" d="M184.9,854.3c2.1-1.4,4.5-2.4,7.3-2.2c0.9,0,1.8,0.4,2.7,0.7c0.9,0.4,1.1,0.9,0.6,1.9
			c-1.7,3.5-2.1,7.3-2,11.2c0.1,6.2,0.6,12.4,0.9,18.6c0,0.5,0.1,1,0.1,1.5c0.1,1.9,0.1,2.1-1.8,2.5c-3.4,0.8-6.7,0.8-10-0.3
			c-1.7-0.5-2.9-1.6-3.3-3.3c-0.5-2.5-1.1-5-1.2-7.4c-0.2-6.2,0.6-12.2,2.9-17.9C182.1,857.6,183.1,855.8,184.9,854.3z"/>
		<path fill="#F9B233" d="M213.2,882.5c-1.6,0.8-3.1,1.7-4.8,2.4c-2.2,1-3.6,0.4-4.3-1.9c-2.6-9-3-18.1-0.2-27.1
			c0.8-2.6,2.3-4.8,5.2-5.8c2.7-0.9,4.4-0.3,5.9,2c2.8,4.3,3.6,9.1,3.9,14.1c0.2,3.8-0.1,7.5-1.7,11.1
			C216.3,879.3,215,881.1,213.2,882.5z"/>
		<path fill="#28190F" d="M195.9,852.6c3-1.6,5.9-2.1,8.9-1c1.4,0.5,1.5,1,0.7,2.2c-2,3.2-2.7,6.9-3,10.6c-0.5,6.5-0.3,13,1.9,19.2
			c0.6,1.6,0,2.5-0.9,3.4c-2.2,2.1-6.1,2.5-8.8,1c-0.3-0.2-0.6-0.6-0.7-0.9c-0.8-7.2-1.7-14.3-1.1-21.5c0.3-3.6,1.2-7.1,1.9-10.6
			C195,854,195.6,853.2,195.9,852.6z"/>
		<path fill="#28190F" d="M183.9,855.3c-0.7,1.1-1.3,2-1.8,3c-2.3,4.6-3.1,9.6-3.5,14.7c-0.3,4.2-0.2,8.3,1.2,12.4
			c0.1,0.3-0.1,0.9-0.3,1c-0.8,0.3-1.6,0.8-2.4,0.7c-4-0.4-7.2-2.4-10-5c-0.2-0.2-0.3-0.6-0.3-0.9c1-5.5,1.7-11,3.9-16.2
			c1.2-2.8,2.8-5.2,5.1-7.1C178.2,855.8,181,855.5,183.9,855.3z"/>
		<path fill="#683C14" d="M222.3,850.6c0.7,0.9,0.8,2.4,0.2,3.4c-0.6,1-1.6,1.5-2.6,1.2c-1.6-0.4-3.3-1-4.8-1.7
			c-3.3-1.7-6.4-3.5-10.1-4.1c-1.6-0.3-3.3-0.4-5-0.5c-1-0.1-1.8-0.5-1.9-1.5c-0.2-1,0.6-1.2,1.4-1.6c3.2-1.6,6.6-1.5,10-0.8
			c4.2,0.9,8.2,2.2,11.8,4.7c0.2,0.2,0.4,0.3,0.6,0.5C222.1,850.3,222.2,850.5,222.3,850.6z"/>
		<path fill="#28190F" d="M180.9,833.4c3.4,0,6.8,0.2,10.2,0.4c1,0.1,1.3,0.9,1.3,1.8c0.1,1.3-0.5,2.3-1.7,2.7
			c-2.3,0.7-4.5,1.4-6.8,2c-1.7,0.4-3.5,0.7-5.2,0.9c-1.3,0.1-2.7-0.1-3.2-1.6c-0.5-1.6-0.2-3.2,1.1-4.5c0.1-0.1,0.3-0.3,0.4-0.4
			C177,834.5,179.6,833.4,180.9,833.4z"/>
		<path fill="#683C14" d="M232.7,843.3c-1.3-2.6-2.8-5.1-4.1-7.7c-0.4-0.8-0.5-1.8-0.6-2.7c-0.1-1.3,0.6-2.2,1.8-2.5
			c1.3-0.4,2.7,0,3.3,1.1c1.9,3.5,3.9,7,5.6,10.6c0.4,0.7,0.3,1.9,0,2.7c-0.5,1.6-2,1.9-3.4,1.1
			C233.9,845.3,232.8,843.3,232.7,843.3z"/>
		<path fill="#683C14" d="M219.1,842.7c-0.9-1.4-1.6-2.2-2.2-3.2c-0.8-1.3-0.7-2.3,0.1-3.1c0.9-0.8,2.3-0.7,3.3,0.2
			c1.9,1.7,3.8,3.4,5.7,5.1c1,0.9,2,1.8,3,2.7c0.7,0.6,0.8,1.4,0.3,1.9c-0.7,0.8-1.5,1.6-2.5,2.2c-0.8,0.5-1.7,0.3-2.4-0.5
			C222.5,846.2,220.6,844.2,219.1,842.7z"/>
		<path fill="#28190F" d="M187.8,838.6c2.2-0.5,3.5-1.7,4.4-3.6c2.8,3.6,5.5,7,8.3,10.7c-1.3,0.1-2.5,0.3-2.3,2.2
			C194.3,845.3,190.9,842.3,187.8,838.6z"/>
		<path fill="#28190F" d="M236.3,823.4c2.1-0.4,3.6,0.7,3.4,2.8c-0.1,1.1-0.5,2.4-1.2,3.3c-1.1,1.3-2.5,2.2-3.8,3.1
			c-0.2,0.1-0.8,0.1-0.9-0.1c-1.1-1.4-2.6-1.9-4.7-1.8c1.6-1.2,2.9-2.2,4.3-3.3c0.9-0.8,1.2-2.1,2.5-2.6
			C236.2,824.6,236.2,823.9,236.3,823.4z"/>
		<path fill="#28190F" d="M215.7,829.4c-0.3,0-0.8,0.1-1.2,0.1c-2.1-0.5-4.1-0.9-6.2-1.4c-0.9-0.2-1.6-0.7-1.6-1.7
			c0-1.1,0.7-2.5,1.6-2.7c0.6-0.2,1.4-0.3,2-0.2c2,0.6,3.9,1.4,5.8,2.2C217.1,826.1,216.9,829,215.7,829.4z"/>
		<path fill="#28190F" d="M216.7,827.1c1.1,3.3,2.1,6.2,3.1,9.1c-1.2,0.4-2.2,0.7-3.3,1.1c-2.5-3.1-4.7-7.5-4.4-9.2
			C213.8,829.5,215.2,829,216.7,827.1z"/>
		<path fill="#28190F" d="M224.9,819.8c0.7-0.7,1.7-0.4,2.2-0.3c3.1,0.2,5.9,1.2,8.4,3.1c0.4,0.3,0.8,0.7,1,1.1c0.2,0.3,0.2,1,0,1.2
			c-0.3,0.3-1.1,0.5-1.4,0.3c-2.7-2-5.8-2.6-9-3.2c-0.4-0.1-1.1-0.3-1.2-0.7C224.8,820.9,224.4,820.7,224.9,819.8z"/>
		<path fill="#28190F" d="M207.4,825.7c0,0.2,0.1,0.6,0,0.8c-0.2,0.2-0.7,0.4-1,0.3c-1.9-0.4-3.7-0.9-5.5-1.5
			c-0.3-0.1-0.8-0.6-0.7-0.7c-0.1-0.6,0.5-0.9,0.9-1C202.6,823,206.4,824.5,207.4,825.7z"/>
		<path d="M269.7,845.6c0.6,0.5,1.4,0.6,2.4,0.7c1.8,0.1,3.4-0.5,4.5-1.9c0.9-1.2,1.6-2.5,2.6-3.7c0.6-0.7,1.3-1.4,2.2-1.7
			c0.9-0.3,1.7,0.2,2.1,1.2c0.3,0.9-0.1,2.1-1.1,2.2c-1.9,0.3-3.1,1.4-4.3,2.7c-2.1,2.1-4.6,2.9-7.6,2.1c-0.3-0.1-0.7-0.1-1-0.2
			c0,0-0.1,0-0.1,0C268.8,847.5,269.1,845.2,269.7,845.6z"/>
		<path fill="#28190F" d="M176.5,838.8c-0.1,0.2,0,0.7-0.3,0.9c-0.3,0.2-0.9,0.2-1.2,0c-1.9-1-3.8-2.1-5.6-3.3
			c-0.3-0.2-0.7-0.9-0.6-1c0.1-0.7,0.8-0.9,1.3-0.9C172,834.4,175.8,837.1,176.5,838.8z"/>
		<path opacity="0.7" fill="#E4E9EC" enable-background="new    " d="M237.6,858.1c2,0,4.5,0,7.1,0c0.4,0,0.8,0.1,1.2,0.3
			c1,0.4,1.3,1.1,0.7,1.9c-0.8,1.1-1.6,2.1-2.6,2.9c-16.5,13.2-32.6,26.7-50.4,38.2c-5.7,3.7-11.5,7.3-17.8,9.8
			c-2.5,1-5.1,2-7.9,1.7c-1-0.1-2.1-0.5-2.9-1.1c-4-2.9-5.2-7.1-5-11.8c0.2-4.7,1.9-8.9,4-13.1c2.1-4,4.7-7.7,7.6-11.2
			c2.9-3.5,6.3-5.8,10.8-6.8c7.8-1.8,15.4-4,23.2-5.8c5.1-1.2,10.3-2,15.5-2.8C226.4,859.6,231.7,858.9,237.6,858.1z"/>
		
			<rect x="259" y="834.6" transform="matrix(-0.3881 0.9216 -0.9216 -0.3881 1134.8483 926.3518)" fill="#1E1E1C" width="1.8" height="10.5"/>
		
			<rect x="259" y="834.5" transform="matrix(-0.953 -0.3029 0.3029 -0.953 253.1308 1718.7958)" fill="#1E1E1C" width="1.8" height="10.5"/>
	</g>
	<g>
		<path fill="#F9B233" d="M180.9,809.7c2.4-0.8,5-1.3,7.5-1.5c5.9-0.3,9,2.8,9.1,8.6c0.1,4.1-0.8,8.1-2.2,12
			c-0.6,1.7-1.5,3.3-2.2,5.1c-5.7-8.8-11.9-16.6-22.4-20.3C174.3,812.2,177.6,810.8,180.9,809.7z"/>
		<path d="M66.8,844.3c0.2,0,0.3-0.1,0.5-0.1c0.6,0,2.3,2,2.3,2c-0.4,0.1-5.1,1.7-7,2.4c-3,1.1-5.6,0.4-8-1.8
			c-1.8-1.7-3.2-3.7-5.9-4.2c-1-0.2-1.4-1.4-1-2.5c0.4-1.1,1.2-1.6,2.3-1.4c1.4,0.2,2.1,1.1,2.7,2.3c0.7,1.3,1.3,2.6,2.2,3.7
			C58.3,848.9,63.5,848.7,66.8,844.3L66.8,844.3z"/>
		<path opacity="0.7" fill="#E4E9EC" enable-background="new    " d="M100.5,859.2c1.7-0.4,3.4-1,5.1-1.2c11-1.6,22-3.1,33.1-4.7
			c11.5-1.6,23-3.4,34.2-6.4c2.2-0.6,4-0.2,5.8,1c4.9,3.3,8.8,7.6,11.8,12.7c1.5,2.5,2.6,5.2,2.7,8.1c0,2.2-0.7,4-2.4,5.4
			c-2.4,2.1-5.3,2.9-8.3,3.4c-6.4,1.2-12.8,0.8-19.2,0c-14.2-1.6-28-5.1-41.5-9.5c-6.4-2.1-12.7-4.6-19-7c-0.8-0.3-1.6-0.9-2.3-1.3
			C100.5,859.7,100.5,859.4,100.5,859.2z"/>
		<path fill="#28190F" d="M128.7,834.3c0.5,2.7,0.9,5.5,1.6,8.2c0.9,3.6,0,7.6-2.7,10.2c-1.3,1.3-7.8,7.9-20.2,8
			c-3.9-0.6-7.3-1.3-10.7-2.7c-4.9-2-8.1-5.5-8.9-10.8c-0.4-2.6-0.3-5.3-0.4-7.9c-0.3-7,3.8-11.3,9.2-15c3.1-1.9,8.4-3.6,8.6-3.6
			c1.8-0.3,3.5-0.4,5.6-0.7c4.7-0.2,5.7,0.3,7.8,1.8c1.3,0.6,2.5,1.3,3.9,1.9c5.8,3.1,5.4,5.7,5.6,8
			C128.3,832.6,128.5,833.5,128.7,834.3z"/>
		<path fill="#683C14" d="M65.4,843.7c-0.2-5.3,0.9-10.4,2.6-15.4c1-3.1,2.3-6.1,4.5-8.6c2.4-2.7,5-2.8,7.3,0c1.2,1.5,2.2,3.2,3,4.9
			c3.6,8.7,5.2,17.9,5.8,27.3c0.2,2.1-0.9,3.4-2.6,4.3c-0.9,0.5-2,0.8-3,0.9c-6,0.6-11.4-0.6-15.6-5.3c0,0-0.1,0-0.1,0
			c-0.3,0.2-0.7,0.5-1,0.8c-2.7,2.4-5.8,3-9.1,1.8c-2-0.7-3.9-1.2-6-0.5c-1.1,0.4-2.2-0.6-2.4-1.7c-0.2-1.3,0.4-2.2,1.6-2.4
			c1-0.1,2.2,0.2,3.2,0.7c1.6,0.7,3,1.8,4.7,2.5c2,0.9,4,0.7,5.8-0.4c0.9-0.6,1.7-1.2,2.1-2c0.4-0.8,0.4-1.7-0.1-2.9
			C65.4,843.8,65.4,844.1,65.4,843.7z"/>
		<path fill="#F9B233" d="M166.8,818c5.5,4.8,9.6,10.7,12.6,17.3c1.3,2.7,2,5.6,2.8,8.5c0.5,2-0.2,3.8-1.7,5.2
			c-2.9,2.9-6.4,4.7-10.4,5.6c-2.2,0.5-2.3,0.4-3.2-1.7c-0.2-0.5-0.4-1.1-0.7-1.7c-3-6.7-5.8-13.5-9-20.1c-1.9-4.1-4.4-7.9-8-10.7
			c-1-0.8-1.1-1.5-0.4-2.4c0.7-0.8,1.5-1.6,2.4-2.2c2.8-1.6,5.9-1.9,8.8-1.5C162.9,815.1,164.9,816.4,166.8,818z"/>
		<path fill="#F9B233" d="M138.5,855.9c-3.6-2.9-5.9-6.6-7.7-10.7c-2.4-5.4-4.1-10.9-3.4-16.9c0.4-3.3,1.9-4.8,5.1-5.3
			c3.5-0.5,6.2,1,8.5,3.3c7.8,8,12.2,17.8,14.2,28.6c0.5,2.8-0.6,4.2-3.5,4.3c-2.1,0.2-4.2,0-6.3,0
			C142.8,858.7,140.5,857.6,138.5,855.9z"/>
		<path fill="#28190F" d="M150,820.5c2.7,3.3,5.5,6.6,7.7,10.2c4.5,7.2,7.3,15.3,10.4,23.2c0.1,0.4,0,1-0.2,1.4
			c-2,3-6.4,4.6-9.8,3.6c-1.5-0.4-2.5-1.1-2.8-3.1c-1-7.7-4.2-14.7-8.3-21.2c-2.3-3.7-4.9-7.2-8.8-9.5c-1.5-0.9-1.6-1.4-0.4-2.7
			c2.5-2.8,5.9-3.8,9.9-3.7C148.4,819.1,149.4,819.6,150,820.5z"/>
		<path fill="#28190F" d="M171.5,813.3c3.5,0.8,6.5,2.5,9.2,4.8c5.1,4.3,8.8,9.7,12.7,14.9c0.2,0.3,0.3,0.8,0.2,1.1
			c-1.6,4.3-3.9,8.1-7.9,10.6c-0.8,0.5-1.9,0.5-2.9,0.5c-0.3,0-0.7-0.5-0.8-0.9c-0.7-5-2.8-9.4-5.3-13.6c-3.1-5.2-6.7-9.9-11.5-13.6
			c-1-0.8-2.2-1.4-3.5-2.2C165,813.7,168,812.5,171.5,813.3z"/>
		<path fill="#683C14" d="M119,830c0.1-0.3,0.3-0.6,0.4-0.9c2.4-4.5,6-8.1,9.9-11.3c3.2-2.5,6.7-4.4,11-4.5c0.9,0,1.9-0.2,2.3,0.9
			c0.4,1.1-0.2,2-1.2,2.6c-1.7,1-3.4,2.1-4.9,3.2c-3.5,2.6-5.9,6.2-8.4,9.7c-1.2,1.6-2.6,3-4.1,4.4c-1,0.9-2.3,0.9-3.4,0.1
			c-1.2-0.8-1.9-2.4-1.6-3.7C118.9,830.4,119,830.2,119,830z"/>
		<path fill="#28190F" d="M157.9,789.6c0.2,0.1,0.4,0.1,0.7,0.2c2,0.7,3.2,2.2,3.5,4.2c0.3,1.8-1.1,2.8-2.5,3.4
			c-1.9,0.8-3.9,1.4-6,1.9c-2.7,0.6-5.5,1.1-8.2,1.6c-1.5,0.3-2.7-0.5-3.2-2c-0.4-1-0.5-2,0.5-2.6c3.5-2,7-4.1,10.5-5.9
			C154.6,789.7,157.9,789.5,157.9,789.6z"/>
		<path fill="#683C14" d="M102.5,832.6c-1.1,1.6-2.9,2.1-4.2,0.6c-0.7-0.8-1.4-1.9-1.4-2.8c0-4.7,0.1-9.4,0.3-14.1
			c0.1-1.4,1.4-2.6,2.9-2.9c1.5-0.3,2.6,0.3,3.2,1.7c0.4,1,0.8,2.1,0.8,3.2c0,3.4-0.1,6.9-0.1,10.3
			C104,828.5,103.9,831.2,102.5,832.6z"/>
		<path fill="#683C14" d="M115.3,829.1c-0.3,1.1-1.2,1.9-2.3,1.8c-1.3-0.1-2.6-0.5-3.8-1c-0.9-0.3-1.1-1.2-0.7-2.2
			c0.6-1.5,1.1-3,1.7-4.5c1.1-2.8,2.1-5.7,3.3-8.5c0.6-1.5,2-2.3,3.4-2c1.3,0.3,1.9,1.4,1.8,3.2c-0.1,1.3-0.4,2.6-0.6,4.6
			C117.3,823,116.3,826,115.3,829.1z"/>
		<path fill="#28190F" d="M142.7,815c-0.7-2.1-2.2-1.7-3.6-1.2c1-5.4,2-10.4,3-15.7c1.9,1.5,4,2.1,6.5,1.5
			C147.4,805.1,145.5,810,142.7,815z"/>
		<path fill="#28190F" d="M90.7,810.7c1.6-0.1,2.6,1.1,4,1.4c2,0.4,4,0.8,6.3,1.2c-2.2,1-3.5,2.3-3.9,4.4c0,0.2-0.7,0.6-1,0.6
			c-1.9-0.3-3.9-0.5-5.7-1.3c-1.2-0.5-2.3-1.7-3-2.8c-1.3-2.2-0.3-4.1,2.1-4.8C90,810,90.4,810.7,90.7,810.7z"/>
		<path fill="#28190F" d="M112.1,801c1.5-1.9,3.2-3.7,4.9-5.4c0.5-0.5,1.4-0.8,2.2-0.9c1.1-0.2,2.7,0.9,3.2,2c0.5,1.1,0,2-0.8,2.7
			c-1.9,1.7-3.8,3.2-5.8,4.8c-0.4,0.3-1,0.5-1.3,0.6C113,805,111.3,802,112.1,801z"/>
		<path fill="#28190F" d="M117.6,801.5c1.2,1.6,1.2,7.4,0.3,12c-1.4,0.2-2.6,0.4-4.1,0.6c-0.5-3.5-1-7.2-1.6-11.2
			C114.7,804.1,116.6,803.9,117.6,801.5z"/>
		<path fill="#28190F" d="M100.5,801.2c0.1,0.5-0.5,1.1-0.9,1.4c-3.1,2.2-6,4.6-7.8,8.1c-0.2,0.3-1.1,0.5-1.7,0.4
			c-0.3-0.1-0.6-0.8-0.6-1.3c0-0.6,0.2-1.2,0.4-1.7c1.6-3.4,4-5.9,7.2-7.7c0.5-0.3,1.4-1.2,2.5-0.8
			C100.6,800.3,100.4,800.7,100.5,801.2z"/>
		<path fill="#28190F" d="M126.8,790.8c0.5-0.1,1.2-0.1,1.5,0.6c0.1,0.1-0.1,0.9-0.4,1.1c-1.6,1.5-3.3,3-5,4.5
			c-0.3,0.3-0.9,0.4-1.2,0.3c-0.3-0.1-0.4-0.7-0.5-0.8C121.6,794.6,124.9,791.1,126.8,790.8z"/>
		<path d="M67.5,852c0,0-0.1,0-0.1,0c-0.3,0.2-0.7,0.5-1,0.8c-2.7,2.4-5.8,3-9.1,1.8c-2-0.7-3.9-1.2-6-0.5c-1.1,0.4-2.2-0.6-2.4-1.7
			c-0.2-1.3,0.4-2.2,1.6-2.4c1-0.1,2.2,0.2,3.2,0.7c1.6,0.7,3,1.8,4.7,2.5c2,0.9,4,0.7,5.8-0.4c0.9-0.6,1.7-1.2,2.1-2
			C66.7,849.9,68.4,852.2,67.5,852z"/>
		<path fill="#28190F" d="M165.2,785.8c0.5-0.2,1.3-0.4,1.8,0.3c0.2,0.1,0.2,1-0.1,1.4c-1.3,2.2-2.7,4.3-4.2,6.4
			c-0.2,0.4-0.9,0.7-1.3,0.6c-0.4-0.1-0.6-0.7-0.8-0.8C160.6,791.5,163.1,786.7,165.2,785.8z"/>
		<path opacity="0.7" fill="#E4E9EC" enable-background="new    " d="M125.4,840.3c5.9-1.9,11.8-3.9,17.8-5.4
			c9.1-2.3,18.4-4,27.5-6.3c5.3-1.3,10.1-0.7,15,1.4c4.9,2.1,9.6,4.6,13.9,7.8c4.4,3.2,8.4,6.8,11.2,11.6c2.8,4.8,3.7,9.9,1.1,15.1
			c-0.5,1-1.5,2-2.4,2.6c-2.8,1.8-6,2.1-9.2,2.4c-8,0.7-16,0.1-24-0.8c-24.8-2.6-49-8.2-73.4-13.2c-1.5-0.3-2.9-1-4.3-1.7
			c-1.1-0.6-1.1-1.4-0.3-2.4c0.3-0.4,0.7-0.7,1.1-1c2.7-1.4,5.4-2.7,7.5-3.8C113.4,844.4,119.3,842.2,125.4,840.3z"/>
		
			<rect x="72.6" y="833.2" transform="matrix(0.7635 0.6458 -0.6458 0.7635 559.557 151.0098)" fill="#1E1E1C" width="2.1" height="12.4"/>
		
			<rect x="72.5" y="833.1" transform="matrix(0.7124 -0.7018 0.7018 0.7124 -567.8249 293.003)" fill="#1E1E1C" width="2.1" height="12.4"/>
	</g>
	<g>
		<path fill="#F9B233" d="M204.7,794.9c0.2-1.3,0.6-2.6,1.2-3.8c1.3-2.7,3.5-3.4,6.2-2c1.9,1,3.5,2.4,4.9,4c0.6,0.7,1.2,1.5,1.8,2.3
			c-5.4,0.4-10.5,1.3-14.8,5.1C204.2,798.5,204.4,796.7,204.7,794.9z"/>
		<path d="M192.1,855.2c0-0.1,0.1-0.2,0.1-0.2c0.1-0.3,1.5-0.5,1.5-0.5c-0.1,0.2-0.5,2.7-0.7,3.7c-0.3,1.7-1.2,2.7-2.8,3.2
			c-1.2,0.4-2.5,0.6-3.4,1.7c-0.3,0.4-1,0.3-1.4-0.2c-0.4-0.4-0.4-0.9-0.1-1.4c0.4-0.6,1-0.7,1.7-0.7c0.8,0,1.5,0.1,2.2-0.1
			C192.1,860.2,193.3,857.8,192.1,855.2L192.1,855.2z"/>
		<path opacity="0.7" fill="#E4E9EC" enable-background="new    " d="M207.2,843.6c0.2-0.9,0.4-1.8,0.7-2.6c2-5.4,4-10.8,6.1-16.2
			c2.1-5.6,4.1-11.3,5.6-17.1c0.3-1.2,0.9-1.9,1.9-2.4c2.7-1.4,5.6-2.1,8.7-2.2c1.5,0,3,0.1,4.4,0.8c1,0.5,1.6,1.3,1.9,2.4
			c0.3,1.6,0,3.1-0.5,4.6c-1.1,3.2-2.8,6-4.7,8.7c-4.3,6-9.2,11.4-14.6,16.5c-2.5,2.4-5.2,4.6-7.9,6.9c-0.3,0.3-0.8,0.5-1.2,0.7
			C207.4,843.7,207.3,843.7,207.2,843.6z"/>
		<path fill="#28190F" d="M202.9,824.7c1.4,0.4,2.7,1,4.1,1.3c1.9,0.5,3.4,1.9,4,3.7c0.3,0.9,1.6,5.5-1.4,11.1
			c-1.2,1.6-2.4,3-3.9,4.2c-2.1,1.7-4.5,2.3-7.1,1.4c-1.3-0.5-2.5-1.2-3.7-1.8c-3.3-1.6-4.2-4.5-4.5-7.9c-0.1-1.9,0.4-4.7,0.5-4.8
			c0.3-0.9,0.7-1.7,1.1-2.7c1.1-2.2,1.6-2.5,2.8-3.1c0.6-0.4,1.2-0.8,1.8-1.3c2.8-1.9,3.9-1,5-0.6
			C202,824.5,202.5,824.6,202.9,824.7z"/>
		<path fill="#683C14" d="M191.5,855.7c-2.4-1.2-4.5-3-6.3-5c-1.1-1.2-2.2-2.5-2.8-4.2c-0.6-1.8,0-3,1.8-3.3c1-0.2,2-0.2,3-0.1
			c4.9,0.5,9.4,2.1,13.8,4.1c1,0.4,1.3,1.2,1.3,2.2c0,0.5-0.1,1.1-0.3,1.6c-1.2,2.8-3.1,5-6.3,5.7c0,0,0,0,0,0.1
			c0,0.2,0.1,0.4,0.1,0.6c0.4,1.8-0.1,3.3-1.4,4.6c-0.8,0.7-1.5,1.5-1.7,2.6c-0.1,0.6-0.8,0.8-1.4,0.7c-0.6-0.2-0.9-0.7-0.7-1.3
			c0.2-0.5,0.6-0.9,1.1-1.3c0.7-0.6,1.6-0.9,2.3-1.5c0.9-0.7,1.3-1.6,1.3-2.7c0-0.6-0.1-1.1-0.4-1.4c-0.3-0.4-0.7-0.6-1.3-0.7
			C191.6,855.7,191.7,855.8,191.5,855.7z"/>
		<path fill="#F9B233" d="M204.9,803.4c3.5-1.3,7.2-1.7,11-1.5c1.5,0.1,3,0.5,4.5,0.8c1,0.3,1.7,1,2,2c0.6,2,0.5,4.1,0,6.1
			c-0.3,1.1-0.4,1.2-1.5,1c-0.3,0-0.6-0.1-0.9-0.1c-3.8-0.3-7.5-0.7-11.3-0.9c-2.3-0.1-4.7,0.1-6.8,1c-0.6,0.3-1,0.1-1.2-0.4
			c-0.2-0.5-0.4-1.1-0.4-1.6c0-1.7,0.6-3.1,1.5-4.4C202.6,804.4,203.8,803.8,204.9,803.4z"/>
		<path fill="#F9B233" d="M215.2,825.6c-2.2,0.9-4.5,1.1-6.8,0.9c-3-0.3-6-0.8-8.5-2.6c-1.4-1-1.7-2-1.1-3.6c0.6-1.7,2-2.6,3.6-3
			c5.6-1.6,11.1-1.1,16.5,0.6c1.4,0.5,1.7,1.3,1.1,2.7c-0.4,1-1,1.9-1.6,2.9C217.5,824.3,216.4,825.1,215.2,825.6z"/>
		<path fill="#28190F" d="M201.9,811.6c2.2-0.4,4.3-0.9,6.5-1c4.4-0.3,8.7,0.5,13.1,1c0.2,0,0.5,0.2,0.6,0.4c0.9,1.7,0.5,4-0.8,5.3
			c-0.6,0.6-1.1,0.9-2.1,0.5c-3.7-1.5-7.7-1.7-11.7-1.5c-2.3,0.1-4.5,0.4-6.5,1.6c-0.8,0.4-1,0.4-1.3-0.5c-0.6-1.8-0.2-3.6,0.8-5.4
			C200.9,812,201.4,811.7,201.9,811.6z"/>
		<path fill="#28190F" d="M204,800.1c1.2-1.4,2.7-2.3,4.4-3c3.2-1.3,6.6-1.6,9.9-2.1c0.2,0,0.4,0.1,0.6,0.2c1.6,1.8,2.7,3.8,2.9,6.2
			c0,0.5-0.3,1-0.5,1.4c-0.1,0.1-0.4,0.2-0.6,0.1c-2.4-0.9-5-1-7.5-1c-3.1,0.1-6.1,0.6-9,1.9c-0.6,0.3-1.2,0.6-1.9,1
			C202.5,803.1,202.8,801.5,204,800.1z"/>
		<path fill="#683C14" d="M198.6,828c-0.1-0.1-0.2-0.3-0.3-0.4c-1.5-2.2-2.2-4.7-2.6-7.3c-0.4-2.1-0.3-4.1,0.7-6.1
			c0.2-0.4,0.4-0.9,1-0.8c0.6,0.1,0.9,0.6,0.9,1.2c0,1,0.1,2,0.2,3c0.3,2.2,1.4,4.2,2.3,6.2c0.5,0.9,0.7,1.9,1,2.9
			c0.2,0.7-0.2,1.2-0.8,1.6c-0.6,0.3-1.5,0.3-2.1-0.2C198.7,828.2,198.6,828.1,198.6,828z"/>
		<path fill="#28190F" d="M189.9,800.4c0.1-0.1,0.2-0.2,0.2-0.3c0.8-0.7,1.8-0.9,2.8-0.6c0.9,0.3,1,1.2,0.9,2
			c-0.1,1.1-0.3,2.1-0.6,3.2c-0.4,1.4-0.9,2.7-1.3,4.1c-0.2,0.7-0.9,1.1-1.7,1c-0.5-0.1-1-0.2-1-0.8c-0.1-2.1-0.1-4.2-0.1-6.2
			C189.1,801.9,189.8,800.4,189.9,800.4z"/>
		<path fill="#683C14" d="M195.7,836.1c0.4,0.9,0.2,1.8-0.8,2.1c-0.5,0.1-1.2,0.2-1.6-0.1c-2.1-1.2-4.2-2.4-6.3-3.6
			c-0.6-0.4-0.8-1.3-0.6-2c0.2-0.7,0.8-1.1,1.6-1c0.6,0.1,1.2,0.2,1.6,0.4c1.6,0.8,3.1,1.7,4.6,2.6
			C194.2,834.5,195.4,835.2,195.7,836.1z"/>
		<path fill="#683C14" d="M197.3,829.5c0.4,0.4,0.6,1,0.2,1.5c-0.4,0.6-0.9,1-1.4,1.5c-0.4,0.3-0.8,0.2-1.2-0.2
			c-0.5-0.6-1.1-1.3-1.6-1.9c-1-1.2-2-2.4-3-3.6c-0.5-0.7-0.5-1.5-0.1-2c0.5-0.5,1.1-0.5,1.9,0c0.6,0.4,1.1,0.8,1.9,1.4
			C195,827.1,196.1,828.3,197.3,829.5z"/>
		<path fill="#28190F" d="M197.6,813.5c-1.2-0.2-1.3,0.6-1.4,1.3c-2.2-1.8-4.2-3.5-6.4-5.3c1.2-0.5,2-1.3,2.3-2.6
			C194.3,809,196.1,811,197.6,813.5z"/>
		<path fill="#28190F" d="M182.8,836.1c0.3-0.8,1.2-0.9,1.7-1.5c0.7-0.8,1.3-1.6,2.1-2.5c-0.1,1.2,0.2,2.2,1,2.9
			c0.1,0.1,0.1,0.5,0,0.6c-0.6,0.8-1.2,1.6-2,2.3c-0.5,0.4-1.3,0.7-2,0.7c-1.3,0-1.9-0.9-1.6-2.1
			C182.3,836.2,182.7,836.2,182.8,836.1z"/>
		<path fill="#28190F" d="M183.7,824c-0.5-1.2-0.9-2.4-1.2-3.6c-0.1-0.4,0-0.8,0.1-1.2c0.2-0.5,1.1-1,1.7-0.9c0.6,0,0.9,0.5,1,1
			c0.3,1.3,0.5,2.5,0.8,3.8c0,0.3,0,0.6-0.1,0.7C185.7,824.6,184,824.6,183.7,824z"/>
		<path fill="#28190F" d="M185.3,821.6c1-0.1,3.7,1.3,5.5,2.9c-0.3,0.7-0.5,1.3-0.7,2c-1.7-0.7-3.5-1.3-5.5-2
			C185.8,823.5,186.1,822.7,185.3,821.6z"/>
		<path fill="#28190F" d="M180.9,829.3c0.2,0.1,0.4,0.5,0.4,0.7c0.3,2,0.6,3.9,1.8,5.6c0.1,0.2-0.1,0.6-0.2,0.8
			c-0.1,0.1-0.5,0.1-0.7,0c-0.3-0.1-0.5-0.4-0.7-0.6c-1.1-1.5-1.7-3.3-1.7-5.2c0-0.3-0.2-0.9,0.2-1.3
			C180.5,829,180.7,829.2,180.9,829.3z"/>
		<path fill="#28190F" d="M182.7,814.8c0.1-0.2,0.3-0.6,0.6-0.5c0.1,0,0.4,0.3,0.4,0.4c0.3,1.1,0.6,2.2,0.8,3.4c0,0.2,0,0.5-0.2,0.6
			c-0.1,0.1-0.4,0-0.5,0C183.2,818.1,182.4,815.7,182.7,814.8z"/>
		<path d="M195.8,856.8C195.8,856.8,195.7,856.8,195.8,856.8c0,0.3,0,0.5,0.1,0.7c0.4,1.8-0.1,3.3-1.4,4.6c-0.8,0.7-1.5,1.5-1.7,2.6
			c-0.1,0.6-0.8,0.8-1.4,0.7c-0.6-0.2-0.9-0.7-0.7-1.3c0.2-0.5,0.6-0.9,1.1-1.3c0.7-0.6,1.6-0.9,2.3-1.5c0.9-0.7,1.3-1.6,1.3-2.7
			c0-0.6-0.1-1.1-0.4-1.4C194.6,856.7,196.1,856.5,195.8,856.8z"/>
		<path fill="#28190F" d="M190,796.1c0-0.3,0.1-0.7,0.6-0.8c0.1-0.1,0.5,0.2,0.6,0.4c0.7,1.1,1.3,2.3,1.9,3.5c0.1,0.2,0.1,0.6,0,0.7
			c-0.1,0.2-0.5,0.1-0.6,0.2C191.4,799.7,189.8,797.3,190,796.1z"/>
		<path opacity="0.7" fill="#E4E9EC" enable-background="new    " d="M204.8,827.7c0.6-3.1,1.2-6.3,2-9.4c1.2-4.7,2.7-9.3,3.9-14
			c0.7-2.7,2.2-4.8,4.3-6.5c2.2-1.7,4.5-3.2,7-4.4c2.6-1.2,5.2-2.1,8-2.2c2.9-0.1,5.4,0.8,7.1,3.3c0.3,0.5,0.5,1.2,0.6,1.8
			c0.1,1.7-0.5,3.3-1.2,4.8c-1.7,3.8-3.9,7.3-6.3,10.7c-7.3,10.6-15.9,20.2-24.2,30c-0.5,0.6-1.2,1.1-1.8,1.5
			c-0.5,0.4-0.9,0.2-1.2-0.5c-0.1-0.2-0.2-0.5-0.2-0.8c0-1.6,0.1-3.1,0.1-4.3C203.7,834.1,204.2,830.9,204.8,827.7z"/>
		
			<rect x="191.1" y="847.7" transform="matrix(0.9327 -0.3607 0.3607 0.9327 -294.0649 126.421)" fill="#1E1E1C" width="1.1" height="6.4"/>
		
			<rect x="191" y="847.7" transform="matrix(-0.2747 -0.9615 0.9615 -0.2747 -574.0403 1268.8033)" fill="#1E1E1C" width="1.1" height="6.4"/>
	</g>
	<g>
		<path fill="#F9B233" d="M201.3,839.8c-9.4,0.7-16.2,5.6-22.9,11.5c-0.2-1.6-0.5-3.1-0.7-4.7c-0.3-3.5-0.1-6.9,0.9-10.3
			c1.4-4.7,4.7-6.6,9.4-5c2,0.7,4,1.7,5.8,2.9C196.3,835.9,198.7,837.8,201.3,839.8z"/>
		<path d="M279.2,888.5c1.7,4.3,5.9,5.7,9.6,3.1c1-0.7,1.8-1.6,2.7-2.5c0.8-0.8,1.6-1.4,2.7-1.2c1,0.1,1.6,0.7,1.6,1.7
			c0,1-0.5,1.9-1.4,1.8c-2.3-0.2-3.9,1.1-5.8,2c-2.4,1.3-4.7,1.2-6.9-0.4c-1.4-1-4.8-3.3-5.2-3.5c0,0,1.8-1.3,2.3-1.1
			C278.9,888.4,279,888.5,279.2,888.5L279.2,888.5z"/>
		<path opacity="0.7" fill="#E4E9EC" enable-background="new    " d="M248.1,893.6c-0.7,0.2-1.5,0.5-2.2,0.6
			c-5.7,0.5-11.4,1.1-17.1,1.4c-12.1,0.5-24.1,0.2-36.1-1.7c-5.4-0.9-10.7-2-15.7-4.4c-2.3-1.1-4.5-2.4-6-4.7
			c-1.1-1.6-1.3-3.2-0.7-5c0.7-2.4,2.3-4.3,4-6c3.6-3.5,7.7-6.1,12.5-7.7c1.7-0.6,3.3-0.5,5,0.5c8.5,5,17.5,9,26.5,13
			c8.7,3.8,17.3,7.6,25.9,11.4c1.4,0.6,2.6,1.4,3.9,2.2C248.2,893.2,248.1,893.4,248.1,893.6z"/>
		<path fill="#28190F" d="M232,864.2c0.7-1.8,0.9-4,6.4-5.2c1.3-0.2,2.4-0.5,3.6-0.7c2.1-0.7,3.1-0.9,6.8,0.3
			c1.6,0.6,3.1,1.2,4.4,1.8c0.2,0.1,4.1,2.7,6.2,4.9c3.5,4.3,5.9,8.7,4.1,14.4c-0.7,2.1-1.3,4.3-2.2,6.4c-1.9,4.1-5.3,6.3-9.7,6.8
			c-3,0.4-6,0.2-9.3-0.2c-10.2-2.9-13.9-9.8-14.7-11.1c-1.5-2.8-1.4-6.2,0.1-9c1.2-2,2.1-4.2,3.1-6.3
			C231.3,865.6,231.6,864.9,232,864.2z"/>
		<path fill="#683C14" d="M278.9,891.5c-0.7,0.8-0.9,1.6-0.7,2.3s0.6,1.4,1.2,2.1c1.3,1.3,2.8,1.9,4.6,1.7c1.5-0.2,2.9-0.8,4.4-1
			c0.9-0.1,1.9-0.1,2.8,0.2c0.9,0.4,1.2,1.3,0.7,2.3c-0.4,0.9-1.5,1.4-2.3,0.9c-1.6-1-3.2-1.1-5-1c-3,0.2-5.4-1-7-3.6
			c-0.2-0.3-0.4-0.6-0.6-0.8c0,0-0.1,0-0.1,0c-4.5,2.9-9.2,2.6-13.9,0.8c-0.8-0.3-1.6-0.8-2.2-1.4c-1.2-1.1-1.7-2.4-1.1-4.1
			c2.6-7.5,6-14.7,10.9-21c1-1.3,2.2-2.4,3.5-3.3c2.5-1.8,4.7-1.1,6,1.6c1.2,2.5,1.6,5.3,1.7,8c0.3,4.5,0,8.9-1.4,13.1
			C280.3,888.7,280.4,888.4,278.9,891.5z"/>
		<path fill="#F9B233" d="M209.7,842.9c2.5,0.3,4.9,1.3,6.9,3.3c0.6,0.6,1.1,1.5,1.5,2.3c0.4,0.9,0.2,1.4-0.9,1.8
			c-3.6,1.5-6.5,4-9,6.9c-4.1,4.7-8,9.6-11.9,14.3c-0.3,0.4-0.6,0.8-0.9,1.2c-1.2,1.5-1.3,1.6-3,0.6c-3-1.7-5.5-3.9-7.2-7
			c-0.9-1.5-1.1-3.1-0.2-4.7c1.3-2.1,2.5-4.4,4.2-6.3c4-4.7,8.7-8.6,14.3-11.2C205.4,843.4,207.4,842.7,209.7,842.9z"/>
		<path fill="#F9B233" d="M211.5,882.8c-1.7-0.5-3.5-0.8-5.1-1.5c-2.3-0.8-2.9-2.2-1.9-4.3c4.2-8.4,10-15.4,18.2-20.1
			c2.4-1.4,5-2,7.7-0.8c2.5,1.2,3.4,2.7,3,5.5c-0.8,5.1-3.5,9.2-6.7,13c-2.4,3-5.2,5.5-8.8,7C215.9,882.5,213.8,883,211.5,882.8z"/>
		<path fill="#28190F" d="M219,849.1c3.3,0.9,5.8,2.4,7.2,5.3c0.7,1.3,0.4,1.7-1,2.1c-3.7,1-6.6,3.3-9.3,5.8
			c-4.8,4.5-9,9.4-11.6,15.5c-0.7,1.6-1.6,1.8-3,1.9c-3.1,0-6.2-2.3-7.2-5.2c-0.1-0.4-0.1-0.9,0.1-1.2c4.3-5.8,8.4-11.7,13.7-16.6
			c2.7-2.4,5.7-4.4,8.6-6.5C217.4,849.5,218.3,849.3,219,849.1z"/>
		<path fill="#28190F" d="M208.3,842.9c-1.2,0.4-2.3,0.6-3.3,1c-4.8,1.9-8.8,5-12.5,8.5c-3,2.9-5.7,6-7.5,9.9
			c-0.1,0.3-0.6,0.6-0.8,0.5c-0.8-0.3-1.7-0.5-2.2-1.1c-2.7-3-3.7-6.6-4-10.5c0-0.3,0.2-0.7,0.4-0.9c4.4-3.4,8.7-7,13.8-9.3
			c2.7-1.2,5.6-2,8.6-1.8C203.7,839.5,206,841.1,208.3,842.9z"/>
		<path fill="#683C14" d="M239.8,865.5c-0.1,1.2-1,2.3-2.2,2.7c-1.1,0.4-2.2,0.1-2.8-0.9c-0.9-1.4-1.8-2.9-2.3-4.5
			c-1.3-3.5-2.4-6.9-4.6-9.9c-1-1.3-2.2-2.5-3.3-3.8c-0.7-0.7-1-1.5-0.4-2.4c0.5-0.9,1.3-0.5,2.1-0.2c3.5,1,5.9,3.4,7.9,6.2
			c2.5,3.5,4.6,7.2,5.5,11.5c0,0.3,0.1,0.6,0.1,0.8C239.8,865.1,239.8,865.3,239.8,865.5z"/>
		<path fill="#28190F" d="M220.9,824.8c2.5,2.3,4.9,4.7,7.3,7.2c0.7,0.7,0.3,1.5-0.2,2.2c-0.8,1.1-1.9,1.4-3.1,0.9
			c-2.1-1-4.3-2-6.4-3.2c-1.5-0.9-3-1.8-4.4-2.9c-1-0.8-2-1.9-1.3-3.3c0.7-1.6,2.1-2.5,3.8-2.6c0.2,0,0.4,0,0.6,0
			C217.3,823,219.9,823.9,220.9,824.8z"/>
		<path fill="#683C14" d="M252.3,867.2c0.7-2.8,1.4-5.6,2.2-8.4c0.3-0.9,0.8-1.7,1.4-2.4c0.8-1,1.9-1.2,3-0.7c1.2,0.6,2,1.9,1.7,3
			c-0.9,3.9-1.9,7.8-3,11.6c-0.2,0.8-1.1,1.5-1.8,2c-1.4,0.9-2.8,0-3.3-1.5C251.9,869.4,252.4,867.2,252.3,867.2z"/>
		<path fill="#683C14" d="M242.7,857.4c0.2-1.6,0.3-2.8,0.5-3.9c0.3-1.5,1-2.2,2.2-2.2c1.2,0,2.1,1,2.3,2.4c0.3,2.5,0.5,5.1,0.7,7.6
			c0.1,1.4,0.2,2.7,0.4,4.1c0.1,0.9-0.3,1.6-1.1,1.6c-1.1,0.1-2.2,0.2-3.3-0.1c-0.9-0.2-1.5-1-1.5-2
			C242.9,862.3,242.8,859.6,242.7,857.4z"/>
		<path fill="#28190F" d="M222.5,833.3c1.9,1.1,3.7,1.1,5.6,0.3c-0.4,4.6-0.7,8.9-1.1,13.5c-1-0.8-2.1-1.5-3.2,0.1
			C222.7,842.6,222.3,838.1,222.5,833.3z"/>
		<path fill="#28190F" d="M268.5,854.9c1.8,1.1,2.2,2.9,0.6,4.4c-0.8,0.8-2,1.5-3.1,1.6c-1.6,0.2-3.3-0.1-4.9-0.3
			c-0.2,0-0.7-0.5-0.6-0.7c0.1-1.8-0.6-3.2-2.2-4.5c2,0.2,3.7,0.3,5.4,0.4c1.2,0.1,2.3-0.7,3.6-0.2
			C267.5,855.7,268,855.2,268.5,854.9z"/>
		<path fill="#28190F" d="M249.2,845.3c-0.2-0.2-0.7-0.4-0.9-0.8c-1.2-1.7-2.5-3.5-3.6-5.2c-0.5-0.7-0.7-1.6-0.1-2.4
			c0.7-0.8,2.2-1.3,3.1-0.9c0.6,0.3,1.3,0.7,1.6,1.2c1,1.8,2,3.7,2.8,5.6C252.5,843.9,250.4,845.9,249.2,845.3z"/>
		<path fill="#28190F" d="M251.5,844.4c-1.4,3.2-2.7,6-3.9,8.8c-1.1-0.5-2.1-1-3.2-1.4c0.3-4,1.7-8.7,3-9.8
			C247.7,844.2,249.2,844.8,251.5,844.4z"/>
		<path fill="#28190F" d="M262.5,844.5c0.9-0.1,1.5,0.8,1.8,1.2c2.2,2.2,3.6,4.9,4.1,7.9c0.1,0.5,0.1,1,0,1.5
			c-0.1,0.4-0.5,0.9-0.8,0.9c-0.4,0-1.2-0.4-1.3-0.7c-0.7-3.3-2.5-5.9-4.5-8.4c-0.2-0.3-0.6-0.9-0.4-1.3
			C261.6,845.3,261.6,844.8,262.5,844.5z"/>
		<path fill="#28190F" d="M245.6,837c-0.1,0.1-0.3,0.6-0.6,0.6c-0.3,0-0.7-0.2-0.9-0.5c-1.1-1.6-2.1-3.2-3-4.8c-0.2-0.3-0.2-0.9,0-1
			c0.4-0.5,1-0.3,1.3-0.2C243.9,831.8,245.7,835.4,245.6,837z"/>
		<path d="M278.1,893.9c0.1,0.7,0.6,1.4,1.2,2.1c1.3,1.3,2.8,1.9,4.6,1.7c1.5-0.2,2.9-0.8,4.4-1c0.9-0.1,1.9-0.1,2.8,0.2
			c0.9,0.4,1.2,1.3,0.7,2.3c-0.4,0.9-1.5,1.4-2.3,0.9c-1.6-1-3.2-1.1-5-1c-3,0.2-5.4-1-7-3.6c-0.2-0.3-0.4-0.6-0.6-0.8
			c0,0-0.1,0-0.1,0C276.1,894.6,278,893.1,278.1,893.9z"/>
		<path fill="#28190F" d="M214,825.8c-0.2,0.1-0.5,0.5-0.8,0.5c-0.3-0.1-0.8-0.4-0.9-0.8c-0.7-2.1-1.4-4.1-2-6.2
			c-0.1-0.4,0.1-1.1,0.3-1.1c0.6-0.5,1.2-0.1,1.5,0.2C213.7,819.5,214.6,824.1,214,825.8z"/>
		<path opacity="0.7" fill="#E4E9EC" enable-background="new    " d="M246,881.3c1.5,1.3,3.3,3,5.2,4.8c0.3,0.3,0.5,0.7,0.7,1.1
			c0.5,1,0.2,1.7-0.8,1.9c-1.3,0.3-2.6,0.5-3.9,0.4c-21-1.4-42.1-2.4-62.9-5.9c-6.7-1.1-13.4-2.4-19.8-4.8c-2.6-1-5.1-2-7-4.1
			c-0.6-0.8-1.2-1.8-1.4-2.7c-1-4.8,0.9-8.8,4.3-12.1c3.3-3.3,7.4-5.3,11.8-6.9c4.3-1.6,8.7-2.5,13.1-3.2c4.5-0.6,8.5,0,12.6,2.3
			c6.9,4,14.1,7.5,21,11.4c4.5,2.6,8.9,5.5,13.3,8.4C236.7,874.9,241.1,877.9,246,881.3z"/>
		
			<rect x="273.8" y="877.7" transform="matrix(-0.9091 0.4166 -0.4166 -0.9091 892.2538 1571.3241)" fill="#1E1E1C" width="1.8" height="10.5"/>
		
			<rect x="273.9" y="877.6" transform="matrix(-0.4973 -0.8676 0.8676 -0.4973 -354.5673 1560.3092)" fill="#1E1E1C" width="1.8" height="10.5"/>
	</g>
	<g>
		<path fill="#F9B233" d="M86.3,873.2c-5.2,3.8-7.4,9.1-9.1,14.9c-0.7-0.9-1.4-1.6-2.1-2.5c-1.4-1.9-2.5-4-3.2-6.3
			c-0.9-3.2,0.4-5.5,3.7-6.3c1.4-0.3,2.9-0.4,4.4-0.4C82,872.7,84,873,86.3,873.2z"/>
		<path d="M148.8,873.4c2.5,1.9,5.4,1.2,6.6-1.7c0.3-0.8,0.5-1.6,0.6-2.4c0.1-0.7,0.4-1.4,1.1-1.7c0.6-0.3,1.1-0.2,1.5,0.4
			c0.4,0.5,0.4,1.3-0.2,1.6c-1.4,0.7-1.9,2-2.6,3.3c-0.9,1.6-2.3,2.4-4.1,2.3c-1.2-0.1-4-0.2-4.2-0.2c0,0,0.6-1.4,0.9-1.5
			C148.6,873.5,148.7,873.5,148.8,873.4L148.8,873.4z"/>
		<path opacity="0.7" fill="#E4E9EC" enable-background="new    " d="M132.6,887.5c-0.3,0.4-0.7,0.8-1.1,1.1
			c-3.1,2.3-6.2,4.7-9.4,6.9c-6.8,4.6-13.9,8.7-21.5,11.9c-3.4,1.4-6.9,2.7-10.6,3.1c-1.7,0.2-3.5,0.2-5.1-0.5
			c-1.2-0.5-1.9-1.4-2.2-2.6c-0.5-1.7-0.2-3.3,0.2-4.9c0.8-3.3,2.3-6.3,4.5-8.9c0.8-1,1.7-1.4,3.1-1.5c6.7-0.2,13.3-1,20-2
			c6.4-0.9,12.7-1.8,19.1-2.7c1-0.1,2-0.1,3-0.2C132.5,887.3,132.6,887.4,132.6,887.5z"/>
		<path fill="#28190F" d="M112.8,876.3c-0.3-1.3-0.9-2.7,1.8-5.3c0.6-0.6,1.2-1.1,1.8-1.7c0.9-1.1,1.4-1.6,4-2.3
			c1.2-0.2,2.2-0.4,3.2-0.5c0.1,0,3.3,0.1,5.4,0.6c3.6,1.2,6.6,2.9,7.5,6.8c0.4,1.5,0.8,3,1.1,4.5c0.4,3.1-0.8,5.5-3.2,7.4
			c-1.6,1.3-3.4,2.3-5.5,3.2c-6.9,1.9-11.6-0.7-12.5-1.2c-1.9-1.1-3.1-3.1-3.1-5.2c-0.1-1.6-0.3-3.2-0.4-4.8
			C112.8,877.4,112.8,876.9,112.8,876.3z"/>
		<path fill="#683C14" d="M149.7,875.3c-0.1,0.7,0,1.2,0.4,1.6c0.3,0.4,0.9,0.6,1.5,0.8c1.2,0.3,2.3,0.1,3.3-0.7
			c0.8-0.7,1.4-1.5,2.2-2.1c0.5-0.4,1.1-0.8,1.7-0.9c0.6-0.1,1.1,0.3,1.2,1.1c0.1,0.7-0.4,1.4-1,1.4c-1.3,0-2.2,0.6-3.2,1.2
			c-1.7,1.2-3.5,1.4-5.3,0.4c-0.2-0.1-0.4-0.2-0.7-0.3c0,0-0.1,0-0.1,0c-1.6,3.3-4.4,4.8-7.8,5.5c-0.6,0.1-1.2,0.1-1.8,0
			c-1.1-0.2-1.9-0.8-2.1-1.9c-1.2-5.3-1.8-10.6-1.2-16.1c0.1-1.1,0.4-2.2,0.8-3.2c0.8-1.9,2.3-2.3,4.1-1.2c1.6,1,2.8,2.5,3.9,4
			c1.7,2.5,3.2,5.1,3.9,8.1C149.5,873.1,149.4,872.9,149.7,875.3z"/>
		<path fill="#F9B233" d="M92.3,872c1.6-0.7,3.3-1,5.1-0.6c0.6,0.1,1.2,0.5,1.7,0.8c0.6,0.4,0.6,0.8,0.2,1.4
			c-1.6,2.1-2.3,4.6-2.7,7.2c-0.7,4.2-1.2,8.4-1.7,12.6c0,0.3-0.1,0.7-0.1,1c-0.1,1.3-0.2,1.4-1.5,1.4c-2.3,0.1-4.6-0.3-6.7-1.4
			c-1.1-0.6-1.7-1.4-1.8-2.6c0-1.7-0.1-3.5,0.2-5.1c0.6-4.1,1.9-8.1,4.2-11.6C89.9,873.8,90.8,872.7,92.3,872z"/>
		<path fill="#F9B233" d="M107.6,894.4c-1.2,0.3-2.3,0.8-3.5,1c-1.6,0.4-2.5-0.2-2.6-1.8c-0.6-6.3,0.2-12.5,3.3-18.1
			c0.9-1.7,2.2-2.9,4.2-3.2c1.9-0.2,3,0.4,3.7,2.1c1.3,3.2,1.3,6.6,0.8,9.9c-0.3,2.6-1,5-2.6,7.2C110.1,892.7,109,893.7,107.6,894.4
			z"/>
		<path fill="#28190F" d="M99.8,872.2c2.2-0.7,4.2-0.7,6.1,0.4c0.9,0.5,0.9,0.8,0.2,1.6c-1.8,1.9-2.6,4.3-3.3,6.7
			c-1.2,4.3-1.8,8.7-1.1,13.1c0.2,1.2-0.3,1.7-1.1,2.1c-1.8,1.1-4.4,0.9-6-0.4c-0.2-0.2-0.4-0.5-0.3-0.7c0.4-4.9,0.7-9.8,2-14.5
			c0.7-2.4,1.7-4.6,2.6-6.9C99,873.1,99.5,872.6,99.8,872.2z"/>
		<path fill="#28190F" d="M91.4,872.5c-0.6,0.6-1.1,1.2-1.6,1.8c-2.1,2.8-3.3,6-4.2,9.4c-0.7,2.7-1.2,5.5-0.8,8.4
			c0,0.2-0.2,0.6-0.3,0.6c-0.5,0.1-1.2,0.3-1.7,0.2c-2.6-0.7-4.5-2.5-6.1-4.6c-0.1-0.2-0.1-0.5-0.1-0.7c1.3-3.5,2.5-7.1,4.6-10.3
			c1.1-1.7,2.5-3.1,4.3-4.1C87.6,872.2,89.4,872.3,91.4,872.5z"/>
		<path fill="#683C14" d="M117.7,874.2c0.4,0.7,0.2,1.7-0.3,2.3c-0.5,0.6-1.2,0.8-1.9,0.5c-1-0.5-2.1-1.1-3-1.8
			c-2-1.5-3.9-3.2-6.2-4c-1.1-0.4-2.2-0.7-3.3-1c-0.7-0.2-1.1-0.5-1.1-1.2c0-0.7,0.6-0.7,1.1-0.9c2.4-0.6,4.6-0.2,6.8,0.7
			c2.7,1.1,5.2,2.5,7.3,4.6c0.1,0.1,0.3,0.3,0.4,0.4C117.6,874,117.6,874.2,117.7,874.2z"/>
		<path fill="#28190F" d="M92.2,857.5c2.3,0.4,4.5,1,6.8,1.6c0.6,0.2,0.7,0.8,0.7,1.3c-0.1,0.9-0.6,1.5-1.5,1.6
			c-1.6,0.2-3.2,0.4-4.8,0.5c-1.2,0.1-2.4,0-3.6-0.1c-0.9-0.1-1.8-0.4-1.9-1.5c-0.1-1.2,0.3-2.2,1.3-2.9c0.1-0.1,0.2-0.1,0.3-0.2
			C89.5,857.8,91.3,857.4,92.2,857.5z"/>
		<path fill="#683C14" d="M125.6,870.7c-0.6-1.9-1.2-3.8-1.7-5.7c-0.1-0.6-0.1-1.3-0.1-1.9c0.1-0.9,0.7-1.4,1.5-1.5
			c0.9-0.1,1.8,0.4,2.1,1.1c0.8,2.6,1.7,5.2,2.4,7.8c0.1,0.5-0.1,1.3-0.3,1.8c-0.5,1-1.6,1-2.4,0.3
			C126.1,872.2,125.6,870.7,125.6,870.7z"/>
		<path fill="#683C14" d="M116.6,868.5c-0.5-1-0.8-1.7-1.1-2.4c-0.4-1-0.2-1.6,0.5-2c0.7-0.4,1.6-0.2,2.2,0.5
			c1.1,1.4,2.1,2.8,3.2,4.2c0.6,0.7,1.1,1.5,1.7,2.2c0.4,0.5,0.4,1,0,1.3c-0.6,0.5-1.2,0.9-1.9,1.1c-0.6,0.2-1.2-0.1-1.6-0.6
			C118.4,871.3,117.4,869.8,116.6,868.5z"/>
		<path fill="#28190F" d="M96.2,861.9c1.5,0,2.5-0.7,3.4-1.9c1.4,2.8,2.8,5.4,4.2,8.2c-0.9-0.1-1.7-0.1-1.8,1.2
			C99.6,867.1,97.8,864.7,96.2,861.9z"/>
		<path fill="#28190F" d="M130.5,857.8c1.4,0,2.3,0.9,1.9,2.3c-0.2,0.8-0.6,1.6-1.2,2c-0.9,0.7-1.9,1.1-2.9,1.6
			c-0.1,0.1-0.6,0-0.6-0.2c-0.6-1.1-1.5-1.6-2.9-1.8c1.2-0.6,2.2-1.1,3.3-1.7c0.7-0.4,1.1-1.3,2-1.4
			C130.3,858.7,130.4,858.2,130.5,857.8z"/>
		<path fill="#28190F" d="M116,859.2c-0.2,0-0.5,0-0.8-0.1c-1.3-0.6-2.7-1.1-4-1.7c-0.6-0.3-1-0.6-0.9-1.3c0.1-0.7,0.8-1.6,1.4-1.6
			c0.5,0,1,0,1.4,0.1c1.2,0.7,2.5,1.4,3.6,2.2C117.3,857.2,116.8,859.1,116,859.2z"/>
		<path fill="#28190F" d="M116.9,857.9c0.3,2.3,0.6,4.4,0.9,6.5c-0.8,0.1-1.6,0.2-2.3,0.3c-1.3-2.4-2.2-5.6-1.8-6.7
			C114.7,859.1,115.7,858.9,116.9,857.9z"/>
		<path fill="#28190F" d="M123.4,854c0.5-0.4,1.2,0,1.5,0c2.1,0.5,3.8,1.5,5.2,3.1c0.2,0.3,0.4,0.6,0.5,0.9c0.1,0.3,0,0.7-0.1,0.8
			c-0.3,0.1-0.8,0.2-1,0.1c-1.6-1.7-3.6-2.5-5.6-3.3c-0.3-0.1-0.7-0.3-0.7-0.6C123.1,854.7,122.9,854.5,123.4,854z"/>
		<path fill="#28190F" d="M110.9,855.7c0,0.1,0,0.4-0.1,0.5c-0.2,0.1-0.5,0.1-0.7,0.1c-1.2-0.5-2.3-1.1-3.5-1.7
			c-0.2-0.1-0.4-0.5-0.4-0.6c0-0.4,0.4-0.5,0.7-0.6C108,853.3,110.4,854.8,110.9,855.7z"/>
		<path d="M150.1,876.9c0.3,0.4,0.9,0.6,1.5,0.8c1.2,0.3,2.3,0.1,3.3-0.7c0.8-0.7,1.4-1.5,2.2-2.1c0.5-0.4,1.1-0.8,1.7-0.9
			c0.6-0.1,1.1,0.3,1.2,1.1c0.1,0.7-0.4,1.4-1,1.4c-1.3,0-2.2,0.6-3.2,1.2c-1.7,1.2-3.4,1.4-5.3,0.4c-0.2-0.1-0.4-0.2-0.7-0.3
			c0,0-0.1,0-0.1,0C149.2,878.1,149.7,876.5,150.1,876.9z"/>
		<path fill="#28190F" d="M88.6,860.5c-0.1,0.1-0.1,0.5-0.3,0.6c-0.2,0.1-0.6,0-0.8-0.1c-1.1-0.9-2.3-1.9-3.4-2.9
			c-0.2-0.2-0.3-0.7-0.3-0.7c0.2-0.5,0.6-0.5,1-0.4C86.1,857.1,88.3,859.3,88.6,860.5z"/>
		<path opacity="0.7" fill="#E4E9EC" enable-background="new    " d="M127,881.2c1.3,0.3,3,0.6,4.7,0.9c0.3,0.1,0.5,0.2,0.8,0.4
			c0.6,0.4,0.7,0.9,0.2,1.4c-0.7,0.6-1.4,1.2-2.1,1.6c-12.7,6.7-25.2,13.7-38.5,19.2c-4.3,1.8-8.6,3.4-13.2,4.3
			c-1.8,0.4-3.7,0.7-5.5,0.1c-0.6-0.2-1.3-0.6-1.8-1.1c-2.3-2.4-2.6-5.4-1.8-8.5c0.8-3.1,2.4-5.7,4.3-8.2c1.9-2.4,4.1-4.6,6.5-6.5
			c2.4-1.9,4.9-3.1,8.1-3.2c5.4-0.2,10.8-0.7,16.2-0.9c3.6-0.1,7.1,0,10.7,0.1C119.3,880.8,123,881,127,881.2z"/>
		
			<rect x="143.6" y="868.3" transform="matrix(-0.5525 0.8335 -0.8335 -0.5525 950.5801 1233.3376)" fill="#1E1E1C" width="1.2" height="7.2"/>
		
			<rect x="143.6" y="868.2" transform="matrix(-0.8802 -0.4746 0.4746 -0.8802 -142.6389 1707.4988)" fill="#1E1E1C" width="1.2" height="7.2"/>
	</g>
</g>
<g id="Ebene_2" display="none">
	<path display="inline" fill="#F6A127" d="M123.8,162.9c-2.4,14.2,0.6,25.7,10,35c3.4,3.4-21.3,9.1-18.5,13.7
		c0.8,1.4,2.4,3.3,2.2,4.3c-2.6,15.2-28.6,25.5-26.2,38.9c3.3,18.5-3.2,20.8-5.7,38.1c-0.5,3.8,38.2,21.6,35.4,24.1
		c-3.2,2.9,45.1,5.6,45.5,11.1c1.2,15.2,8.9,19.4,17.2,23.7c1.2,0.6,2.3,1.6,3.3,2.4c-2,18.4-21,50.4-7.7,57.6
		c1.6,0.9,3.2,1.8,5.1,2.9c-2.3,8.4-11.4,31.4-11.2,39.7c0.2,7.8-6.2,15.8-3.2,24.5c-4.3,2.5-62.4,8.4-66.7,10.2
		c-3.8,1.6-5.7-2.8-4.7,2.9c1.1,6.3-0.6,7-3.5,11.5c-1.7,2.6-3.1,7.2-2.6,10.5c1.7,11.4,3.5,22.3-9.6,25.3c4.9,4.7,8,8,11.3,10.7
		c11.8,9.8,74.8,14.1,70.3,30.9c-3.7,13.9-3.1,19.7,6.1,30.3c1.5,1.7,3,3.6,4.4,5.5c2.4,3.4,4.7,7,7.5,11.2
		c-5.5,4.4-10.5,8.5-15.7,12.5c-5.6,4.3-7.2,10.8-5.7,19.6c2.3,13.2,4.3,26.4,6.6,39.6c1.2,6.9-0.2,11.7-4.2,15.4
		c-1.9,1.7-3.5,3.9-5.1,6.1c-3.7,5.1-9.9,16.2-4.8,18.5c6.9,3,12.3,7.1,15.3,17.3c1.3,4.4,1.8,7.2,4.1,11.4
		c2.1,3.7,4.6,8.4,4.7,12.4c0.2,13.9-0.3,27.7-5.2,40.1c-2.7,6.8-0.4,16.7,4.4,21.9c3.6,3.9,7.4,7.5,10.6,10.7
		c-2.8,12.1-5.4,22.9-7.9,33.7c-0.4-0.1-0.7-0.3-1.1-0.4c1.9-10.4,3.9-20.9,6-32.3c-1.7-1.7-4.2-4.1-6.7-6.4
		c-9.7-9.3-11.2-18.6-8.1-33c2.4-11.2,2.5-23.6,3.1-35.6c0.1-2.2-2.4-5.1-3.9-7.4c-3.4-5.3-2.7-10.9-6.6-15.3
		c-3.3-3.8-7.2-7.1-11.2-9.1c-9.4-4.7-6.2-25.1,1.3-33c7.5-7.9,8.1-17.1,5.1-28.7c-1.6-6.4-2.6-13.2-4.6-19.4
		c-2.8-8.4-3.5-16.4-0.5-24.2c1.4-3.6,2.6-7.5,4.6-10.3c2.1-2.9,5-4.6,7.2-6.6c-4.3-7.3-8.4-14.2-12.5-21.1
		c-3.4-5.7-3.5-11.1-1.8-17.7c1.8-6.8-53.2-6.7-57.4-15c-1.2-2.3-2.7-4.6-4.3-6.3c-9.7-9.7-19.4-19.2-30.3-29.9
		c6.1-4.7,10.5-8.6,15.2-11.8c3.3-2.2,4.9-4.5,3.3-9.9c-2.4-8.2-0.9-14.7,3-21.2c1.9-3.2,2.2-9.6,1.6-14.3c-1.2-9,53.5-7.3,60.7-9.3
		c1.1-0.3,2-1.7,1.1-3.1c0-7,15.9-29,15.9-37.3c-4.4-2-11.1-22.6-17.1-25.3c0.8-6.6,21.5-26.8,22.2-32.7c-0.5-0.8-0.7-1.5-1-1.6
		c-10.9-3.4-15.2-12.3-15.6-27.4c-0.2-6.4-52.7-13.1-55.3-19.6c-1.2-3.1-2.6-6.1-4.3-9.9c5.2-5.5-28.8-10.8-23.8-16.1
		c7.3-7.7,7.9-32.8,0.2-41.3c-5.8-6.4,22.8-13,23.1-22.6c0.1-3.6,3-8.2,1.1-11.4c-2.7-4.3-12-7.5-9.3-11.5C94,187,93,182.6,96,166
		C105.3,165,114.6,163.9,123.8,162.9z"/>
	<path display="inline" fill="#F6A127" d="M522.1,361.7c4.9,3.2,5,7.2,4.1,12.7c-0.6,3.6,2,8.3,4.1,11.8c2.1,3.5,5.6,6.3,9,10
		c-2.1,1.8-4,3.5-7,6.1c12,2.3-4.6,10.6-4.1,19.3c-5.1,1.8-2.1,3.5-8.1,5.6c4.4,4.9,0.3,9.2,4.3,13.6c-4.7,8.4-58.6,9-69.2,11.6
		c3,5.4-6.1,29.5-2.5,35.8c-6.4-1.2,31.3,29.8,25.6,28.7c-0.4,2-0.7,3.9-1,5.7c0.5,0.5,0.8,1,1,1c11.9-0.1,38.6-1.1,42.8,5.6
		c0.8,1.3,1.3,3.2,1.2,4.8c-0.4,7.7,3.3,17.2,9.9,17.9c2.5,0.3,5,1,8.2,1.7c-2.1,4.3-4,6.2-6.1,10.5c4.4,3.1,8.7,6.2,14,10
		c-5.9,1.3-10.7,2.6-15.5,3.4c-2.9,0.5-3,2.8-4.4,4.4c-6.4,7.6-2,15.6-4.6,23.2c-1.6,4.8-2.8,9.9-4.3,15.5c3.9,1,8.3,2,13.9,3.4
		c-3.5,3.8-0.6,7-3.5,10.4c-1.1,1.3-2.5,3.4-2.1,4.5c0.4,1.2,2.7,2.1,4.4,2.5c3.6,0.7,1.3,0.9,4.2,1.2c2.4,5.7,4.6,10.9,7.1,16.8
		c-2.4,2.4-24.4,25.4-27.9,28.9c2.8,2.2,11.4,29.2,14,31.2c-0.5,0,6.1,0.1,5.6,0.1c-0.3,9.7-3.9,19.5-3.9,29.2
		c0,3.4-0.6,5.5-3.5,7.3c-2.9,1.9-5.6,4.3-8.1,6.7c-3.6,3.4-3.4,7.5,0.9,10c4.8,2.7,9.9,5,15.5,7.8c-0.9,1.3-8.7,2.9-9.9,4.1
		c-4.6,4.8-0.6,9.8,3.2,16.5c0.6,1.1-0.1,2.9,0,4.3c0.2,3.5-0.1,7.3,1.1,10.5c1.3,3.5,0.7,5.4-2.4,7.2c-1.9,1.1-4.7,2.6-4.9,4.1
		c-0.3,2.5,0.4,6,2.1,7.6c3.8,3.7,10.8,5.7,12.1,9.8c1.3,4-3,9.7-4.6,14.8c-0.4,1.1-0.1,3.1,0.6,3.9c6.3,6.1-0.7,12.5-6,19.4
		c2.7,2.7,5.3,5.3,7.7,7.8c-1.8,3.8-3.5,7.4-5.2,11c-0.2,0-0.4,0-0.6,0.1c1-3.5,1.9-7.1,3.1-11.5c-1.7-1.6-4.2-4-7.1-6.7
		c0.8-1.8,1.6-3.6,2.5-5.4c2.3-4.5,2-8.6-2-11.9c-3.2-2.6-3.5-5.1-1.8-9c5.5-13.5,7.7-10.6-6.3-19.2c-6.4-3.9-7.1-11.3-1-15.3
		c4-2.6,4.6-5.1,2.2-9c-0.7-1.2-1.2-3-0.8-4.2c1.5-5.2,1.7-10.1-1.8-14.8c-0.5-0.7,0.2-2.7,0.9-3.8c1.8-2.9,3.9-5.7,6-8.6
		c-4.8-2.6-9.2-4.8-13.4-7.3c-4.1-2.4-5-9.8-1.8-13.4c0.7-0.8,1.4-1.8,2.3-2.4c11.7-7,10.5-17.8,8.9-28.9c-0.1-0.5-0.3-1.1-0.3-1.6
		c-0.6-9.5-10.6-34.5-18.8-40.5c3.7-3.4,22.3-26.7,25.7-29.7c-1.2-3,2.1-5.7,0.7-8c-0.9-1.4-3-2.9-4.5-2.9
		c-7.5,0.2-12.1-3.4-15.1-10.5c2.3-2.9,4.8-6,7.8-9.8c-4.4-1-8.2-1.9-11.9-2.7c2.5-6.6,1.9-12.8,4.3-19.1c1.5-4.1,4.1-8,1.5-11.5
		c-2.2-2.9,1-5.6,3.5-8.4c1.4-1.6,2.8-3.9,2.7-5.8c-0.1-5.5,1.4-9,8-8.7c0.2-0.5,0.3-1.1,0.5-1.6c-1.9-0.7-3.8-1.4-5.7-2.1
		c1.8-4.1,3.1-7.1,4.5-10.3c-1.4-0.4-2.4-0.8-3.4-1.1c-6.7-1.9-11.4-9.6-10.5-18.3c0.2-1.7-0.7-3.6-1.2-5.4
		c-2.7-9.6-17.6-4-27.4-4.5c-1.3-0.1-22.5-3.3-24.7-3.5c3.8-9-23.7-28.2-27.8-37.2c4.8,0.7,7.7-31.7,12.6-30.9
		c-2.1-3.9,8.2-9,6.1-12.7c3-0.7,17.5,1.8,19.9,1.3c2.2-0.5,4.4-0.7,6.5-1.3c7.4-2.3,33.3-0.6,28.9-6.5c-3.4-4.5-5.3-10.1-8.2-16
		c6.4-2.4,11.3-4.2,17.9-6.6c-7.3-3.4,3.5-6.2-3.1-9.3c3.2-3.3,6-6.2,9-9.2c-2.5-3.8-5.7-7.1-7.2-11.1c-2.8-7.3-1.8-16-7.6-22.3
		C506.3,362.3,517.7,362,522.1,361.7z"/>
	<path display="inline" fill="#F6A127" d="M86.5,524.5"/>
	<path display="inline" fill="#F6A127" d="M1002,402.4c0.8,4.5-29-17.2-39.6-7.7c-10.6,9.5-24.4,20.2-36.9,29.6
		c-14.2,10.7-4.1,49.7-7.5,53c-3.4,3.4,21.3,9.1,18.5,13.7c-0.8,1.4-2.4,3.3-2.2,4.3c2.6,15.2-3.4,9.5-5.8,22.9
		c-3.3,18.5,14.2,44.8,16.7,62.1c0.5,3.8-38.3,21.6-35.4,24.1c3.2,2.9-45.1,5.6-45.5,11.1c-1.2,15.2-8.9,19.4-17.2,23.7
		c-1.2,0.6-2.3,1.6-3.3,2.4c2,18.4,21,50.4,7.7,57.6c-1.6,0.9-3.2,1.8-5.1,2.9c2.3,8.4,11.4,31.4,11.2,39.7
		c-0.2,7.8,6.2,15.8,3.2,24.5c4.3,2.5,62.4,8.4,66.7,10.2c3.8,1.6,5.7-2.8,4.7,2.9c-1.1,6.3,0.6,7,3.5,11.5
		c1.7,2.6,3.1,7.2,2.6,10.5c-1.7,11.4-3.5,22.3,9.6,25.3c-4.9,4.7-8,8-11.3,10.7c-11.8,9.8-74.8,14.1-70.3,30.9
		c3.7,13.9,3.1,19.7-6.1,30.3c-1.5,1.7-3,3.6-4.4,5.5c-2.4,3.4-4.7,7-7.5,11.2c5.5,4.4,10.5,8.5,15.7,12.5
		c5.6,4.3,7.2,10.8,5.7,19.6c-2.3,13.2-4.3,26.4-6.6,39.6c-1.2,6.9,0.2,11.7,4.2,15.4c1.9,1.7,3.5,3.9,5.1,6.1
		c3.7,5.1,9.9,16.2,4.8,18.5c-6.9,3-12.3,7.1-15.3,17.3c-1.3,4.4-1.8,7.2-4.1,11.4c-2.1,3.7-4.6,8.4-4.7,12.4
		c-0.2,13.9,0.3,27.7,5.2,40.1c2.7,6.8,0.4,16.7-4.4,21.9c-3.6,3.9-7.4,7.5-10.6,10.7c2.8,12.1,5.4,22.9,7.9,33.7
		c0.4-0.1,0.7-0.3,1.1-0.4c-1.9-10.4-3.9-20.9-6-32.3c1.7-1.7,4.2-4.1,6.7-6.4c9.7-9.3,11.2-18.6,8.1-33
		c-2.4-11.2-2.5-23.6-3.1-35.6c-0.1-2.2,2.4-5.1,3.9-7.4c3.4-5.3,2.7-10.9,6.6-15.3c3.3-3.8,7.2-7.1,11.2-9.1
		c9.4-4.7,6.2-25.1-1.3-33c-7.5-7.9-8.1-17.1-5.1-28.7c1.6-6.4,2.6-13.2,4.6-19.4c2.8-8.4,3.5-16.4,0.5-24.2
		c-1.4-3.6-2.6-7.5-4.6-10.3c-2.1-2.9-5-4.6-7.2-6.6c4.3-7.3,8.4-14.2,12.5-21.1c3.4-5.7,3.5-11.1,1.8-17.7
		c-1.8-6.8,53.2-6.7,57.4-15c1.2-2.3,2.7-4.6,4.3-6.3c9.7-9.7,19.4-19.2,30.3-29.9c-6.1-4.7-10.5-8.6-15.2-11.8
		c-3.3-2.2-4.9-4.5-3.3-9.9c2.4-8.2,0.9-14.7-3-21.2c-1.9-3.2-2.2-9.6-1.6-14.3c1.2-9-53.5-7.3-60.7-9.3c-1.1-0.3-2-1.7-1.1-3.1
		c0-7-15.9-29-15.9-37.3c4.4-2,11.1-22.6,17.1-25.3c-0.8-6.6-21.5-26.8-22.2-32.7c0.5-0.8,0.7-1.5,1-1.6
		c10.9-3.4,15.2-12.3,15.6-27.4c0.2-6.4,52.7-13.1,55.3-19.6c1.2-3.1,2.6-6.1,4.3-9.9C938,594,972,588.7,967,583.4
		c-7.3-7.7-7.9-32.8-0.2-41.3c5.8-6.4-1.8-21-2.1-30.6c-0.1-3.6-3-8.2-1.1-11.4c2.7-4.3,12-7.5,9.3-11.5c-4.4-6.5-23.5-44.9-16.7-54
		c7.6-10,19.4-8.9,29.9-18.8c12.2-11.7,44.9,22,43.8,15.6C1020.5,430.4,1011.3,403.4,1002,402.4z"/>
	<path display="inline" fill="#F6A127" d="M934,764l18-41.3l58,1.3l-6,19.3l-31.3-4c0,0-6-8.7-11.3-0.7c-5.3,8-18.7,30.7-18.7,30.7
		L934,764z"/>
	<path display="inline" fill="#F6A127" d="M590,690.5l-7.5,15l-5,12l2.5,12l-2,7l-7.5,10.5c0,0-2,2,2.5,6s15,8.5,15,8.5l2.5,6
		l-2.5,11l-3,6l-7.5,18l-9.5,13l12.5,20.5l11,8l-1,6.5L590,857l-6,7l-8.5,10l-3.5,11l-17,7l-8,2l-17.5-1.5l-8,5.5l-5,9L506,919.5
		c0,0-1.5,6-1.5,9s-3,13-3,13l13-5l-0.5-15l7.5-13.5l8.5-4l32-1l8.5-8l6-5.5l22-18l3-18l1-10.5l-6.5-6l-7.5-9.5l3.5-20l8.5-10l-6-3
		l-3-4l2.5-9l6.5-8.5l3.5-16l-12.5-14l-7-15l13.5-32v-4.5L590,690.5z"/>
	<polygon display="inline" fill="#F6A127" points="506,367.3 530,341.3 537.3,332 558.7,327.3 578.7,327.3 590.7,316.7 600.7,295.3 
		610,286.7 633.3,276.7 662.7,282 668.7,267.3 668.7,246.7 676,236 671.3,224 657.3,207.3 653.3,202.1 626,198.7 650,214 658,220.7 
		662.7,238 661.3,244.7 649.3,258 652,269.3 631.3,274 618,274 599.3,275.3 590.7,289.3 594,295.3 579.3,300 570.7,309.3 572,318 
		556.7,321.3 536.7,319.3 518,316 497.3,318 526.7,328.7 516.7,335.3 500.7,343.3 494,352.7 	"/>
	<path display="inline" fill="#F6A127" d="M174,367c0,0,15,11,18,8s20-6,20-6l8,19l13,13l-2,11l19,4h13l25,4l-4,14l15,10l-13,21
		l-6,22l8,34l19,15l22,2l16-2l16,4l6,23l11,12l-11,16l-10,16l1,24l2,23h13l-5,13l-15,16l-8,7l16,22l7,17v22l-13,17l-29,6l-19,3
		l-14,10l-1,17l4,17l-12,7l4,11l21,8l-3,10l-25,19l3,16l4,9l7-13l12-3l4-3l-1-10l1-7l8-9l2-11l-12-12v-17l7-23l16-7l21-9h13l18-7
		l-10-11l7-15l8-3l-4-12l-1-26l-14,15l-2-23l8-28l13-13l-20-21l-2-15l12-22l8-19l19-16l-17-4l-14-21l-30-12l-25,4l13-24l-20,1l-9-17
		l1-16h-9l15-26l-5-16l-3-19l-9-3l-11-13l-26,1l-17-5l-5-22l-22-11l-29.3-6.2L174,367z"/>
	<path display="inline" fill="#F6A127" d="M993.5,78c0,0-15,11-18,8s-20-6-20-6l-8,19l-13,13l2,11l-19,4h-13l-25,4l4,14l-15,10
		l13,21l6,22l-8,34l-19,15l-22,2l-16-2l-16,4l-6,23l-11,12l11,16l10,16l-1,24l-2,23h-13l5,13l15,16l8,7l-16,22l-7,17v22l13,17l29,6
		l19,3l14,10l1,17l-4,17l12,7l-4,11l-21,8l3,10l23,8l-3,16l-4,9l-7-13l-13-5l-1-7l-8-9l-2-11l12-12v-17l-7-23l-16-7l-21-9h-13l-18-7
		l10-11l-7-15l-8-3l4-12l1-26l14,15l2-23l-8-28l-13-13l20-21l2-15l-12-22l-8-19l-19-16l17-4l14-21l30-12l25,4l-13-24l20,1l9-17
		l-1-16h9l-15-26l5-16l3-19l9-3l11-13l26,1l17-5l5-22l22-11l29.3-6.2L993.5,78z"/>
	<path display="inline" fill="#F6A127" d="M616.6,275.4l4.1,1.1c3.8,2.9,3.8,7.3,0.3,10.5c-0.8,0.7-1.6,1.6-2.6,2.1
		c-12.4,5.6-12.4,16.6-12,27.7c0,0.6,0.1,1.1,0.1,1.7c-0.4,9.5,6.7,35.4,14.2,42.3c-4,2.9-25.2,24-28.9,26.7
		c0.9,3.1-2.7,5.5-1.5,7.8c0.8,1.5,2.7,3.2,4.2,3.4c7.5,0.6,11.7,4.7,13.8,12.1c-2.6,2.6-5.4,5.4-8.8,8.8c4.2,1.5,7.9,2.8,11.5,4
		c-3.2,6.2-3.3,12.5-6.3,18.5c-1.9,3.9-5,7.4-2.8,11.3c1.8,3.2-1.6,5.4-4.4,8c-1.5,1.4-3.2,3.5-3.3,5.5c-0.5,5.4-2.4,8.8-8.9,7.8
		c-0.2,0.5-0.4,1-0.7,1.5c1.8,0.9,3.6,1.8,5.4,2.8c-2.2,3.9-3.8,6.7-5.6,9.7c1.3,0.6,2.3,1,3.3,1.5c6.5,2.7,10.3,10.8,8.4,19.4
		c-0.4,1.7,0.3,3.7,0.6,5.5c1.6,9.9,17.1,5.9,26.7,7.5c1.2,0.2,22,5.8,24.1,6.2c-4.8,8.6,20.4,30.7,23.4,40.1
		c-4.7-1.3-11.1,30.6-16,29.3c1.7,4.1-9.1,8-7.5,12c-3.1,0.3-17.2-3.7-19.7-3.5c-2.2,0.2-4.5,0.2-6.6,0.6
		c-7.7,1.4-33.2-3.1-29.4,3.3c2.9,4.9,4.1,10.7,6.4,16.8c-6.6,1.6-11.7,2.9-18.5,4.6c6.9,4.2-4.2,5.8,2,9.6
		c-3.6,2.9-6.7,5.5-9.9,8.2c2.1,4,21.9,15.7,22.9,19.8c2,7.6,0,16.1,5.1,23c-4.4-0.2-8.9-0.4-13.3-0.5c-4.5-3.7-4.2-7.7-2.6-13.1
		c1-3.5-1-8.4-2.8-12.2c-1.7-3.7-21.8-14.9-24.8-18.9c2.3-1.6,4.4-3,7.7-5.2c-11.6-3.6,5.7-10.1,6.2-18.8c5.3-1.2,2.5-3.3,8.7-4.7
		c-3.9-5.4,0.7-9.2-2.8-14c5.6-7.8,59.3-2.5,70-3.8c-2.4-5.7,9.3-28.6,6.5-35.3c6.2,1.9-27.8-33.1-22.2-31.4c0.6-2,1.1-3.8,1.6-5.5
		c-0.4-0.5-0.6-1-0.9-1.1c-11.8-1.2-42.4-3.2-45.9-10.4c-0.7-1.4-0.9-3.3-0.7-4.9c1.2-7.7-1.4-17.4-7.8-18.9c-2.5-0.6-0.9-1.6-4-2.6
		c2.6-4.1,4.6-5.7,7.2-9.8c-4-3.6-7.9-7.1-12.8-11.5c6.1-0.7,10.9-1.4,15.8-1.7c2.9-0.2,3.3-2.4,4.9-3.9c7.2-6.8,3.7-15.3,7.1-22.5
		c2.2-4.6,3.9-9.5,6-14.9c-3.8-1.4-8-2.9-13.4-4.9c3.9-3.4,1.4-6.9,4.6-10c1.2-1.2,2.9-3.1,2.6-4.3c-0.3-1.2-2.5-2.4-4.1-2.9
		c-3.5-1.1-1.2-1-4-1.7c-1.8-6-3.4-11.3-5.2-17.5c2.6-2.1,13.8-22.5,30.9-25.6c-2.6-2.5-15-31.1-17.4-33.4c0.5,0,0.9,0,1.4,0
		c1.4-9.6,6.1-18.9,7.1-28.6c0.4-3.3,1.2-5.4,4.3-6.9c3.1-1.5,6-3.6,8.8-5.7C620.4,282.4,620.5,278.3,616.6,275.4"/>
	<path display="inline" fill="#F6A127" d="M866.2,758.3c-7.2,2.5-13-19-13.5-21c-2.6,2.5-5,4.9-8.2,8.1c-0.8-2.9-1.6-5.6-2.3-8.4
		c-0.4,0.3-0.9,0.6-1.3,0.9c0.8,10.1-2,12.9-6.6,13.4c-1.6,0.2-3.5,2.6-4.6,4.9c-2.2,4.2-4.4,4.8-7,1.9c-3.3-3.6-6.6-3.6-9.9-0.8
		c-5.1,4.4-10.1,8.9-15.4,13.5c-1-5.5-2.1-11.3-3.4-17.8c-2.9,5.1-5.3,9.3-7.5,13.2c-6.2-3.6-9.7-10.2-10.2-21.7
		c-0.1-2.3-1.6-5.3-2.9-6.5c-2-1.9-4.4-2.6-7-4.1c-2.3,5.6-4.7,11.5-7.2,17.6c-5.8-11.8-5.8-11.8-13.8-11.5c-0.5,0-0.9-0.2-1.4-0.2
		l-21.8,0.7c1.3-4.7,3-5.9,5.8-6.3c8.2-1.1,16.3-3.3,24.5-5c0-0.7,0-1.5,0-2.2c1.9,3.7,3.8,7.3,6,11.4c2.6-5.7,4.9-10.8,6.7-14.7
		c5.2,3.1,9.7,5.8,14.8,8.8c0.5,4.4,1,10,2,15.4c0.4,2.5,1.4,5.9,2.5,6.4c1,0.4,2.6-2,3.6-3.8c2.6-4.8,5-10,7.9-15.9
		c1.7,8.4,3,15,4.2,20.9c4.6-3.1,8.7-5.4,12.6-8.6c6.1-4.9,13.6,5.4,19.4-5.3c1.3-2.4,3.2-2.9,3.3-7.4c0.2-7.5,0.9-14.9,1.5-24.2
		c3.7,7.6,6.7,13.8,9.7,20.1c3.5-3.8,6.6-7.1,10-10.9c0.9,4.8,1.7,8.5,2.2,12.4L866.2,758.3z"/>
	<path display="inline" fill="#F6A127" d="M949.4,829.2c-1,1.4-2,2.7-3,4.2c-3,4.3-3.8,2-2.5-7c-4,1.2-4.1,1.1-3.8-3.9
		c-0.9,0.6-1.8,1.3-2.8,2c0.7-3.1,1.3-5.8,2.2-9.7c-3.4,7.5-6.2,12.3-6.7,7.7c-2.4,2.3-4.1,3.6-5.9,5.9c-2.2,2.8-4.4,6.7-6.7,10.2
		c0-0.7,0-1,0.1-1.4c3.3-13.7,3.3-13.6-1.3-14c-0.6-0.1-1-1-1-2.3c0.1-4,0.4-8.4,0.7-14.3c-3.8,11.1-5.6,11-7.2,8.4
		c-0.3-0.4-2.2,3.1-3.9,5.8c-2.1,0.4-4.7,0.9-7.3,1.4c-0.1-3.5-0.2-6.9-0.3-10.4c-0.7,0.9-1.7,2.1-2.7,3.2c0.4-8.3-0.9-8-5.6,1.6
		c-0.3-0.9-0.7-1.6-1-2.7c-0.3-1.1-0.4-2.4-0.6-3.6c-2.3,2.9-4.5,5.6-6.9,8.6c-0.9-2-4-4.5-7.9,0.5c1.9-3.4,1.5-2.4,3.3-5.4
		c1.8,0.9,2.4-1,4-0.2c-0.2,0.7,1.5,1.8,1.3,2.5c2.3-2.9,4.6-5.8,7-9c0.4,1.8,0.8,3.8,1.2,5.8c4.2-8.1,6.7-9.2,6.9-3
		c1.1-1.4,2.1-2.8,3.5-4.7c-1.8,8.5-1.3,12.6,1.6,12.1c0.6-0.1,1.2-0.5,1.8-0.9c0.9-0.6,1.9-1.3,3.2-2.2c3.1-7.9,3.9-3.1,5.6-2.2
		c1.5-3.6,3-7.2,5-11.8c0.4,4.6,1.3,8,0.8,13.1c-0.5,5.4,0.9,5,2.5,4.5c2.5-0.9,3.5,0.9,1.4,9.5c3.3-7,6.1-3.3,9-15.2
		c1,1.9,1.7,3.3,2.4,4.9c1.5-3.6,2.8-6.9,4.8-11.6c0.7,2.7,1.3,5.2,2,7.7c-0.2,0.5-0.5,1-0.7,1.5c0.7-0.6,1.5-1.1,2.4-1.9
		c-0.3,2.1-0.5,4.1-0.9,6.6c2.6-1.6,5.3-2.9,3.3,5.8c1.7-1.1,3.3-2.2,4.8-3.2C950.9,824.5,950.1,826.8,949.4,829.2z"/>
	<path display="inline" fill="#F6A127" d="M407.8,187.4c0.3,0.5-20.5,1.2-20.1,4.1c0.2,1.5,0.1,3.6-0.5,4.7c-1.3,2.1-1.8,4.2-1,6.9
		c0.5,1.8,0,2.5-1.1,3.3c-1.5,1-3,2.3-4.9,3.9c3.6,3.5,6.7,6.6,9.9,9.8c0.5,0.5,1,1.3,1.4,2c1.4,2.7,19.2,2.6,18.6,4.9
		c-0.5,2.2-0.5,3.9,0.6,5.8c1.3,2.2,2.7,4.5,4.1,6.9c-0.7,0.6-1.7,1.2-2.3,2.2c-0.6,0.9-1,2.2-1.5,3.4c-0.9,2.6-0.7,5.2,0.2,7.9
		c0.7,2,1,4.2,1.5,6.4c1,3.8,0.8,6.8-1.6,9.4c-2.4,2.6-3.4,9.3-0.4,10.8c1.3,0.7,2.6,1.7,3.7,3c1.3,1.5,1,3.3,2.2,5
		c0.5,0.8,1.3,1.7,1.3,2.4c-0.2,3.9-0.2,8-1,11.6c-1,4.7-0.5,7.8,2.7,10.8c0.8,0.8,1.6,1.6,2.2,2.1c-0.7,3.7-1.3,7.2-1.9,10.6
		c0.1,0,0.2,0.1,0.3,0.1c0.8-3.5,1.6-7.1,2.5-11c-1-1-2.3-2.2-3.5-3.5c-1.6-1.7-2.3-4.9-1.5-7.2c1.6-4.1,1.7-8.6,1.6-13.1
		c0-1.3-0.9-2.9-1.5-4.1c-0.8-1.4-0.9-2.3-1.4-3.7c-1-3.3-2.8-4.6-5-5.6c-1.7-0.7,0.3-4.4,1.5-6.1c0.5-0.7,1-1.5,1.6-2
		c1.3-1.2,1.8-2.8,1.4-5c-0.8-4.3-1.4-8.6-2.2-12.9c-0.5-2.9,0-5,1.8-6.4c1.7-1.3,3.3-2.7,5.1-4.1c-0.9-1.4-1.7-2.5-2.5-3.7
		c-0.4-0.6-0.9-1.2-1.4-1.8c-3-3.5-3.2-5.3-2-9.9c1.4-5.5-19-6.9-22.9-10.1c-1.1-0.9-2.1-2-3.7-3.5c4.3-1,3.7-4.5,3.1-8.3
		c-0.2-1.1,0.3-2.6,0.8-3.4c0.9-1.5,1.5-1.7,1.1-3.8c-0.3-1.9,0.3-0.4,1.5-1c1.4-0.6,20.2-2.6,21.6-3.4c-1-2.8-8.5-3.8-8.5-3.8"/>
	<path display="inline" fill="#F6A127" d="M359.5,637.5L350,633l-5-2l-10,6l-9.5,14.5l-15.5-2c-9,1-12,7-12,7l7-3.5l3-1l11.5,1.5
		l7.5,7l2-7l8,1.5l6.5-16.5l21.5,8L359.5,637.5z"/>
	<path display="inline" fill="#F6A127" d="M147,735l-13,23.5c0,0-7,7-7.5,8.5s-1.5,20-1.5,20l5,13.5l-2,13.5l-8,10l-0.5,11l9,10.5
		l-2,10.5l-1,7l5.5,30l6,26.5l-7.5-57l5-13l1-12l-8-2.5l-2-6l12-9l-2.5-22l-7-26l21-29L147,735z"/>
</g>
</svg>
