<?xml version="1.0" encoding="utf-8"?>
<!-- Generator: Adobe Illustrator 15.0.2, SVG Export Plug-In . SVG Version: 6.00 Build 0)  -->
<!DOCTYPE svg PUBLIC "-//W3C//DTD SVG 1.1//EN" "http://www.w3.org/Graphics/SVG/1.1/DTD/svg11.dtd">
<svg version="1.1" xmlns="http://www.w3.org/2000/svg" xmlns:xlink="http://www.w3.org/1999/xlink" x="0px" y="0px" width="1920px"
	 height="1280px" viewBox="0 0 1920 1280" enable-background="new 0 0 1920 1280" xml:space="preserve">
<g id="Ebene_1" display="none">
	<polygon display="inline" fill="#F59B19" points="1.094,0 4.926,1280 1919.999,1280 1919.999,0 	"/>
	<polygon display="inline" fill="#F39205" points="0,1007.732 0,1142.044 45.991,1142.044 84.764,1074.887 45.991,1007.732 	"/>
	<polygon display="inline" fill="#F39205" points="0,719.108 0,853.419 45.991,853.419 84.764,786.265 45.991,719.108 	"/>
	<polygon display="inline" fill="#F39205" points="0,0 0,131.862 45.991,131.862 84.764,64.706 47.405,0 	"/>
	<polygon display="inline" fill="#F39205" points="0,141.862 0,276.174 45.991,276.174 84.764,209.018 45.991,141.862 	"/>
	<polygon display="inline" fill="#F39205" points="0,286.174 0,420.485 45.991,420.485 84.764,353.329 45.991,286.174 	"/>
	<polygon display="inline" fill="#F39205" points="0,574.797 0,709.107 45.991,709.107 84.764,641.953 45.991,574.797 	"/>
	<polygon display="inline" fill="#F39205" points="0,863.421 0,997.732 45.991,997.732 84.764,930.575 45.991,863.421 	"/>
	<polygon display="inline" fill="#F39205" points="0,1152.043 0,1280 49.66,1280 84.764,1219.199 45.991,1152.043 	"/>
	<polygon display="inline" fill="#F39205" points="0,430.485 0,564.796 45.991,564.796 84.764,497.642 45.991,430.485 	"/>
	<polygon display="inline" fill="#F39205" points="93.536,1213.33 54.764,1146.174 93.536,1079.019 171.081,1079.019 
		209.853,1146.174 171.081,1213.33 	"/>
	<polygon display="inline" fill="#F39205" points="93.536,924.707 54.764,857.551 93.536,790.395 171.081,790.395 209.853,857.551 
		171.081,924.707 	"/>
	<polygon display="inline" fill="#F39205" points="93.536,203.149 54.764,135.993 93.536,68.837 171.081,68.837 209.853,135.993 
		171.081,203.149 	"/>
	<polygon display="inline" fill="#F39205" points="93.536,347.46 54.764,280.305 93.536,213.148 171.081,213.148 209.853,280.305 
		171.081,347.46 	"/>
	<polygon display="inline" fill="#F39205" points="93.536,491.772 54.764,424.616 93.536,357.46 171.081,357.46 209.853,424.616 
		171.081,491.772 	"/>
	<polygon display="inline" fill="#F39205" points="93.536,780.396 54.764,713.239 93.536,646.083 171.081,646.083 209.853,713.239 
		171.081,780.396 	"/>
	<polygon display="inline" fill="#F39205" points="93.536,1069.019 54.764,1001.862 93.536,934.707 171.081,934.707 
		209.853,1001.862 171.081,1069.019 	"/>
	<polygon display="inline" fill="#F39205" points="93.536,1223.331 60.818,1280 203.799,1280 171.081,1223.331 	"/>
	<polygon display="inline" fill="#F39205" points="93.536,636.084 54.764,568.928 93.536,501.772 171.081,501.772 209.853,568.928 
		171.081,636.084 	"/>
	<polygon display="inline" fill="#F39205" points="59.567,0 93.536,58.838 171.081,58.838 205.05,0 	"/>
	<polygon display="inline" fill="#F39205" points="218.626,1142.043 179.854,1074.888 218.626,1007.731 296.171,1007.731 
		334.943,1074.888 296.171,1142.043 	"/>
	<polygon display="inline" fill="#F39205" points="218.626,853.42 179.854,786.265 218.626,719.108 296.171,719.108 
		334.943,786.265 296.171,853.42 	"/>
	<polygon display="inline" fill="#F39205" points="217.212,0 179.854,64.706 218.626,131.862 296.17,131.862 334.943,64.706 
		297.585,0 	"/>
	<polygon display="inline" fill="#F39205" points="218.626,276.174 179.854,209.018 218.626,141.862 296.171,141.862 
		334.943,209.018 296.171,276.174 	"/>
	<polygon display="inline" fill="#F39205" points="218.626,420.485 179.854,353.33 218.626,286.173 296.171,286.173 334.943,353.33 
		296.171,420.485 	"/>
	<polygon display="inline" fill="#F39205" points="218.626,709.108 179.854,641.953 218.626,574.797 296.171,574.797 
		334.943,641.953 296.171,709.108 	"/>
	<polygon display="inline" fill="#F39205" points="218.626,997.731 179.854,930.576 218.626,863.42 296.171,863.42 334.943,930.576 
		296.171,997.731 	"/>
	<polygon display="inline" fill="#F39205" points="218.626,1152.043 179.853,1219.199 214.957,1280 299.839,1280 334.943,1219.199 
		296.17,1152.043 	"/>
	<polygon display="inline" fill="#F39205" points="218.626,564.797 179.854,497.641 218.626,430.485 296.171,430.485 
		334.943,497.641 296.171,564.797 	"/>
	<polygon display="inline" fill="#F39205" points="343.715,1213.33 304.943,1146.174 343.715,1079.019 421.261,1079.019 
		460.033,1146.174 421.261,1213.33 	"/>
	<polygon display="inline" fill="#F39205" points="343.715,924.707 304.943,857.551 343.715,790.395 421.261,790.395 
		460.033,857.551 421.261,924.707 	"/>
	<polygon display="inline" fill="#F39205" points="343.715,203.149 304.943,135.993 343.715,68.837 421.261,68.837 460.033,135.993 
		421.261,203.149 	"/>
	<polygon display="inline" fill="#F39205" points="343.715,347.46 304.943,280.305 343.715,213.148 421.261,213.148 
		460.033,280.305 421.261,347.46 	"/>
	<polygon display="inline" fill="#F39205" points="343.715,491.772 304.943,424.616 343.715,357.46 421.261,357.46 460.033,424.616 
		421.261,491.772 	"/>
	<polygon display="inline" fill="#F39205" points="343.715,780.396 304.943,713.239 343.715,646.083 421.261,646.083 
		460.033,713.239 421.261,780.396 	"/>
	<polygon display="inline" fill="#F39205" points="343.715,1069.019 304.943,1001.862 343.715,934.707 421.261,934.707 
		460.033,1001.862 421.261,1069.019 	"/>
	<polygon display="inline" fill="#F39205" points="343.715,1223.331 310.998,1280 453.979,1280 421.26,1223.331 	"/>
	<polygon display="inline" fill="#F39205" points="343.715,636.084 304.943,568.928 343.715,501.772 421.261,501.772 
		460.033,568.928 421.261,636.084 	"/>
	<polygon display="inline" fill="#F39205" points="309.746,0 343.715,58.838 421.26,58.838 455.229,0 	"/>
	<polygon display="inline" fill="#F39205" points="468.805,1142.043 430.033,1074.888 468.805,1007.731 546.35,1007.731 
		585.122,1074.888 546.35,1142.043 	"/>
	<polygon display="inline" fill="#F39205" points="468.805,853.42 430.033,786.265 468.805,719.108 546.35,719.108 585.122,786.265 
		546.35,853.42 	"/>
	<polygon display="inline" fill="#F39205" points="467.391,0 430.033,64.706 468.805,131.862 546.35,131.862 585.122,64.706 
		547.765,0 	"/>
	<polygon display="inline" fill="#F39205" points="468.805,276.174 430.033,209.018 468.805,141.862 546.35,141.862 
		585.122,209.018 546.35,276.174 	"/>
	<polygon display="inline" fill="#F39205" points="468.805,420.485 430.033,353.33 468.805,286.173 546.35,286.173 585.122,353.33 
		546.35,420.485 	"/>
	<polygon display="inline" fill="#F39205" points="468.805,709.108 430.033,641.953 468.805,574.797 546.35,574.797 
		585.122,641.953 546.35,709.108 	"/>
	<polygon display="inline" fill="#F39205" points="468.805,997.731 430.033,930.576 468.805,863.42 546.35,863.42 585.122,930.576 
		546.35,997.731 	"/>
	<polygon display="inline" fill="#F39205" points="468.806,1152.043 430.033,1219.199 465.137,1280 550.02,1280 585.123,1219.199 
		546.351,1152.043 	"/>
	<polygon display="inline" fill="#F39205" points="468.805,564.797 430.033,497.641 468.805,430.485 546.35,430.485 
		585.122,497.641 546.35,564.797 	"/>
	<polygon display="inline" fill="#F39205" points="593.895,1213.33 555.123,1146.174 593.895,1079.019 671.44,1079.019 
		710.212,1146.174 671.44,1213.33 	"/>
	<polygon display="inline" fill="#F39205" points="593.895,924.707 555.123,857.551 593.895,790.395 671.44,790.395 
		710.212,857.551 671.44,924.707 	"/>
	<polygon display="inline" fill="#F39205" points="593.895,203.149 555.123,135.993 593.895,68.837 671.44,68.837 710.212,135.993 
		671.44,203.149 	"/>
	<polygon display="inline" fill="#F39205" points="593.895,347.46 555.123,280.305 593.895,213.148 671.44,213.148 710.212,280.305 
		671.44,347.46 	"/>
	<polygon display="inline" fill="#F39205" points="593.895,491.772 555.123,424.616 593.895,357.46 671.44,357.46 710.212,424.616 
		671.44,491.772 	"/>
	<polygon display="inline" fill="#F39205" points="593.895,780.396 555.123,713.239 593.895,646.083 671.44,646.083 
		710.212,713.239 671.44,780.396 	"/>
	<polygon display="inline" fill="#F39205" points="593.895,1069.019 555.123,1001.862 593.895,934.707 671.44,934.707 
		710.212,1001.862 671.44,1069.019 	"/>
	<polygon display="inline" fill="#F39205" points="593.895,1223.331 561.177,1280 704.159,1280 671.439,1223.331 	"/>
	<polygon display="inline" fill="#F39205" points="593.895,636.084 555.123,568.928 593.895,501.772 671.44,501.772 
		710.212,568.928 671.44,636.084 	"/>
	<polygon display="inline" fill="#F39205" points="559.925,0 593.895,58.838 671.439,58.838 705.409,0 	"/>
	<polygon display="inline" fill="#F39205" points="718.984,1142.043 680.212,1074.888 718.984,1007.731 796.529,1007.731 
		835.301,1074.888 796.529,1142.043 	"/>
	<polygon display="inline" fill="#F39205" points="718.984,853.42 680.212,786.265 718.984,719.108 796.529,719.108 
		835.301,786.265 796.529,853.42 	"/>
	<polygon display="inline" fill="#F39205" points="717.57,0 680.212,64.706 718.984,131.862 796.529,131.862 835.301,64.706 
		797.944,0 	"/>
	<polygon display="inline" fill="#F39205" points="718.984,276.174 680.212,209.018 718.984,141.862 796.529,141.862 
		835.301,209.018 796.529,276.174 	"/>
	<polygon display="inline" fill="#F39205" points="718.984,420.485 680.212,353.33 718.984,286.173 796.529,286.173 835.301,353.33 
		796.529,420.485 	"/>
	<polygon display="inline" fill="#F39205" points="718.984,709.108 680.212,641.953 718.984,574.797 796.529,574.797 
		835.301,641.953 796.529,709.108 	"/>
	<polygon display="inline" fill="#F39205" points="718.984,997.731 680.212,930.576 718.984,863.42 796.529,863.42 835.301,930.576 
		796.529,997.731 	"/>
	<polygon display="inline" fill="#F39205" points="718.985,1152.043 680.212,1219.199 715.316,1280 800.199,1280 835.302,1219.199 
		796.53,1152.043 	"/>
	<polygon display="inline" fill="#F39205" points="718.984,564.797 680.212,497.641 718.984,430.485 796.529,430.485 
		835.301,497.641 796.529,564.797 	"/>
	<polygon display="inline" fill="#F39205" points="844.074,1213.33 805.302,1146.174 844.074,1079.019 921.619,1079.019 
		960.392,1146.174 921.619,1213.33 	"/>
	<polygon display="inline" fill="#F39205" points="844.074,924.707 805.302,857.551 844.074,790.395 921.619,790.395 
		960.392,857.551 921.619,924.707 	"/>
	<polygon display="inline" fill="#F39205" points="844.074,203.149 805.302,135.993 844.074,68.837 921.619,68.837 960.392,135.993 
		921.619,203.149 	"/>
	<polygon display="inline" fill="#F39205" points="844.074,347.46 805.302,280.305 844.074,213.148 921.619,213.148 
		960.392,280.305 921.619,347.46 	"/>
	<polygon display="inline" fill="#F39205" points="844.074,491.772 805.302,424.616 844.074,357.46 921.619,357.46 960.392,424.616 
		921.619,491.772 	"/>
	<polygon display="inline" fill="#F39205" points="844.074,780.396 805.302,713.239 844.074,646.083 921.619,646.083 
		960.392,713.239 921.619,780.396 	"/>
	<polygon display="inline" fill="#F39205" points="844.074,1069.019 805.302,1001.862 844.074,934.707 921.619,934.707 
		960.392,1001.862 921.619,1069.019 	"/>
	<polygon display="inline" fill="#F39205" points="844.074,1223.331 811.356,1280 954.338,1280 921.619,1223.331 	"/>
	<polygon display="inline" fill="#F39205" points="844.074,636.084 805.302,568.928 844.074,501.772 921.619,501.772 
		960.392,568.928 921.619,636.084 	"/>
	<polygon display="inline" fill="#F39205" points="810.104,0 844.074,58.838 921.619,58.838 955.589,0 	"/>
	<polygon display="inline" fill="#F39205" points="969.164,1142.043 930.392,1074.888 969.164,1007.731 1046.709,1007.731 
		1085.48,1074.888 1046.709,1142.043 	"/>
	<polygon display="inline" fill="#F39205" points="969.164,853.42 930.392,786.265 969.164,719.108 1046.709,719.108 
		1085.48,786.265 1046.709,853.42 	"/>
	<polygon display="inline" fill="#F39205" points="967.75,0 930.391,64.706 969.164,131.862 1046.709,131.862 1085.48,64.706 
		1048.124,0 	"/>
	<polygon display="inline" fill="#F39205" points="969.164,276.174 930.392,209.018 969.164,141.862 1046.709,141.862 
		1085.48,209.018 1046.709,276.174 	"/>
	<polygon display="inline" fill="#F39205" points="969.164,420.485 930.392,353.33 969.164,286.173 1046.709,286.173 
		1085.48,353.33 1046.709,420.485 	"/>
	<polygon display="inline" fill="#F39205" points="969.164,709.108 930.392,641.953 969.164,574.797 1046.709,574.797 
		1085.48,641.953 1046.709,709.108 	"/>
	<polygon display="inline" fill="#F39205" points="969.164,997.731 930.392,930.576 969.164,863.42 1046.709,863.42 
		1085.48,930.576 1046.709,997.731 	"/>
	<polygon display="inline" fill="#F39205" points="969.164,1152.043 930.391,1219.199 965.495,1280 1050.378,1280 
		1085.481,1219.199 1046.709,1152.043 	"/>
	<polygon display="inline" fill="#F39205" points="969.164,564.797 930.392,497.641 969.164,430.485 1046.709,430.485 
		1085.48,497.641 1046.709,564.797 	"/>
	<polygon display="inline" fill="#F39205" points="1094.254,1213.33 1055.481,1146.174 1094.254,1079.019 1171.799,1079.019 
		1210.57,1146.174 1171.799,1213.33 	"/>
	<polygon display="inline" fill="#F39205" points="1094.254,924.707 1055.481,857.551 1094.254,790.395 1171.799,790.395 
		1210.57,857.551 1171.799,924.707 	"/>
	<polygon display="inline" fill="#F39205" points="1094.254,203.149 1055.481,135.993 1094.254,68.837 1171.799,68.837 
		1210.57,135.993 1171.799,203.149 	"/>
	<polygon display="inline" fill="#F39205" points="1094.254,347.46 1055.481,280.305 1094.254,213.148 1171.799,213.148 
		1210.57,280.305 1171.799,347.46 	"/>
	<polygon display="inline" fill="#F39205" points="1094.254,491.772 1055.481,424.616 1094.254,357.46 1171.799,357.46 
		1210.57,424.616 1171.799,491.772 	"/>
	<polygon display="inline" fill="#F39205" points="1094.254,780.396 1055.481,713.239 1094.254,646.083 1171.799,646.083 
		1210.57,713.239 1171.799,780.396 	"/>
	<polygon display="inline" fill="#F39205" points="1094.254,1069.019 1055.481,1001.862 1094.254,934.707 1171.799,934.707 
		1210.57,1001.862 1171.799,1069.019 	"/>
	<polygon display="inline" fill="#F39205" points="1094.253,1223.331 1061.535,1280 1204.518,1280 1171.798,1223.331 	"/>
	<polygon display="inline" fill="#F39205" points="1094.254,636.084 1055.481,568.928 1094.254,501.772 1171.799,501.772 
		1210.57,568.928 1171.799,636.084 	"/>
	<polygon display="inline" fill="#F39205" points="1060.284,0 1094.253,58.838 1171.798,58.838 1205.768,0 	"/>
	<polygon display="inline" fill="#F39205" points="1219.344,1142.043 1180.571,1074.888 1219.344,1007.731 1296.889,1007.731 
		1335.66,1074.888 1296.889,1142.043 	"/>
	<polygon display="inline" fill="#F39205" points="1219.344,853.42 1180.571,786.265 1219.344,719.108 1296.889,719.108 
		1335.66,786.265 1296.889,853.42 	"/>
	<polygon display="inline" fill="#F39205" points="1217.929,0 1180.57,64.706 1219.343,131.862 1296.888,131.862 1335.66,64.706 
		1298.303,0 	"/>
	<polygon display="inline" fill="#F39205" points="1219.344,276.174 1180.571,209.018 1219.344,141.862 1296.889,141.862 
		1335.66,209.018 1296.889,276.174 	"/>
	<polygon display="inline" fill="#F39205" points="1219.344,420.485 1180.571,353.33 1219.344,286.173 1296.889,286.173 
		1335.66,353.33 1296.889,420.485 	"/>
	<polygon display="inline" fill="#F39205" points="1219.344,709.108 1180.571,641.953 1219.344,574.797 1296.889,574.797 
		1335.66,641.953 1296.889,709.108 	"/>
	<polygon display="inline" fill="#F39205" points="1219.344,997.731 1180.571,930.576 1219.344,863.42 1296.889,863.42 
		1335.66,930.576 1296.889,997.731 	"/>
	<polygon display="inline" fill="#F39205" points="1219.344,1152.043 1180.57,1219.199 1215.674,1280 1300.558,1280 
		1335.66,1219.199 1296.889,1152.043 	"/>
	<polygon display="inline" fill="#F39205" points="1219.344,564.797 1180.571,497.641 1219.344,430.485 1296.889,430.485 
		1335.66,497.641 1296.889,564.797 	"/>
	<polygon display="inline" fill="#F39205" points="1344.433,1213.33 1305.661,1146.174 1344.433,1079.019 1421.978,1079.019 
		1460.75,1146.174 1421.978,1213.33 	"/>
	<polygon display="inline" fill="#F39205" points="1344.433,924.707 1305.661,857.551 1344.433,790.395 1421.978,790.395 
		1460.75,857.551 1421.978,924.707 	"/>
	<polygon display="inline" fill="#F39205" points="1344.433,203.149 1305.661,135.993 1344.433,68.837 1421.978,68.837 
		1460.75,135.993 1421.978,203.149 	"/>
	<polygon display="inline" fill="#F39205" points="1344.433,347.46 1305.661,280.305 1344.433,213.148 1421.978,213.148 
		1460.75,280.305 1421.978,347.46 	"/>
	<polygon display="inline" fill="#F39205" points="1344.433,491.772 1305.661,424.616 1344.433,357.46 1421.978,357.46 
		1460.75,424.616 1421.978,491.772 	"/>
	<polygon display="inline" fill="#F39205" points="1344.433,780.396 1305.661,713.239 1344.433,646.083 1421.978,646.083 
		1460.75,713.239 1421.978,780.396 	"/>
	<polygon display="inline" fill="#F39205" points="1344.433,1069.019 1305.661,1001.862 1344.433,934.707 1421.978,934.707 
		1460.75,1001.862 1421.978,1069.019 	"/>
	<polygon display="inline" fill="#F39205" points="1344.433,1223.331 1311.715,1280 1454.696,1280 1421.978,1223.331 	"/>
	<polygon display="inline" fill="#F39205" points="1344.433,636.084 1305.661,568.928 1344.433,501.772 1421.978,501.772 
		1460.75,568.928 1421.978,636.084 	"/>
	<polygon display="inline" fill="#F39205" points="1310.463,0 1344.433,58.838 1421.978,58.838 1455.947,0 	"/>
	<polygon display="inline" fill="#F39205" points="1469.522,1142.043 1430.75,1074.888 1469.522,1007.731 1547.067,1007.731 
		1585.84,1074.888 1547.067,1142.043 	"/>
	<polygon display="inline" fill="#F39205" points="1469.522,853.42 1430.75,786.265 1469.522,719.108 1547.067,719.108 
		1585.84,786.265 1547.067,853.42 	"/>
	<polygon display="inline" fill="#F39205" points="1468.108,0 1430.749,64.706 1469.522,131.862 1547.067,131.862 1585.839,64.706 
		1548.482,0 	"/>
	<polygon display="inline" fill="#F39205" points="1469.522,276.174 1430.75,209.018 1469.522,141.862 1547.067,141.862 
		1585.84,209.018 1547.067,276.174 	"/>
	<polygon display="inline" fill="#F39205" points="1469.522,420.485 1430.75,353.33 1469.522,286.173 1547.067,286.173 
		1585.84,353.33 1547.067,420.485 	"/>
	<polygon display="inline" fill="#F39205" points="1469.522,709.108 1430.75,641.953 1469.522,574.797 1547.067,574.797 
		1585.84,641.953 1547.067,709.108 	"/>
	<polygon display="inline" fill="#F39205" points="1469.522,997.731 1430.75,930.576 1469.522,863.42 1547.067,863.42 
		1585.84,930.576 1547.067,997.731 	"/>
	<polygon display="inline" fill="#F39205" points="1469.522,1152.043 1430.75,1219.199 1465.854,1280 1550.736,1280 
		1585.84,1219.199 1547.067,1152.043 	"/>
	<polygon display="inline" fill="#F39205" points="1469.522,564.797 1430.75,497.641 1469.522,430.485 1547.067,430.485 
		1585.84,497.641 1547.067,564.797 	"/>
	<polygon display="inline" fill="#F39205" points="1594.612,1213.33 1555.84,1146.174 1594.612,1079.019 1672.157,1079.019 
		1710.93,1146.174 1672.157,1213.33 	"/>
	<polygon display="inline" fill="#F39205" points="1594.612,924.707 1555.84,857.551 1594.612,790.395 1672.157,790.395 
		1710.93,857.551 1672.157,924.707 	"/>
	<polygon display="inline" fill="#F39205" points="1594.612,203.149 1555.84,135.993 1594.612,68.837 1672.157,68.837 
		1710.93,135.993 1672.157,203.149 	"/>
	<polygon display="inline" fill="#F39205" points="1594.612,347.46 1555.84,280.305 1594.612,213.148 1672.157,213.148 
		1710.93,280.305 1672.157,347.46 	"/>
	<polygon display="inline" fill="#F39205" points="1594.612,491.772 1555.84,424.616 1594.612,357.46 1672.157,357.46 
		1710.93,424.616 1672.157,491.772 	"/>
	<polygon display="inline" fill="#F39205" points="1594.612,780.396 1555.84,713.239 1594.612,646.083 1672.157,646.083 
		1710.93,713.239 1672.157,780.396 	"/>
	<polygon display="inline" fill="#F39205" points="1594.612,1069.019 1555.84,1001.862 1594.612,934.707 1672.157,934.707 
		1710.93,1001.862 1672.157,1069.019 	"/>
	<polygon display="inline" fill="#F39205" points="1594.612,1223.331 1561.894,1280 1704.876,1280 1672.157,1223.331 	"/>
	<polygon display="inline" fill="#F39205" points="1594.612,636.084 1555.84,568.928 1594.612,501.772 1672.157,501.772 
		1710.93,568.928 1672.157,636.084 	"/>
	<polygon display="inline" fill="#F39205" points="1560.643,0 1594.611,58.838 1672.156,58.838 1706.127,0 	"/>
	<polygon display="inline" fill="#F39205" points="1719.702,1142.043 1680.93,1074.888 1719.702,1007.731 1797.247,1007.731 
		1836.019,1074.888 1797.247,1142.043 	"/>
	<polygon display="inline" fill="#F39205" points="1719.702,853.42 1680.93,786.265 1719.702,719.108 1797.247,719.108 
		1836.019,786.265 1797.247,853.42 	"/>
	<polygon display="inline" fill="#F39205" points="1718.287,0 1680.929,64.706 1719.701,131.862 1797.246,131.862 1836.019,64.706 
		1798.661,0 	"/>
	<polygon display="inline" fill="#F39205" points="1719.702,276.174 1680.93,209.018 1719.702,141.862 1797.247,141.862 
		1836.019,209.018 1797.247,276.174 	"/>
	<polygon display="inline" fill="#F39205" points="1719.702,420.485 1680.93,353.33 1719.702,286.173 1797.247,286.173 
		1836.019,353.33 1797.247,420.485 	"/>
	<polygon display="inline" fill="#F39205" points="1719.702,709.108 1680.93,641.953 1719.702,574.797 1797.247,574.797 
		1836.019,641.953 1797.247,709.108 	"/>
	<polygon display="inline" fill="#F39205" points="1719.702,997.731 1680.93,930.576 1719.702,863.42 1797.247,863.42 
		1836.019,930.576 1797.247,997.731 	"/>
	<polygon display="inline" fill="#F39205" points="1719.702,1152.043 1680.929,1219.199 1716.033,1280 1800.916,1280 
		1836.019,1219.199 1797.247,1152.043 	"/>
	<polygon display="inline" fill="#F39205" points="1719.702,564.797 1680.93,497.641 1719.702,430.485 1797.247,430.485 
		1836.019,497.641 1797.247,564.797 	"/>
	<polygon display="inline" fill="#F39205" points="1844.791,1079.019 1806.02,1146.174 1844.791,1213.33 1919.999,1213.33 
		1919.999,1079.019 	"/>
	<polygon display="inline" fill="#F39205" points="1844.791,790.396 1806.02,857.551 1844.791,924.706 1919.999,924.706 
		1919.999,790.396 	"/>
	<polygon display="inline" fill="#F39205" points="1844.791,68.838 1806.02,135.993 1844.791,203.149 1919.999,203.149 
		1919.999,68.838 	"/>
	<polygon display="inline" fill="#F39205" points="1844.791,213.149 1806.02,280.305 1844.791,347.46 1919.999,347.46 
		1919.999,213.149 	"/>
	<polygon display="inline" fill="#F39205" points="1844.791,357.46 1806.02,424.616 1844.791,491.772 1919.999,491.772 
		1919.999,357.46 	"/>
	<polygon display="inline" fill="#F39205" points="1844.791,646.084 1806.02,713.239 1844.791,780.396 1919.999,780.396 
		1919.999,646.084 	"/>
	<polygon display="inline" fill="#F39205" points="1844.791,934.707 1806.02,1001.863 1844.791,1069.018 1919.999,1069.018 
		1919.999,934.707 	"/>
	<polygon display="inline" fill="#F39205" points="1844.791,1223.331 1812.073,1280 1919.999,1280 1919.999,1223.331 	"/>
	<polygon display="inline" fill="#F39205" points="1844.791,501.772 1806.02,568.928 1844.791,636.084 1919.999,636.084 
		1919.999,501.772 	"/>
	<polygon display="inline" fill="#F39205" points="1810.822,0 1844.791,58.838 1920,58.838 1920,0 	"/>
</g>
<g id="Ebene_2">
	<polygon fill="#F59C1D" points="0,1280 797.423,1280 794.536,1275 761.817,1218.331 758.931,1213.331 753.157,1213.331 
		675.612,1213.331 674.999,1213.331 636.728,1147.043 675.5,1079.888 678.387,1074.888 675.5,1069.888 636.728,1002.731 
		633.841,997.731 628.067,997.731 550.912,997.731 550.41,996.862 511.638,929.707 508.751,924.707 502.978,924.707 
		425.433,924.707 424.818,924.707 386.549,858.42 383.662,853.42 377.889,853.42 300.732,853.42 300.23,852.551 261.459,785.395 
		300.23,718.239 303.117,713.239 300.23,708.239 261.459,641.084 299.729,574.797 300.344,574.797 377.889,574.797 383.662,574.797 
		386.549,569.797 425.32,502.641 428.207,497.641 425.32,492.641 386.549,425.485 425.32,358.33 425.822,357.46 502.978,357.46 
		508.751,357.46 511.638,352.46 549.908,286.174 550.522,286.174 628.067,286.174 633.841,286.174 636.728,281.174 675.5,214.018 
		678.387,209.018 675.5,204.018 636.728,136.862 675.499,69.706 678.386,64.706 675.499,59.706 641.029,0 0,0 	"/>
	<polygon fill="#F39205" points="50.164,1142.043 11.392,1074.888 50.164,1007.731 127.709,1007.731 166.48,1074.888 
		127.709,1142.043 	"/>
	<polygon fill="#F39205" points="50.164,853.42 11.392,786.265 50.164,719.108 127.709,719.108 166.48,786.265 127.709,853.42 	"/>
	<polygon fill="#F39205" points="48.75,0 11.391,64.706 50.164,131.862 127.709,131.862 166.48,64.706 129.124,0 	"/>
	<polygon fill="#F39205" points="50.164,276.174 11.392,209.018 50.164,141.862 127.709,141.862 166.48,209.018 127.709,276.174 	
		"/>
	<polygon fill="#F39205" points="50.164,420.485 11.392,353.33 50.164,286.173 127.709,286.173 166.48,353.33 127.709,420.485 	"/>
	<polygon fill="#F39205" points="50.164,709.108 11.392,641.953 50.164,574.797 127.709,574.797 166.48,641.953 127.709,709.108 	
		"/>
	<polygon fill="#F39205" points="50.164,997.731 11.392,930.576 50.164,863.42 127.709,863.42 166.48,930.576 127.709,997.731 	"/>
	<polygon fill="#F39205" points="50.164,1152.043 11.391,1219.199 46.495,1280 131.378,1280 166.481,1219.199 127.709,1152.043 	"/>
	<polygon fill="#F39205" points="50.164,564.797 11.392,497.641 50.164,430.485 127.709,430.485 166.48,497.641 127.709,564.797 	
		"/>
	<polygon fill="#F39205" points="175.254,1213.33 136.481,1146.174 175.254,1079.019 252.799,1079.019 291.57,1146.174 
		252.799,1213.33 	"/>
	<polygon fill="#F39205" points="175.254,924.707 136.481,857.551 175.254,790.395 252.799,790.395 291.57,857.551 252.799,924.707 
			"/>
	<polygon fill="#F39205" points="175.254,203.149 136.481,135.993 175.254,68.837 252.799,68.837 291.57,135.993 252.799,203.149 	
		"/>
	<polygon fill="#F39205" points="175.254,347.46 136.481,280.305 175.254,213.148 252.799,213.148 291.57,280.305 252.799,347.46 	
		"/>
	<polygon fill="#F39205" points="175.254,491.772 136.481,424.616 175.254,357.46 252.799,357.46 291.57,424.616 252.799,491.772 	
		"/>
	<polygon fill="#F39205" points="175.254,780.396 136.481,713.239 175.254,646.083 252.799,646.083 291.57,713.239 252.799,780.396 
			"/>
	<polygon fill="#F39205" points="175.254,1069.019 136.481,1001.862 175.254,934.707 252.799,934.707 291.57,1001.862 
		252.799,1069.019 	"/>
	<polygon fill="#F39205" points="175.253,1223.331 142.535,1280 285.518,1280 252.798,1223.331 	"/>
	<polygon fill="#F39205" points="175.254,636.084 136.481,568.928 175.254,501.772 252.799,501.772 291.57,568.928 252.799,636.084 
			"/>
	<polygon fill="#F39205" points="141.284,0 175.253,58.838 252.798,58.838 286.768,0 	"/>
	<polygon fill="#F39205" points="300.344,1142.043 261.571,1074.888 300.344,1007.731 377.889,1007.731 416.66,1074.888 
		377.889,1142.043 	"/>
	<polygon fill="#F39205" points="298.929,0 261.57,64.706 300.343,131.862 377.888,131.862 416.66,64.706 379.303,0 	"/>
	<polygon fill="#F39205" points="300.344,276.174 261.571,209.018 300.344,141.862 377.889,141.862 416.66,209.018 377.889,276.174 
			"/>
	<polygon fill="#F39205" points="300.344,420.485 261.571,353.33 300.344,286.173 377.889,286.173 416.66,353.33 377.889,420.485 	
		"/>
	<polygon fill="#F39205" points="300.344,997.731 261.571,930.576 300.344,863.42 377.889,863.42 416.66,930.576 377.889,997.731 	
		"/>
	<polygon fill="#F39205" points="300.344,1152.043 261.57,1219.199 296.674,1280 381.558,1280 416.66,1219.199 377.889,1152.043 	
		"/>
	<polygon fill="#F39205" points="300.344,564.797 261.571,497.641 300.344,430.485 377.889,430.485 416.66,497.641 377.889,564.797 
			"/>
	<polygon fill="#F39205" points="425.433,1213.33 386.661,1146.174 425.433,1079.019 502.978,1079.019 541.75,1146.174 
		502.978,1213.33 	"/>
	<polygon fill="#F39205" points="425.433,203.149 386.661,135.993 425.433,68.837 502.978,68.837 541.75,135.993 502.978,203.149 	
		"/>
	<polygon fill="#F39205" points="425.433,347.46 386.661,280.305 425.433,213.148 502.978,213.148 541.75,280.305 502.978,347.46 	
		"/>
	<polygon fill="#F39205" points="425.433,1069.019 386.661,1001.862 425.433,934.707 502.978,934.707 541.75,1001.862 
		502.978,1069.019 	"/>
	<polygon fill="#F39205" points="425.433,1223.331 392.715,1280 535.696,1280 502.978,1223.331 	"/>
	<polygon fill="#F39205" points="391.463,0 425.433,58.838 502.978,58.838 536.947,0 	"/>
	<polygon fill="#F39205" points="550.522,1142.043 511.75,1074.888 550.522,1007.731 628.067,1007.731 666.84,1074.888 
		628.067,1142.043 	"/>
	<polygon fill="#F39205" points="549.108,0 511.749,64.706 550.522,131.862 628.067,131.862 666.839,64.706 629.482,0 	"/>
	<polygon fill="#F39205" points="550.522,276.174 511.75,209.018 550.522,141.862 628.067,141.862 666.84,209.018 628.067,276.174 	
		"/>
	<polygon fill="#F39205" points="550.522,1152.043 511.75,1219.199 546.854,1280 631.736,1280 666.84,1219.199 628.067,1152.043 	
		"/>
	<polygon fill="#F39205" points="675.612,1223.331 642.894,1280 785.876,1280 753.157,1223.331 	"/>
	<polygon fill="#F39205" points="0,58.838 2.443,58.838 36.414,0 0,0 	"/>
	<polygon fill="#F39205" points="2.444,1223.276 0,1223.276 0,1280 35.192,1280 	"/>
	<g>
		<polygon fill="#F39205" points="41.216,1146.121 2.444,1078.965 0,1078.965 0,1213.276 2.444,1213.276 		"/>
		<polygon fill="#F39205" points="41.216,857.498 2.444,790.342 0,790.342 0,924.653 2.444,924.653 		"/>
		<polygon fill="#F39205" points="41.216,135.939 3.858,71.233 0,71.233 0,203.096 2.443,203.096 		"/>
		<polygon fill="#F39205" points="41.216,280.251 2.444,213.095 0,213.095 0,347.407 2.444,347.407 		"/>
		<polygon fill="#F39205" points="41.216,424.563 2.444,357.407 0,357.407 0,491.719 2.444,491.719 		"/>
		<polygon fill="#F39205" points="41.216,713.187 2.444,646.03 0,646.03 0,780.342 2.444,780.342 		"/>
		<polygon fill="#F39205" points="41.216,1001.81 2.444,934.653 0,934.653 0,1068.965 2.444,1068.965 		"/>
		<polygon fill="#F39205" points="41.216,568.875 2.444,501.718 0,501.718 0,636.03 2.444,636.03 		"/>
	</g>
</g>
<g id="Ebene_3">
</g>
</svg>
