<?xml version="1.0" encoding="utf-8"?>
<!-- Generator: Adobe Illustrator 18.0.0, SVG Export Plug-In . SVG Version: 6.00 Build 0)  -->
<!DOCTYPE svg PUBLIC "-//W3C//DTD SVG 1.1//EN" "http://www.w3.org/Graphics/SVG/1.1/DTD/svg11.dtd">
<svg version="1.1" id="Ebene_1" xmlns="http://www.w3.org/2000/svg" xmlns:xlink="http://www.w3.org/1999/xlink" x="0px" y="0px"
	 viewBox="0 0 1920 1280" enable-background="new 0 0 1920 1280" xml:space="preserve">
<polygon fill="#F59C1D" points="1920,71.2 1920,58.8 1917.6,58.8 1883.6,0 1279,0 1244.5,59.7 1241.6,64.7 1244.5,69.7 
	1283.3,136.9 1244.5,204 1241.6,209 1244.5,214 1283.3,281.2 1286.2,286.2 1291.9,286.2 1369.5,286.2 1370.1,286.2 1408.4,352.5 
	1411.2,357.5 1417,357.5 1494.2,357.5 1494.7,358.3 1533.5,425.5 1494.7,492.6 1491.8,497.6 1494.7,502.6 1533.5,569.8 
	1536.3,574.8 1542.1,574.8 1619.7,574.8 1620.3,574.8 1658.5,641.1 1619.8,708.2 1616.9,713.2 1619.8,718.2 1658.5,785.4 
	1619.8,852.6 1619.3,853.4 1542.1,853.4 1536.3,853.4 1533.5,858.4 1495.2,924.7 1494.6,924.7 1417,924.7 1411.2,924.7 
	1408.4,929.7 1369.6,996.9 1369.1,997.7 1291.9,997.7 1286.2,997.7 1283.3,1002.7 1244.5,1069.9 1241.6,1074.9 1244.5,1079.9 
	1283.3,1147 1245,1213.3 1244.4,1213.3 1166.8,1213.3 1161.1,1213.3 1158.2,1218.3 1125.5,1275 1122.6,1280 1884.8,1280 
	1917.6,1223.3 1920,1223.3 1920,1213.3 1917.6,1213.3 1878.8,1146.1 1917.6,1079 1920,1079 1920,1069 1917.6,1069 1878.8,1001.8 
	1917.6,934.7 1920,934.7 1920,924.7 1917.6,924.7 1878.8,857.5 1917.6,790.3 1920,790.3 1920,780.3 1917.6,780.3 1878.8,713.2 
	1917.6,646 1920,646 1920,636 1917.6,636 1878.8,568.9 1917.6,501.7 1920,501.7 1920,491.7 1917.6,491.7 1878.8,424.6 1917.6,357.4 
	1920,357.4 1920,347.4 1917.6,347.4 1878.8,280.3 1917.6,213.1 1920,213.1 1920,203.1 1917.6,203.1 1878.8,135.9 1916.1,71.2 "/>
<g id="Ebene_1_1_" display="none">
	<polygon display="inline" fill="#F59B19" points="1.1,0 4.9,1280 1920,1280 1920,0 	"/>
	<polygon display="inline" fill="#F39205" points="0,1007.7 0,1142 46,1142 84.8,1074.9 46,1007.7 	"/>
	<polygon display="inline" fill="#F39205" points="0,719.1 0,853.4 46,853.4 84.8,786.3 46,719.1 	"/>
	<polygon display="inline" fill="#F39205" points="0,0 0,131.9 46,131.9 84.8,64.7 47.4,0 	"/>
	<polygon display="inline" fill="#F39205" points="0,141.9 0,276.2 46,276.2 84.8,209 46,141.9 	"/>
	<polygon display="inline" fill="#F39205" points="0,286.2 0,420.5 46,420.5 84.8,353.3 46,286.2 	"/>
	<polygon display="inline" fill="#F39205" points="0,574.8 0,709.1 46,709.1 84.8,642 46,574.8 	"/>
	<polygon display="inline" fill="#F39205" points="0,863.4 0,997.7 46,997.7 84.8,930.6 46,863.4 	"/>
	<polygon display="inline" fill="#F39205" points="0,1152 0,1280 49.7,1280 84.8,1219.2 46,1152 	"/>
	<polygon display="inline" fill="#F39205" points="0,430.5 0,564.8 46,564.8 84.8,497.6 46,430.5 	"/>
	<polygon display="inline" fill="#F39205" points="93.5,1213.3 54.8,1146.2 93.5,1079 171.1,1079 209.9,1146.2 171.1,1213.3 	"/>
	<polygon display="inline" fill="#F39205" points="93.5,924.7 54.8,857.6 93.5,790.4 171.1,790.4 209.9,857.6 171.1,924.7 	"/>
	<polygon display="inline" fill="#F39205" points="93.5,203.1 54.8,136 93.5,68.8 171.1,68.8 209.9,136 171.1,203.1 	"/>
	<polygon display="inline" fill="#F39205" points="93.5,347.5 54.8,280.3 93.5,213.1 171.1,213.1 209.9,280.3 171.1,347.5 	"/>
	<polygon display="inline" fill="#F39205" points="93.5,491.8 54.8,424.6 93.5,357.5 171.1,357.5 209.9,424.6 171.1,491.8 	"/>
	<polygon display="inline" fill="#F39205" points="93.5,780.4 54.8,713.2 93.5,646.1 171.1,646.1 209.9,713.2 171.1,780.4 	"/>
	<polygon display="inline" fill="#F39205" points="93.5,1069 54.8,1001.9 93.5,934.7 171.1,934.7 209.9,1001.9 171.1,1069 	"/>
	<polygon display="inline" fill="#F39205" points="93.5,1223.3 60.8,1280 203.8,1280 171.1,1223.3 	"/>
	<polygon display="inline" fill="#F39205" points="93.5,636.1 54.8,568.9 93.5,501.8 171.1,501.8 209.9,568.9 171.1,636.1 	"/>
	<polygon display="inline" fill="#F39205" points="59.6,0 93.5,58.8 171.1,58.8 205.1,0 	"/>
	<polygon display="inline" fill="#F39205" points="218.6,1142 179.9,1074.9 218.6,1007.7 296.2,1007.7 334.9,1074.9 296.2,1142 	"/>
	<polygon display="inline" fill="#F39205" points="218.6,853.4 179.9,786.3 218.6,719.1 296.2,719.1 334.9,786.3 296.2,853.4 	"/>
	<polygon display="inline" fill="#F39205" points="217.2,0 179.9,64.7 218.6,131.9 296.2,131.9 334.9,64.7 297.6,0 	"/>
	<polygon display="inline" fill="#F39205" points="218.6,276.2 179.9,209 218.6,141.9 296.2,141.9 334.9,209 296.2,276.2 	"/>
	<polygon display="inline" fill="#F39205" points="218.6,420.5 179.9,353.3 218.6,286.2 296.2,286.2 334.9,353.3 296.2,420.5 	"/>
	<polygon display="inline" fill="#F39205" points="218.6,709.1 179.9,642 218.6,574.8 296.2,574.8 334.9,642 296.2,709.1 	"/>
	<polygon display="inline" fill="#F39205" points="218.6,997.7 179.9,930.6 218.6,863.4 296.2,863.4 334.9,930.6 296.2,997.7 	"/>
	<polygon display="inline" fill="#F39205" points="218.6,1152 179.9,1219.2 215,1280 299.8,1280 334.9,1219.2 296.2,1152 	"/>
	<polygon display="inline" fill="#F39205" points="218.6,564.8 179.9,497.6 218.6,430.5 296.2,430.5 334.9,497.6 296.2,564.8 	"/>
	<polygon display="inline" fill="#F39205" points="343.7,1213.3 304.9,1146.2 343.7,1079 421.3,1079 460,1146.2 421.3,1213.3 	"/>
	<polygon display="inline" fill="#F39205" points="343.7,924.7 304.9,857.6 343.7,790.4 421.3,790.4 460,857.6 421.3,924.7 	"/>
	<polygon display="inline" fill="#F39205" points="343.7,203.1 304.9,136 343.7,68.8 421.3,68.8 460,136 421.3,203.1 	"/>
	<polygon display="inline" fill="#F39205" points="343.7,347.5 304.9,280.3 343.7,213.1 421.3,213.1 460,280.3 421.3,347.5 	"/>
	<polygon display="inline" fill="#F39205" points="343.7,491.8 304.9,424.6 343.7,357.5 421.3,357.5 460,424.6 421.3,491.8 	"/>
	<polygon display="inline" fill="#F39205" points="343.7,780.4 304.9,713.2 343.7,646.1 421.3,646.1 460,713.2 421.3,780.4 	"/>
	<polygon display="inline" fill="#F39205" points="343.7,1069 304.9,1001.9 343.7,934.7 421.3,934.7 460,1001.9 421.3,1069 	"/>
	<polygon display="inline" fill="#F39205" points="343.7,1223.3 311,1280 454,1280 421.3,1223.3 	"/>
	<polygon display="inline" fill="#F39205" points="343.7,636.1 304.9,568.9 343.7,501.8 421.3,501.8 460,568.9 421.3,636.1 	"/>
	<polygon display="inline" fill="#F39205" points="309.7,0 343.7,58.8 421.3,58.8 455.2,0 	"/>
	<polygon display="inline" fill="#F39205" points="468.8,1142 430,1074.9 468.8,1007.7 546.3,1007.7 585.1,1074.9 546.3,1142 	"/>
	<polygon display="inline" fill="#F39205" points="468.8,853.4 430,786.3 468.8,719.1 546.3,719.1 585.1,786.3 546.3,853.4 	"/>
	<polygon display="inline" fill="#F39205" points="467.4,0 430,64.7 468.8,131.9 546.3,131.9 585.1,64.7 547.8,0 	"/>
	<polygon display="inline" fill="#F39205" points="468.8,276.2 430,209 468.8,141.9 546.3,141.9 585.1,209 546.3,276.2 	"/>
	<polygon display="inline" fill="#F39205" points="468.8,420.5 430,353.3 468.8,286.2 546.3,286.2 585.1,353.3 546.3,420.5 	"/>
	<polygon display="inline" fill="#F39205" points="468.8,709.1 430,642 468.8,574.8 546.3,574.8 585.1,642 546.3,709.1 	"/>
	<polygon display="inline" fill="#F39205" points="468.8,997.7 430,930.6 468.8,863.4 546.3,863.4 585.1,930.6 546.3,997.7 	"/>
	<polygon display="inline" fill="#F39205" points="468.8,1152 430,1219.2 465.1,1280 550,1280 585.1,1219.2 546.4,1152 	"/>
	<polygon display="inline" fill="#F39205" points="468.8,564.8 430,497.6 468.8,430.5 546.3,430.5 585.1,497.6 546.3,564.8 	"/>
	<polygon display="inline" fill="#F39205" points="593.9,1213.3 555.1,1146.2 593.9,1079 671.4,1079 710.2,1146.2 671.4,1213.3 	"/>
	<polygon display="inline" fill="#F39205" points="593.9,924.7 555.1,857.6 593.9,790.4 671.4,790.4 710.2,857.6 671.4,924.7 	"/>
	<polygon display="inline" fill="#F39205" points="593.9,203.1 555.1,136 593.9,68.8 671.4,68.8 710.2,136 671.4,203.1 	"/>
	<polygon display="inline" fill="#F39205" points="593.9,347.5 555.1,280.3 593.9,213.1 671.4,213.1 710.2,280.3 671.4,347.5 	"/>
	<polygon display="inline" fill="#F39205" points="593.9,491.8 555.1,424.6 593.9,357.5 671.4,357.5 710.2,424.6 671.4,491.8 	"/>
	<polygon display="inline" fill="#F39205" points="593.9,780.4 555.1,713.2 593.9,646.1 671.4,646.1 710.2,713.2 671.4,780.4 	"/>
	<polygon display="inline" fill="#F39205" points="593.9,1069 555.1,1001.9 593.9,934.7 671.4,934.7 710.2,1001.9 671.4,1069 	"/>
	<polygon display="inline" fill="#F39205" points="593.9,1223.3 561.2,1280 704.2,1280 671.4,1223.3 	"/>
	<polygon display="inline" fill="#F39205" points="593.9,636.1 555.1,568.9 593.9,501.8 671.4,501.8 710.2,568.9 671.4,636.1 	"/>
	<polygon display="inline" fill="#F39205" points="559.9,0 593.9,58.8 671.4,58.8 705.4,0 	"/>
	<polygon display="inline" fill="#F39205" points="719,1142 680.2,1074.9 719,1007.7 796.5,1007.7 835.3,1074.9 796.5,1142 	"/>
	<polygon display="inline" fill="#F39205" points="719,853.4 680.2,786.3 719,719.1 796.5,719.1 835.3,786.3 796.5,853.4 	"/>
	<polygon display="inline" fill="#F39205" points="717.6,0 680.2,64.7 719,131.9 796.5,131.9 835.3,64.7 797.9,0 	"/>
	<polygon display="inline" fill="#F39205" points="719,276.2 680.2,209 719,141.9 796.5,141.9 835.3,209 796.5,276.2 	"/>
	<polygon display="inline" fill="#F39205" points="719,420.5 680.2,353.3 719,286.2 796.5,286.2 835.3,353.3 796.5,420.5 	"/>
	<polygon display="inline" fill="#F39205" points="719,709.1 680.2,642 719,574.8 796.5,574.8 835.3,642 796.5,709.1 	"/>
	<polygon display="inline" fill="#F39205" points="719,997.7 680.2,930.6 719,863.4 796.5,863.4 835.3,930.6 796.5,997.7 	"/>
	<polygon display="inline" fill="#F39205" points="719,1152 680.2,1219.2 715.3,1280 800.2,1280 835.3,1219.2 796.5,1152 	"/>
	<polygon display="inline" fill="#F39205" points="719,564.8 680.2,497.6 719,430.5 796.5,430.5 835.3,497.6 796.5,564.8 	"/>
	<polygon display="inline" fill="#F39205" points="844.1,1213.3 805.3,1146.2 844.1,1079 921.6,1079 960.4,1146.2 921.6,1213.3 	"/>
	<polygon display="inline" fill="#F39205" points="844.1,924.7 805.3,857.6 844.1,790.4 921.6,790.4 960.4,857.6 921.6,924.7 	"/>
	<polygon display="inline" fill="#F39205" points="844.1,203.1 805.3,136 844.1,68.8 921.6,68.8 960.4,136 921.6,203.1 	"/>
	<polygon display="inline" fill="#F39205" points="844.1,347.5 805.3,280.3 844.1,213.1 921.6,213.1 960.4,280.3 921.6,347.5 	"/>
	<polygon display="inline" fill="#F39205" points="844.1,491.8 805.3,424.6 844.1,357.5 921.6,357.5 960.4,424.6 921.6,491.8 	"/>
	<polygon display="inline" fill="#F39205" points="844.1,780.4 805.3,713.2 844.1,646.1 921.6,646.1 960.4,713.2 921.6,780.4 	"/>
	<polygon display="inline" fill="#F39205" points="844.1,1069 805.3,1001.9 844.1,934.7 921.6,934.7 960.4,1001.9 921.6,1069 	"/>
	<polygon display="inline" fill="#F39205" points="844.1,1223.3 811.4,1280 954.3,1280 921.6,1223.3 	"/>
	<polygon display="inline" fill="#F39205" points="844.1,636.1 805.3,568.9 844.1,501.8 921.6,501.8 960.4,568.9 921.6,636.1 	"/>
	<polygon display="inline" fill="#F39205" points="810.1,0 844.1,58.8 921.6,58.8 955.6,0 	"/>
	<polygon display="inline" fill="#F39205" points="969.2,1142 930.4,1074.9 969.2,1007.7 1046.7,1007.7 1085.5,1074.9 1046.7,1142 	
		"/>
	<polygon display="inline" fill="#F39205" points="969.2,853.4 930.4,786.3 969.2,719.1 1046.7,719.1 1085.5,786.3 1046.7,853.4 	
		"/>
	<polygon display="inline" fill="#F39205" points="967.8,0 930.4,64.7 969.2,131.9 1046.7,131.9 1085.5,64.7 1048.1,0 	"/>
	<polygon display="inline" fill="#F39205" points="969.2,276.2 930.4,209 969.2,141.9 1046.7,141.9 1085.5,209 1046.7,276.2 	"/>
	<polygon display="inline" fill="#F39205" points="969.2,420.5 930.4,353.3 969.2,286.2 1046.7,286.2 1085.5,353.3 1046.7,420.5 	
		"/>
	<polygon display="inline" fill="#F39205" points="969.2,709.1 930.4,642 969.2,574.8 1046.7,574.8 1085.5,642 1046.7,709.1 	"/>
	<polygon display="inline" fill="#F39205" points="969.2,997.7 930.4,930.6 969.2,863.4 1046.7,863.4 1085.5,930.6 1046.7,997.7 	
		"/>
	<polygon display="inline" fill="#F39205" points="969.2,1152 930.4,1219.2 965.5,1280 1050.4,1280 1085.5,1219.2 1046.7,1152 	"/>
	<polygon display="inline" fill="#F39205" points="969.2,564.8 930.4,497.6 969.2,430.5 1046.7,430.5 1085.5,497.6 1046.7,564.8 	
		"/>
	<polygon display="inline" fill="#F39205" points="1094.3,1213.3 1055.5,1146.2 1094.3,1079 1171.8,1079 1210.6,1146.2 
		1171.8,1213.3 	"/>
	<polygon display="inline" fill="#F39205" points="1094.3,924.7 1055.5,857.6 1094.3,790.4 1171.8,790.4 1210.6,857.6 1171.8,924.7 
			"/>
	<polygon display="inline" fill="#F39205" points="1094.3,203.1 1055.5,136 1094.3,68.8 1171.8,68.8 1210.6,136 1171.8,203.1 	"/>
	<polygon display="inline" fill="#F39205" points="1094.3,347.5 1055.5,280.3 1094.3,213.1 1171.8,213.1 1210.6,280.3 1171.8,347.5 
			"/>
	<polygon display="inline" fill="#F39205" points="1094.3,491.8 1055.5,424.6 1094.3,357.5 1171.8,357.5 1210.6,424.6 1171.8,491.8 
			"/>
	<polygon display="inline" fill="#F39205" points="1094.3,780.4 1055.5,713.2 1094.3,646.1 1171.8,646.1 1210.6,713.2 1171.8,780.4 
			"/>
	<polygon display="inline" fill="#F39205" points="1094.3,1069 1055.5,1001.9 1094.3,934.7 1171.8,934.7 1210.6,1001.9 1171.8,1069 
			"/>
	<polygon display="inline" fill="#F39205" points="1094.3,1223.3 1061.5,1280 1204.5,1280 1171.8,1223.3 	"/>
	<polygon display="inline" fill="#F39205" points="1094.3,636.1 1055.5,568.9 1094.3,501.8 1171.8,501.8 1210.6,568.9 1171.8,636.1 
			"/>
	<polygon display="inline" fill="#F39205" points="1060.3,0 1094.3,58.8 1171.8,58.8 1205.8,0 	"/>
	<polygon display="inline" fill="#F39205" points="1219.3,1142 1180.6,1074.9 1219.3,1007.7 1296.9,1007.7 1335.7,1074.9 
		1296.9,1142 	"/>
	<polygon display="inline" fill="#F39205" points="1219.3,853.4 1180.6,786.3 1219.3,719.1 1296.9,719.1 1335.7,786.3 1296.9,853.4 
			"/>
	<polygon display="inline" fill="#F39205" points="1217.9,0 1180.6,64.7 1219.3,131.9 1296.9,131.9 1335.7,64.7 1298.3,0 	"/>
	<polygon display="inline" fill="#F39205" points="1219.3,276.2 1180.6,209 1219.3,141.9 1296.9,141.9 1335.7,209 1296.9,276.2 	"/>
	<polygon display="inline" fill="#F39205" points="1219.3,420.5 1180.6,353.3 1219.3,286.2 1296.9,286.2 1335.7,353.3 1296.9,420.5 
			"/>
	<polygon display="inline" fill="#F39205" points="1219.3,709.1 1180.6,642 1219.3,574.8 1296.9,574.8 1335.7,642 1296.9,709.1 	"/>
	<polygon display="inline" fill="#F39205" points="1219.3,997.7 1180.6,930.6 1219.3,863.4 1296.9,863.4 1335.7,930.6 1296.9,997.7 
			"/>
	<polygon display="inline" fill="#F39205" points="1219.3,1152 1180.6,1219.2 1215.7,1280 1300.6,1280 1335.7,1219.2 1296.9,1152 	
		"/>
	<polygon display="inline" fill="#F39205" points="1219.3,564.8 1180.6,497.6 1219.3,430.5 1296.9,430.5 1335.7,497.6 1296.9,564.8 
			"/>
	<polygon display="inline" fill="#F39205" points="1344.4,1213.3 1305.7,1146.2 1344.4,1079 1422,1079 1460.8,1146.2 1422,1213.3 	
		"/>
	<polygon display="inline" fill="#F39205" points="1344.4,924.7 1305.7,857.6 1344.4,790.4 1422,790.4 1460.8,857.6 1422,924.7 	"/>
	<polygon display="inline" fill="#F39205" points="1344.4,203.1 1305.7,136 1344.4,68.8 1422,68.8 1460.8,136 1422,203.1 	"/>
	<polygon display="inline" fill="#F39205" points="1344.4,347.5 1305.7,280.3 1344.4,213.1 1422,213.1 1460.8,280.3 1422,347.5 	"/>
	<polygon display="inline" fill="#F39205" points="1344.4,491.8 1305.7,424.6 1344.4,357.5 1422,357.5 1460.8,424.6 1422,491.8 	"/>
	<polygon display="inline" fill="#F39205" points="1344.4,780.4 1305.7,713.2 1344.4,646.1 1422,646.1 1460.8,713.2 1422,780.4 	"/>
	<polygon display="inline" fill="#F39205" points="1344.4,1069 1305.7,1001.9 1344.4,934.7 1422,934.7 1460.8,1001.9 1422,1069 	"/>
	<polygon display="inline" fill="#F39205" points="1344.4,1223.3 1311.7,1280 1454.7,1280 1422,1223.3 	"/>
	<polygon display="inline" fill="#F39205" points="1344.4,636.1 1305.7,568.9 1344.4,501.8 1422,501.8 1460.8,568.9 1422,636.1 	"/>
	<polygon display="inline" fill="#F39205" points="1310.5,0 1344.4,58.8 1422,58.8 1455.9,0 	"/>
	<polygon display="inline" fill="#F39205" points="1469.5,1142 1430.8,1074.9 1469.5,1007.7 1547.1,1007.7 1585.8,1074.9 
		1547.1,1142 	"/>
	<polygon display="inline" fill="#F39205" points="1469.5,853.4 1430.8,786.3 1469.5,719.1 1547.1,719.1 1585.8,786.3 1547.1,853.4 
			"/>
	<polygon display="inline" fill="#F39205" points="1468.1,0 1430.7,64.7 1469.5,131.9 1547.1,131.9 1585.8,64.7 1548.5,0 	"/>
	<polygon display="inline" fill="#F39205" points="1469.5,276.2 1430.8,209 1469.5,141.9 1547.1,141.9 1585.8,209 1547.1,276.2 	"/>
	<polygon display="inline" fill="#F39205" points="1469.5,420.5 1430.8,353.3 1469.5,286.2 1547.1,286.2 1585.8,353.3 1547.1,420.5 
			"/>
	<polygon display="inline" fill="#F39205" points="1469.5,709.1 1430.8,642 1469.5,574.8 1547.1,574.8 1585.8,642 1547.1,709.1 	"/>
	<polygon display="inline" fill="#F39205" points="1469.5,997.7 1430.8,930.6 1469.5,863.4 1547.1,863.4 1585.8,930.6 1547.1,997.7 
			"/>
	<polygon display="inline" fill="#F39205" points="1469.5,1152 1430.8,1219.2 1465.9,1280 1550.7,1280 1585.8,1219.2 1547.1,1152 	
		"/>
	<polygon display="inline" fill="#F39205" points="1469.5,564.8 1430.8,497.6 1469.5,430.5 1547.1,430.5 1585.8,497.6 1547.1,564.8 
			"/>
	<polygon display="inline" fill="#F39205" points="1594.6,1213.3 1555.8,1146.2 1594.6,1079 1672.2,1079 1710.9,1146.2 
		1672.2,1213.3 	"/>
	<polygon display="inline" fill="#F39205" points="1594.6,924.7 1555.8,857.6 1594.6,790.4 1672.2,790.4 1710.9,857.6 1672.2,924.7 
			"/>
	<polygon display="inline" fill="#F39205" points="1594.6,203.1 1555.8,136 1594.6,68.8 1672.2,68.8 1710.9,136 1672.2,203.1 	"/>
	<polygon display="inline" fill="#F39205" points="1594.6,347.5 1555.8,280.3 1594.6,213.1 1672.2,213.1 1710.9,280.3 1672.2,347.5 
			"/>
	<polygon display="inline" fill="#F39205" points="1594.6,491.8 1555.8,424.6 1594.6,357.5 1672.2,357.5 1710.9,424.6 1672.2,491.8 
			"/>
	<polygon display="inline" fill="#F39205" points="1594.6,780.4 1555.8,713.2 1594.6,646.1 1672.2,646.1 1710.9,713.2 1672.2,780.4 
			"/>
	<polygon display="inline" fill="#F39205" points="1594.6,1069 1555.8,1001.9 1594.6,934.7 1672.2,934.7 1710.9,1001.9 1672.2,1069 
			"/>
	<polygon display="inline" fill="#F39205" points="1594.6,1223.3 1561.9,1280 1704.9,1280 1672.2,1223.3 	"/>
	<polygon display="inline" fill="#F39205" points="1594.6,636.1 1555.8,568.9 1594.6,501.8 1672.2,501.8 1710.9,568.9 1672.2,636.1 
			"/>
	<polygon display="inline" fill="#F39205" points="1560.6,0 1594.6,58.8 1672.2,58.8 1706.1,0 	"/>
	<polygon display="inline" fill="#F39205" points="1719.7,1142 1680.9,1074.9 1719.7,1007.7 1797.2,1007.7 1836,1074.9 1797.2,1142 
			"/>
	<polygon display="inline" fill="#F39205" points="1719.7,853.4 1680.9,786.3 1719.7,719.1 1797.2,719.1 1836,786.3 1797.2,853.4 	
		"/>
	<polygon display="inline" fill="#F39205" points="1718.3,0 1680.9,64.7 1719.7,131.9 1797.2,131.9 1836,64.7 1798.7,0 	"/>
	<polygon display="inline" fill="#F39205" points="1719.7,276.2 1680.9,209 1719.7,141.9 1797.2,141.9 1836,209 1797.2,276.2 	"/>
	<polygon display="inline" fill="#F39205" points="1719.7,420.5 1680.9,353.3 1719.7,286.2 1797.2,286.2 1836,353.3 1797.2,420.5 	
		"/>
	<polygon display="inline" fill="#F39205" points="1719.7,709.1 1680.9,642 1719.7,574.8 1797.2,574.8 1836,642 1797.2,709.1 	"/>
	<polygon display="inline" fill="#F39205" points="1719.7,997.7 1680.9,930.6 1719.7,863.4 1797.2,863.4 1836,930.6 1797.2,997.7 	
		"/>
	<polygon display="inline" fill="#F39205" points="1719.7,1152 1680.9,1219.2 1716,1280 1800.9,1280 1836,1219.2 1797.2,1152 	"/>
	<polygon display="inline" fill="#F39205" points="1719.7,564.8 1680.9,497.6 1719.7,430.5 1797.2,430.5 1836,497.6 1797.2,564.8 	
		"/>
	<polygon display="inline" fill="#F39205" points="1844.8,1079 1806,1146.2 1844.8,1213.3 1920,1213.3 1920,1079 	"/>
	<polygon display="inline" fill="#F39205" points="1844.8,790.4 1806,857.6 1844.8,924.7 1920,924.7 1920,790.4 	"/>
	<polygon display="inline" fill="#F39205" points="1844.8,68.8 1806,136 1844.8,203.1 1920,203.1 1920,68.8 	"/>
	<polygon display="inline" fill="#F39205" points="1844.8,213.1 1806,280.3 1844.8,347.5 1920,347.5 1920,213.1 	"/>
	<polygon display="inline" fill="#F39205" points="1844.8,357.5 1806,424.6 1844.8,491.8 1920,491.8 1920,357.5 	"/>
	<polygon display="inline" fill="#F39205" points="1844.8,646.1 1806,713.2 1844.8,780.4 1920,780.4 1920,646.1 	"/>
	<polygon display="inline" fill="#F39205" points="1844.8,934.7 1806,1001.9 1844.8,1069 1920,1069 1920,934.7 	"/>
	<polygon display="inline" fill="#F39205" points="1844.8,1223.3 1812.1,1280 1920,1280 1920,1223.3 	"/>
	<polygon display="inline" fill="#F39205" points="1844.8,501.8 1806,568.9 1844.8,636.1 1920,636.1 1920,501.8 	"/>
	<polygon display="inline" fill="#F39205" points="1810.8,0 1844.8,58.8 1920,58.8 1920,0 	"/>
</g>
<polygon fill="#F39205" points="1792.3,1142 1753.5,1074.9 1792.3,1007.7 1869.8,1007.7 1908.6,1074.9 1869.8,1142 "/>
<polygon fill="#F39205" points="1792.3,853.4 1753.5,786.3 1792.3,719.1 1869.8,719.1 1908.6,786.3 1869.8,853.4 "/>
<polygon fill="#F39205" points="1790.9,0 1753.5,64.7 1792.3,131.9 1869.8,131.9 1908.6,64.7 1871.3,0 "/>
<polygon fill="#F39205" points="1792.3,276.2 1753.5,209 1792.3,141.9 1869.8,141.9 1908.6,209 1869.8,276.2 "/>
<polygon fill="#F39205" points="1792.3,420.5 1753.5,353.3 1792.3,286.2 1869.8,286.2 1908.6,353.3 1869.8,420.5 "/>
<polygon fill="#F39205" points="1792.3,709.1 1753.5,642 1792.3,574.8 1869.8,574.8 1908.6,642 1869.8,709.1 "/>
<polygon fill="#F39205" points="1792.3,997.7 1753.5,930.6 1792.3,863.4 1869.8,863.4 1908.6,930.6 1869.8,997.7 "/>
<polygon fill="#F39205" points="1792.3,1152 1753.5,1219.2 1788.6,1280 1873.5,1280 1908.6,1219.2 1869.8,1152 "/>
<polygon fill="#F39205" points="1792.3,564.8 1753.5,497.6 1792.3,430.5 1869.8,430.5 1908.6,497.6 1869.8,564.8 "/>
<polygon fill="#F39205" points="1667.2,1213.3 1628.4,1146.2 1667.2,1079 1744.7,1079 1783.5,1146.2 1744.7,1213.3 "/>
<polygon fill="#F39205" points="1667.2,924.7 1628.4,857.6 1667.2,790.4 1744.7,790.4 1783.5,857.6 1744.7,924.7 "/>
<polygon fill="#F39205" points="1667.2,203.1 1628.4,136 1667.2,68.8 1744.7,68.8 1783.5,136 1744.7,203.1 "/>
<polygon fill="#F39205" points="1667.2,347.5 1628.4,280.3 1667.2,213.1 1744.7,213.1 1783.5,280.3 1744.7,347.5 "/>
<polygon fill="#F39205" points="1667.2,491.8 1628.4,424.6 1667.2,357.5 1744.7,357.5 1783.5,424.6 1744.7,491.8 "/>
<polygon fill="#F39205" points="1667.2,780.4 1628.4,713.2 1667.2,646.1 1744.7,646.1 1783.5,713.2 1744.7,780.4 "/>
<polygon fill="#F39205" points="1667.2,1069 1628.4,1001.9 1667.2,934.7 1744.7,934.7 1783.5,1001.9 1744.7,1069 "/>
<polygon fill="#F39205" points="1667.2,1223.3 1634.5,1280 1777.5,1280 1744.7,1223.3 "/>
<polygon fill="#F39205" points="1667.2,636.1 1628.4,568.9 1667.2,501.8 1744.7,501.8 1783.5,568.9 1744.7,636.1 "/>
<polygon fill="#F39205" points="1633.2,0 1667.2,58.8 1744.7,58.8 1778.7,0 "/>
<polygon fill="#F39205" points="1542.1,1142 1503.3,1074.9 1542.1,1007.7 1619.7,1007.7 1658.4,1074.9 1619.7,1142 "/>
<polygon fill="#F39205" points="1540.7,0 1503.3,64.7 1542.1,131.9 1619.7,131.9 1658.4,64.7 1621.1,0 "/>
<polygon fill="#F39205" points="1542.1,276.2 1503.3,209 1542.1,141.9 1619.7,141.9 1658.4,209 1619.7,276.2 "/>
<polygon fill="#F39205" points="1542.1,420.5 1503.3,353.3 1542.1,286.2 1619.7,286.2 1658.4,353.3 1619.7,420.5 "/>
<polygon fill="#F39205" points="1542.1,997.7 1503.3,930.6 1542.1,863.4 1619.7,863.4 1658.4,930.6 1619.7,997.7 "/>
<polygon fill="#F39205" points="1542.1,1152 1503.3,1219.2 1538.4,1280 1623.3,1280 1658.4,1219.2 1619.7,1152 "/>
<polygon fill="#F39205" points="1542.1,564.8 1503.3,497.6 1542.1,430.5 1619.7,430.5 1658.4,497.6 1619.7,564.8 "/>
<polygon fill="#F39205" points="1417,1213.3 1378.3,1146.2 1417,1079 1494.6,1079 1533.3,1146.2 1494.6,1213.3 "/>
<polygon fill="#F39205" points="1417,203.1 1378.3,136 1417,68.8 1494.6,68.8 1533.3,136 1494.6,203.1 "/>
<polygon fill="#F39205" points="1417,347.5 1378.3,280.3 1417,213.1 1494.6,213.1 1533.3,280.3 1494.6,347.5 "/>
<polygon fill="#F39205" points="1417,1069 1378.3,1001.9 1417,934.7 1494.6,934.7 1533.3,1001.9 1494.6,1069 "/>
<polygon fill="#F39205" points="1417,1223.3 1384.3,1280 1527.3,1280 1494.6,1223.3 "/>
<polygon fill="#F39205" points="1383.1,0 1417,58.8 1494.6,58.8 1528.5,0 "/>
<polygon fill="#F39205" points="1291.9,1142 1253.2,1074.9 1291.9,1007.7 1369.5,1007.7 1408.3,1074.9 1369.5,1142 "/>
<polygon fill="#F39205" points="1290.5,0 1253.2,64.7 1291.9,131.9 1369.5,131.9 1408.3,64.7 1370.9,0 "/>
<polygon fill="#F39205" points="1291.9,276.2 1253.2,209 1291.9,141.9 1369.5,141.9 1408.3,209 1369.5,276.2 "/>
<polygon fill="#F39205" points="1291.9,1152 1253.2,1219.2 1288.3,1280 1373.1,1280 1408.3,1219.2 1369.5,1152 "/>
<polygon fill="#F39205" points="1166.8,1223.3 1134.1,1280 1277.1,1280 1244.4,1223.3 "/>
<g id="Ebene_3">
</g>
<path fill="#F38200" d="M1571.2,1057.3c0,0,9.3,9.6,5.7,15.1c-3.4,3.7-7.2,9.5-7.2,15.2c0.8,11.6,12.4,7.1,13.4,5.4
	c1-1.7,7.9-10.2,0.8-30.1c-2.6-7.4,21.6-19.2,20.4-21.5L1571.2,1057.3z"/>
<polygon fill="#F59B19" points="1633.3,1022.9 1617.3,1050.9 1604.3,1031.9 1570.3,1057.9 1602.3,1042.9 1623.3,1066.9 
	1642.3,1037.9 "/>
<polygon fill="#F59B19" points="1452.6,208 1430.8,276.5 1467.2,269.2 1432.2,326 1473,308.5 1458.5,304.1 1483.2,261.9 
	1451.2,260.4 1459.9,210.9 "/>
<polygon fill="#F59B19" points="1639.8,590.2 1652,559.7 1678.1,588.8 1681.2,536.4 1754.8,583 1693.4,555.3 1682.7,619.4 
	1656.6,590.2 1656.6,619.4 "/>
</svg>
